G04 Layer: TopSolderMaskLayer*
G04 EasyEDA v6.5.42, 2024-04-14 08:23:14*
G04 1f246623a6ee484286f43004a0b8c205,edc686363fba4cf3ab42fed1df3dfb96,10*
G04 Gerber Generator version 0.2*
G04 Scale: 100 percent, Rotated: No, Reflected: No *
G04 Dimensions in millimeters *
G04 leading zeros omitted , absolute positions ,4 integer and 5 decimal *
%FSLAX45Y45*%
%MOMM*%

%AMMACRO1*1,1,$1,$2,$3*1,1,$1,$4,$5*1,1,$1,0-$2,0-$3*1,1,$1,0-$4,0-$5*20,1,$1,$2,$3,$4,$5,0*20,1,$1,$4,$5,0-$2,0-$3,0*20,1,$1,0-$2,0-$3,0-$4,0-$5,0*20,1,$1,0-$4,0-$5,$2,$3,0*4,1,4,$2,$3,$4,$5,0-$2,0-$3,0-$4,0-$5,$2,$3,0*%
%ADD10C,1.8016*%
%ADD11MACRO1,0.1X-0.85X0.85X0.85X0.85*%
%ADD12C,1.8000*%
%ADD13MACRO1,0.1016X-0.6038X-0.8505X-0.6038X0.8505*%
%ADD14MACRO1,0.1016X0.6038X-0.8505X0.6038X0.8505*%
%ADD15MACRO1,0.1016X0.6038X0.8505X0.6038X-0.8505*%
%ADD16MACRO1,0.1016X-0.6038X0.8505X-0.6038X-0.8505*%
%ADD17MACRO1,0.1016X-0.4001X-0.7493X-0.4001X0.7493*%
%ADD18R,0.9016X1.6016*%
%ADD19MACRO1,0.1016X0.4X0.7493X0.4X-0.7493*%
%ADD20MACRO1,0.1016X0.4X0.7501X0.4X-0.7501*%

%LPD*%
D10*
G01*
X2540000Y9143974D03*
G01*
X2794000Y9143974D03*
G01*
X2032000Y9143974D03*
G01*
X2286000Y9143974D03*
G01*
X1016000Y9143974D03*
G01*
X1270000Y9143974D03*
G01*
X1524000Y9143974D03*
G01*
X1778000Y9143974D03*
G01*
X2794000Y7111974D03*
G01*
X2540000Y7111974D03*
D11*
G01*
X1015997Y7111984D03*
D12*
G01*
X1270000Y7111974D03*
G01*
X1524000Y7111974D03*
G01*
X1778000Y7111974D03*
D13*
G01*
X2814871Y7492984D03*
D14*
G01*
X2519118Y7492984D03*
D13*
G01*
X2814871Y8762982D03*
D14*
G01*
X2519118Y8762982D03*
D15*
G01*
X2011118Y7492984D03*
D16*
G01*
X2306871Y7492984D03*
D13*
G01*
X1290873Y8762982D03*
D14*
G01*
X995121Y8762982D03*
D13*
G01*
X1798873Y7492984D03*
D14*
G01*
X1503121Y7492984D03*
D13*
G01*
X1290873Y7492984D03*
D14*
G01*
X995121Y7492984D03*
D17*
G01*
X1016060Y8467984D03*
G01*
X1270060Y8467984D03*
G01*
X1270060Y7787985D03*
D18*
G01*
X1015923Y7787995D03*
D17*
G01*
X1524060Y8467984D03*
G01*
X1778060Y8467984D03*
G01*
X1778060Y7787985D03*
D18*
G01*
X1523923Y7787995D03*
D19*
G01*
X2285931Y7787985D03*
G01*
X2031931Y7787985D03*
G01*
X2031931Y8467984D03*
D20*
G01*
X2286058Y8467984D03*
D19*
G01*
X2793931Y7787985D03*
G01*
X2539931Y7787985D03*
G01*
X2539931Y8467984D03*
D20*
G01*
X2794058Y8467984D03*
M02*
