G04 Layer: TopLayer*
G04 EasyEDA v6.5.42, 2024-04-14 08:23:14*
G04 1f246623a6ee484286f43004a0b8c205,edc686363fba4cf3ab42fed1df3dfb96,10*
G04 Gerber Generator version 0.2*
G04 Scale: 100 percent, Rotated: No, Reflected: No *
G04 Dimensions in millimeters *
G04 leading zeros omitted , absolute positions ,4 integer and 5 decimal *
%FSLAX45Y45*%
%MOMM*%

%AMMACRO1*21,1,$1,$2,0,0,$3*%
%ADD10C,0.5080*%
%ADD11MACRO1,1.701X1.2075X90.0000*%
%ADD12MACRO1,1.701X1.2075X-90.0000*%
%ADD13MACRO1,1.4986X0.8001X90.0000*%
%ADD14R,0.8000X1.5000*%
%ADD15MACRO1,1.4986X0.8001X-90.0000*%
%ADD16C,1.7000*%
%ADD17R,1.7000X1.7000*%
%ADD18C,0.6100*%
%ADD19C,0.0164*%

%LPD*%
G36*
X1394866Y7174534D02*
G01*
X1391005Y7176211D01*
X1388211Y7179360D01*
X1383842Y7186879D01*
X1374394Y7199579D01*
X1363522Y7211110D01*
X1351381Y7221321D01*
X1338122Y7230008D01*
X1324000Y7237120D01*
X1309065Y7242556D01*
X1293672Y7246213D01*
X1277924Y7248042D01*
X1262075Y7248042D01*
X1246327Y7246213D01*
X1230884Y7242556D01*
X1215999Y7237120D01*
X1201877Y7230008D01*
X1188618Y7221321D01*
X1176477Y7211110D01*
X1168400Y7202576D01*
X1164894Y7200138D01*
X1160678Y7199375D01*
X1156512Y7200442D01*
X1153160Y7203135D01*
X1151229Y7206945D01*
X1149197Y7214514D01*
X1145387Y7222642D01*
X1140256Y7229957D01*
X1133957Y7236256D01*
X1126642Y7241387D01*
X1118514Y7245146D01*
X1109878Y7247483D01*
X1102004Y7248144D01*
X1098397Y7249159D01*
X1095400Y7251446D01*
X1093419Y7254595D01*
X1092708Y7258303D01*
X1092708Y7273036D01*
X1092504Y7278928D01*
X1091844Y7284669D01*
X1090777Y7290308D01*
X1089304Y7295845D01*
X1087374Y7301230D01*
X1085088Y7306513D01*
X1082446Y7311593D01*
X1079398Y7316419D01*
X1075944Y7321042D01*
X1072235Y7325410D01*
X1068171Y7329424D01*
X1063802Y7333183D01*
X1059230Y7336586D01*
X1056335Y7338415D01*
X1053287Y7341311D01*
X1051712Y7345222D01*
X1051864Y7349388D01*
X1053642Y7353198D01*
X1056843Y7355890D01*
X1060856Y7357109D01*
X1064412Y7357465D01*
X1073048Y7359751D01*
X1081125Y7363510D01*
X1088440Y7368641D01*
X1094790Y7374991D01*
X1099921Y7382306D01*
X1103680Y7390384D01*
X1105966Y7399020D01*
X1106830Y7408367D01*
X1106830Y7444130D01*
X1031646Y7444130D01*
X1031646Y7359903D01*
X1030833Y7355890D01*
X1028547Y7352588D01*
X1025144Y7350404D01*
X1021130Y7349744D01*
X1015796Y7349947D01*
X992835Y7349947D01*
X988923Y7350709D01*
X985621Y7352893D01*
X961542Y7376972D01*
X959358Y7380274D01*
X958596Y7384186D01*
X958596Y7444130D01*
X945235Y7444130D01*
X941324Y7444892D01*
X938021Y7447076D01*
X935837Y7450378D01*
X935075Y7454290D01*
X935075Y7531709D01*
X935837Y7535570D01*
X938021Y7538872D01*
X941324Y7541107D01*
X945235Y7541869D01*
X958596Y7541869D01*
X958596Y7617968D01*
X959358Y7621879D01*
X961542Y7625181D01*
X995121Y7658709D01*
X998423Y7660894D01*
X1002284Y7661656D01*
X1055471Y7661656D01*
X1064818Y7662519D01*
X1073454Y7664805D01*
X1081582Y7668564D01*
X1088898Y7673695D01*
X1095197Y7680045D01*
X1100328Y7687360D01*
X1104087Y7695438D01*
X1106424Y7704074D01*
X1107236Y7713421D01*
X1107236Y7862519D01*
X1106424Y7871866D01*
X1104087Y7880502D01*
X1100328Y7888630D01*
X1095197Y7895945D01*
X1088898Y7902244D01*
X1081582Y7907375D01*
X1073454Y7911185D01*
X1064818Y7913471D01*
X1055471Y7914284D01*
X976376Y7914284D01*
X967028Y7913471D01*
X958392Y7911185D01*
X950315Y7907375D01*
X943000Y7902244D01*
X936650Y7895945D01*
X931519Y7888630D01*
X927760Y7880502D01*
X925423Y7871866D01*
X924610Y7862519D01*
X924610Y7809382D01*
X923848Y7805521D01*
X921664Y7802219D01*
X805230Y7685786D01*
X801928Y7683601D01*
X798068Y7682839D01*
X794156Y7683601D01*
X790905Y7685786D01*
X788670Y7689088D01*
X787908Y7692999D01*
X787908Y9257487D01*
X788873Y9277451D01*
X791514Y9295993D01*
X795832Y9314180D01*
X801827Y9331909D01*
X809396Y9349028D01*
X818540Y9365335D01*
X829157Y9380778D01*
X841146Y9395155D01*
X854405Y9408363D01*
X868832Y9420301D01*
X884326Y9430816D01*
X900684Y9439910D01*
X917854Y9447428D01*
X935583Y9453321D01*
X953820Y9457537D01*
X972362Y9460128D01*
X991412Y9460992D01*
X2832608Y9460992D01*
X2852572Y9460026D01*
X2871114Y9457385D01*
X2889300Y9453067D01*
X2907030Y9447072D01*
X2924149Y9439452D01*
X2940456Y9430308D01*
X2955899Y9419691D01*
X2970276Y9407702D01*
X2983484Y9394444D01*
X2995371Y9380016D01*
X3005937Y9364573D01*
X3014980Y9348165D01*
X3022498Y9331045D01*
X3028442Y9313265D01*
X3032658Y9295079D01*
X3035198Y9276537D01*
X3036062Y9257487D01*
X3036062Y9031122D01*
X3035147Y9026906D01*
X3032556Y9023451D01*
X3028797Y9021368D01*
X3024479Y9021064D01*
X3020415Y9022588D01*
X3017367Y9025636D01*
X3013354Y9031884D01*
X3007766Y9038640D01*
X2931464Y9114993D01*
X2929534Y9117634D01*
X2928569Y9120733D01*
X2928620Y9123984D01*
X2929382Y9128150D01*
X2930296Y9144000D01*
X2929382Y9159798D01*
X2926588Y9175394D01*
X2922066Y9190583D01*
X2915767Y9205163D01*
X2907842Y9218879D01*
X2898394Y9231579D01*
X2887522Y9243110D01*
X2875381Y9253321D01*
X2862122Y9262008D01*
X2848000Y9269120D01*
X2833065Y9274556D01*
X2817672Y9278213D01*
X2801924Y9280042D01*
X2786075Y9280042D01*
X2770327Y9278213D01*
X2754884Y9274556D01*
X2739999Y9269120D01*
X2725826Y9262008D01*
X2712618Y9253321D01*
X2700477Y9243110D01*
X2689606Y9231579D01*
X2680106Y9218879D01*
X2675788Y9211360D01*
X2672943Y9208211D01*
X2669082Y9206534D01*
X2664866Y9206534D01*
X2661005Y9208211D01*
X2658211Y9211360D01*
X2653842Y9218879D01*
X2644394Y9231579D01*
X2633522Y9243110D01*
X2621381Y9253321D01*
X2608122Y9262008D01*
X2594000Y9269120D01*
X2579065Y9274556D01*
X2563672Y9278213D01*
X2547924Y9280042D01*
X2532075Y9280042D01*
X2516327Y9278213D01*
X2500884Y9274556D01*
X2485999Y9269120D01*
X2471826Y9262008D01*
X2458618Y9253321D01*
X2446477Y9243110D01*
X2435606Y9231579D01*
X2426106Y9218879D01*
X2421788Y9211360D01*
X2418943Y9208211D01*
X2415082Y9206534D01*
X2410866Y9206534D01*
X2407005Y9208211D01*
X2404211Y9211360D01*
X2399842Y9218879D01*
X2390394Y9231579D01*
X2379522Y9243110D01*
X2367381Y9253321D01*
X2354122Y9262008D01*
X2340000Y9269120D01*
X2325065Y9274556D01*
X2309672Y9278213D01*
X2293924Y9280042D01*
X2278075Y9280042D01*
X2262327Y9278213D01*
X2246884Y9274556D01*
X2231999Y9269120D01*
X2217826Y9262008D01*
X2204618Y9253321D01*
X2192477Y9243110D01*
X2181606Y9231579D01*
X2172106Y9218879D01*
X2167788Y9211360D01*
X2164943Y9208211D01*
X2161082Y9206534D01*
X2156866Y9206534D01*
X2153005Y9208211D01*
X2150211Y9211360D01*
X2145842Y9218879D01*
X2136394Y9231579D01*
X2125522Y9243110D01*
X2113381Y9253321D01*
X2100122Y9262008D01*
X2086000Y9269120D01*
X2071065Y9274556D01*
X2055672Y9278213D01*
X2039924Y9280042D01*
X2024075Y9280042D01*
X2008327Y9278213D01*
X1992884Y9274556D01*
X1977999Y9269120D01*
X1963826Y9262008D01*
X1950618Y9253321D01*
X1938477Y9243110D01*
X1927606Y9231579D01*
X1918106Y9218879D01*
X1913788Y9211360D01*
X1910943Y9208211D01*
X1907133Y9206534D01*
X1902866Y9206534D01*
X1899005Y9208211D01*
X1896211Y9211360D01*
X1891842Y9218879D01*
X1882393Y9231579D01*
X1871522Y9243110D01*
X1859381Y9253321D01*
X1846122Y9262008D01*
X1832000Y9269120D01*
X1817065Y9274556D01*
X1801672Y9278213D01*
X1785924Y9280042D01*
X1770075Y9280042D01*
X1754327Y9278213D01*
X1738884Y9274556D01*
X1723999Y9269120D01*
X1709877Y9262008D01*
X1696618Y9253321D01*
X1684477Y9243110D01*
X1673606Y9231579D01*
X1664106Y9218879D01*
X1659788Y9211360D01*
X1656994Y9208211D01*
X1653133Y9206534D01*
X1648866Y9206534D01*
X1645005Y9208211D01*
X1642211Y9211360D01*
X1637842Y9218879D01*
X1628394Y9231579D01*
X1617522Y9243110D01*
X1605381Y9253321D01*
X1592122Y9262008D01*
X1578000Y9269120D01*
X1563065Y9274556D01*
X1547672Y9278213D01*
X1531924Y9280042D01*
X1516075Y9280042D01*
X1500327Y9278213D01*
X1484884Y9274556D01*
X1469999Y9269120D01*
X1455877Y9262008D01*
X1442618Y9253321D01*
X1430477Y9243110D01*
X1419606Y9231579D01*
X1410106Y9218879D01*
X1405788Y9211360D01*
X1402994Y9208211D01*
X1399133Y9206534D01*
X1394866Y9206534D01*
X1391005Y9208211D01*
X1388211Y9211360D01*
X1383842Y9218879D01*
X1374394Y9231579D01*
X1363522Y9243110D01*
X1351381Y9253321D01*
X1338122Y9262008D01*
X1324000Y9269120D01*
X1309065Y9274556D01*
X1293672Y9278213D01*
X1277924Y9280042D01*
X1262075Y9280042D01*
X1246327Y9278213D01*
X1230884Y9274556D01*
X1215999Y9269120D01*
X1201877Y9262008D01*
X1188618Y9253321D01*
X1176477Y9243110D01*
X1165606Y9231579D01*
X1156106Y9218879D01*
X1151788Y9211360D01*
X1148994Y9208211D01*
X1145133Y9206534D01*
X1140866Y9206534D01*
X1137005Y9208211D01*
X1134211Y9211360D01*
X1129842Y9218879D01*
X1120394Y9231579D01*
X1109522Y9243110D01*
X1097381Y9253321D01*
X1084122Y9262008D01*
X1070000Y9269120D01*
X1055065Y9274556D01*
X1039672Y9278213D01*
X1023924Y9280042D01*
X1008075Y9280042D01*
X992327Y9278213D01*
X976884Y9274556D01*
X961999Y9269120D01*
X947877Y9262008D01*
X934618Y9253321D01*
X922477Y9243110D01*
X911606Y9231579D01*
X902106Y9218879D01*
X894181Y9205163D01*
X887933Y9190583D01*
X883361Y9175394D01*
X880618Y9159798D01*
X879703Y9144000D01*
X880618Y9128150D01*
X883361Y9112554D01*
X887933Y9097365D01*
X894181Y9082836D01*
X902106Y9069070D01*
X911606Y9056370D01*
X922477Y9044838D01*
X934618Y9034678D01*
X947877Y9025940D01*
X961999Y9018828D01*
X976884Y9013393D01*
X992327Y9009786D01*
X1008075Y9007906D01*
X1023924Y9007906D01*
X1036624Y9009430D01*
X1039672Y9009329D01*
X1042568Y9008313D01*
X1045006Y9006484D01*
X1061415Y8990076D01*
X1063599Y8986774D01*
X1064412Y8982913D01*
X1064412Y8909507D01*
X1063599Y8905595D01*
X1061415Y8902293D01*
X1058113Y8900109D01*
X1054252Y8899347D01*
X935177Y8899347D01*
X925830Y8898534D01*
X917194Y8896197D01*
X909116Y8892438D01*
X901801Y8887307D01*
X895451Y8881008D01*
X890320Y8873642D01*
X886561Y8865565D01*
X884275Y8856929D01*
X883462Y8847582D01*
X883462Y8763965D01*
X882650Y8760104D01*
X880465Y8756802D01*
X843534Y8719820D01*
X837793Y8712911D01*
X836371Y8710879D01*
X831748Y8703157D01*
X830630Y8700973D01*
X827176Y8692642D01*
X826414Y8690305D01*
X824230Y8681567D01*
X823823Y8679129D01*
X823010Y8670188D01*
X823010Y8357362D01*
X823823Y8348421D01*
X824230Y8345982D01*
X827176Y8334857D01*
X830630Y8326577D01*
X831748Y8324342D01*
X836371Y8316671D01*
X837793Y8314639D01*
X843534Y8307730D01*
X1115263Y8036001D01*
X1124204Y8028838D01*
X1131874Y8024215D01*
X1134110Y8023098D01*
X1142390Y8019643D01*
X1153464Y8016697D01*
X1155954Y8016290D01*
X1164894Y8015478D01*
X1454505Y8015427D01*
X1458315Y8014665D01*
X1461566Y8012582D01*
X1463802Y8009381D01*
X1464665Y8005622D01*
X1464056Y8001812D01*
X1462074Y7998459D01*
X1459179Y7995259D01*
X1452626Y7985302D01*
X1447546Y7974482D01*
X1444091Y7963052D01*
X1442364Y7951216D01*
X1442364Y7939278D01*
X1444091Y7927492D01*
X1446784Y7918551D01*
X1447241Y7915605D01*
X1447241Y7902702D01*
X1446733Y7899603D01*
X1445361Y7896859D01*
X1439519Y7888579D01*
X1435760Y7880502D01*
X1433423Y7871866D01*
X1432610Y7862519D01*
X1432610Y7713421D01*
X1433423Y7704074D01*
X1435760Y7695438D01*
X1439519Y7687360D01*
X1444650Y7680045D01*
X1451000Y7673695D01*
X1458315Y7668564D01*
X1466392Y7664805D01*
X1475028Y7662519D01*
X1484376Y7661656D01*
X1563471Y7661656D01*
X1571498Y7662367D01*
X1575612Y7661859D01*
X1579219Y7659725D01*
X1581658Y7656322D01*
X1582521Y7652258D01*
X1582521Y7638745D01*
X1581658Y7634630D01*
X1579219Y7631226D01*
X1575612Y7629093D01*
X1571498Y7628585D01*
X1563065Y7629347D01*
X1539646Y7629347D01*
X1539646Y7541869D01*
X1572361Y7541869D01*
X1576273Y7541107D01*
X1579524Y7538872D01*
X1581759Y7535570D01*
X1582521Y7531709D01*
X1582521Y7454290D01*
X1581759Y7450378D01*
X1579524Y7447076D01*
X1576273Y7444892D01*
X1572361Y7444130D01*
X1539646Y7444130D01*
X1539646Y7356602D01*
X1563065Y7356602D01*
X1571498Y7357364D01*
X1575612Y7356856D01*
X1579219Y7354722D01*
X1581658Y7351318D01*
X1582521Y7347254D01*
X1582521Y7249972D01*
X1581759Y7246162D01*
X1579676Y7242911D01*
X1576476Y7240727D01*
X1572717Y7239812D01*
X1568907Y7240422D01*
X1563065Y7242556D01*
X1547672Y7246213D01*
X1531924Y7248042D01*
X1516075Y7248042D01*
X1500327Y7246213D01*
X1484884Y7242556D01*
X1469999Y7237120D01*
X1455877Y7230008D01*
X1442618Y7221321D01*
X1430477Y7211110D01*
X1419606Y7199579D01*
X1410106Y7186879D01*
X1405788Y7179360D01*
X1402994Y7176211D01*
X1399133Y7174534D01*
G37*

%LPC*%
G36*
X1230934Y7356602D02*
G01*
X1350822Y7356602D01*
X1360170Y7357465D01*
X1368806Y7359751D01*
X1376883Y7363510D01*
X1384198Y7368641D01*
X1389837Y7374280D01*
X1393088Y7376464D01*
X1397000Y7377226D01*
X1400860Y7376464D01*
X1404162Y7374280D01*
X1409801Y7368641D01*
X1417116Y7363510D01*
X1425194Y7359751D01*
X1433830Y7357465D01*
X1443177Y7356602D01*
X1466596Y7356602D01*
X1466596Y7444130D01*
X1412697Y7444130D01*
X1408836Y7444892D01*
X1405534Y7447076D01*
X1403350Y7450378D01*
X1402537Y7454290D01*
X1402537Y7531709D01*
X1403350Y7535570D01*
X1405534Y7538872D01*
X1408836Y7541107D01*
X1412697Y7541869D01*
X1466596Y7541869D01*
X1466596Y7629347D01*
X1443177Y7629347D01*
X1433830Y7628534D01*
X1425194Y7626197D01*
X1417116Y7622438D01*
X1409801Y7617307D01*
X1404162Y7611719D01*
X1400860Y7609484D01*
X1397000Y7608722D01*
X1393088Y7609484D01*
X1389837Y7611719D01*
X1384198Y7617307D01*
X1376883Y7622438D01*
X1371396Y7624978D01*
X1368856Y7626654D01*
X1366977Y7628991D01*
X1365808Y7631785D01*
X1364132Y7638846D01*
X1359916Y7649464D01*
X1358798Y7651699D01*
X1354277Y7659116D01*
X1349654Y7664958D01*
X1347317Y7669936D01*
X1346758Y7673086D01*
X1347216Y7676235D01*
X1348638Y7679131D01*
X1354480Y7687360D01*
X1358239Y7695438D01*
X1360576Y7704074D01*
X1361389Y7713421D01*
X1361389Y7862519D01*
X1360576Y7871866D01*
X1358239Y7880502D01*
X1354480Y7888630D01*
X1349349Y7895945D01*
X1342999Y7902244D01*
X1335684Y7907375D01*
X1327607Y7911185D01*
X1318971Y7913471D01*
X1309624Y7914284D01*
X1230528Y7914284D01*
X1221181Y7913471D01*
X1212545Y7911185D01*
X1204417Y7907375D01*
X1197102Y7902244D01*
X1190802Y7895945D01*
X1185672Y7888630D01*
X1181862Y7880502D01*
X1179576Y7871866D01*
X1178763Y7862519D01*
X1178763Y7713421D01*
X1179576Y7704074D01*
X1181862Y7695438D01*
X1185672Y7687360D01*
X1191463Y7679131D01*
X1192885Y7676337D01*
X1193342Y7673289D01*
X1193393Y7634173D01*
X1194206Y7625384D01*
X1195070Y7621219D01*
X1195171Y7617917D01*
X1194206Y7614716D01*
X1191209Y7611008D01*
X1186078Y7603693D01*
X1182319Y7595565D01*
X1179982Y7586929D01*
X1179169Y7577581D01*
X1179169Y7408367D01*
X1179982Y7399020D01*
X1182319Y7390384D01*
X1186078Y7382306D01*
X1191209Y7374991D01*
X1197559Y7368641D01*
X1204874Y7363510D01*
X1212951Y7359751D01*
X1221587Y7357465D01*
G37*
G36*
X1031646Y7541869D02*
G01*
X1106830Y7541869D01*
X1106830Y7577581D01*
X1105966Y7586929D01*
X1103680Y7595565D01*
X1099921Y7603693D01*
X1094790Y7611008D01*
X1088440Y7617307D01*
X1081125Y7622438D01*
X1073048Y7626197D01*
X1064412Y7628534D01*
X1055065Y7629347D01*
X1031646Y7629347D01*
G37*

%LPD*%
G36*
X2502712Y7026198D02*
G01*
X2498801Y7026960D01*
X2495499Y7029145D01*
X2494127Y7030567D01*
X2491943Y7033869D01*
X2491130Y7037730D01*
X2491130Y7063130D01*
X2465730Y7063130D01*
X2461869Y7063892D01*
X2458567Y7066127D01*
X2248712Y7275982D01*
X2246528Y7279233D01*
X2245766Y7283145D01*
X2245766Y7346442D01*
X2246528Y7350353D01*
X2248712Y7353655D01*
X2252014Y7355840D01*
X2255875Y7356602D01*
X2270353Y7356602D01*
X2270353Y7444130D01*
X2255875Y7444130D01*
X2252014Y7444892D01*
X2248712Y7447076D01*
X2246528Y7450378D01*
X2245766Y7454290D01*
X2245766Y7531709D01*
X2246528Y7535570D01*
X2248712Y7538872D01*
X2252014Y7541107D01*
X2255875Y7541869D01*
X2270353Y7541869D01*
X2270353Y7629347D01*
X2260295Y7629347D01*
X2256383Y7630109D01*
X2253081Y7632344D01*
X2250897Y7635595D01*
X2250135Y7639507D01*
X2250897Y7643368D01*
X2253081Y7646670D01*
X2265121Y7658709D01*
X2268423Y7660894D01*
X2272284Y7661656D01*
X2325471Y7661656D01*
X2334818Y7662519D01*
X2343454Y7664805D01*
X2351582Y7668564D01*
X2358898Y7673695D01*
X2365197Y7680045D01*
X2370328Y7687360D01*
X2374087Y7695438D01*
X2376424Y7704074D01*
X2377236Y7713421D01*
X2377236Y7853629D01*
X2377998Y7857490D01*
X2380234Y7860792D01*
X2383536Y7862976D01*
X2387396Y7863789D01*
X2438450Y7863789D01*
X2442362Y7862976D01*
X2445664Y7860792D01*
X2447848Y7857490D01*
X2448610Y7853629D01*
X2448610Y7713421D01*
X2449423Y7704074D01*
X2451760Y7695438D01*
X2455519Y7687360D01*
X2460650Y7680045D01*
X2467000Y7673695D01*
X2474315Y7668564D01*
X2482392Y7664805D01*
X2491028Y7662519D01*
X2500376Y7661656D01*
X2553563Y7661656D01*
X2557424Y7660894D01*
X2560726Y7658709D01*
X2572766Y7646670D01*
X2574950Y7643368D01*
X2575712Y7639507D01*
X2574950Y7635595D01*
X2572766Y7632344D01*
X2569464Y7630109D01*
X2565552Y7629347D01*
X2555646Y7629347D01*
X2555646Y7541869D01*
X2630779Y7541869D01*
X2630779Y7564120D01*
X2631592Y7567980D01*
X2633776Y7571282D01*
X2637078Y7573518D01*
X2640939Y7574280D01*
X2644851Y7573518D01*
X2648153Y7571282D01*
X2700223Y7519212D01*
X2702407Y7515961D01*
X2703169Y7512050D01*
X2703169Y7408367D01*
X2703982Y7399020D01*
X2706319Y7390384D01*
X2710078Y7382306D01*
X2715209Y7374991D01*
X2721559Y7368641D01*
X2728874Y7363510D01*
X2736951Y7359751D01*
X2745587Y7357465D01*
X2754934Y7356602D01*
X2864815Y7356602D01*
X2868676Y7355840D01*
X2871978Y7353655D01*
X2874162Y7350353D01*
X2874975Y7346442D01*
X2874975Y7305598D01*
X2874162Y7301738D01*
X2871978Y7298436D01*
X2823006Y7249464D01*
X2820568Y7247636D01*
X2817672Y7246670D01*
X2814624Y7246569D01*
X2801924Y7248042D01*
X2786075Y7248042D01*
X2770327Y7246213D01*
X2754884Y7242556D01*
X2739999Y7237120D01*
X2725826Y7230008D01*
X2712618Y7221321D01*
X2700477Y7211110D01*
X2689606Y7199579D01*
X2680106Y7186879D01*
X2675788Y7179360D01*
X2672943Y7176211D01*
X2669082Y7174534D01*
X2664866Y7174534D01*
X2661005Y7176211D01*
X2658211Y7179360D01*
X2653842Y7186879D01*
X2644394Y7199579D01*
X2633522Y7211110D01*
X2621381Y7221321D01*
X2608122Y7230008D01*
X2594000Y7237120D01*
X2588869Y7239000D01*
X2588869Y7160818D01*
X2652928Y7160818D01*
X2656636Y7160158D01*
X2659837Y7158126D01*
X2662072Y7155129D01*
X2663088Y7151522D01*
X2662682Y7147763D01*
X2661361Y7143394D01*
X2658618Y7127798D01*
X2657703Y7112000D01*
X2658618Y7096150D01*
X2659380Y7091934D01*
X2659430Y7088733D01*
X2658465Y7085634D01*
X2656535Y7082993D01*
X2639669Y7066127D01*
X2636367Y7063892D01*
X2632456Y7063130D01*
X2588869Y7063130D01*
X2588869Y7036358D01*
X2588056Y7032447D01*
X2585872Y7029145D01*
X2582570Y7026960D01*
X2578709Y7026198D01*
G37*

%LPC*%
G36*
X2412898Y7160818D02*
G01*
X2491130Y7160818D01*
X2491130Y7239000D01*
X2485999Y7237120D01*
X2471826Y7230008D01*
X2458618Y7221321D01*
X2446477Y7211110D01*
X2435606Y7199579D01*
X2426106Y7186879D01*
X2418181Y7173163D01*
G37*
G36*
X2555646Y7356602D02*
G01*
X2579065Y7356602D01*
X2588412Y7357465D01*
X2597048Y7359751D01*
X2605125Y7363510D01*
X2612440Y7368641D01*
X2618790Y7374991D01*
X2623870Y7382306D01*
X2627680Y7390384D01*
X2629966Y7399020D01*
X2630779Y7408367D01*
X2630779Y7444130D01*
X2555646Y7444130D01*
G37*
G36*
X2343404Y7356602D02*
G01*
X2366822Y7356602D01*
X2376170Y7357465D01*
X2384806Y7359751D01*
X2392883Y7363510D01*
X2400198Y7368641D01*
X2405786Y7374280D01*
X2409088Y7376464D01*
X2413000Y7377226D01*
X2416860Y7376464D01*
X2420162Y7374280D01*
X2425801Y7368641D01*
X2433116Y7363510D01*
X2441194Y7359751D01*
X2449830Y7357465D01*
X2459177Y7356602D01*
X2482596Y7356602D01*
X2482596Y7444130D01*
X2343404Y7444130D01*
G37*
G36*
X2343404Y7541869D02*
G01*
X2482596Y7541869D01*
X2482596Y7629347D01*
X2459177Y7629347D01*
X2449830Y7628534D01*
X2441194Y7626197D01*
X2433116Y7622438D01*
X2425801Y7617307D01*
X2420162Y7611719D01*
X2416860Y7609484D01*
X2413000Y7608722D01*
X2409088Y7609484D01*
X2405786Y7611719D01*
X2400198Y7617307D01*
X2392883Y7622438D01*
X2384806Y7626197D01*
X2376170Y7628534D01*
X2366822Y7629347D01*
X2343404Y7629347D01*
G37*

%LPD*%
D10*
X2031923Y8467986D02*
G01*
X2031923Y8889906D01*
X2286000Y9143982D01*
X1270050Y8316831D02*
G01*
X1353718Y8233163D01*
X1353718Y8199356D01*
X1270050Y8467986D02*
G01*
X1270050Y8316831D01*
X1503121Y7327526D02*
G01*
X1503121Y7321532D01*
X1503121Y7412362D02*
G01*
X1503121Y7327526D01*
X1131722Y7492982D02*
G01*
X1131722Y7390518D01*
X1194714Y7327526D01*
X1503121Y7327526D01*
X1503121Y7492982D02*
G01*
X1503121Y7412362D01*
X2306878Y7492982D02*
G01*
X2519121Y7492982D01*
X2519121Y7492982D02*
G01*
X2519121Y7132861D01*
X2540000Y7111982D01*
X995121Y7492982D02*
G01*
X1131722Y7492982D01*
X1523923Y7939234D02*
G01*
X1523923Y7945254D01*
X1523923Y7788003D02*
G01*
X1523923Y7939234D01*
X2814878Y8762982D02*
G01*
X2814878Y8924246D01*
X2814878Y8924246D02*
G01*
X2759735Y8924246D01*
X2540000Y9143982D01*
X2539923Y8467986D02*
G01*
X2539923Y8316831D01*
X2539923Y8316831D02*
G01*
X2544470Y8312284D01*
X2875991Y8312284D01*
X2951657Y8387951D01*
X2951657Y8986324D01*
X2794000Y9143982D01*
X1290878Y8924246D02*
G01*
X1290878Y8929580D01*
X1290878Y8762982D02*
G01*
X1290878Y8924246D01*
X1016050Y8467986D02*
G01*
X1141095Y8593030D01*
X1141095Y9018887D01*
X1016000Y9143982D01*
X1524050Y8467986D02*
G01*
X1524050Y8619142D01*
X1524050Y8619142D02*
G01*
X1524000Y8619192D01*
X1524000Y9143982D01*
X1778050Y8467986D02*
G01*
X1778050Y8619142D01*
X1778050Y8619142D02*
G01*
X1778000Y8619192D01*
X1778000Y9143982D01*
X2794000Y7111982D02*
G01*
X2631490Y6949473D01*
X2466720Y6949473D01*
X2169033Y7247161D01*
X2169033Y7671112D01*
X2285923Y7788003D01*
X2793923Y7788003D02*
G01*
X2951657Y7630269D01*
X2951657Y7269640D01*
X2794000Y7111982D01*
X1016000Y7111982D02*
G01*
X1016000Y7273221D01*
X1015923Y7788003D02*
G01*
X858342Y7630421D01*
X858342Y7371722D01*
X956843Y7273221D01*
X1016000Y7273221D01*
X2011121Y7492982D02*
G01*
X2011121Y7116859D01*
X1829130Y6934868D01*
X1701114Y6934868D01*
X1524000Y7111982D01*
X2031923Y7636847D02*
G01*
X2011121Y7616045D01*
X2011121Y7492982D01*
X2031923Y7788003D02*
G01*
X2031923Y7636847D01*
X2794050Y8467986D02*
G01*
X2519121Y8742916D01*
X2519121Y8762982D01*
X2286050Y8467986D02*
G01*
X2286050Y8316755D01*
X2286050Y8316755D02*
G01*
X2061413Y8092117D01*
X1167561Y8092117D01*
X899642Y8360036D01*
X899642Y8667503D01*
X995121Y8762982D01*
X1778050Y7788003D02*
G01*
X1778050Y7636847D01*
X1778050Y7636847D02*
G01*
X1798878Y7616019D01*
X1798878Y7492982D01*
X1778000Y7111982D02*
G01*
X1659229Y7230752D01*
X1659229Y7896867D01*
X1702841Y7940479D01*
X2538602Y7940479D01*
X2539923Y7939158D01*
X2539923Y7788003D02*
G01*
X2539923Y7939158D01*
X2814878Y7492982D02*
G01*
X2814878Y7513048D01*
X2539923Y7788003D01*
X1270050Y7788003D02*
G01*
X1270050Y7636847D01*
X1270050Y7636847D02*
G01*
X1290878Y7616019D01*
X1290878Y7492982D01*
D11*
G01*
X2814871Y7492984D03*
G01*
X2519118Y7492984D03*
G01*
X2814871Y8762982D03*
G01*
X2519118Y8762982D03*
D12*
G01*
X2011118Y7492984D03*
G01*
X2306871Y7492984D03*
D11*
G01*
X1290873Y8762982D03*
G01*
X995121Y8762982D03*
G01*
X1798873Y7492984D03*
G01*
X1503121Y7492984D03*
G01*
X1290873Y7492984D03*
G01*
X995121Y7492984D03*
D13*
G01*
X1016060Y8467984D03*
G01*
X1270060Y8467984D03*
G01*
X1270060Y7787985D03*
D14*
G01*
X1015923Y7787995D03*
D13*
G01*
X1524060Y8467984D03*
G01*
X1778060Y8467984D03*
G01*
X1778060Y7787985D03*
D14*
G01*
X1523923Y7787995D03*
D15*
G01*
X2285931Y7787985D03*
G01*
X2031931Y7787985D03*
G01*
X2031931Y8467984D03*
D14*
G01*
X2286050Y8467979D03*
D15*
G01*
X2793931Y7787985D03*
G01*
X2539931Y7787985D03*
G01*
X2539931Y8467984D03*
D14*
G01*
X2794050Y8467979D03*
D16*
G01*
X2540000Y9143974D03*
G01*
X2794000Y9143974D03*
G01*
X2032000Y9143974D03*
G01*
X2286000Y9143974D03*
G01*
X1016000Y9143974D03*
G01*
X1270000Y9143974D03*
G01*
X1524000Y9143974D03*
G01*
X1778000Y9143974D03*
G01*
X2794000Y7111974D03*
G01*
X2540000Y7111974D03*
D17*
G01*
X1016000Y7111974D03*
D16*
G01*
X1270000Y7111974D03*
G01*
X1524000Y7111974D03*
G01*
X1778000Y7111974D03*
D18*
G01*
X1353718Y8199348D03*
G01*
X1503121Y7321524D03*
G01*
X1523923Y7945246D03*
G01*
X1290878Y8929573D03*
M02*
