G04 Layer: TopPasteMaskLayer*
G04 EasyEDA v6.5.42, 2024-04-14 08:23:14*
G04 1f246623a6ee484286f43004a0b8c205,edc686363fba4cf3ab42fed1df3dfb96,10*
G04 Gerber Generator version 0.2*
G04 Scale: 100 percent, Rotated: No, Reflected: No *
G04 Dimensions in millimeters *
G04 leading zeros omitted , absolute positions ,4 integer and 5 decimal *
%FSLAX45Y45*%
%MOMM*%

%AMMACRO1*21,1,$1,$2,0,0,$3*%
%ADD10MACRO1,1.4986X0.8001X90.0000*%
%ADD11R,0.8000X1.5000*%
%ADD12MACRO1,1.4986X0.8001X-90.0000*%

%LPD*%
G36*
X2764485Y7578039D02*
G01*
X2754477Y7568031D01*
X2754477Y7531912D01*
X2764485Y7521905D01*
X2785567Y7521905D01*
X2795574Y7511897D01*
X2795574Y7474051D01*
X2785567Y7464044D01*
X2764485Y7464044D01*
X2754477Y7454087D01*
X2754477Y7417917D01*
X2764485Y7407909D01*
X2865272Y7407909D01*
X2875229Y7417917D01*
X2875229Y7568031D01*
X2865272Y7578039D01*
G37*
G36*
X2468727Y7578039D02*
G01*
X2458720Y7568031D01*
X2458720Y7417917D01*
X2468727Y7407909D01*
X2569514Y7407909D01*
X2579471Y7417917D01*
X2579471Y7454087D01*
X2569514Y7464044D01*
X2548432Y7464044D01*
X2538425Y7474051D01*
X2538425Y7511897D01*
X2548432Y7521905D01*
X2569514Y7521905D01*
X2579471Y7531912D01*
X2579471Y7568031D01*
X2569514Y7578039D01*
G37*
G36*
X2764485Y8848039D02*
G01*
X2754477Y8838031D01*
X2754477Y8801912D01*
X2764485Y8791905D01*
X2785567Y8791905D01*
X2795574Y8781897D01*
X2795574Y8744051D01*
X2785567Y8734044D01*
X2764485Y8734044D01*
X2754477Y8724087D01*
X2754477Y8687917D01*
X2764485Y8677910D01*
X2865272Y8677910D01*
X2875229Y8687917D01*
X2875229Y8838031D01*
X2865272Y8848039D01*
G37*
G36*
X2468727Y8848039D02*
G01*
X2458720Y8838031D01*
X2458720Y8687917D01*
X2468727Y8677910D01*
X2569514Y8677910D01*
X2579471Y8687917D01*
X2579471Y8724087D01*
X2569514Y8734044D01*
X2548432Y8734044D01*
X2538425Y8744051D01*
X2538425Y8781897D01*
X2548432Y8791905D01*
X2569514Y8791905D01*
X2579471Y8801912D01*
X2579471Y8838031D01*
X2569514Y8848039D01*
G37*
G36*
X1960727Y7578039D02*
G01*
X1950720Y7568031D01*
X1950720Y7417917D01*
X1960727Y7407909D01*
X2061514Y7407909D01*
X2071471Y7417917D01*
X2071471Y7454087D01*
X2061514Y7464044D01*
X2040432Y7464044D01*
X2030425Y7474051D01*
X2030425Y7511897D01*
X2040432Y7521905D01*
X2061514Y7521905D01*
X2071471Y7531912D01*
X2071471Y7568031D01*
X2061514Y7578039D01*
G37*
G36*
X2256485Y7578039D02*
G01*
X2246477Y7568031D01*
X2246477Y7531912D01*
X2256485Y7521905D01*
X2277567Y7521905D01*
X2287574Y7511897D01*
X2287574Y7474051D01*
X2277567Y7464044D01*
X2256485Y7464044D01*
X2246477Y7454087D01*
X2246477Y7417917D01*
X2256485Y7407909D01*
X2357272Y7407909D01*
X2367229Y7417917D01*
X2367229Y7568031D01*
X2357272Y7578039D01*
G37*
G36*
X1240485Y8848039D02*
G01*
X1230477Y8838031D01*
X1230477Y8801912D01*
X1240485Y8791905D01*
X1261567Y8791905D01*
X1271574Y8781897D01*
X1271574Y8744051D01*
X1261567Y8734044D01*
X1240485Y8734044D01*
X1230477Y8724087D01*
X1230477Y8687917D01*
X1240485Y8677910D01*
X1341272Y8677910D01*
X1351229Y8687917D01*
X1351229Y8838031D01*
X1341272Y8848039D01*
G37*
G36*
X944727Y8848039D02*
G01*
X934719Y8838031D01*
X934719Y8687917D01*
X944727Y8677910D01*
X1045514Y8677910D01*
X1055471Y8687917D01*
X1055471Y8724087D01*
X1045514Y8734044D01*
X1024432Y8734044D01*
X1014425Y8744051D01*
X1014425Y8781897D01*
X1024432Y8791905D01*
X1045514Y8791905D01*
X1055471Y8801912D01*
X1055471Y8838031D01*
X1045514Y8848039D01*
G37*
G36*
X1748485Y7578039D02*
G01*
X1738477Y7568031D01*
X1738477Y7531912D01*
X1748485Y7521905D01*
X1769567Y7521905D01*
X1779574Y7511897D01*
X1779574Y7474051D01*
X1769567Y7464044D01*
X1748485Y7464044D01*
X1738477Y7454087D01*
X1738477Y7417917D01*
X1748485Y7407909D01*
X1849272Y7407909D01*
X1859229Y7417917D01*
X1859229Y7568031D01*
X1849272Y7578039D01*
G37*
G36*
X1452727Y7578039D02*
G01*
X1442720Y7568031D01*
X1442720Y7417917D01*
X1452727Y7407909D01*
X1553514Y7407909D01*
X1563471Y7417917D01*
X1563471Y7454087D01*
X1553514Y7464044D01*
X1532432Y7464044D01*
X1522425Y7474051D01*
X1522425Y7511897D01*
X1532432Y7521905D01*
X1553514Y7521905D01*
X1563471Y7531912D01*
X1563471Y7568031D01*
X1553514Y7578039D01*
G37*
G36*
X1240485Y7578039D02*
G01*
X1230477Y7568031D01*
X1230477Y7531912D01*
X1240485Y7521905D01*
X1261567Y7521905D01*
X1271574Y7511897D01*
X1271574Y7474051D01*
X1261567Y7464044D01*
X1240485Y7464044D01*
X1230477Y7454087D01*
X1230477Y7417917D01*
X1240485Y7407909D01*
X1341272Y7407909D01*
X1351229Y7417917D01*
X1351229Y7568031D01*
X1341272Y7578039D01*
G37*
G36*
X944727Y7578039D02*
G01*
X934719Y7568031D01*
X934719Y7417917D01*
X944727Y7407909D01*
X1045514Y7407909D01*
X1055471Y7417917D01*
X1055471Y7454087D01*
X1045514Y7464044D01*
X1024432Y7464044D01*
X1014425Y7474051D01*
X1014425Y7511897D01*
X1024432Y7521905D01*
X1045514Y7521905D01*
X1055471Y7531912D01*
X1055471Y7568031D01*
X1045514Y7578039D01*
G37*
D10*
G01*
X1016050Y8467979D03*
G01*
X1270050Y8467979D03*
G01*
X1270050Y7787995D03*
D11*
G01*
X1015923Y7787995D03*
D10*
G01*
X1524050Y8467979D03*
G01*
X1778050Y8467979D03*
G01*
X1778050Y7787995D03*
D11*
G01*
X1523923Y7787995D03*
D12*
G01*
X2285923Y7787995D03*
G01*
X2031923Y7787995D03*
G01*
X2031923Y8467979D03*
D11*
G01*
X2286050Y8467979D03*
D12*
G01*
X2793923Y7787995D03*
G01*
X2539923Y7787995D03*
G01*
X2539923Y8467979D03*
D11*
G01*
X2794050Y8467979D03*
M02*
