G04 Layer: TopLayer*
G04 EasyEDA v6.5.42, 2024-04-10 21:16:21*
G04 3d983429d5ee456581bb66d28f0ab4ba,edc686363fba4cf3ab42fed1df3dfb96,10*
G04 Gerber Generator version 0.2*
G04 Scale: 100 percent, Rotated: No, Reflected: No *
G04 Dimensions in millimeters *
G04 leading zeros omitted , absolute positions ,4 integer and 5 decimal *
%FSLAX45Y45*%
%MOMM*%

%ADD10C,1.7000*%
%ADD11R,1.7000X1.7000*%
%ADD12C,1.4000*%
%ADD13C,1.6000*%
%ADD14C,1.8000*%
%ADD15R,1.8000X1.8000*%

%LPD*%
D10*
G01*
X2921000Y9144000D03*
G01*
X3175000Y9144000D03*
G01*
X2413000Y9144000D03*
G01*
X2667000Y9144000D03*
G01*
X3175000Y5842000D03*
G01*
X2921000Y5842000D03*
D11*
G01*
X1143000Y5842000D03*
D10*
G01*
X1397000Y5842000D03*
G01*
X1651000Y5842000D03*
G01*
X1905000Y5842000D03*
G01*
X1143000Y9144000D03*
G01*
X1397000Y9144000D03*
D12*
G01*
X1888007Y6223000D03*
G01*
X2937992Y6223000D03*
D13*
G01*
X3175000Y7856981D03*
G01*
X3175000Y8906992D03*
D12*
G01*
X1380007Y6477000D03*
G01*
X2429992Y6477000D03*
D13*
G01*
X2667000Y7856981D03*
G01*
X2667000Y8906992D03*
G01*
X1905000Y6713981D03*
G01*
X1905000Y7763992D03*
G01*
X1397000Y6713981D03*
G01*
X1397000Y7763992D03*
D10*
G01*
X1651000Y9144000D03*
G01*
X1905000Y9144000D03*
D14*
G01*
X1397507Y7990941D03*
G01*
X1396492Y8773947D03*
G01*
X1142492Y8773947D03*
D15*
G01*
X1143507Y7989951D03*
D14*
G01*
X1905507Y7990941D03*
G01*
X1904492Y8773947D03*
G01*
X1650492Y8773947D03*
D15*
G01*
X1651507Y7989951D03*
D14*
G01*
X2285491Y7629931D03*
G01*
X2286508Y6846925D03*
G01*
X2540508Y6846925D03*
D15*
G01*
X2539491Y7630947D03*
D14*
G01*
X2920491Y7629931D03*
G01*
X2921508Y6846925D03*
G01*
X3175508Y6846925D03*
D15*
G01*
X3174491Y7630947D03*
M02*
