G04 Layer: BottomLayer*
G04 EasyEDA v6.5.42, 2024-04-09 23:37:06*
G04 0c518afdc74f42c59f970a81c10019ee,edc686363fba4cf3ab42fed1df3dfb96,10*
G04 Gerber Generator version 0.2*
G04 Scale: 100 percent, Rotated: No, Reflected: No *
G04 Dimensions in millimeters *
G04 leading zeros omitted , absolute positions ,4 integer and 5 decimal *
%FSLAX45Y45*%
%MOMM*%

%ADD10C,0.5080*%
%ADD11R,1.7000X1.7000*%
%ADD12C,1.7000*%
%ADD13R,2.0000X2.0000*%
%ADD14C,2.0000*%
%ADD15C,1.4000*%
%ADD16C,1.8000*%
%ADD17R,1.8000X1.8000*%

%LPD*%
D10*
X2285491Y7629939D02*
G01*
X2285491Y9016499D01*
X2413000Y9144007D01*
X2921508Y6239492D02*
G01*
X2302509Y6239492D01*
X1905000Y5841982D01*
X2921508Y6846933D02*
G01*
X2921508Y6239492D01*
X2921508Y6239492D02*
G01*
X2937992Y6223007D01*
X1143507Y7989958D02*
G01*
X1143507Y6002967D01*
X1143000Y6002459D01*
X1143000Y5841982D02*
G01*
X1143000Y6002459D01*
X1651507Y7989958D02*
G01*
X1475612Y8165853D01*
X1031367Y8165853D01*
X974775Y8109262D01*
X974775Y5722856D01*
X1016228Y5681403D01*
X1270000Y5681403D01*
X1397000Y5808403D01*
X1397000Y5841982D01*
X3175000Y8892014D02*
G01*
X3175000Y9144007D01*
X2920491Y7629939D02*
G01*
X2921000Y7630447D01*
X2921000Y9144007D01*
X2667000Y8892014D02*
G01*
X2667000Y9144007D01*
X1142492Y8773955D02*
G01*
X1143000Y8774463D01*
X1143000Y9144007D01*
X1396492Y8773955D02*
G01*
X1397000Y8774463D01*
X1397000Y9144007D01*
X1650492Y8773955D02*
G01*
X1651000Y8774463D01*
X1651000Y9144007D01*
X1904492Y8773955D02*
G01*
X1905000Y8774463D01*
X1905000Y9144007D01*
X1397507Y7990949D02*
G01*
X1397000Y7990441D01*
X1397000Y7749014D01*
X1905507Y7990949D02*
G01*
X1905000Y7990441D01*
X1905000Y7749014D01*
X2539491Y7796410D02*
G01*
X2591409Y7796410D01*
X2667000Y7872001D01*
X2539491Y7630955D02*
G01*
X2539491Y7796410D01*
X3174491Y7796410D02*
G01*
X3175000Y7796918D01*
X3175000Y7872001D01*
X3174491Y7630955D02*
G01*
X3174491Y7796410D01*
X2363165Y6481554D02*
G01*
X2425445Y6481554D01*
X2429992Y6477007D01*
X2286508Y6846933D02*
G01*
X2286508Y6558211D01*
X2363165Y6481554D01*
X2363165Y6481554D02*
G01*
X1928190Y6046579D01*
X1855596Y6046579D01*
X1651000Y5841982D01*
X3175508Y6846933D02*
G01*
X3175000Y6846425D01*
X3175000Y5842007D01*
X2540508Y6846933D02*
G01*
X2710941Y7017367D01*
X3005074Y7017367D01*
X3175508Y6846933D01*
X1888007Y6223007D02*
G01*
X1888007Y6712008D01*
X1905000Y6729001D01*
X1905000Y6729001D02*
G01*
X2294356Y7118357D01*
X3156051Y7118357D01*
X3350590Y6923819D01*
X3350590Y5704009D01*
X3312998Y5666417D01*
X3041929Y5666417D01*
X2921000Y5787346D01*
X2921000Y5842007D01*
X1397000Y6729001D02*
G01*
X1397000Y6494000D01*
X1380007Y6477007D01*
X1380007Y6477007D02*
G01*
X1634007Y6223007D01*
X1888007Y6223007D01*
D11*
G01*
X1143000Y5841974D03*
D12*
G01*
X1397000Y5841974D03*
G01*
X1651000Y5841974D03*
G01*
X1905000Y5841974D03*
D13*
G01*
X1143000Y9144000D03*
D14*
G01*
X1397000Y9144000D03*
D13*
G01*
X1651000Y9144000D03*
D14*
G01*
X1905000Y9144000D03*
D13*
G01*
X3175000Y5842000D03*
D14*
G01*
X2921000Y5842000D03*
D13*
G01*
X3175000Y9144000D03*
D14*
G01*
X2921000Y9144000D03*
D13*
G01*
X2667000Y9144000D03*
D14*
G01*
X2413000Y9144000D03*
D15*
G01*
X1888007Y6223000D03*
G01*
X2937992Y6223000D03*
G01*
X3175000Y7871993D03*
G01*
X3175000Y8892006D03*
G01*
X1380007Y6477000D03*
G01*
X2429992Y6477000D03*
G01*
X2667000Y7871993D03*
G01*
X2667000Y8892006D03*
G01*
X1905000Y6728993D03*
G01*
X1905000Y7749006D03*
G01*
X1397000Y6728993D03*
G01*
X1397000Y7749006D03*
D16*
G01*
X1397507Y7990941D03*
G01*
X1396492Y8773947D03*
G01*
X1142492Y8773947D03*
D17*
G01*
X1143507Y7989951D03*
D16*
G01*
X1905507Y7990941D03*
G01*
X1904492Y8773947D03*
G01*
X1650492Y8773947D03*
D17*
G01*
X1651507Y7989951D03*
D16*
G01*
X2285491Y7629931D03*
G01*
X2286508Y6846925D03*
G01*
X2540508Y6846925D03*
D17*
G01*
X2539491Y7630947D03*
D16*
G01*
X2920491Y7629931D03*
G01*
X2921508Y6846925D03*
G01*
X3175508Y6846925D03*
D17*
G01*
X3174491Y7630947D03*
M02*
