G04 Layer: TopSilkscreenLayer*
G04 EasyEDA v6.5.42, 2024-04-10 14:24:56*
G04 430106d5eae242cc8d9fc1fdeab07090,edc686363fba4cf3ab42fed1df3dfb96,10*
G04 Gerber Generator version 0.2*
G04 Scale: 100 percent, Rotated: No, Reflected: No *
G04 Dimensions in millimeters *
G04 leading zeros omitted , absolute positions ,4 integer and 5 decimal *
%FSLAX45Y45*%
%MOMM*%

%ADD10C,0.1524*%
%ADD11C,0.2540*%

%LPD*%
D10*
X2324100Y6274815D02*
G01*
X2324100Y6165595D01*
X2324100Y6274815D02*
G01*
X2370836Y6274815D01*
X2386329Y6269736D01*
X2391663Y6264402D01*
X2396743Y6253987D01*
X2396743Y6243573D01*
X2391663Y6233160D01*
X2386329Y6228079D01*
X2370836Y6222745D01*
X2324100Y6222745D01*
X2360422Y6222745D02*
G01*
X2396743Y6165595D01*
X2457195Y6274815D02*
G01*
X2441447Y6269736D01*
X2436368Y6259321D01*
X2436368Y6248907D01*
X2441447Y6238494D01*
X2451861Y6233160D01*
X2472690Y6228079D01*
X2488184Y6222745D01*
X2498597Y6212586D01*
X2503931Y6202171D01*
X2503931Y6186423D01*
X2498597Y6176010D01*
X2493518Y6170929D01*
X2477770Y6165595D01*
X2457195Y6165595D01*
X2441447Y6170929D01*
X2436368Y6176010D01*
X2431034Y6186423D01*
X2431034Y6202171D01*
X2436368Y6212586D01*
X2446781Y6222745D01*
X2462275Y6228079D01*
X2483104Y6233160D01*
X2493518Y6238494D01*
X2498597Y6248907D01*
X2498597Y6259321D01*
X2493518Y6269736D01*
X2477770Y6274815D01*
X2457195Y6274815D01*
X3123161Y8267687D02*
G01*
X3232381Y8267687D01*
X3123161Y8267687D02*
G01*
X3123161Y8314423D01*
X3128241Y8329917D01*
X3133575Y8335251D01*
X3143989Y8340331D01*
X3154403Y8340331D01*
X3164817Y8335251D01*
X3169897Y8329917D01*
X3175231Y8314423D01*
X3175231Y8267687D01*
X3175231Y8304009D02*
G01*
X3232381Y8340331D01*
X3143989Y8374621D02*
G01*
X3138655Y8385035D01*
X3123161Y8400783D01*
X3232381Y8400783D01*
X3123161Y8466061D02*
G01*
X3128241Y8450567D01*
X3143989Y8440153D01*
X3169897Y8435073D01*
X3185391Y8435073D01*
X3211553Y8440153D01*
X3227047Y8450567D01*
X3232381Y8466061D01*
X3232381Y8476475D01*
X3227047Y8492223D01*
X3211553Y8502637D01*
X3185391Y8507717D01*
X3169897Y8507717D01*
X3143989Y8502637D01*
X3128241Y8492223D01*
X3123161Y8476475D01*
X3123161Y8466061D01*
X1803400Y6528815D02*
G01*
X1803400Y6419595D01*
X1803400Y6528815D02*
G01*
X1850136Y6528815D01*
X1865629Y6523736D01*
X1870963Y6518402D01*
X1876044Y6507987D01*
X1876044Y6497573D01*
X1870963Y6487160D01*
X1865629Y6482079D01*
X1850136Y6476745D01*
X1803400Y6476745D01*
X1839721Y6476745D02*
G01*
X1876044Y6419595D01*
X1910334Y6507987D02*
G01*
X1920747Y6513321D01*
X1936495Y6528815D01*
X1936495Y6419595D01*
X1970786Y6507987D02*
G01*
X1981200Y6513321D01*
X1996693Y6528815D01*
X1996693Y6419595D01*
X2602461Y8267687D02*
G01*
X2711681Y8267687D01*
X2602461Y8267687D02*
G01*
X2602461Y8314423D01*
X2607541Y8329917D01*
X2612875Y8335251D01*
X2623289Y8340331D01*
X2633703Y8340331D01*
X2644117Y8335251D01*
X2649197Y8329917D01*
X2654531Y8314423D01*
X2654531Y8267687D01*
X2654531Y8304009D02*
G01*
X2711681Y8340331D01*
X2623289Y8374621D02*
G01*
X2617955Y8385035D01*
X2602461Y8400783D01*
X2711681Y8400783D01*
X2628369Y8440153D02*
G01*
X2623289Y8440153D01*
X2612875Y8445487D01*
X2607541Y8450567D01*
X2602461Y8460981D01*
X2602461Y8481809D01*
X2607541Y8492223D01*
X2612875Y8497303D01*
X2623289Y8502637D01*
X2633703Y8502637D01*
X2644117Y8497303D01*
X2659611Y8486889D01*
X2711681Y8435073D01*
X2711681Y8507717D01*
X1853166Y7124687D02*
G01*
X1962386Y7124687D01*
X1853166Y7124687D02*
G01*
X1853166Y7171423D01*
X1858246Y7186917D01*
X1863580Y7192251D01*
X1873994Y7197331D01*
X1884408Y7197331D01*
X1894822Y7192251D01*
X1899902Y7186917D01*
X1905236Y7171423D01*
X1905236Y7124687D01*
X1905236Y7161009D02*
G01*
X1962386Y7197331D01*
X1873994Y7231621D02*
G01*
X1868660Y7242035D01*
X1853166Y7257783D01*
X1962386Y7257783D01*
X1853166Y7302487D02*
G01*
X1853166Y7359637D01*
X1894822Y7328395D01*
X1894822Y7343889D01*
X1899902Y7354303D01*
X1905236Y7359637D01*
X1920730Y7364717D01*
X1931144Y7364717D01*
X1946638Y7359637D01*
X1957052Y7349223D01*
X1962386Y7333475D01*
X1962386Y7317981D01*
X1957052Y7302487D01*
X1951972Y7297153D01*
X1941558Y7292073D01*
X1345166Y7124687D02*
G01*
X1454386Y7124687D01*
X1345166Y7124687D02*
G01*
X1345166Y7171423D01*
X1350246Y7186917D01*
X1355580Y7192251D01*
X1365994Y7197331D01*
X1376408Y7197331D01*
X1386822Y7192251D01*
X1391902Y7186917D01*
X1397236Y7171423D01*
X1397236Y7124687D01*
X1397236Y7161009D02*
G01*
X1454386Y7197331D01*
X1365994Y7231621D02*
G01*
X1360660Y7242035D01*
X1345166Y7257783D01*
X1454386Y7257783D01*
X1345166Y7343889D02*
G01*
X1417810Y7292073D01*
X1417810Y7369797D01*
X1345166Y7343889D02*
G01*
X1454386Y7343889D01*
X1181100Y8433815D02*
G01*
X1181100Y8355837D01*
X1186179Y8340344D01*
X1196594Y8329929D01*
X1212342Y8324595D01*
X1222755Y8324595D01*
X1238250Y8329929D01*
X1248663Y8340344D01*
X1253744Y8355837D01*
X1253744Y8433815D01*
X1288034Y8412987D02*
G01*
X1298447Y8418321D01*
X1314195Y8433815D01*
X1314195Y8324595D01*
X1379473Y8433815D02*
G01*
X1363979Y8428736D01*
X1353565Y8412987D01*
X1348486Y8387079D01*
X1348486Y8371586D01*
X1353565Y8345423D01*
X1363979Y8329929D01*
X1379473Y8324595D01*
X1389887Y8324595D01*
X1405636Y8329929D01*
X1416050Y8345423D01*
X1421129Y8371586D01*
X1421129Y8387079D01*
X1416050Y8412987D01*
X1405636Y8428736D01*
X1389887Y8433815D01*
X1379473Y8433815D01*
X1701800Y8433815D02*
G01*
X1701800Y8355837D01*
X1706879Y8340344D01*
X1717294Y8329929D01*
X1733042Y8324595D01*
X1743455Y8324595D01*
X1758950Y8329929D01*
X1769363Y8340344D01*
X1774444Y8355837D01*
X1774444Y8433815D01*
X1808734Y8412987D02*
G01*
X1819147Y8418321D01*
X1834895Y8433815D01*
X1834895Y8324595D01*
X1869186Y8412987D02*
G01*
X1879600Y8418321D01*
X1895094Y8433815D01*
X1895094Y8324595D01*
X2501900Y7187133D02*
G01*
X2501900Y7265111D01*
X2496820Y7280605D01*
X2486406Y7291019D01*
X2470658Y7296353D01*
X2460243Y7296353D01*
X2444750Y7291019D01*
X2434336Y7280605D01*
X2429256Y7265111D01*
X2429256Y7187133D01*
X2394965Y7207961D02*
G01*
X2384552Y7202627D01*
X2368804Y7187133D01*
X2368804Y7296353D01*
X2329434Y7213041D02*
G01*
X2329434Y7207961D01*
X2324100Y7197547D01*
X2319020Y7192213D01*
X2308606Y7187133D01*
X2287777Y7187133D01*
X2277363Y7192213D01*
X2272284Y7197547D01*
X2266950Y7207961D01*
X2266950Y7218375D01*
X2272284Y7228789D01*
X2282697Y7244283D01*
X2334513Y7296353D01*
X2261870Y7296353D01*
X3136900Y7187133D02*
G01*
X3136900Y7265111D01*
X3131820Y7280605D01*
X3121406Y7291019D01*
X3105658Y7296353D01*
X3095243Y7296353D01*
X3079750Y7291019D01*
X3069336Y7280605D01*
X3064256Y7265111D01*
X3064256Y7187133D01*
X3029965Y7207961D02*
G01*
X3019552Y7202627D01*
X3003804Y7187133D01*
X3003804Y7296353D01*
X2959100Y7187133D02*
G01*
X2901950Y7187133D01*
X2933191Y7228789D01*
X2917697Y7228789D01*
X2907284Y7233869D01*
X2901950Y7239203D01*
X2896870Y7254697D01*
X2896870Y7265111D01*
X2901950Y7280605D01*
X2912363Y7291019D01*
X2928111Y7296353D01*
X2943606Y7296353D01*
X2959100Y7291019D01*
X2964434Y7285939D01*
X2969513Y7275525D01*
D11*
X3175000Y9271000D02*
G01*
X3175000Y9867900D01*
X2921000Y9271000D02*
G01*
X2921000Y9867900D01*
X2794000Y9271000D02*
G01*
X3302000Y9271000D01*
X3302000Y9017000D01*
X2794000Y9017000D01*
X2794000Y9271000D01*
X2667000Y9271000D02*
G01*
X2667000Y9867900D01*
X2413000Y9271000D02*
G01*
X2413000Y9867900D01*
X2286000Y9271000D02*
G01*
X2794000Y9271000D01*
X2794000Y9017000D01*
X2286000Y9017000D01*
X2286000Y9271000D01*
X2921000Y5715000D02*
G01*
X2921000Y5118100D01*
X3175000Y5715000D02*
G01*
X3175000Y5118100D01*
X3302000Y5715000D02*
G01*
X2794000Y5715000D01*
X2794000Y5969000D01*
X3302000Y5969000D01*
X3302000Y5715000D01*
X1880679Y5715000D02*
G01*
X1880679Y5080000D01*
X1917700Y5080000D01*
X1930400Y5080000D01*
X1930400Y5715000D01*
X2033000Y5969000D02*
G01*
X2033000Y5715000D01*
X1015001Y5715000D02*
G01*
X2033000Y5715000D01*
X1015001Y5969000D02*
G01*
X2033000Y5969000D01*
X1626679Y5715000D02*
G01*
X1626679Y5080000D01*
X1663700Y5080000D01*
X1676400Y5080000D01*
X1676400Y5715000D01*
X1372679Y5715000D02*
G01*
X1372679Y5080000D01*
X1409700Y5080000D01*
X1422400Y5080000D01*
X1422400Y5715000D01*
X1118679Y5715000D02*
G01*
X1118679Y5080000D01*
X1155700Y5080000D01*
X1168400Y5080000D01*
X1168400Y5715000D01*
X1014999Y5969000D02*
G01*
X1014999Y5715000D01*
X1397000Y9271000D02*
G01*
X1397000Y9867900D01*
X1143000Y9271000D02*
G01*
X1143000Y9867900D01*
X1016000Y9271000D02*
G01*
X1524000Y9271000D01*
X1524000Y9017000D01*
X1016000Y9017000D01*
X1016000Y9271000D01*
X1981121Y6223000D02*
G01*
X2087999Y6223000D01*
X2738000Y6222596D02*
G01*
X2844878Y6222596D01*
X2087999Y6107998D02*
G01*
X2087999Y6338001D01*
X2087999Y6338001D02*
G01*
X2738000Y6338001D01*
X2738000Y6334998D02*
G01*
X2738000Y6111001D01*
X2738000Y6107998D02*
G01*
X2087999Y6107998D01*
X3174987Y8051794D02*
G01*
X3174987Y7975594D01*
X3174987Y8712194D02*
G01*
X3174987Y8788394D01*
X3060687Y8064487D02*
G01*
X3060687Y8712187D01*
X3289287Y8712187D01*
X3289287Y8064487D01*
X3060687Y8064487D01*
X1473121Y6477000D02*
G01*
X1579999Y6477000D01*
X2230000Y6476596D02*
G01*
X2336878Y6476596D01*
X1579999Y6361998D02*
G01*
X1579999Y6592001D01*
X1579999Y6592001D02*
G01*
X2230000Y6592001D01*
X2230000Y6588998D02*
G01*
X2230000Y6365001D01*
X2230000Y6361998D02*
G01*
X1579999Y6361998D01*
X2666987Y8051794D02*
G01*
X2666987Y7975594D01*
X2666987Y8712194D02*
G01*
X2666987Y8788394D01*
X2552687Y8064487D02*
G01*
X2552687Y8712187D01*
X2781287Y8712187D01*
X2781287Y8064487D01*
X2552687Y8064487D01*
X1904987Y6908794D02*
G01*
X1904987Y6832594D01*
X1904987Y7569194D02*
G01*
X1904987Y7645394D01*
X1790687Y6921487D02*
G01*
X1790687Y7569187D01*
X2019287Y7569187D01*
X2019287Y6921487D01*
X1790687Y6921487D01*
X1396987Y6908794D02*
G01*
X1396987Y6832594D01*
X1396987Y7569194D02*
G01*
X1396987Y7645394D01*
X1282687Y6921487D02*
G01*
X1282687Y7569187D01*
X1511287Y7569187D01*
X1511287Y6921487D01*
X1282687Y6921487D01*
X1905000Y9271000D02*
G01*
X1905000Y9867900D01*
X1651000Y9271000D02*
G01*
X1651000Y9867900D01*
X1524000Y9271000D02*
G01*
X2032000Y9271000D01*
X2032000Y9017000D01*
X1524000Y9017000D01*
X1524000Y9271000D01*
X1040892Y8127740D02*
G01*
X1498092Y8127740D01*
X1498092Y8635141D02*
G01*
X1498092Y8127740D01*
X1040892Y8304941D02*
G01*
X1040892Y8127740D01*
X1040892Y8635141D02*
G01*
X1040892Y8457341D01*
X1040892Y8635141D02*
G01*
X1498092Y8635141D01*
X1548892Y8127740D02*
G01*
X2006091Y8127740D01*
X2006091Y8635141D02*
G01*
X2006091Y8127740D01*
X1548892Y8304941D02*
G01*
X1548892Y8127740D01*
X1548892Y8635141D02*
G01*
X1548892Y8457341D01*
X1548892Y8635141D02*
G01*
X2006091Y8635141D01*
X2642097Y7493137D02*
G01*
X2184897Y7493137D01*
X2184897Y6985736D02*
G01*
X2184897Y7493137D01*
X2642097Y7315936D02*
G01*
X2642097Y7493137D01*
X2642097Y6985736D02*
G01*
X2642097Y7163536D01*
X2642097Y6985736D02*
G01*
X2184897Y6985736D01*
X3277097Y7493137D02*
G01*
X2819897Y7493137D01*
X2819897Y6985736D02*
G01*
X2819897Y7493137D01*
X3277097Y7315936D02*
G01*
X3277097Y7493137D01*
X3277097Y6985736D02*
G01*
X3277097Y7163536D01*
X3277097Y6985736D02*
G01*
X2819897Y6985736D01*
G75*
G01*
X1040892Y8457341D02*
G02*
X1040892Y8304941I0J-76200D01*
G75*
G01*
X1548892Y8457341D02*
G02*
X1548892Y8304941I0J-76200D01*
G75*
G01*
X2642098Y7163537D02*
G02*
X2642098Y7315937I0J76200D01*
G75*
G01*
X3277098Y7163537D02*
G02*
X3277098Y7315937I0J76200D01*
G75*
G01
X994461Y8120685D02*
G03X994461Y8120685I-12700J0D01*
G75*
G01
X1502461Y8120685D02*
G03X1502461Y8120685I-12700J0D01*
G75*
G01
X2713939Y7500188D02*
G03X2713939Y7500188I-12700J0D01*
G75*
G01
X3348939Y7500188D02*
G03X3348939Y7500188I-12700J0D01*
M02*
