G04 Layer: BottomLayer*
G04 EasyEDA v6.5.42, 2024-04-10 21:16:21*
G04 3d983429d5ee456581bb66d28f0ab4ba,edc686363fba4cf3ab42fed1df3dfb96,10*
G04 Gerber Generator version 0.2*
G04 Scale: 100 percent, Rotated: No, Reflected: No *
G04 Dimensions in millimeters *
G04 leading zeros omitted , absolute positions ,4 integer and 5 decimal *
%FSLAX45Y45*%
%MOMM*%

%ADD10C,0.5080*%
%ADD11C,1.7000*%
%ADD12R,1.7000X1.7000*%
%ADD13C,1.4000*%
%ADD14C,1.6000*%
%ADD15C,1.8000*%
%ADD16R,1.8000X1.8000*%
%ADD17R,0.0126X1.8000*%

%LPD*%
G36*
X1333449Y5550916D02*
G01*
X1329131Y5551830D01*
X1325626Y5554573D01*
X1323594Y5558485D01*
X1323441Y5562904D01*
X1325168Y5566968D01*
X1328420Y5569915D01*
X1335125Y5573674D01*
X1341526Y5577789D01*
X1347622Y5582310D01*
X1353464Y5587187D01*
X1359154Y5592521D01*
X1423162Y5656529D01*
X1425549Y5658307D01*
X1428292Y5659323D01*
X1443482Y5662422D01*
X1461414Y5668060D01*
X1478686Y5675477D01*
X1495094Y5684570D01*
X1510538Y5695340D01*
X1517396Y5701182D01*
X1520494Y5703011D01*
X1524000Y5703620D01*
X1527505Y5703011D01*
X1530604Y5701182D01*
X1537462Y5695340D01*
X1552905Y5684570D01*
X1569313Y5675477D01*
X1586585Y5668060D01*
X1604518Y5662422D01*
X1622907Y5658662D01*
X1641602Y5656732D01*
X1660398Y5656732D01*
X1679092Y5658662D01*
X1697482Y5662422D01*
X1715414Y5668060D01*
X1732686Y5675477D01*
X1749094Y5684570D01*
X1764538Y5695340D01*
X1771396Y5701182D01*
X1774494Y5703011D01*
X1778000Y5703620D01*
X1781505Y5703011D01*
X1784604Y5701182D01*
X1791462Y5695340D01*
X1806905Y5684570D01*
X1823313Y5675477D01*
X1840585Y5668060D01*
X1858518Y5662422D01*
X1876907Y5658662D01*
X1895602Y5656732D01*
X1914398Y5656732D01*
X1933092Y5658662D01*
X1951482Y5662422D01*
X1969414Y5668060D01*
X1986686Y5675477D01*
X2003094Y5684570D01*
X2018538Y5695340D01*
X2032812Y5707532D01*
X2045766Y5721197D01*
X2057247Y5736031D01*
X2067204Y5751982D01*
X2075484Y5768848D01*
X2081987Y5786475D01*
X2086711Y5804662D01*
X2089556Y5823254D01*
X2090470Y5842000D01*
X2090369Y5844590D01*
X2091029Y5848756D01*
X2093315Y5852261D01*
X2171598Y5930544D01*
X2175357Y5932932D01*
X2179828Y5933440D01*
X2184044Y5932017D01*
X2187295Y5928868D01*
X2188819Y5924651D01*
X2188413Y5920181D01*
X2183587Y5905296D01*
X2178812Y5884468D01*
X2175967Y5863285D01*
X2175002Y5841949D01*
X2175967Y5820664D01*
X2178812Y5799480D01*
X2183587Y5778652D01*
X2190191Y5758332D01*
X2198573Y5738723D01*
X2208682Y5719927D01*
X2220468Y5702096D01*
X2233777Y5685383D01*
X2248509Y5669940D01*
X2264613Y5655919D01*
X2281885Y5643372D01*
X2300224Y5632399D01*
X2319477Y5623153D01*
X2339441Y5615635D01*
X2360015Y5609945D01*
X2381046Y5606135D01*
X2402332Y5604205D01*
X2423668Y5604205D01*
X2444953Y5606135D01*
X2465984Y5609945D01*
X2486558Y5615635D01*
X2506522Y5623153D01*
X2525776Y5632399D01*
X2544114Y5643372D01*
X2561386Y5655919D01*
X2577490Y5669940D01*
X2592222Y5685383D01*
X2605532Y5702096D01*
X2617317Y5719927D01*
X2627426Y5738723D01*
X2635808Y5758332D01*
X2642412Y5778652D01*
X2647188Y5799480D01*
X2650032Y5820664D01*
X2650998Y5841949D01*
X2650032Y5863285D01*
X2647188Y5884468D01*
X2642412Y5905296D01*
X2635808Y5925616D01*
X2627426Y5945225D01*
X2617317Y5964021D01*
X2605532Y5981852D01*
X2592222Y5998565D01*
X2577490Y6014008D01*
X2561386Y6028029D01*
X2544114Y6040577D01*
X2525776Y6051550D01*
X2506522Y6060795D01*
X2486558Y6068314D01*
X2465984Y6074003D01*
X2444953Y6077813D01*
X2423668Y6079744D01*
X2402332Y6079744D01*
X2381046Y6077813D01*
X2360015Y6074003D01*
X2339441Y6068314D01*
X2335225Y6066739D01*
X2331364Y6066078D01*
X2327554Y6066942D01*
X2324354Y6069228D01*
X2322220Y6072530D01*
X2321509Y6076340D01*
X2322322Y6080201D01*
X2324506Y6083452D01*
X2351684Y6110630D01*
X2354935Y6112814D01*
X2358847Y6113576D01*
X2802686Y6113576D01*
X2807055Y6112611D01*
X2811322Y6108903D01*
X2823921Y6096304D01*
X2837789Y6085078D01*
X2852775Y6075324D01*
X2868676Y6067247D01*
X2885338Y6060846D01*
X2902559Y6056223D01*
X2920187Y6053429D01*
X2938018Y6052515D01*
X2955798Y6053429D01*
X2973425Y6056223D01*
X2990697Y6060846D01*
X3007360Y6067247D01*
X3023260Y6075324D01*
X3033928Y6082284D01*
X3037941Y6083808D01*
X3042259Y6083503D01*
X3046069Y6081420D01*
X3048660Y6077966D01*
X3049625Y6073749D01*
X3049625Y5997651D01*
X3048660Y5993384D01*
X3045968Y5989878D01*
X3042107Y5987846D01*
X3037687Y5987643D01*
X3033623Y5989320D01*
X3019094Y5999429D01*
X3002686Y6008522D01*
X2985414Y6015939D01*
X2969869Y6020816D01*
X2969869Y5890869D01*
X2983230Y5890869D01*
X2987497Y5889904D01*
X2990951Y5887313D01*
X2992983Y5883503D01*
X2993288Y5879134D01*
X2990443Y5860745D01*
X2989529Y5842000D01*
X2990443Y5823254D01*
X2993288Y5804865D01*
X2992983Y5800496D01*
X2990951Y5796686D01*
X2987497Y5794095D01*
X2983230Y5793130D01*
X2969869Y5793130D01*
X2969869Y5663184D01*
X2985414Y5668060D01*
X3002686Y5675477D01*
X3019094Y5684570D01*
X3034538Y5695340D01*
X3041396Y5701182D01*
X3044494Y5703011D01*
X3048000Y5703620D01*
X3051505Y5703011D01*
X3054604Y5701182D01*
X3061462Y5695340D01*
X3076905Y5684570D01*
X3093313Y5675477D01*
X3110585Y5668060D01*
X3128518Y5662422D01*
X3146907Y5658662D01*
X3165602Y5656732D01*
X3184398Y5656732D01*
X3203092Y5658662D01*
X3221482Y5662422D01*
X3239414Y5668060D01*
X3256686Y5675477D01*
X3273094Y5684570D01*
X3288537Y5695340D01*
X3302812Y5707532D01*
X3315766Y5721197D01*
X3327247Y5736031D01*
X3337204Y5751982D01*
X3345484Y5768848D01*
X3351987Y5786475D01*
X3356711Y5804662D01*
X3359556Y5823254D01*
X3360470Y5842000D01*
X3359556Y5860745D01*
X3356711Y5879338D01*
X3351987Y5897524D01*
X3345484Y5915152D01*
X3337204Y5932017D01*
X3327247Y5947968D01*
X3315766Y5962802D01*
X3304235Y5974943D01*
X3302152Y5978194D01*
X3301441Y5981954D01*
X3301441Y6699808D01*
X3302254Y6703872D01*
X3304641Y6707276D01*
X3311855Y6713931D01*
X3324453Y6728155D01*
X3335528Y6743598D01*
X3345027Y6760057D01*
X3352800Y6777329D01*
X3358845Y6795363D01*
X3363112Y6813854D01*
X3365449Y6832701D01*
X3365906Y6851700D01*
X3364534Y6870649D01*
X3361232Y6889343D01*
X3356051Y6907631D01*
X3349142Y6925309D01*
X3340455Y6942175D01*
X3330143Y6958126D01*
X3318306Y6973011D01*
X3305048Y6986574D01*
X3290519Y6998817D01*
X3274822Y7009485D01*
X3258159Y7018578D01*
X3240633Y7025944D01*
X3222498Y7031532D01*
X3203905Y7035292D01*
X3185007Y7037222D01*
X3167481Y7037222D01*
X3163620Y7037984D01*
X3160318Y7040168D01*
X3094177Y7106310D01*
X3088538Y7111644D01*
X3082696Y7116521D01*
X3076549Y7120991D01*
X3070199Y7125157D01*
X3063544Y7128865D01*
X3056737Y7132218D01*
X3049676Y7135114D01*
X3042513Y7137603D01*
X3035198Y7139635D01*
X3027730Y7141209D01*
X3020212Y7142378D01*
X3012643Y7143089D01*
X3004870Y7143292D01*
X2711145Y7143292D01*
X2703372Y7143089D01*
X2695803Y7142378D01*
X2688285Y7141209D01*
X2680817Y7139635D01*
X2673502Y7137603D01*
X2666339Y7135114D01*
X2659278Y7132218D01*
X2652471Y7128865D01*
X2645816Y7125157D01*
X2639466Y7120991D01*
X2633319Y7116521D01*
X2627477Y7111644D01*
X2621838Y7106310D01*
X2555697Y7040168D01*
X2552395Y7037984D01*
X2548534Y7037222D01*
X2531008Y7037222D01*
X2512110Y7035292D01*
X2493467Y7031532D01*
X2475331Y7025944D01*
X2457856Y7018578D01*
X2441143Y7009485D01*
X2425496Y6998817D01*
X2420010Y6994245D01*
X2416962Y6992467D01*
X2413508Y6991858D01*
X2410002Y6992467D01*
X2406954Y6994245D01*
X2401519Y6998817D01*
X2385822Y7009485D01*
X2369159Y7018578D01*
X2351633Y7025944D01*
X2333498Y7031532D01*
X2314854Y7035292D01*
X2296007Y7037222D01*
X2277008Y7037222D01*
X2258110Y7035292D01*
X2239467Y7031532D01*
X2221331Y7025944D01*
X2203856Y7018578D01*
X2187143Y7009485D01*
X2171446Y6998817D01*
X2156917Y6986574D01*
X2143658Y6973011D01*
X2131822Y6958126D01*
X2121509Y6942175D01*
X2112873Y6925309D01*
X2105914Y6907631D01*
X2100783Y6889343D01*
X2097481Y6870649D01*
X2096058Y6851700D01*
X2096516Y6832701D01*
X2098903Y6813854D01*
X2103120Y6795363D01*
X2109165Y6777329D01*
X2116988Y6760057D01*
X2126488Y6743598D01*
X2137562Y6728155D01*
X2150110Y6713931D01*
X2157374Y6707225D01*
X2159762Y6703822D01*
X2160625Y6699758D01*
X2160625Y6471361D01*
X2159812Y6467449D01*
X2157628Y6464147D01*
X2029764Y6336284D01*
X2026462Y6334099D01*
X2022551Y6333337D01*
X2018690Y6334099D01*
X2015388Y6336334D01*
X2002078Y6349695D01*
X1988210Y6360922D01*
X1973224Y6370675D01*
X1957324Y6378752D01*
X1940661Y6385153D01*
X1929333Y6388201D01*
X1929333Y6264351D01*
X1933295Y6264351D01*
X1937156Y6263589D01*
X1940458Y6261354D01*
X1942693Y6258102D01*
X1943455Y6254191D01*
X1942693Y6250279D01*
X1940458Y6247028D01*
X1864004Y6170523D01*
X1860702Y6168339D01*
X1856790Y6167526D01*
X1852930Y6168339D01*
X1849628Y6170523D01*
X1847443Y6173825D01*
X1846630Y6177686D01*
X1846630Y6181648D01*
X1722831Y6181648D01*
X1725828Y6170320D01*
X1732229Y6153658D01*
X1740357Y6137757D01*
X1749145Y6124194D01*
X1750618Y6120536D01*
X1750568Y6116523D01*
X1748993Y6112916D01*
X1746148Y6110122D01*
X1740052Y6106210D01*
X1733956Y6101689D01*
X1728114Y6096812D01*
X1722424Y6091529D01*
X1661160Y6030214D01*
X1657857Y6028029D01*
X1653997Y6027267D01*
X1641602Y6027267D01*
X1622907Y6025337D01*
X1604518Y6021578D01*
X1586585Y6015939D01*
X1569313Y6008522D01*
X1552905Y5999429D01*
X1537462Y5988659D01*
X1530604Y5982817D01*
X1527505Y5980988D01*
X1524000Y5980379D01*
X1520494Y5980988D01*
X1517396Y5982817D01*
X1510538Y5988659D01*
X1495094Y5999429D01*
X1478686Y6008522D01*
X1461414Y6015939D01*
X1443482Y6021578D01*
X1425092Y6025337D01*
X1406398Y6027267D01*
X1387602Y6027267D01*
X1368907Y6025337D01*
X1350518Y6021578D01*
X1332585Y6015939D01*
X1315313Y6008522D01*
X1304290Y6002426D01*
X1300327Y6001207D01*
X1296263Y6001613D01*
X1292656Y6003645D01*
X1289151Y6006744D01*
X1278229Y6014008D01*
X1275080Y6015583D01*
X1272082Y6017818D01*
X1270101Y6021019D01*
X1269441Y6024676D01*
X1269441Y6327089D01*
X1270355Y6331305D01*
X1272946Y6334760D01*
X1276756Y6336842D01*
X1281074Y6337147D01*
X1285087Y6335623D01*
X1294739Y6329324D01*
X1310640Y6321247D01*
X1327302Y6314846D01*
X1338630Y6311798D01*
X1338630Y6435648D01*
X1279601Y6435648D01*
X1275689Y6436410D01*
X1272387Y6438646D01*
X1270203Y6441897D01*
X1269441Y6445808D01*
X1269441Y6508191D01*
X1270203Y6512102D01*
X1272387Y6515354D01*
X1275689Y6517589D01*
X1279601Y6518351D01*
X1338630Y6518351D01*
X1338630Y6654749D01*
X1339291Y6658254D01*
X1341069Y6661302D01*
X1343863Y6663588D01*
X1347216Y6664756D01*
X1350619Y6665315D01*
X1350619Y6667652D01*
X1279601Y6667652D01*
X1275689Y6668414D01*
X1272387Y6670598D01*
X1270203Y6673900D01*
X1269441Y6677812D01*
X1269441Y6750202D01*
X1270203Y6754063D01*
X1272387Y6757365D01*
X1275689Y6759549D01*
X1279601Y6760362D01*
X1350619Y6760362D01*
X1350619Y6888175D01*
X1342085Y6885940D01*
X1324711Y6879386D01*
X1308100Y6871055D01*
X1292402Y6861098D01*
X1285900Y6855917D01*
X1281785Y6853986D01*
X1277315Y6853986D01*
X1273251Y6855968D01*
X1270406Y6859524D01*
X1269441Y6863892D01*
X1269441Y7613853D01*
X1270355Y7618120D01*
X1273048Y7621625D01*
X1277010Y7623657D01*
X1281379Y7623809D01*
X1285443Y7622133D01*
X1300124Y7611719D01*
X1316278Y7602524D01*
X1333296Y7595108D01*
X1351026Y7589469D01*
X1369212Y7585659D01*
X1387703Y7583728D01*
X1406296Y7583728D01*
X1424787Y7585659D01*
X1442974Y7589469D01*
X1460652Y7595108D01*
X1477670Y7602524D01*
X1493875Y7611719D01*
X1509014Y7622489D01*
X1522984Y7634731D01*
X1535582Y7648346D01*
X1546758Y7663230D01*
X1556308Y7679181D01*
X1564182Y7695996D01*
X1570278Y7713573D01*
X1574546Y7731658D01*
X1576933Y7750048D01*
X1577441Y7768640D01*
X1575917Y7787436D01*
X1576120Y7791856D01*
X1578152Y7795768D01*
X1581607Y7798460D01*
X1585925Y7799425D01*
X1716024Y7799425D01*
X1720342Y7798460D01*
X1723847Y7795768D01*
X1725879Y7791856D01*
X1725980Y7787182D01*
X1724558Y7768640D01*
X1725015Y7750048D01*
X1727403Y7731658D01*
X1731670Y7713573D01*
X1737766Y7695996D01*
X1745691Y7679181D01*
X1755241Y7663230D01*
X1766366Y7648346D01*
X1779016Y7634731D01*
X1792986Y7622489D01*
X1808124Y7611719D01*
X1824278Y7602524D01*
X1841296Y7595108D01*
X1859025Y7589469D01*
X1877212Y7585659D01*
X1895703Y7583728D01*
X1914296Y7583728D01*
X1932787Y7585659D01*
X1950974Y7589469D01*
X1968652Y7595108D01*
X1985670Y7602524D01*
X2001875Y7611719D01*
X2017014Y7622489D01*
X2030984Y7634731D01*
X2043582Y7648346D01*
X2054758Y7663230D01*
X2064308Y7679181D01*
X2072182Y7695996D01*
X2078278Y7713573D01*
X2082546Y7731658D01*
X2084933Y7750048D01*
X2085441Y7768640D01*
X2083968Y7787182D01*
X2080666Y7805470D01*
X2075484Y7823301D01*
X2068474Y7840522D01*
X2059736Y7856931D01*
X2055774Y7862824D01*
X2054199Y7866735D01*
X2054352Y7871002D01*
X2056231Y7874812D01*
X2060193Y7879740D01*
X2070455Y7895691D01*
X2079142Y7912557D01*
X2086102Y7930235D01*
X2091232Y7948523D01*
X2094534Y7967218D01*
X2095957Y7986166D01*
X2095449Y8005165D01*
X2093112Y8024012D01*
X2088896Y8042503D01*
X2082850Y8060537D01*
X2075027Y8077809D01*
X2065528Y8094268D01*
X2054453Y8109712D01*
X2041855Y8123936D01*
X2027936Y8136839D01*
X2012797Y8148320D01*
X1996592Y8158225D01*
X1979472Y8166455D01*
X1961642Y8172958D01*
X1943252Y8177631D01*
X1924456Y8180476D01*
X1905507Y8181441D01*
X1886559Y8180476D01*
X1867763Y8177631D01*
X1849374Y8172958D01*
X1831492Y8166455D01*
X1813966Y8158022D01*
X1810156Y8157006D01*
X1806244Y8157565D01*
X1802688Y8159648D01*
X1791766Y8166963D01*
X1779981Y8172754D01*
X1767535Y8177022D01*
X1754632Y8179562D01*
X1741170Y8180425D01*
X1643278Y8180425D01*
X1639417Y8181238D01*
X1636115Y8183422D01*
X1564741Y8254796D01*
X1559102Y8260080D01*
X1553260Y8264956D01*
X1547114Y8269478D01*
X1540764Y8273592D01*
X1534109Y8277352D01*
X1527302Y8280653D01*
X1520240Y8283549D01*
X1513078Y8286038D01*
X1505762Y8288121D01*
X1498295Y8289696D01*
X1490776Y8290814D01*
X1483207Y8291525D01*
X1475435Y8291779D01*
X1031544Y8291779D01*
X1023772Y8291525D01*
X1016203Y8290814D01*
X1008684Y8289696D01*
X1001217Y8288121D01*
X993902Y8286038D01*
X986739Y8283549D01*
X979678Y8280653D01*
X972870Y8277352D01*
X966216Y8273592D01*
X959866Y8269478D01*
X953719Y8264956D01*
X947877Y8260080D01*
X942238Y8254796D01*
X932230Y8244789D01*
X928928Y8242604D01*
X925068Y8241842D01*
X921156Y8242604D01*
X917905Y8244789D01*
X915669Y8248091D01*
X914908Y8252002D01*
X914908Y9488932D01*
X915669Y9492792D01*
X917905Y9496094D01*
X921156Y9498279D01*
X925068Y9499092D01*
X3392932Y9499092D01*
X3396792Y9498279D01*
X3400094Y9496094D01*
X3402329Y9492792D01*
X3403092Y9488932D01*
X3403092Y5561076D01*
X3402329Y5557164D01*
X3400094Y5553862D01*
X3396792Y5551678D01*
X3392932Y5550916D01*
G37*

%LPC*%
G36*
X2872130Y5663184D02*
G01*
X2872130Y5793130D01*
X2742285Y5793130D01*
X2744012Y5786475D01*
X2750515Y5768848D01*
X2758795Y5751982D01*
X2768752Y5736031D01*
X2780233Y5721197D01*
X2793187Y5707532D01*
X2807462Y5695340D01*
X2822905Y5684570D01*
X2839313Y5675477D01*
X2856585Y5668060D01*
G37*
G36*
X2742285Y5890869D02*
G01*
X2872130Y5890869D01*
X2872130Y6020816D01*
X2856585Y6015939D01*
X2839313Y6008522D01*
X2822905Y5999429D01*
X2807462Y5988659D01*
X2793187Y5976467D01*
X2780233Y5962802D01*
X2768752Y5947968D01*
X2758795Y5932017D01*
X2750515Y5915152D01*
X2744012Y5897524D01*
G37*
G36*
X1722831Y6264351D02*
G01*
X1846630Y6264351D01*
X1846630Y6388201D01*
X1835302Y6385153D01*
X1818639Y6378752D01*
X1802739Y6370675D01*
X1787804Y6360922D01*
X1773936Y6349695D01*
X1761286Y6337096D01*
X1750060Y6323228D01*
X1740357Y6308242D01*
X1732229Y6292342D01*
X1725828Y6275679D01*
G37*
G36*
X1421333Y6311798D02*
G01*
X1432661Y6314846D01*
X1449324Y6321247D01*
X1465224Y6329324D01*
X1480210Y6339078D01*
X1494078Y6350304D01*
X1506677Y6362903D01*
X1517954Y6376771D01*
X1527657Y6391757D01*
X1535734Y6407658D01*
X1542135Y6424320D01*
X1545183Y6435648D01*
X1421333Y6435648D01*
G37*
G36*
X1438452Y6518351D02*
G01*
X1545183Y6518351D01*
X1542135Y6529679D01*
X1535734Y6546342D01*
X1527657Y6562242D01*
X1521460Y6571843D01*
X1519885Y6576009D01*
X1520291Y6580428D01*
X1522526Y6584238D01*
X1535582Y6598361D01*
X1546758Y6613245D01*
X1556308Y6629146D01*
X1564182Y6646011D01*
X1570278Y6663537D01*
X1571244Y6667652D01*
X1443329Y6667652D01*
X1443329Y6527038D01*
X1442770Y6523634D01*
X1441043Y6520637D01*
G37*
G36*
X1858619Y6539585D02*
G01*
X1858619Y6667652D01*
X1730705Y6667652D01*
X1731670Y6663537D01*
X1737766Y6646011D01*
X1745691Y6629146D01*
X1755241Y6613245D01*
X1766366Y6598361D01*
X1779016Y6584746D01*
X1792986Y6572453D01*
X1808124Y6561683D01*
X1824278Y6552539D01*
X1841296Y6545122D01*
G37*
G36*
X1951329Y6539585D02*
G01*
X1968652Y6545122D01*
X1985670Y6552539D01*
X2001875Y6561683D01*
X2017014Y6572453D01*
X2030984Y6584746D01*
X2043582Y6598361D01*
X2054758Y6613245D01*
X2064308Y6629146D01*
X2072182Y6646011D01*
X2078278Y6663537D01*
X2079243Y6667652D01*
X1951329Y6667652D01*
G37*
G36*
X1730756Y6760362D02*
G01*
X1858619Y6760362D01*
X1858619Y6888175D01*
X1850085Y6885940D01*
X1832711Y6879386D01*
X1816100Y6871055D01*
X1800402Y6861098D01*
X1785823Y6849567D01*
X1772513Y6836613D01*
X1760626Y6822338D01*
X1750263Y6806895D01*
X1741525Y6790486D01*
X1734515Y6773316D01*
G37*
G36*
X1443329Y6760362D02*
G01*
X1571244Y6760362D01*
X1567484Y6773316D01*
X1560474Y6790486D01*
X1551736Y6806895D01*
X1541373Y6822338D01*
X1529435Y6836613D01*
X1516126Y6849567D01*
X1501546Y6861098D01*
X1485900Y6871055D01*
X1469288Y6879386D01*
X1451864Y6885940D01*
X1443329Y6888175D01*
G37*
G36*
X1951329Y6760362D02*
G01*
X2079243Y6760362D01*
X2075484Y6773316D01*
X2068474Y6790486D01*
X2059736Y6806895D01*
X2049373Y6822338D01*
X2037435Y6836613D01*
X2024125Y6849567D01*
X2009546Y6861098D01*
X1993900Y6871055D01*
X1977288Y6879386D01*
X1959864Y6885940D01*
X1951329Y6888175D01*
G37*
G36*
X2285492Y7439456D02*
G01*
X2304440Y7440422D01*
X2323236Y7443216D01*
X2341626Y7447940D01*
X2359456Y7454392D01*
X2377033Y7462875D01*
X2380843Y7463840D01*
X2384755Y7463332D01*
X2388311Y7461199D01*
X2399233Y7453934D01*
X2411018Y7448092D01*
X2423464Y7443876D01*
X2436368Y7441285D01*
X2449830Y7440422D01*
X2629154Y7440422D01*
X2642616Y7441285D01*
X2655468Y7443876D01*
X2667914Y7448092D01*
X2679700Y7453934D01*
X2690672Y7461199D01*
X2700528Y7469886D01*
X2709214Y7479741D01*
X2716530Y7490714D01*
X2722321Y7502499D01*
X2726537Y7514945D01*
X2729128Y7527798D01*
X2729992Y7542326D01*
X2730754Y7546187D01*
X2732887Y7549438D01*
X2736138Y7551674D01*
X2739948Y7552486D01*
X2743809Y7551775D01*
X2747162Y7549692D01*
X2749397Y7546492D01*
X2750972Y7543038D01*
X2760472Y7526578D01*
X2771546Y7511186D01*
X2784094Y7496962D01*
X2798064Y7484008D01*
X2813202Y7472578D01*
X2829356Y7462672D01*
X2846476Y7454392D01*
X2864358Y7447940D01*
X2882747Y7443216D01*
X2901543Y7440422D01*
X2920492Y7439456D01*
X2939440Y7440422D01*
X2958236Y7443216D01*
X2976626Y7447940D01*
X2994456Y7454392D01*
X3012033Y7462875D01*
X3015843Y7463840D01*
X3019755Y7463332D01*
X3023311Y7461199D01*
X3034233Y7453934D01*
X3046018Y7448092D01*
X3058464Y7443876D01*
X3071368Y7441285D01*
X3084830Y7440422D01*
X3264153Y7440422D01*
X3277615Y7441285D01*
X3290468Y7443876D01*
X3302914Y7448092D01*
X3314700Y7453934D01*
X3325672Y7461199D01*
X3335528Y7469886D01*
X3344214Y7479741D01*
X3351529Y7490714D01*
X3357321Y7502499D01*
X3361537Y7514945D01*
X3364128Y7527798D01*
X3364992Y7541259D01*
X3364992Y7720584D01*
X3364128Y7734046D01*
X3361537Y7746949D01*
X3357321Y7759395D01*
X3351529Y7771180D01*
X3344113Y7782255D01*
X3342792Y7785100D01*
X3342386Y7788148D01*
X3342944Y7791246D01*
X3348278Y7806537D01*
X3352546Y7824622D01*
X3354933Y7843062D01*
X3355441Y7861655D01*
X3353968Y7880146D01*
X3350666Y7898434D01*
X3345484Y7916316D01*
X3338474Y7933486D01*
X3329736Y7949895D01*
X3319373Y7965338D01*
X3307435Y7979613D01*
X3294126Y7992567D01*
X3279546Y8004098D01*
X3263900Y8014055D01*
X3247288Y8022386D01*
X3229864Y8028940D01*
X3211931Y8033664D01*
X3193542Y8036509D01*
X3175000Y8037474D01*
X3156407Y8036509D01*
X3138068Y8033664D01*
X3120085Y8028940D01*
X3102711Y8022386D01*
X3086100Y8014055D01*
X3070402Y8004098D01*
X3062884Y7998155D01*
X3058769Y7996174D01*
X3054299Y7996224D01*
X3050235Y7998155D01*
X3047390Y8001711D01*
X3046425Y8006080D01*
X3046425Y8757564D01*
X3047339Y8761882D01*
X3050032Y8765387D01*
X3053994Y8767419D01*
X3058363Y8767572D01*
X3062427Y8765844D01*
X3078124Y8754719D01*
X3094278Y8745524D01*
X3111296Y8738108D01*
X3129026Y8732469D01*
X3147212Y8728659D01*
X3165703Y8726728D01*
X3184296Y8726728D01*
X3202787Y8728659D01*
X3220974Y8732469D01*
X3238652Y8738108D01*
X3255670Y8745524D01*
X3271875Y8754719D01*
X3287014Y8765489D01*
X3300984Y8777732D01*
X3313582Y8791346D01*
X3324758Y8806230D01*
X3334308Y8822182D01*
X3342182Y8838996D01*
X3348278Y8856573D01*
X3352546Y8874658D01*
X3354933Y8893048D01*
X3355441Y8911640D01*
X3353968Y8930182D01*
X3350666Y8948470D01*
X3345484Y8966301D01*
X3338474Y8983522D01*
X3329736Y8999931D01*
X3318916Y9015882D01*
X3317341Y9019794D01*
X3317494Y9024010D01*
X3319322Y9027820D01*
X3327247Y9038031D01*
X3337204Y9053982D01*
X3345484Y9070848D01*
X3351987Y9088475D01*
X3356711Y9106662D01*
X3359556Y9125254D01*
X3360470Y9144000D01*
X3359556Y9162745D01*
X3356711Y9181338D01*
X3351987Y9199524D01*
X3345484Y9217152D01*
X3337204Y9234017D01*
X3327247Y9249968D01*
X3315766Y9264802D01*
X3302812Y9278467D01*
X3288537Y9290659D01*
X3273094Y9301429D01*
X3256686Y9310522D01*
X3239414Y9317939D01*
X3221482Y9323578D01*
X3203092Y9327337D01*
X3184398Y9329267D01*
X3165602Y9329267D01*
X3146907Y9327337D01*
X3128518Y9323578D01*
X3110585Y9317939D01*
X3093313Y9310522D01*
X3076905Y9301429D01*
X3061462Y9290659D01*
X3054604Y9284817D01*
X3051505Y9282988D01*
X3048000Y9282379D01*
X3044494Y9282988D01*
X3041396Y9284817D01*
X3034538Y9290659D01*
X3019094Y9301429D01*
X3002686Y9310522D01*
X2985414Y9317939D01*
X2967482Y9323578D01*
X2949092Y9327337D01*
X2930398Y9329267D01*
X2911602Y9329267D01*
X2892907Y9327337D01*
X2874518Y9323578D01*
X2856585Y9317939D01*
X2839313Y9310522D01*
X2822905Y9301429D01*
X2807462Y9290659D01*
X2800604Y9284817D01*
X2797505Y9282988D01*
X2794000Y9282379D01*
X2790494Y9282988D01*
X2787396Y9284817D01*
X2780538Y9290659D01*
X2765094Y9301429D01*
X2748686Y9310522D01*
X2731414Y9317939D01*
X2713482Y9323578D01*
X2695092Y9327337D01*
X2676398Y9329267D01*
X2657602Y9329267D01*
X2638907Y9327337D01*
X2620518Y9323578D01*
X2602585Y9317939D01*
X2585313Y9310522D01*
X2568905Y9301429D01*
X2553462Y9290659D01*
X2546604Y9284817D01*
X2543505Y9282988D01*
X2540000Y9282379D01*
X2536494Y9282988D01*
X2533396Y9284817D01*
X2526538Y9290659D01*
X2511094Y9301429D01*
X2494686Y9310522D01*
X2477414Y9317939D01*
X2459482Y9323578D01*
X2441092Y9327337D01*
X2422398Y9329267D01*
X2403602Y9329267D01*
X2384907Y9327337D01*
X2366518Y9323578D01*
X2348585Y9317939D01*
X2331313Y9310522D01*
X2314905Y9301429D01*
X2299462Y9290659D01*
X2285187Y9278467D01*
X2272233Y9264802D01*
X2260752Y9249968D01*
X2250795Y9234017D01*
X2242515Y9217152D01*
X2236012Y9199524D01*
X2231288Y9181338D01*
X2228443Y9162745D01*
X2227529Y9144000D01*
X2227630Y9141460D01*
X2226970Y9137294D01*
X2224684Y9133738D01*
X2196592Y9105646D01*
X2191258Y9100007D01*
X2186381Y9094165D01*
X2181860Y9088018D01*
X2177745Y9081617D01*
X2173986Y9075013D01*
X2170684Y9068155D01*
X2167788Y9061145D01*
X2165299Y9053931D01*
X2163267Y9046616D01*
X2161641Y9039199D01*
X2160524Y9031681D01*
X2159812Y9024112D01*
X2159609Y9016339D01*
X2159609Y7777429D01*
X2158847Y7773568D01*
X2156663Y7770317D01*
X2142642Y7755991D01*
X2130806Y7741158D01*
X2120493Y7725206D01*
X2111857Y7708290D01*
X2104898Y7690612D01*
X2099767Y7672324D01*
X2096465Y7653629D01*
X2095042Y7634681D01*
X2095500Y7615732D01*
X2097887Y7596886D01*
X2102104Y7578344D01*
X2108149Y7560360D01*
X2115972Y7543038D01*
X2125472Y7526578D01*
X2136546Y7511186D01*
X2149094Y7496962D01*
X2163064Y7484008D01*
X2178202Y7472578D01*
X2194356Y7462672D01*
X2211476Y7454392D01*
X2229358Y7447940D01*
X2247747Y7443216D01*
X2266543Y7440422D01*
G37*
G36*
X1132992Y8583676D02*
G01*
X1151991Y8583676D01*
X1170889Y8585555D01*
X1189482Y8589314D01*
X1207668Y8594902D01*
X1225143Y8602319D01*
X1241806Y8611362D01*
X1257503Y8622080D01*
X1262989Y8626652D01*
X1266037Y8628430D01*
X1269492Y8629040D01*
X1272997Y8628430D01*
X1276045Y8626652D01*
X1281480Y8622080D01*
X1297178Y8611362D01*
X1313840Y8602319D01*
X1331366Y8594902D01*
X1349502Y8589314D01*
X1368094Y8585555D01*
X1386992Y8583676D01*
X1405991Y8583676D01*
X1424889Y8585555D01*
X1443532Y8589314D01*
X1461668Y8594902D01*
X1479143Y8602319D01*
X1495856Y8611362D01*
X1511503Y8622080D01*
X1516989Y8626652D01*
X1520037Y8628430D01*
X1523492Y8629040D01*
X1526997Y8628430D01*
X1530045Y8626652D01*
X1535480Y8622080D01*
X1551178Y8611362D01*
X1567840Y8602319D01*
X1585366Y8594902D01*
X1603502Y8589314D01*
X1622094Y8585555D01*
X1640992Y8583676D01*
X1659991Y8583676D01*
X1678889Y8585555D01*
X1697482Y8589314D01*
X1715668Y8594902D01*
X1733143Y8602319D01*
X1749806Y8611362D01*
X1765503Y8622080D01*
X1770989Y8626652D01*
X1774037Y8628430D01*
X1777492Y8629040D01*
X1780997Y8628430D01*
X1784045Y8626652D01*
X1789480Y8622080D01*
X1805178Y8611362D01*
X1821840Y8602319D01*
X1839366Y8594902D01*
X1857502Y8589314D01*
X1876094Y8585555D01*
X1894992Y8583676D01*
X1913991Y8583676D01*
X1932889Y8585555D01*
X1951532Y8589314D01*
X1969668Y8594902D01*
X1987143Y8602319D01*
X2003856Y8611362D01*
X2019503Y8622080D01*
X2034082Y8634272D01*
X2047341Y8647887D01*
X2059178Y8662720D01*
X2069490Y8678672D01*
X2078126Y8695588D01*
X2085086Y8713266D01*
X2090216Y8731554D01*
X2093518Y8750249D01*
X2094941Y8769197D01*
X2094484Y8788146D01*
X2092096Y8806992D01*
X2087880Y8825534D01*
X2081834Y8843518D01*
X2074011Y8860840D01*
X2064512Y8877300D01*
X2053437Y8892692D01*
X2040889Y8906916D01*
X2034133Y8913164D01*
X2031746Y8916568D01*
X2030933Y8920632D01*
X2030933Y9003487D01*
X2031644Y9007297D01*
X2033727Y9010497D01*
X2045766Y9023197D01*
X2057247Y9038031D01*
X2067204Y9053982D01*
X2075484Y9070848D01*
X2081987Y9088475D01*
X2086711Y9106662D01*
X2089556Y9125254D01*
X2090470Y9144000D01*
X2089556Y9162745D01*
X2086711Y9181338D01*
X2081987Y9199524D01*
X2075484Y9217152D01*
X2067204Y9234017D01*
X2057247Y9249968D01*
X2045766Y9264802D01*
X2032812Y9278467D01*
X2018538Y9290659D01*
X2003094Y9301429D01*
X1986686Y9310522D01*
X1969414Y9317939D01*
X1951482Y9323578D01*
X1933092Y9327337D01*
X1914398Y9329267D01*
X1895602Y9329267D01*
X1876907Y9327337D01*
X1858518Y9323578D01*
X1840585Y9317939D01*
X1823313Y9310522D01*
X1806905Y9301429D01*
X1791462Y9290659D01*
X1784604Y9284817D01*
X1781505Y9282988D01*
X1778000Y9282379D01*
X1774494Y9282988D01*
X1771396Y9284817D01*
X1764538Y9290659D01*
X1749094Y9301429D01*
X1732686Y9310522D01*
X1715414Y9317939D01*
X1697482Y9323578D01*
X1679092Y9327337D01*
X1660398Y9329267D01*
X1641602Y9329267D01*
X1622907Y9327337D01*
X1604518Y9323578D01*
X1586585Y9317939D01*
X1569313Y9310522D01*
X1552905Y9301429D01*
X1537462Y9290659D01*
X1530604Y9284817D01*
X1527505Y9282988D01*
X1524000Y9282379D01*
X1520494Y9282988D01*
X1517396Y9284817D01*
X1510538Y9290659D01*
X1495094Y9301429D01*
X1478686Y9310522D01*
X1461414Y9317939D01*
X1443482Y9323578D01*
X1425092Y9327337D01*
X1406398Y9329267D01*
X1387602Y9329267D01*
X1368907Y9327337D01*
X1350518Y9323578D01*
X1332585Y9317939D01*
X1315313Y9310522D01*
X1298905Y9301429D01*
X1283462Y9290659D01*
X1276604Y9284817D01*
X1273505Y9282988D01*
X1270000Y9282379D01*
X1266494Y9282988D01*
X1263396Y9284817D01*
X1256538Y9290659D01*
X1241094Y9301429D01*
X1224686Y9310522D01*
X1207414Y9317939D01*
X1189482Y9323578D01*
X1171092Y9327337D01*
X1152398Y9329267D01*
X1133602Y9329267D01*
X1114907Y9327337D01*
X1096518Y9323578D01*
X1078585Y9317939D01*
X1061313Y9310522D01*
X1044905Y9301429D01*
X1029462Y9290659D01*
X1015187Y9278467D01*
X1002233Y9264802D01*
X990752Y9249968D01*
X980795Y9234017D01*
X972515Y9217152D01*
X966012Y9199524D01*
X961288Y9181338D01*
X958443Y9162745D01*
X957529Y9144000D01*
X958443Y9125254D01*
X961288Y9106662D01*
X966012Y9088475D01*
X972515Y9070848D01*
X980795Y9053982D01*
X990752Y9038031D01*
X1002233Y9023197D01*
X1014272Y9010497D01*
X1016355Y9007297D01*
X1017117Y9003487D01*
X1017117Y8921546D01*
X1016253Y8917482D01*
X1013866Y8914079D01*
X1006144Y8906916D01*
X993546Y8892692D01*
X982471Y8877300D01*
X972972Y8860840D01*
X965149Y8843518D01*
X959103Y8825534D01*
X954887Y8806992D01*
X952550Y8788146D01*
X952042Y8769197D01*
X953465Y8750249D01*
X956767Y8731554D01*
X961898Y8713266D01*
X968857Y8695588D01*
X977544Y8678672D01*
X987806Y8662720D01*
X999642Y8647887D01*
X1012901Y8634272D01*
X1027480Y8622080D01*
X1043178Y8611362D01*
X1059840Y8602319D01*
X1077366Y8594902D01*
X1095502Y8589314D01*
X1114094Y8585555D01*
G37*

%LPD*%
D10*
X1904492Y8773955D02*
G01*
X1905000Y8774463D01*
X1905000Y9144007D01*
X1650492Y8773955D02*
G01*
X1651000Y8774463D01*
X1651000Y9144007D01*
X1397507Y7990949D02*
G01*
X1397000Y7990441D01*
X1397000Y7764000D01*
X1905507Y7990949D02*
G01*
X1905000Y7990441D01*
X1905000Y7764000D01*
X3174491Y7796410D02*
G01*
X3175000Y7796918D01*
X3175000Y7856989D01*
X3174491Y7630929D02*
G01*
X3174491Y7796410D01*
X1396492Y8773955D02*
G01*
X1397000Y8774463D01*
X1397000Y9144007D01*
X1142492Y8773955D02*
G01*
X1143000Y8774463D01*
X1143000Y9144007D01*
X1651507Y7989958D02*
G01*
X1475612Y8165853D01*
X1031367Y8165853D01*
X974775Y8109262D01*
X974775Y5722907D01*
X1016254Y5681428D01*
X1270000Y5681428D01*
X1397000Y5808428D01*
X1397000Y5842007D01*
X1143507Y7989958D02*
G01*
X1143507Y6002992D01*
X1143000Y6002484D01*
X1143000Y5842007D02*
G01*
X1143000Y6002484D01*
X2920491Y7629939D02*
G01*
X2920491Y9143499D01*
X2921000Y9144007D01*
X3175000Y8907000D02*
G01*
X3175000Y9144007D01*
X2285491Y7629939D02*
G01*
X2285491Y9016499D01*
X2413000Y9144007D01*
X2667000Y8907000D02*
G01*
X2667000Y9144007D01*
X2539491Y7796410D02*
G01*
X2606420Y7796410D01*
X2667000Y7856989D01*
X2539491Y7630929D02*
G01*
X2539491Y7796410D01*
X2921508Y6846933D02*
G01*
X2921508Y6239492D01*
X2921508Y6239492D02*
G01*
X2937992Y6223007D01*
X1905000Y5842007D02*
G01*
X2302484Y6239492D01*
X2921508Y6239492D01*
X3175508Y6846933D02*
G01*
X3175508Y5842515D01*
X3175000Y5842007D01*
X2540508Y6846933D02*
G01*
X2710967Y7017392D01*
X3005048Y7017392D01*
X3175508Y6846933D01*
X2286508Y6477007D02*
G01*
X2429992Y6477007D01*
X2286508Y6846933D02*
G01*
X2286508Y6477007D01*
X1651000Y5842007D02*
G01*
X1811578Y6002586D01*
X1874113Y6002586D01*
X2286508Y6414980D01*
X2286508Y6477007D01*
X2921000Y5842007D02*
G01*
X3088487Y5674520D01*
X3246374Y5674520D01*
X3350869Y5779015D01*
X3350869Y6911754D01*
X3132632Y7129990D01*
X2321001Y7129990D01*
X1905000Y6713989D01*
X1380007Y6477007D02*
G01*
X1380007Y6696997D01*
X1397000Y6713989D01*
X1380007Y6477007D02*
G01*
X1888007Y6477007D01*
X1905000Y6713989D02*
G01*
X1888007Y6696997D01*
X1888007Y6477007D01*
X1888007Y6477007D02*
G01*
X1888007Y6223007D01*
D11*
G01*
X2921000Y9144000D03*
G01*
X3175000Y9144000D03*
G01*
X2413000Y9144000D03*
G01*
X2667000Y9144000D03*
G01*
X3175000Y5842000D03*
G01*
X2921000Y5842000D03*
D12*
G01*
X1143000Y5842000D03*
D11*
G01*
X1397000Y5842000D03*
G01*
X1651000Y5842000D03*
G01*
X1905000Y5842000D03*
G01*
X1143000Y9144000D03*
G01*
X1397000Y9144000D03*
D13*
G01*
X1888007Y6223000D03*
G01*
X2937992Y6223000D03*
D14*
G01*
X3175000Y7856981D03*
G01*
X3175000Y8906992D03*
D13*
G01*
X1380007Y6477000D03*
G01*
X2429992Y6477000D03*
D14*
G01*
X2667000Y7856981D03*
G01*
X2667000Y8906992D03*
G01*
X1905000Y6713981D03*
G01*
X1905000Y7763992D03*
G01*
X1397000Y6713981D03*
G01*
X1397000Y7763992D03*
D11*
G01*
X1651000Y9144000D03*
G01*
X1905000Y9144000D03*
D15*
G01*
X1397507Y7990941D03*
G01*
X1396492Y8773947D03*
G01*
X1142492Y8773947D03*
D16*
G01*
X1143507Y7989951D03*
D15*
G01*
X1905507Y7990941D03*
G01*
X1904492Y8773947D03*
G01*
X1650492Y8773947D03*
D16*
G01*
X1651507Y7989951D03*
D15*
G01*
X2285491Y7629931D03*
G01*
X2286508Y6846925D03*
G01*
X2540508Y6846925D03*
D16*
G01*
X2539491Y7630947D03*
D15*
G01*
X2920491Y7629931D03*
G01*
X2921508Y6846925D03*
G01*
X3175508Y6846925D03*
D16*
G01*
X3174491Y7630947D03*
M02*
