G04 Layer: BottomSilkscreenLayer*
G04 EasyEDA v6.5.42, 2024-04-10 21:16:21*
G04 3d983429d5ee456581bb66d28f0ab4ba,edc686363fba4cf3ab42fed1df3dfb96,10*
G04 Gerber Generator version 0.2*
G04 Scale: 100 percent, Rotated: No, Reflected: No *
G04 Dimensions in millimeters *
G04 leading zeros omitted , absolute positions ,4 integer and 5 decimal *
%FSLAX45Y45*%
%MOMM*%

%ADD10C,0.1524*%

%LPD*%
D10*
X3191733Y9421535D02*
G01*
X3191733Y9328017D01*
X3238492Y9374776D02*
G01*
X3144974Y9374776D01*
X3110684Y9437121D02*
G01*
X3110684Y9328017D01*
X3037946Y9437121D02*
G01*
X3037946Y9328017D01*
X3110684Y9385167D02*
G01*
X3037946Y9385167D01*
X3003656Y9437121D02*
G01*
X3003656Y9328017D01*
X3003656Y9437121D02*
G01*
X2967288Y9437121D01*
X2951703Y9431926D01*
X2941312Y9421535D01*
X2936118Y9411144D01*
X2930921Y9395556D01*
X2930921Y9369579D01*
X2936118Y9353994D01*
X2941312Y9343603D01*
X2951703Y9333212D01*
X2967288Y9328017D01*
X3003656Y9328017D01*
X2896631Y9437121D02*
G01*
X2896631Y9328017D01*
X2896631Y9437121D02*
G01*
X2860263Y9437121D01*
X2844678Y9431926D01*
X2834286Y9421535D01*
X2829090Y9411144D01*
X2823895Y9395556D01*
X2823895Y9369579D01*
X2829090Y9353994D01*
X2834286Y9343603D01*
X2844678Y9333212D01*
X2860263Y9328017D01*
X2896631Y9328017D01*
X2671036Y9421535D02*
G01*
X2671036Y9328017D01*
X2717794Y9374776D02*
G01*
X2624277Y9374776D01*
X2589987Y9437121D02*
G01*
X2589987Y9328017D01*
X2589987Y9328017D02*
G01*
X2527640Y9328017D01*
X2493350Y9437121D02*
G01*
X2493350Y9328017D01*
X2493350Y9437121D02*
G01*
X2425809Y9437121D01*
X2493350Y9385167D02*
G01*
X2451788Y9385167D01*
X2493350Y9328017D02*
G01*
X2425809Y9328017D01*
X2391519Y9437121D02*
G01*
X2391519Y9328017D01*
X2391519Y9437121D02*
G01*
X2355151Y9437121D01*
X2339566Y9431926D01*
X2329174Y9421535D01*
X2323980Y9411144D01*
X2318783Y9395556D01*
X2318783Y9369579D01*
X2323980Y9353994D01*
X2329174Y9343603D01*
X2339566Y9333212D01*
X2355151Y9328017D01*
X2391519Y9328017D01*
X3352784Y5690641D02*
G01*
X3311220Y5581538D01*
X3269658Y5690641D02*
G01*
X3311220Y5581538D01*
X3157435Y5664664D02*
G01*
X3162630Y5675055D01*
X3173021Y5685447D01*
X3183412Y5690641D01*
X3204194Y5690641D01*
X3214585Y5685447D01*
X3224977Y5675055D01*
X3230171Y5664664D01*
X3235368Y5649076D01*
X3235368Y5623100D01*
X3230171Y5607514D01*
X3224977Y5597123D01*
X3214585Y5586732D01*
X3204194Y5581538D01*
X3183412Y5581538D01*
X3173021Y5586732D01*
X3162630Y5597123D01*
X3157435Y5607514D01*
X3045213Y5664664D02*
G01*
X3050410Y5675055D01*
X3060799Y5685447D01*
X3071190Y5690641D01*
X3091972Y5690641D01*
X3102363Y5685447D01*
X3112754Y5675055D01*
X3117949Y5664664D01*
X3123145Y5649076D01*
X3123145Y5623100D01*
X3117949Y5607514D01*
X3112754Y5597123D01*
X3102363Y5586732D01*
X3091972Y5581538D01*
X3071190Y5581538D01*
X3060799Y5586732D01*
X3050410Y5597123D01*
X3045213Y5607514D01*
X2932991Y5664664D02*
G01*
X2938188Y5675055D01*
X2948579Y5685447D01*
X2958970Y5690641D01*
X2979750Y5690641D01*
X2990141Y5685447D01*
X3000532Y5675055D01*
X3005729Y5664664D01*
X3010923Y5649076D01*
X3010923Y5623100D01*
X3005729Y5607514D01*
X3000532Y5597123D01*
X2990141Y5586732D01*
X2979750Y5581538D01*
X2958970Y5581538D01*
X2948579Y5586732D01*
X2938188Y5597123D01*
X2932991Y5607514D01*
X2932991Y5623100D01*
X2958970Y5623100D02*
G01*
X2932991Y5623100D01*
X2898701Y5690641D02*
G01*
X2898701Y5581538D01*
X2898701Y5690641D02*
G01*
X2825965Y5581538D01*
X2825965Y5690641D02*
G01*
X2825965Y5581538D01*
X2791675Y5690641D02*
G01*
X2791675Y5581538D01*
X2791675Y5690641D02*
G01*
X2755308Y5690641D01*
X2739720Y5685447D01*
X2729329Y5675055D01*
X2724134Y5664664D01*
X2718940Y5649076D01*
X2718940Y5623100D01*
X2724134Y5607514D01*
X2729329Y5597123D01*
X2739720Y5586732D01*
X2755308Y5581538D01*
X2791675Y5581538D01*
X1611116Y6083807D02*
G01*
X1616450Y6094221D01*
X1626864Y6104636D01*
X1637024Y6109715D01*
X1657852Y6109715D01*
X1668266Y6104636D01*
X1678680Y6094221D01*
X1684014Y6083807D01*
X1689094Y6068060D01*
X1689094Y6042152D01*
X1684014Y6026657D01*
X1678680Y6016244D01*
X1668266Y6005829D01*
X1657852Y6000495D01*
X1637024Y6000495D01*
X1626864Y6005829D01*
X1616450Y6016244D01*
X1611116Y6026657D01*
X1611116Y6042152D01*
X1637024Y6042152D02*
G01*
X1611116Y6042152D01*
X1576826Y6109715D02*
G01*
X1576826Y6000495D01*
X1576826Y6109715D02*
G01*
X1530090Y6109715D01*
X1514596Y6104636D01*
X1509262Y6099302D01*
X1504182Y6088887D01*
X1504182Y6073394D01*
X1509262Y6062979D01*
X1514596Y6057645D01*
X1530090Y6052565D01*
X1576826Y6052565D01*
X1469892Y6109715D02*
G01*
X1469892Y6000495D01*
X1404360Y6109715D02*
G01*
X1414774Y6104636D01*
X1425188Y6094221D01*
X1430268Y6083807D01*
X1435602Y6068060D01*
X1435602Y6042152D01*
X1430268Y6026657D01*
X1425188Y6016244D01*
X1414774Y6005829D01*
X1404360Y6000495D01*
X1383532Y6000495D01*
X1373118Y6005829D01*
X1362704Y6016244D01*
X1357624Y6026657D01*
X1352544Y6042152D01*
X1352544Y6068060D01*
X1357624Y6083807D01*
X1362704Y6094221D01*
X1373118Y6104636D01*
X1383532Y6109715D01*
X1404360Y6109715D01*
X1435094Y9437115D02*
G01*
X1435094Y9327895D01*
X1435094Y9437115D02*
G01*
X1388358Y9437115D01*
X1372864Y9432036D01*
X1367530Y9426702D01*
X1362450Y9416287D01*
X1362450Y9400794D01*
X1367530Y9390379D01*
X1372864Y9385045D01*
X1388358Y9379965D01*
X1435094Y9379965D01*
X1328160Y9437115D02*
G01*
X1301998Y9327895D01*
X1276090Y9437115D02*
G01*
X1301998Y9327895D01*
X1276090Y9437115D02*
G01*
X1250182Y9327895D01*
X1224274Y9437115D02*
G01*
X1250182Y9327895D01*
X1189984Y9437115D02*
G01*
X1189984Y9327895D01*
X1189984Y9437115D02*
G01*
X1142994Y9437115D01*
X1127500Y9432036D01*
X1122420Y9426702D01*
X1117086Y9416287D01*
X1117086Y9405874D01*
X1122420Y9395460D01*
X1127500Y9390379D01*
X1142994Y9385045D01*
X1189984Y9385045D01*
X1153408Y9385045D02*
G01*
X1117086Y9327895D01*
X1904994Y9437115D02*
G01*
X1904994Y9327895D01*
X1904994Y9437115D02*
G01*
X1858258Y9437115D01*
X1842764Y9432036D01*
X1837430Y9426702D01*
X1832350Y9416287D01*
X1832350Y9405874D01*
X1837430Y9395460D01*
X1842764Y9390379D01*
X1858258Y9385045D01*
X1904994Y9385045D01*
X1868672Y9385045D02*
G01*
X1832350Y9327895D01*
X1725162Y9421621D02*
G01*
X1735576Y9432036D01*
X1751324Y9437115D01*
X1771898Y9437115D01*
X1787646Y9432036D01*
X1798060Y9421621D01*
X1798060Y9411208D01*
X1792726Y9400794D01*
X1787646Y9395460D01*
X1777232Y9390379D01*
X1745990Y9379965D01*
X1735576Y9374886D01*
X1730496Y9369552D01*
X1725162Y9359137D01*
X1725162Y9343644D01*
X1735576Y9333229D01*
X1751324Y9327895D01*
X1771898Y9327895D01*
X1787646Y9333229D01*
X1798060Y9343644D01*
X1654550Y9437115D02*
G01*
X1654550Y9327895D01*
X1690872Y9437115D02*
G01*
X1618228Y9437115D01*
M02*
