M48
METRIC,LZ,000.000
;FILE_FORMAT=3:3
;TYPE=PLATED
;Layer: PTH_Through
;EasyEDA v6.5.42, 2024-04-10 14:24:56
;46711edb1ebf438fa60cf0caae1c7a4a,edc686363fba4cf3ab42fed1df3dfb96,10
;Gerber Generator version 0.2
;Holesize 1 = 0.800 mm
T01C0.800
;Holesize 2 = 1.000 mm
T02C1.000
;Holesize 3 = 1.101 mm
T03C1.101
%
G05
G90
T01
X019030Y062103
X029230Y062103
X013950Y064897
X024150Y064897
X031750Y078720
X031750Y088920
X026670Y078720
X026670Y088920
X019050Y067290
X019050Y077490
X013970Y067290
X013970Y077490
T02
X013975Y079909
X013965Y087739
X011425Y087739
X011435Y079899
X019055Y079909
X019045Y087739
X016505Y087739
X016515Y079899
X022855Y076299
X022865Y068469
X025405Y068469
X025395Y076309
X029205Y076299
X029215Y068469
X031755Y068469
X031745Y076309
T03
X011430Y058420
X013970Y058420
X016510Y058420
X019050Y058420
X031750Y058420
X029210Y058420
X029210Y091440
X031750Y091440
X024130Y091440
X026670Y091440
X011430Y091440
X013970Y091440
X016510Y091440
X019050Y091440
M30
