G04 Layer: BottomLayer*
G04 EasyEDA v6.5.42, 2024-04-10 14:24:56*
G04 fa9cb22cbdb04bf7847e166aaee530a8,edc686363fba4cf3ab42fed1df3dfb96,10*
G04 Gerber Generator version 0.2*
G04 Scale: 100 percent, Rotated: No, Reflected: No *
G04 Dimensions in millimeters *
G04 leading zeros omitted , absolute positions ,4 integer and 5 decimal *
%FSLAX45Y45*%
%MOMM*%

%ADD10C,0.5080*%
%ADD11R,1.7000X1.7000*%
%ADD12C,1.7000*%
%ADD13C,1.4000*%
%ADD14C,1.6000*%
%ADD15C,1.8000*%
%ADD16R,1.8000X1.8000*%

%LPD*%
D10*
X2142007Y6476982D02*
G01*
X1888007Y6222982D01*
X2921000Y5841982D02*
G01*
X2777007Y5841982D01*
X2142007Y6476982D01*
X2142007Y6476982D02*
G01*
X1905000Y6713989D01*
X1397000Y6713989D02*
G01*
X1905000Y6713989D01*
X2286508Y6846933D02*
G01*
X2286508Y6620466D01*
X2429992Y6476982D01*
X2540508Y6846933D02*
G01*
X2710941Y7017367D01*
X3005074Y7017367D01*
X3175508Y6846933D01*
X2539491Y7796410D02*
G01*
X2606420Y7796410D01*
X2667000Y7856989D01*
X2539491Y7630955D02*
G01*
X2539491Y7796410D01*
D11*
G01*
X1142997Y5841987D03*
D12*
G01*
X1396997Y5841987D03*
G01*
X1650997Y5841987D03*
G01*
X1904997Y5841987D03*
D13*
G01*
X1888002Y6222987D03*
G01*
X2937987Y6222987D03*
D14*
G01*
X3174994Y7856976D03*
G01*
X3174994Y8906987D03*
D13*
G01*
X1380004Y6476987D03*
G01*
X2429990Y6476987D03*
D14*
G01*
X2666994Y7856976D03*
G01*
X2666994Y8906987D03*
G01*
X1904997Y6713979D03*
G01*
X1904997Y7763990D03*
G01*
X1396997Y6713979D03*
G01*
X1396997Y7763990D03*
D12*
G01*
X3174994Y5841987D03*
G01*
X2920994Y5841987D03*
G01*
X2920994Y9143982D03*
G01*
X3174994Y9143982D03*
G01*
X2412994Y9143982D03*
G01*
X2666994Y9143982D03*
G01*
X1142997Y9143982D03*
G01*
X1396997Y9143982D03*
G01*
X1650997Y9143982D03*
G01*
X1904997Y9143982D03*
D15*
G01*
X1397507Y7990941D03*
G01*
X1396492Y8773947D03*
G01*
X1142492Y8773947D03*
D16*
G01*
X1143507Y7989951D03*
D15*
G01*
X1905507Y7990941D03*
G01*
X1904492Y8773947D03*
G01*
X1650492Y8773947D03*
D16*
G01*
X1651507Y7989951D03*
D15*
G01*
X2285491Y7629931D03*
G01*
X2286508Y6846925D03*
G01*
X2540508Y6846925D03*
D16*
G01*
X2539491Y7630947D03*
D15*
G01*
X2920491Y7629931D03*
G01*
X2921508Y6846925D03*
G01*
X3175508Y6846925D03*
D16*
G01*
X3174491Y7630947D03*
M02*
