G04 Layer: BottomLayer*
G04 EasyEDA v6.5.42, 2024-04-09 23:37:06*
G04 322ad19b13e247668383385aaff6aa40,edc686363fba4cf3ab42fed1df3dfb96,10*
G04 Gerber Generator version 0.2*
G04 Scale: 100 percent, Rotated: No, Reflected: No *
G04 Dimensions in millimeters *
G04 leading zeros omitted , absolute positions ,4 integer and 5 decimal *
%FSLAX45Y45*%
%MOMM*%

%ADD10C,0.5080*%
%ADD11R,1.7000X1.7000*%
%ADD12C,1.7000*%
%ADD13R,2.0000X2.0000*%
%ADD14C,2.0000*%
%ADD15C,1.4000*%
%ADD16C,1.8000*%
%ADD17R,1.8000X1.8000*%

%LPD*%
D10*
X3175508Y6846984D02*
G01*
X3006064Y7016427D01*
X2709951Y7016427D01*
X2540508Y6846984D01*
X2286508Y6620466D02*
G01*
X2070734Y6620466D01*
X1651000Y6200731D01*
X1651000Y5841982D01*
X2286508Y6846984D02*
G01*
X2286508Y6620466D01*
X2286508Y6620466D02*
G01*
X2429992Y6476982D01*
X2921000Y5842007D02*
G01*
X2268981Y5842007D01*
X1888007Y6222982D01*
X1905000Y6728975D02*
G01*
X1397000Y6728975D01*
D11*
G01*
X1143000Y5841974D03*
D12*
G01*
X1397000Y5841974D03*
G01*
X1651000Y5841974D03*
G01*
X1905000Y5841974D03*
D13*
G01*
X1143000Y9144000D03*
D14*
G01*
X1397000Y9144000D03*
D13*
G01*
X1651000Y9144000D03*
D14*
G01*
X1905000Y9144000D03*
D13*
G01*
X3175000Y5842000D03*
D14*
G01*
X2921000Y5842000D03*
D13*
G01*
X3175000Y9144000D03*
D14*
G01*
X2921000Y9144000D03*
D13*
G01*
X2667000Y9144000D03*
D14*
G01*
X2413000Y9144000D03*
D15*
G01*
X1888007Y6223000D03*
G01*
X2937992Y6223000D03*
G01*
X3175000Y7871993D03*
G01*
X3175000Y8892006D03*
G01*
X1380007Y6477000D03*
G01*
X2429992Y6477000D03*
G01*
X2667000Y7871993D03*
G01*
X2667000Y8892006D03*
G01*
X1905000Y6728993D03*
G01*
X1905000Y7749006D03*
G01*
X1397000Y6728993D03*
G01*
X1397000Y7749006D03*
D16*
G01*
X1397507Y7990941D03*
G01*
X1396492Y8773947D03*
G01*
X1142492Y8773947D03*
D17*
G01*
X1143507Y7989951D03*
D16*
G01*
X1905507Y7990941D03*
G01*
X1904492Y8773947D03*
G01*
X1650492Y8773947D03*
D17*
G01*
X1651507Y7989951D03*
D16*
G01*
X2285481Y7629936D03*
G01*
X2286497Y6846930D03*
G01*
X2540497Y6846930D03*
D17*
G01*
X2539481Y7630927D03*
D16*
G01*
X2920481Y7629936D03*
G01*
X2921497Y6846930D03*
G01*
X3175497Y6846930D03*
D17*
G01*
X3174481Y7630927D03*
M02*
