G04 Layer: TopLayer*
G04 EasyEDA v6.5.42, 2024-04-10 14:24:56*
G04 f052db2ca4a243e896a7c5e80c1c8f96,edc686363fba4cf3ab42fed1df3dfb96,10*
G04 Gerber Generator version 0.2*
G04 Scale: 100 percent, Rotated: No, Reflected: No *
G04 Dimensions in millimeters *
G04 leading zeros omitted , absolute positions ,4 integer and 5 decimal *
%FSLAX45Y45*%
%MOMM*%

%ADD10C,0.5080*%
%ADD11C,1.7000*%
%ADD12R,1.7000X1.7000*%
%ADD13C,1.4000*%
%ADD14C,1.6000*%
%ADD15C,1.8000*%
%ADD16R,1.8000X1.8000*%
%ADD17R,0.0112X1.8000*%

%LPD*%
G36*
X1143304Y5550916D02*
G01*
X1122680Y5551830D01*
X1102969Y5554472D01*
X1083564Y5558840D01*
X1064564Y5564835D01*
X1046226Y5572506D01*
X1028598Y5581700D01*
X1011834Y5592419D01*
X996086Y5604560D01*
X981405Y5618022D01*
X967994Y5632754D01*
X955954Y5648553D01*
X945286Y5665368D01*
X936142Y5682996D01*
X928573Y5701385D01*
X922629Y5720384D01*
X918311Y5739841D01*
X915771Y5759551D01*
X914908Y5779770D01*
X914908Y9270238D01*
X915873Y9291320D01*
X918514Y9311030D01*
X922832Y9330436D01*
X928878Y9349384D01*
X936498Y9367774D01*
X945743Y9385401D01*
X956462Y9402165D01*
X968603Y9417913D01*
X982065Y9432544D01*
X996746Y9445955D01*
X1012545Y9458045D01*
X1029360Y9468713D01*
X1047038Y9477857D01*
X1065428Y9485426D01*
X1084427Y9491370D01*
X1103833Y9495637D01*
X1123543Y9498177D01*
X1143762Y9499092D01*
X3174238Y9499092D01*
X3195320Y9498126D01*
X3215030Y9495485D01*
X3234436Y9491167D01*
X3253384Y9485122D01*
X3271774Y9477451D01*
X3289401Y9468256D01*
X3306165Y9457537D01*
X3321913Y9445396D01*
X3336544Y9431934D01*
X3349955Y9417253D01*
X3362045Y9401403D01*
X3372713Y9384639D01*
X3381857Y9366961D01*
X3389426Y9348571D01*
X3395370Y9329572D01*
X3399637Y9310166D01*
X3402228Y9290405D01*
X3403092Y9270238D01*
X3403092Y5779770D01*
X3402126Y5758688D01*
X3399485Y5738926D01*
X3395167Y5719521D01*
X3389122Y5700572D01*
X3381501Y5682234D01*
X3372256Y5664555D01*
X3361537Y5647842D01*
X3349396Y5632043D01*
X3335934Y5617413D01*
X3321253Y5604002D01*
X3305454Y5591911D01*
X3288639Y5581294D01*
X3270961Y5572099D01*
X3252571Y5564530D01*
X3233572Y5558586D01*
X3214166Y5554319D01*
X3194405Y5551779D01*
X3174238Y5550916D01*
G37*

%LPC*%
G36*
X2408326Y5654040D02*
G01*
X2427071Y5654497D01*
X2445664Y5656834D01*
X2463901Y5660999D01*
X2481681Y5666994D01*
X2498750Y5674664D01*
X2515006Y5684062D01*
X2530195Y5694984D01*
X2544267Y5707380D01*
X2557018Y5721146D01*
X2568346Y5736082D01*
X2578100Y5752084D01*
X2586228Y5768949D01*
X2592628Y5786577D01*
X2597251Y5804712D01*
X2600045Y5823254D01*
X2601010Y5841949D01*
X2600045Y5860694D01*
X2597251Y5879236D01*
X2592628Y5897372D01*
X2586228Y5914999D01*
X2578100Y5931865D01*
X2568346Y5947867D01*
X2557018Y5962802D01*
X2544267Y5976569D01*
X2530195Y5988964D01*
X2515006Y5999886D01*
X2498750Y6009284D01*
X2481681Y6016955D01*
X2463901Y6022949D01*
X2445664Y6027115D01*
X2427071Y6029452D01*
X2408326Y6029909D01*
X2389632Y6028486D01*
X2371191Y6025235D01*
X2353106Y6020155D01*
X2335682Y6013348D01*
X2319020Y6004763D01*
X2303272Y5994603D01*
X2288590Y5982919D01*
X2275179Y5969863D01*
X2263140Y5955487D01*
X2252573Y5939993D01*
X2243632Y5923534D01*
X2236317Y5906262D01*
X2230831Y5888380D01*
X2227122Y5869990D01*
X2225243Y5851347D01*
X2225243Y5832602D01*
X2227122Y5813958D01*
X2230831Y5795568D01*
X2236317Y5777687D01*
X2243632Y5760415D01*
X2252573Y5743956D01*
X2263140Y5728462D01*
X2275179Y5714085D01*
X2288590Y5701030D01*
X2303272Y5689346D01*
X2319020Y5679186D01*
X2335682Y5670600D01*
X2353106Y5663793D01*
X2371191Y5658713D01*
X2389632Y5655462D01*
G37*
G36*
X1058468Y5706516D02*
G01*
X1227531Y5706516D01*
X1236776Y5707278D01*
X1245260Y5709564D01*
X1253236Y5713272D01*
X1260449Y5718352D01*
X1266647Y5724550D01*
X1271727Y5731764D01*
X1275435Y5739739D01*
X1277823Y5748629D01*
X1279753Y5752439D01*
X1283106Y5755132D01*
X1287272Y5756148D01*
X1291488Y5755436D01*
X1294993Y5752998D01*
X1304036Y5743448D01*
X1316075Y5733338D01*
X1329232Y5724652D01*
X1343355Y5717590D01*
X1358138Y5712206D01*
X1373479Y5708548D01*
X1389126Y5706719D01*
X1404874Y5706719D01*
X1420520Y5708548D01*
X1435862Y5712206D01*
X1450644Y5717590D01*
X1464767Y5724652D01*
X1477924Y5733338D01*
X1489964Y5743448D01*
X1500784Y5754928D01*
X1510182Y5767527D01*
X1515211Y5776214D01*
X1518005Y5779363D01*
X1521866Y5781090D01*
X1526133Y5781090D01*
X1529994Y5779363D01*
X1532788Y5776214D01*
X1537817Y5767527D01*
X1547215Y5754928D01*
X1558036Y5743448D01*
X1570075Y5733338D01*
X1583232Y5724652D01*
X1597355Y5717590D01*
X1612138Y5712206D01*
X1627479Y5708548D01*
X1643125Y5706719D01*
X1658874Y5706719D01*
X1674520Y5708548D01*
X1689862Y5712206D01*
X1704644Y5717590D01*
X1718767Y5724652D01*
X1731924Y5733338D01*
X1743964Y5743448D01*
X1754784Y5754928D01*
X1764182Y5767527D01*
X1769211Y5776214D01*
X1772005Y5779363D01*
X1775866Y5781090D01*
X1780133Y5781090D01*
X1783994Y5779363D01*
X1786788Y5776214D01*
X1791817Y5767527D01*
X1801215Y5754928D01*
X1812036Y5743448D01*
X1824075Y5733338D01*
X1837232Y5724652D01*
X1851355Y5717590D01*
X1866138Y5712206D01*
X1881479Y5708548D01*
X1897125Y5706719D01*
X1912874Y5706719D01*
X1928520Y5708548D01*
X1943862Y5712206D01*
X1958644Y5717590D01*
X1972767Y5724652D01*
X1985924Y5733338D01*
X1997964Y5743448D01*
X2008784Y5754928D01*
X2018182Y5767527D01*
X2026056Y5781192D01*
X2032304Y5795670D01*
X2036825Y5810758D01*
X2039569Y5826252D01*
X2040483Y5842000D01*
X2039569Y5857748D01*
X2036825Y5873242D01*
X2032304Y5888329D01*
X2026056Y5902807D01*
X2018182Y5916472D01*
X2008784Y5929071D01*
X1997964Y5940552D01*
X1985924Y5950661D01*
X1972767Y5959348D01*
X1958644Y5966409D01*
X1943862Y5971794D01*
X1928520Y5975451D01*
X1912874Y5977280D01*
X1897125Y5977280D01*
X1881479Y5975451D01*
X1866138Y5971794D01*
X1851355Y5966409D01*
X1837232Y5959348D01*
X1824075Y5950661D01*
X1812036Y5940552D01*
X1801215Y5929071D01*
X1791817Y5916472D01*
X1786788Y5907786D01*
X1783994Y5904636D01*
X1780133Y5902909D01*
X1775866Y5902909D01*
X1772005Y5904636D01*
X1769211Y5907786D01*
X1764182Y5916472D01*
X1754784Y5929071D01*
X1743964Y5940552D01*
X1731924Y5950661D01*
X1718767Y5959348D01*
X1704644Y5966409D01*
X1689862Y5971794D01*
X1674520Y5975451D01*
X1662480Y5976823D01*
X1658213Y5978347D01*
X1655013Y5981547D01*
X1653539Y5985814D01*
X1654048Y5990285D01*
X1656435Y5994095D01*
X1707032Y6044742D01*
X1714093Y6053582D01*
X1718716Y6061202D01*
X1719834Y6063386D01*
X1723237Y6071616D01*
X1723999Y6073952D01*
X1726133Y6082588D01*
X1726539Y6085027D01*
X1727352Y6093866D01*
X1727403Y7839252D01*
X1728165Y7843164D01*
X1730400Y7846466D01*
X1733702Y7848650D01*
X1737563Y7849412D01*
X1741068Y7849412D01*
X1750263Y7850225D01*
X1758746Y7852511D01*
X1766722Y7856220D01*
X1773936Y7861300D01*
X1780184Y7867497D01*
X1785213Y7874711D01*
X1788922Y7882686D01*
X1789938Y7886496D01*
X1791919Y7890306D01*
X1795221Y7892948D01*
X1799336Y7894015D01*
X1803501Y7893354D01*
X1807057Y7890967D01*
X1810512Y7887411D01*
X1820570Y7879181D01*
X1822957Y7876387D01*
X1824177Y7872984D01*
X1824126Y7869326D01*
X1822754Y7865922D01*
X1819808Y7862824D01*
X1808683Y7852054D01*
X1798980Y7840065D01*
X1790700Y7827009D01*
X1784045Y7813040D01*
X1779117Y7798409D01*
X1775917Y7783271D01*
X1774545Y7767878D01*
X1775002Y7752384D01*
X1777288Y7737094D01*
X1781352Y7722209D01*
X1787194Y7707884D01*
X1794662Y7694320D01*
X1803654Y7681772D01*
X1814118Y7670342D01*
X1825802Y7660284D01*
X1838604Y7651648D01*
X1852371Y7644587D01*
X1866900Y7639202D01*
X1881886Y7635544D01*
X1897278Y7633716D01*
X1912721Y7633716D01*
X1928063Y7635544D01*
X1943100Y7639202D01*
X1957578Y7644587D01*
X1971344Y7651648D01*
X1984146Y7660284D01*
X1995881Y7670342D01*
X2006295Y7681772D01*
X2015337Y7694320D01*
X2022805Y7707884D01*
X2028596Y7722209D01*
X2032660Y7737094D01*
X2034946Y7752384D01*
X2035403Y7767878D01*
X2034032Y7783271D01*
X2030882Y7798409D01*
X2025904Y7813040D01*
X2019249Y7827009D01*
X2011019Y7840065D01*
X2001266Y7852054D01*
X1989328Y7863586D01*
X1986940Y7867142D01*
X1986178Y7871307D01*
X1987245Y7875422D01*
X1989937Y7878775D01*
X2000504Y7887411D01*
X2011680Y7898942D01*
X2021484Y7911642D01*
X2029764Y7925358D01*
X2036419Y7939938D01*
X2041398Y7955229D01*
X2044547Y7970926D01*
X2045919Y7986928D01*
X2045462Y8002930D01*
X2043175Y8018830D01*
X2039112Y8034324D01*
X2033320Y8049310D01*
X2025802Y8063484D01*
X2016760Y8076742D01*
X2006244Y8088833D01*
X1994458Y8099704D01*
X1981454Y8109102D01*
X1967484Y8117027D01*
X1952701Y8123224D01*
X1937308Y8127746D01*
X1921510Y8130489D01*
X1905507Y8131403D01*
X1889506Y8130489D01*
X1873707Y8127746D01*
X1858314Y8123224D01*
X1843532Y8117027D01*
X1829562Y8109102D01*
X1816557Y8099704D01*
X1806193Y8090153D01*
X1802638Y8088071D01*
X1798523Y8087512D01*
X1794560Y8088680D01*
X1791360Y8091322D01*
X1789531Y8095030D01*
X1788922Y8097215D01*
X1785213Y8105190D01*
X1780184Y8112404D01*
X1773936Y8118602D01*
X1766722Y8123631D01*
X1758746Y8127390D01*
X1750263Y8129625D01*
X1741068Y8130438D01*
X1561947Y8130438D01*
X1552752Y8129625D01*
X1544269Y8127390D01*
X1536293Y8123631D01*
X1529080Y8118602D01*
X1522831Y8112404D01*
X1517802Y8105190D01*
X1514094Y8097215D01*
X1513484Y8095030D01*
X1511655Y8091322D01*
X1508455Y8088680D01*
X1504492Y8087512D01*
X1500378Y8088020D01*
X1496822Y8090153D01*
X1486458Y8099704D01*
X1473454Y8109102D01*
X1459484Y8117027D01*
X1444701Y8123224D01*
X1429308Y8127746D01*
X1413510Y8130489D01*
X1397508Y8131403D01*
X1381506Y8130489D01*
X1365707Y8127746D01*
X1350314Y8123224D01*
X1335532Y8117027D01*
X1321562Y8109102D01*
X1308557Y8099704D01*
X1298194Y8090153D01*
X1294638Y8088071D01*
X1290523Y8087512D01*
X1286560Y8088680D01*
X1283360Y8091322D01*
X1281531Y8095030D01*
X1280922Y8097215D01*
X1277213Y8105190D01*
X1272184Y8112404D01*
X1265936Y8118602D01*
X1258722Y8123631D01*
X1250746Y8127390D01*
X1242263Y8129625D01*
X1233068Y8130438D01*
X1053947Y8130438D01*
X1044752Y8129625D01*
X1036269Y8127390D01*
X1028293Y8123631D01*
X1021080Y8118602D01*
X1014831Y8112404D01*
X1009802Y8105190D01*
X1006094Y8097215D01*
X1003808Y8088680D01*
X1002995Y8079486D01*
X1002995Y7900365D01*
X1003808Y7891170D01*
X1006094Y7882686D01*
X1009802Y7874711D01*
X1014831Y7867497D01*
X1021080Y7861300D01*
X1028293Y7856220D01*
X1036269Y7852511D01*
X1044752Y7850225D01*
X1053947Y7849412D01*
X1057452Y7849412D01*
X1061313Y7848650D01*
X1064615Y7846466D01*
X1066850Y7843164D01*
X1067612Y7839252D01*
X1067612Y6009690D01*
X1067104Y6002121D01*
X1067104Y5987592D01*
X1066393Y5983884D01*
X1064412Y5980734D01*
X1061415Y5978448D01*
X1057808Y5977432D01*
X1049223Y5976721D01*
X1040739Y5974435D01*
X1032764Y5970727D01*
X1025550Y5965647D01*
X1019352Y5959449D01*
X1014272Y5952236D01*
X1010564Y5944260D01*
X1008278Y5935776D01*
X1007516Y5926531D01*
X1007516Y5757468D01*
X1008278Y5748223D01*
X1010564Y5739739D01*
X1014272Y5731764D01*
X1019352Y5724550D01*
X1025550Y5718352D01*
X1032764Y5713272D01*
X1040739Y5709564D01*
X1049223Y5707278D01*
G37*
G36*
X3167126Y5706719D02*
G01*
X3182874Y5706719D01*
X3198520Y5708548D01*
X3213862Y5712206D01*
X3228644Y5717590D01*
X3242767Y5724652D01*
X3255924Y5733338D01*
X3267964Y5743448D01*
X3278784Y5754928D01*
X3288182Y5767527D01*
X3296056Y5781192D01*
X3302304Y5795670D01*
X3306826Y5810758D01*
X3309569Y5826252D01*
X3310483Y5842000D01*
X3309569Y5857748D01*
X3306826Y5873242D01*
X3302304Y5888329D01*
X3296056Y5902807D01*
X3288182Y5916472D01*
X3278784Y5929071D01*
X3268014Y5940552D01*
X3255060Y5951321D01*
X3252368Y5954826D01*
X3251403Y5959094D01*
X3251403Y6723532D01*
X3251911Y6726681D01*
X3253333Y6729526D01*
X3255619Y6731762D01*
X3264408Y6738213D01*
X3276244Y6749034D01*
X3286760Y6761175D01*
X3295802Y6774383D01*
X3303270Y6788607D01*
X3309112Y6803542D01*
X3313176Y6819036D01*
X3315462Y6834936D01*
X3315919Y6850938D01*
X3314547Y6866940D01*
X3311347Y6882688D01*
X3306419Y6897928D01*
X3299764Y6912508D01*
X3291484Y6926224D01*
X3281679Y6938975D01*
X3270503Y6950456D01*
X3258058Y6960616D01*
X3244596Y6969302D01*
X3230168Y6976364D01*
X3215081Y6981748D01*
X3199434Y6985406D01*
X3183534Y6987235D01*
X3167481Y6987235D01*
X3151530Y6985406D01*
X3135934Y6981748D01*
X3120796Y6976364D01*
X3106420Y6969302D01*
X3092907Y6960616D01*
X3080512Y6950456D01*
X3069336Y6938975D01*
X3059531Y6926224D01*
X3057194Y6922363D01*
X3054350Y6919315D01*
X3050590Y6917690D01*
X3046425Y6917690D01*
X3042615Y6919315D01*
X3039770Y6922363D01*
X3037484Y6926224D01*
X3027680Y6938975D01*
X3016504Y6950456D01*
X3004058Y6960616D01*
X2990596Y6969302D01*
X2976168Y6976364D01*
X2961081Y6981748D01*
X2945434Y6985406D01*
X2929483Y6987235D01*
X2913481Y6987235D01*
X2897530Y6985406D01*
X2881884Y6981748D01*
X2866796Y6976364D01*
X2852420Y6969302D01*
X2838907Y6960616D01*
X2826512Y6950456D01*
X2815336Y6938975D01*
X2805531Y6926224D01*
X2797251Y6912508D01*
X2790545Y6897928D01*
X2785618Y6882688D01*
X2782417Y6866940D01*
X2781046Y6850938D01*
X2781503Y6834936D01*
X2783789Y6819036D01*
X2787853Y6803542D01*
X2793695Y6788607D01*
X2801162Y6774383D01*
X2810256Y6761175D01*
X2820720Y6749034D01*
X2832557Y6738213D01*
X2841396Y6731762D01*
X2843682Y6729526D01*
X2845104Y6726681D01*
X2845612Y6723532D01*
X2845612Y6303822D01*
X2845104Y6300774D01*
X2843733Y6297980D01*
X2835554Y6286449D01*
X2828544Y6273342D01*
X2823159Y6259525D01*
X2819552Y6245148D01*
X2817723Y6230416D01*
X2817723Y6215583D01*
X2819552Y6200851D01*
X2823159Y6186474D01*
X2828544Y6172657D01*
X2835554Y6159550D01*
X2844139Y6147460D01*
X2854147Y6136487D01*
X2865374Y6126835D01*
X2877769Y6118656D01*
X2891028Y6112052D01*
X2905048Y6107125D01*
X2919526Y6103924D01*
X2934309Y6102553D01*
X2949092Y6103010D01*
X2963773Y6105296D01*
X2978048Y6109360D01*
X2991713Y6115151D01*
X3004566Y6122568D01*
X3016402Y6131509D01*
X3027019Y6141821D01*
X3036366Y6153404D01*
X3044139Y6166002D01*
X3050336Y6179464D01*
X3054858Y6193586D01*
X3057550Y6208217D01*
X3058464Y6223000D01*
X3057550Y6237782D01*
X3054858Y6252413D01*
X3050336Y6266535D01*
X3044139Y6279997D01*
X3036366Y6292596D01*
X3027019Y6304178D01*
X3016402Y6314490D01*
X3004566Y6323431D01*
X3002483Y6324650D01*
X2999790Y6326886D01*
X2998012Y6329934D01*
X2997403Y6333439D01*
X2997403Y6723583D01*
X2997911Y6726681D01*
X2999333Y6729526D01*
X3001619Y6731762D01*
X3010408Y6738213D01*
X3022244Y6749034D01*
X3032760Y6761175D01*
X3040126Y6771944D01*
X3042920Y6774688D01*
X3046526Y6776161D01*
X3050438Y6776161D01*
X3054096Y6774688D01*
X3056890Y6771944D01*
X3064256Y6761175D01*
X3074720Y6749034D01*
X3086557Y6738213D01*
X3095396Y6731762D01*
X3097682Y6729526D01*
X3099104Y6726681D01*
X3099612Y6723532D01*
X3099612Y5959805D01*
X3099054Y5956503D01*
X3097479Y5953556D01*
X3082036Y5940552D01*
X3071215Y5929071D01*
X3061817Y5916472D01*
X3056788Y5907786D01*
X3053994Y5904636D01*
X3050133Y5902909D01*
X3045866Y5902909D01*
X3042005Y5904636D01*
X3039211Y5907786D01*
X3034182Y5916472D01*
X3024784Y5929071D01*
X3013964Y5940552D01*
X3001924Y5950661D01*
X2988767Y5959348D01*
X2974644Y5966409D01*
X2969869Y5968187D01*
X2969869Y5890869D01*
X3034792Y5890869D01*
X3038500Y5890158D01*
X3041650Y5888177D01*
X3043936Y5885129D01*
X3044901Y5881522D01*
X3044494Y5877763D01*
X3043174Y5873242D01*
X3040430Y5857748D01*
X3039516Y5842000D01*
X3040430Y5826252D01*
X3043174Y5810758D01*
X3044494Y5806236D01*
X3044901Y5802477D01*
X3043936Y5798870D01*
X3041650Y5795822D01*
X3038500Y5793841D01*
X3034792Y5793130D01*
X2969869Y5793130D01*
X2969869Y5715812D01*
X2974644Y5717590D01*
X2988767Y5724652D01*
X3001924Y5733338D01*
X3013964Y5743448D01*
X3024784Y5754928D01*
X3034182Y5767527D01*
X3039211Y5776214D01*
X3042005Y5779363D01*
X3045866Y5781090D01*
X3050133Y5781090D01*
X3053994Y5779363D01*
X3056788Y5776214D01*
X3061817Y5767527D01*
X3071215Y5754928D01*
X3082036Y5743448D01*
X3094075Y5733338D01*
X3107232Y5724652D01*
X3121355Y5717590D01*
X3136138Y5712206D01*
X3151479Y5708548D01*
G37*
G36*
X2872130Y5715812D02*
G01*
X2872130Y5793130D01*
X2794762Y5793130D01*
X2799943Y5781192D01*
X2807817Y5767527D01*
X2817215Y5754928D01*
X2828036Y5743448D01*
X2840075Y5733338D01*
X2853232Y5724652D01*
X2867355Y5717590D01*
G37*
G36*
X2794762Y5890869D02*
G01*
X2872130Y5890869D01*
X2872130Y5968187D01*
X2867355Y5966409D01*
X2853232Y5959348D01*
X2840075Y5950661D01*
X2828036Y5940552D01*
X2817215Y5929071D01*
X2807817Y5916472D01*
X2799943Y5902807D01*
G37*
G36*
X1929333Y6109919D02*
G01*
X1941728Y6115151D01*
X1954530Y6122568D01*
X1966417Y6131509D01*
X1977034Y6141821D01*
X1986330Y6153404D01*
X1994154Y6166002D01*
X2000351Y6179464D01*
X2001062Y6181648D01*
X1929333Y6181648D01*
G37*
G36*
X1846630Y6110071D02*
G01*
X1846630Y6181648D01*
X1775053Y6181648D01*
X1778558Y6172657D01*
X1785569Y6159550D01*
X1794154Y6147460D01*
X1804111Y6136487D01*
X1815388Y6126835D01*
X1827733Y6118656D01*
X1841042Y6112052D01*
G37*
G36*
X1775053Y6264351D02*
G01*
X1846630Y6264351D01*
X1846630Y6335928D01*
X1841042Y6333947D01*
X1827733Y6327343D01*
X1815388Y6319164D01*
X1804111Y6309512D01*
X1794154Y6298539D01*
X1785569Y6286449D01*
X1778558Y6273342D01*
G37*
G36*
X1929333Y6264351D02*
G01*
X2001062Y6264351D01*
X2000351Y6266535D01*
X1994154Y6279997D01*
X1986330Y6292596D01*
X1977034Y6304178D01*
X1966417Y6314490D01*
X1954530Y6323431D01*
X1941728Y6330848D01*
X1929333Y6336080D01*
G37*
G36*
X2426309Y6356553D02*
G01*
X2441092Y6357010D01*
X2455773Y6359296D01*
X2470048Y6363360D01*
X2483713Y6369151D01*
X2496566Y6376568D01*
X2508402Y6385509D01*
X2519019Y6395821D01*
X2528366Y6407404D01*
X2536139Y6420002D01*
X2542336Y6433464D01*
X2546858Y6447586D01*
X2549550Y6462217D01*
X2550464Y6477000D01*
X2549550Y6491782D01*
X2546858Y6506413D01*
X2542336Y6520535D01*
X2536139Y6533997D01*
X2528366Y6546596D01*
X2519019Y6558178D01*
X2508402Y6568490D01*
X2496566Y6577431D01*
X2483713Y6584848D01*
X2470048Y6590639D01*
X2455773Y6594703D01*
X2441092Y6596989D01*
X2426309Y6597446D01*
X2411526Y6596075D01*
X2397048Y6592874D01*
X2383028Y6587947D01*
X2369769Y6581343D01*
X2357374Y6573164D01*
X2346147Y6563512D01*
X2336139Y6552539D01*
X2327554Y6540449D01*
X2320544Y6527342D01*
X2315159Y6513525D01*
X2311552Y6499148D01*
X2309723Y6484416D01*
X2309723Y6469583D01*
X2311552Y6454851D01*
X2315159Y6440474D01*
X2320544Y6426657D01*
X2327554Y6413550D01*
X2336139Y6401460D01*
X2346147Y6390487D01*
X2357374Y6380835D01*
X2369769Y6372656D01*
X2383028Y6366052D01*
X2397048Y6361125D01*
X2411526Y6357924D01*
G37*
G36*
X1858619Y6592265D02*
G01*
X1858619Y6667652D01*
X1783232Y6667652D01*
X1787194Y6657898D01*
X1794662Y6644335D01*
X1803654Y6631787D01*
X1814118Y6620357D01*
X1825802Y6610299D01*
X1838604Y6601612D01*
X1852371Y6594602D01*
G37*
G36*
X1951329Y6592265D02*
G01*
X1957578Y6594602D01*
X1971344Y6601612D01*
X1984146Y6610299D01*
X1995881Y6620357D01*
X2006295Y6631787D01*
X2015337Y6644335D01*
X2022805Y6657898D01*
X2026767Y6667652D01*
X1951329Y6667652D01*
G37*
G36*
X2286508Y6706463D02*
G01*
X2302510Y6707378D01*
X2318308Y6710121D01*
X2333701Y6714642D01*
X2348484Y6720890D01*
X2362454Y6728764D01*
X2375408Y6738213D01*
X2387244Y6749034D01*
X2397760Y6761175D01*
X2405126Y6771944D01*
X2407920Y6774688D01*
X2411526Y6776161D01*
X2415438Y6776161D01*
X2419096Y6774688D01*
X2421890Y6771944D01*
X2429256Y6761175D01*
X2439720Y6749034D01*
X2451557Y6738213D01*
X2464562Y6728764D01*
X2478532Y6720890D01*
X2493264Y6714642D01*
X2508656Y6710121D01*
X2524506Y6707378D01*
X2540508Y6706463D01*
X2556510Y6707378D01*
X2572308Y6710121D01*
X2587701Y6714642D01*
X2602484Y6720890D01*
X2616454Y6728764D01*
X2629408Y6738213D01*
X2641244Y6749034D01*
X2651760Y6761175D01*
X2660802Y6774383D01*
X2668270Y6788607D01*
X2674112Y6803542D01*
X2678176Y6819036D01*
X2680462Y6834936D01*
X2680919Y6850938D01*
X2679547Y6866940D01*
X2676347Y6882688D01*
X2671419Y6897928D01*
X2664764Y6912508D01*
X2656484Y6926224D01*
X2646680Y6938975D01*
X2635504Y6950456D01*
X2623058Y6960616D01*
X2609596Y6969302D01*
X2595168Y6976364D01*
X2580081Y6981748D01*
X2564434Y6985406D01*
X2548534Y6987235D01*
X2532481Y6987235D01*
X2516530Y6985406D01*
X2500934Y6981748D01*
X2485796Y6976364D01*
X2471420Y6969302D01*
X2457907Y6960616D01*
X2445512Y6950456D01*
X2434336Y6938975D01*
X2424531Y6926224D01*
X2422194Y6922363D01*
X2419350Y6919315D01*
X2415590Y6917690D01*
X2411425Y6917690D01*
X2407615Y6919315D01*
X2404770Y6922363D01*
X2402484Y6926224D01*
X2392680Y6938975D01*
X2381504Y6950456D01*
X2369058Y6960616D01*
X2355596Y6969302D01*
X2341168Y6976364D01*
X2326081Y6981748D01*
X2310434Y6985406D01*
X2294483Y6987235D01*
X2278481Y6987235D01*
X2262530Y6985406D01*
X2246884Y6981748D01*
X2231796Y6976364D01*
X2217420Y6969302D01*
X2203907Y6960616D01*
X2191512Y6950456D01*
X2180336Y6938975D01*
X2170531Y6926224D01*
X2162251Y6912508D01*
X2155545Y6897928D01*
X2150618Y6882688D01*
X2147417Y6866940D01*
X2146046Y6850938D01*
X2146503Y6834936D01*
X2148789Y6819036D01*
X2152853Y6803542D01*
X2158695Y6788607D01*
X2166162Y6774383D01*
X2175256Y6761175D01*
X2185720Y6749034D01*
X2197557Y6738213D01*
X2210511Y6728764D01*
X2224481Y6720890D01*
X2239264Y6714642D01*
X2254656Y6710121D01*
X2270455Y6707378D01*
G37*
G36*
X1783130Y6760362D02*
G01*
X1858619Y6760362D01*
X1858619Y6835902D01*
X1845411Y6830110D01*
X1832102Y6822236D01*
X1819808Y6812838D01*
X1808683Y6802069D01*
X1798980Y6790080D01*
X1790700Y6776974D01*
X1784045Y6763054D01*
G37*
G36*
X1951329Y6760362D02*
G01*
X2026818Y6760362D01*
X2025904Y6763054D01*
X2019249Y6776974D01*
X2011019Y6790080D01*
X2001266Y6802069D01*
X1990191Y6812838D01*
X1977898Y6822236D01*
X1964588Y6830110D01*
X1951329Y6835902D01*
G37*
G36*
X2285492Y7489444D02*
G01*
X2301494Y7490358D01*
X2317292Y7493101D01*
X2332685Y7497622D01*
X2347468Y7503871D01*
X2361438Y7511745D01*
X2374442Y7521194D01*
X2384806Y7530693D01*
X2388362Y7532827D01*
X2392476Y7533335D01*
X2396439Y7532217D01*
X2399588Y7529525D01*
X2401468Y7525867D01*
X2402078Y7523683D01*
X2405786Y7515707D01*
X2410815Y7508494D01*
X2417064Y7502296D01*
X2424226Y7497216D01*
X2432202Y7493508D01*
X2440736Y7491222D01*
X2449931Y7490409D01*
X2629052Y7490409D01*
X2638247Y7491222D01*
X2646730Y7493508D01*
X2654706Y7497216D01*
X2661920Y7502296D01*
X2668168Y7508494D01*
X2673197Y7515707D01*
X2676906Y7523683D01*
X2679192Y7532166D01*
X2680004Y7541361D01*
X2680004Y7718348D01*
X2680665Y7721955D01*
X2682544Y7725105D01*
X2685440Y7727340D01*
X2705100Y7732217D01*
X2719578Y7737602D01*
X2733344Y7744612D01*
X2746146Y7753299D01*
X2757881Y7763357D01*
X2768295Y7774787D01*
X2777337Y7787335D01*
X2784805Y7800898D01*
X2790596Y7815224D01*
X2794660Y7830108D01*
X2796946Y7845399D01*
X2797403Y7860842D01*
X2796032Y7876286D01*
X2792882Y7891373D01*
X2787904Y7906054D01*
X2781249Y7919974D01*
X2773019Y7933080D01*
X2763266Y7945069D01*
X2752191Y7955838D01*
X2739898Y7965236D01*
X2726588Y7973110D01*
X2712415Y7979308D01*
X2697632Y7983829D01*
X2682443Y7986572D01*
X2667000Y7987487D01*
X2651556Y7986572D01*
X2636316Y7983829D01*
X2621534Y7979308D01*
X2607411Y7973110D01*
X2594102Y7965236D01*
X2581808Y7955838D01*
X2570683Y7945069D01*
X2560980Y7933080D01*
X2552700Y7919974D01*
X2546045Y7906054D01*
X2541117Y7891373D01*
X2537917Y7876286D01*
X2536545Y7860842D01*
X2537002Y7845399D01*
X2539288Y7830108D01*
X2543352Y7815224D01*
X2549194Y7800898D01*
X2557119Y7786522D01*
X2558389Y7782509D01*
X2557881Y7778343D01*
X2555748Y7774736D01*
X2552344Y7772298D01*
X2548229Y7771434D01*
X2449931Y7771434D01*
X2440736Y7770622D01*
X2432202Y7768386D01*
X2424226Y7764627D01*
X2417064Y7759598D01*
X2410815Y7753400D01*
X2405786Y7746187D01*
X2402078Y7738211D01*
X2401011Y7734350D01*
X2399080Y7730591D01*
X2395778Y7727899D01*
X2391664Y7726832D01*
X2387447Y7727543D01*
X2383942Y7729931D01*
X2380488Y7733436D01*
X2368042Y7743596D01*
X2366060Y7744917D01*
X2363571Y7747152D01*
X2361946Y7750098D01*
X2361387Y7753451D01*
X2361387Y8980830D01*
X2362149Y8984742D01*
X2364384Y8988044D01*
X2383688Y9007348D01*
X2386126Y9009176D01*
X2389022Y9010142D01*
X2392070Y9010243D01*
X2405126Y9008719D01*
X2420874Y9008719D01*
X2436520Y9010548D01*
X2451862Y9014206D01*
X2466644Y9019590D01*
X2480767Y9026652D01*
X2493924Y9035338D01*
X2505964Y9045448D01*
X2516784Y9056928D01*
X2526182Y9069527D01*
X2531211Y9078214D01*
X2534005Y9081363D01*
X2537866Y9083090D01*
X2542133Y9083090D01*
X2545994Y9081363D01*
X2548788Y9078214D01*
X2553817Y9069527D01*
X2563215Y9056928D01*
X2574036Y9045448D01*
X2586532Y9035034D01*
X2588971Y9032798D01*
X2590546Y9029852D01*
X2591104Y9026550D01*
X2591104Y9017965D01*
X2590596Y9014917D01*
X2589225Y9012123D01*
X2587091Y9009888D01*
X2581808Y9005824D01*
X2570683Y8995054D01*
X2560980Y8983065D01*
X2552700Y8970010D01*
X2546045Y8956040D01*
X2541117Y8941409D01*
X2537917Y8926271D01*
X2536545Y8910878D01*
X2537002Y8895384D01*
X2539288Y8880094D01*
X2543352Y8865209D01*
X2549194Y8850884D01*
X2556662Y8837320D01*
X2565654Y8824772D01*
X2576118Y8813342D01*
X2587802Y8803284D01*
X2600604Y8794648D01*
X2614371Y8787587D01*
X2628900Y8782202D01*
X2643886Y8778544D01*
X2659278Y8776716D01*
X2674721Y8776716D01*
X2690063Y8778544D01*
X2705100Y8782202D01*
X2719578Y8787587D01*
X2733344Y8794648D01*
X2746146Y8803284D01*
X2757881Y8813342D01*
X2768295Y8824772D01*
X2777337Y8837320D01*
X2784805Y8850884D01*
X2790596Y8865209D01*
X2794660Y8880094D01*
X2796946Y8895384D01*
X2797403Y8910878D01*
X2796032Y8926271D01*
X2792882Y8941409D01*
X2787904Y8956040D01*
X2781249Y8970010D01*
X2773019Y8983065D01*
X2763266Y8995054D01*
X2752191Y9005824D01*
X2746908Y9009888D01*
X2744774Y9012123D01*
X2743403Y9014866D01*
X2742895Y9017965D01*
X2742895Y9026550D01*
X2743454Y9029852D01*
X2745028Y9032798D01*
X2759964Y9045448D01*
X2770784Y9056928D01*
X2780182Y9069527D01*
X2785211Y9078214D01*
X2788005Y9081363D01*
X2791866Y9083090D01*
X2796133Y9083090D01*
X2799994Y9081363D01*
X2802788Y9078214D01*
X2807817Y9069527D01*
X2817215Y9056928D01*
X2827985Y9045448D01*
X2840939Y9034678D01*
X2843631Y9031173D01*
X2844596Y9026906D01*
X2844596Y7753451D01*
X2844038Y7750098D01*
X2842412Y7747152D01*
X2839923Y7744917D01*
X2837891Y7743596D01*
X2825496Y7733436D01*
X2814320Y7721955D01*
X2804515Y7709255D01*
X2796235Y7695488D01*
X2789580Y7680909D01*
X2784602Y7665669D01*
X2781401Y7649921D01*
X2780030Y7633970D01*
X2780487Y7617917D01*
X2782773Y7602067D01*
X2786888Y7586522D01*
X2792679Y7571587D01*
X2800197Y7557414D01*
X2809240Y7544155D01*
X2819755Y7532014D01*
X2831541Y7521194D01*
X2844546Y7511745D01*
X2858516Y7503871D01*
X2873298Y7497622D01*
X2888691Y7493101D01*
X2904490Y7490358D01*
X2920492Y7489444D01*
X2936494Y7490358D01*
X2952292Y7493101D01*
X2967685Y7497622D01*
X2982468Y7503871D01*
X2996438Y7511745D01*
X3009442Y7521194D01*
X3019806Y7530693D01*
X3023362Y7532827D01*
X3027476Y7533335D01*
X3031439Y7532217D01*
X3034588Y7529525D01*
X3036468Y7525867D01*
X3037078Y7523683D01*
X3040786Y7515707D01*
X3045815Y7508494D01*
X3052064Y7502296D01*
X3059226Y7497216D01*
X3067202Y7493508D01*
X3075736Y7491222D01*
X3084931Y7490409D01*
X3264052Y7490409D01*
X3273247Y7491222D01*
X3281730Y7493508D01*
X3289706Y7497216D01*
X3296920Y7502296D01*
X3303168Y7508494D01*
X3308197Y7515707D01*
X3311906Y7523683D01*
X3314192Y7532166D01*
X3315004Y7541361D01*
X3315004Y7720482D01*
X3314192Y7729677D01*
X3311906Y7738211D01*
X3308197Y7746187D01*
X3303168Y7753400D01*
X3296920Y7759598D01*
X3289706Y7764627D01*
X3285337Y7766710D01*
X3281832Y7769402D01*
X3279800Y7773314D01*
X3279648Y7777734D01*
X3281375Y7781798D01*
X3285337Y7787335D01*
X3292805Y7800898D01*
X3298596Y7815224D01*
X3302660Y7830108D01*
X3304946Y7845399D01*
X3305403Y7860842D01*
X3304032Y7876286D01*
X3300882Y7891373D01*
X3295904Y7906054D01*
X3289249Y7919974D01*
X3281019Y7933080D01*
X3271265Y7945069D01*
X3260191Y7955838D01*
X3247898Y7965236D01*
X3234588Y7973110D01*
X3220415Y7979308D01*
X3205632Y7983829D01*
X3190443Y7986572D01*
X3175000Y7987487D01*
X3159556Y7986572D01*
X3144316Y7983829D01*
X3129534Y7979308D01*
X3115411Y7973110D01*
X3102102Y7965236D01*
X3089808Y7955838D01*
X3078683Y7945069D01*
X3068980Y7933080D01*
X3060700Y7919974D01*
X3054045Y7906054D01*
X3049117Y7891373D01*
X3045917Y7876286D01*
X3044545Y7860842D01*
X3045002Y7845399D01*
X3047288Y7830108D01*
X3051352Y7815224D01*
X3057194Y7800898D01*
X3064662Y7787335D01*
X3068370Y7782153D01*
X3070098Y7778089D01*
X3069945Y7773670D01*
X3067913Y7769758D01*
X3064408Y7767066D01*
X3059226Y7764627D01*
X3052064Y7759598D01*
X3045815Y7753400D01*
X3040786Y7746187D01*
X3037078Y7738211D01*
X3036011Y7734350D01*
X3034080Y7730591D01*
X3030778Y7727899D01*
X3026664Y7726832D01*
X3022447Y7727543D01*
X3018942Y7729931D01*
X3015488Y7733436D01*
X3003042Y7743596D01*
X3001060Y7744917D01*
X2998571Y7747152D01*
X2996946Y7750098D01*
X2996387Y7753451D01*
X2996387Y9026194D01*
X2996946Y9029496D01*
X2998520Y9032443D01*
X3013964Y9045448D01*
X3024784Y9056928D01*
X3034182Y9069527D01*
X3039211Y9078214D01*
X3042005Y9081363D01*
X3045866Y9083090D01*
X3050133Y9083090D01*
X3053994Y9081363D01*
X3056788Y9078214D01*
X3061817Y9069527D01*
X3071215Y9056928D01*
X3082036Y9045448D01*
X3094532Y9035034D01*
X3096971Y9032798D01*
X3098546Y9029852D01*
X3099104Y9026550D01*
X3099104Y9017965D01*
X3098596Y9014917D01*
X3097225Y9012123D01*
X3095091Y9009888D01*
X3089808Y9005824D01*
X3078683Y8995054D01*
X3068980Y8983065D01*
X3060700Y8970010D01*
X3054045Y8956040D01*
X3049117Y8941409D01*
X3045917Y8926271D01*
X3044545Y8910878D01*
X3045002Y8895384D01*
X3047288Y8880094D01*
X3051352Y8865209D01*
X3057194Y8850884D01*
X3064662Y8837320D01*
X3073654Y8824772D01*
X3084118Y8813342D01*
X3095802Y8803284D01*
X3108604Y8794648D01*
X3122371Y8787587D01*
X3136900Y8782202D01*
X3151886Y8778544D01*
X3167278Y8776716D01*
X3182721Y8776716D01*
X3198063Y8778544D01*
X3213100Y8782202D01*
X3227578Y8787587D01*
X3241344Y8794648D01*
X3254146Y8803284D01*
X3265881Y8813342D01*
X3276295Y8824772D01*
X3285337Y8837320D01*
X3292805Y8850884D01*
X3298596Y8865209D01*
X3302660Y8880094D01*
X3304946Y8895384D01*
X3305403Y8910878D01*
X3304032Y8926271D01*
X3300882Y8941409D01*
X3295904Y8956040D01*
X3289249Y8970010D01*
X3281019Y8983065D01*
X3271265Y8995054D01*
X3260191Y9005824D01*
X3254908Y9009888D01*
X3252774Y9012123D01*
X3251403Y9014866D01*
X3250895Y9017965D01*
X3250895Y9026550D01*
X3251453Y9029852D01*
X3253028Y9032798D01*
X3267964Y9045448D01*
X3278784Y9056928D01*
X3288182Y9069527D01*
X3296056Y9083192D01*
X3302304Y9097670D01*
X3306826Y9112758D01*
X3309569Y9128252D01*
X3310483Y9144000D01*
X3309569Y9159748D01*
X3306826Y9175242D01*
X3302304Y9190329D01*
X3296056Y9204807D01*
X3288182Y9218472D01*
X3278784Y9231071D01*
X3267964Y9242552D01*
X3255924Y9252661D01*
X3242767Y9261348D01*
X3228644Y9268409D01*
X3213862Y9273794D01*
X3198520Y9277451D01*
X3182874Y9279280D01*
X3167126Y9279280D01*
X3151479Y9277451D01*
X3136138Y9273794D01*
X3121355Y9268409D01*
X3107232Y9261348D01*
X3094075Y9252661D01*
X3082036Y9242552D01*
X3071215Y9231071D01*
X3061817Y9218472D01*
X3056788Y9209786D01*
X3053994Y9206636D01*
X3050133Y9204909D01*
X3045866Y9204909D01*
X3042005Y9206636D01*
X3039211Y9209786D01*
X3034182Y9218472D01*
X3024784Y9231071D01*
X3013964Y9242552D01*
X3001924Y9252661D01*
X2988767Y9261348D01*
X2974644Y9268409D01*
X2959862Y9273794D01*
X2944520Y9277451D01*
X2928874Y9279280D01*
X2913126Y9279280D01*
X2897479Y9277451D01*
X2882138Y9273794D01*
X2867355Y9268409D01*
X2853232Y9261348D01*
X2840075Y9252661D01*
X2828036Y9242552D01*
X2817215Y9231071D01*
X2807817Y9218472D01*
X2802788Y9209786D01*
X2799994Y9206636D01*
X2796133Y9204909D01*
X2791866Y9204909D01*
X2788005Y9206636D01*
X2785211Y9209786D01*
X2780182Y9218472D01*
X2770784Y9231071D01*
X2759964Y9242552D01*
X2747924Y9252661D01*
X2734767Y9261348D01*
X2720644Y9268409D01*
X2705862Y9273794D01*
X2690520Y9277451D01*
X2674874Y9279280D01*
X2659126Y9279280D01*
X2643479Y9277451D01*
X2628138Y9273794D01*
X2613355Y9268409D01*
X2599232Y9261348D01*
X2586075Y9252661D01*
X2574036Y9242552D01*
X2563215Y9231071D01*
X2553817Y9218472D01*
X2548788Y9209786D01*
X2545994Y9206636D01*
X2542133Y9204909D01*
X2537866Y9204909D01*
X2534005Y9206636D01*
X2531211Y9209786D01*
X2526182Y9218472D01*
X2516784Y9231071D01*
X2505964Y9242552D01*
X2493924Y9252661D01*
X2480767Y9261348D01*
X2466644Y9268409D01*
X2451862Y9273794D01*
X2436520Y9277451D01*
X2420874Y9279280D01*
X2405126Y9279280D01*
X2389479Y9277451D01*
X2374138Y9273794D01*
X2359355Y9268409D01*
X2345232Y9261348D01*
X2332075Y9252661D01*
X2320036Y9242552D01*
X2309215Y9231071D01*
X2299817Y9218472D01*
X2291943Y9204807D01*
X2285695Y9190329D01*
X2281174Y9175242D01*
X2278430Y9159748D01*
X2277516Y9144000D01*
X2278430Y9128252D01*
X2279243Y9123730D01*
X2279294Y9120479D01*
X2278278Y9117380D01*
X2276398Y9114790D01*
X2229967Y9068257D01*
X2222906Y9059418D01*
X2218283Y9051798D01*
X2217166Y9049613D01*
X2213762Y9041384D01*
X2213000Y9039047D01*
X2210866Y9030411D01*
X2210460Y9028023D01*
X2209647Y9019133D01*
X2209596Y7753451D01*
X2209038Y7750098D01*
X2207412Y7747152D01*
X2204923Y7744917D01*
X2202891Y7743596D01*
X2190496Y7733436D01*
X2179320Y7721955D01*
X2169515Y7709255D01*
X2161235Y7695488D01*
X2154580Y7680909D01*
X2149602Y7665669D01*
X2146401Y7649921D01*
X2145030Y7633970D01*
X2145487Y7617917D01*
X2147773Y7602067D01*
X2151888Y7586522D01*
X2157679Y7571587D01*
X2165197Y7557414D01*
X2174240Y7544155D01*
X2184755Y7532014D01*
X2196541Y7521194D01*
X2209546Y7511745D01*
X2223516Y7503871D01*
X2238298Y7497622D01*
X2253691Y7493101D01*
X2269490Y7490358D01*
G37*
G36*
X1134465Y8633663D02*
G01*
X1150518Y8633663D01*
X1166469Y8635492D01*
X1182065Y8639149D01*
X1197203Y8644534D01*
X1211580Y8651595D01*
X1225092Y8660282D01*
X1237488Y8670442D01*
X1248664Y8681923D01*
X1258468Y8694623D01*
X1260805Y8698484D01*
X1263599Y8701532D01*
X1267409Y8703208D01*
X1271574Y8703208D01*
X1275384Y8701532D01*
X1278178Y8698484D01*
X1280515Y8694623D01*
X1290320Y8681923D01*
X1301496Y8670442D01*
X1313942Y8660282D01*
X1327404Y8651595D01*
X1341831Y8644534D01*
X1356918Y8639149D01*
X1372565Y8635492D01*
X1388465Y8633663D01*
X1404518Y8633663D01*
X1420469Y8635492D01*
X1436065Y8639149D01*
X1451203Y8644534D01*
X1465580Y8651595D01*
X1479092Y8660282D01*
X1491488Y8670442D01*
X1502664Y8681923D01*
X1512468Y8694623D01*
X1514805Y8698484D01*
X1517599Y8701532D01*
X1521409Y8703208D01*
X1525574Y8703208D01*
X1529384Y8701532D01*
X1532178Y8698484D01*
X1534515Y8694623D01*
X1544320Y8681923D01*
X1555496Y8670442D01*
X1567891Y8660282D01*
X1581404Y8651595D01*
X1595780Y8644534D01*
X1610918Y8639149D01*
X1626514Y8635492D01*
X1642465Y8633663D01*
X1658518Y8633663D01*
X1674469Y8635492D01*
X1690065Y8639149D01*
X1705203Y8644534D01*
X1719580Y8651595D01*
X1733092Y8660282D01*
X1745488Y8670442D01*
X1756664Y8681923D01*
X1766468Y8694623D01*
X1768805Y8698484D01*
X1771599Y8701532D01*
X1775409Y8703208D01*
X1779574Y8703208D01*
X1783384Y8701532D01*
X1786178Y8698484D01*
X1788515Y8694623D01*
X1798320Y8681923D01*
X1809496Y8670442D01*
X1821942Y8660282D01*
X1835404Y8651595D01*
X1849831Y8644534D01*
X1864918Y8639149D01*
X1880565Y8635492D01*
X1896465Y8633663D01*
X1912518Y8633663D01*
X1928469Y8635492D01*
X1944065Y8639149D01*
X1959203Y8644534D01*
X1973580Y8651595D01*
X1987092Y8660282D01*
X1999488Y8670442D01*
X2010664Y8681923D01*
X2020468Y8694623D01*
X2028748Y8708390D01*
X2035403Y8722969D01*
X2040382Y8738209D01*
X2043582Y8753957D01*
X2044954Y8769908D01*
X2044496Y8785961D01*
X2042210Y8801811D01*
X2038096Y8817356D01*
X2032304Y8832291D01*
X2024786Y8846464D01*
X2015743Y8859723D01*
X2005228Y8871864D01*
X1993442Y8882684D01*
X1985111Y8888730D01*
X1982825Y8891016D01*
X1981403Y8893810D01*
X1980895Y8896959D01*
X1980895Y9026550D01*
X1981454Y9029852D01*
X1983028Y9032798D01*
X1997964Y9045448D01*
X2008784Y9056928D01*
X2018182Y9069527D01*
X2026056Y9083192D01*
X2032304Y9097670D01*
X2036825Y9112758D01*
X2039569Y9128252D01*
X2040483Y9144000D01*
X2039569Y9159748D01*
X2036825Y9175242D01*
X2032304Y9190329D01*
X2026056Y9204807D01*
X2018182Y9218472D01*
X2008784Y9231071D01*
X1997964Y9242552D01*
X1985924Y9252661D01*
X1972767Y9261348D01*
X1958644Y9268409D01*
X1943862Y9273794D01*
X1928520Y9277451D01*
X1912874Y9279280D01*
X1897125Y9279280D01*
X1881479Y9277451D01*
X1866138Y9273794D01*
X1851355Y9268409D01*
X1837232Y9261348D01*
X1824075Y9252661D01*
X1812036Y9242552D01*
X1801215Y9231071D01*
X1791817Y9218472D01*
X1786788Y9209786D01*
X1783994Y9206636D01*
X1780133Y9204909D01*
X1775866Y9204909D01*
X1772005Y9206636D01*
X1769211Y9209786D01*
X1764182Y9218472D01*
X1754784Y9231071D01*
X1743964Y9242552D01*
X1731924Y9252661D01*
X1718767Y9261348D01*
X1704644Y9268409D01*
X1689862Y9273794D01*
X1674520Y9277451D01*
X1658874Y9279280D01*
X1643125Y9279280D01*
X1627479Y9277451D01*
X1612138Y9273794D01*
X1597355Y9268409D01*
X1583232Y9261348D01*
X1570075Y9252661D01*
X1558036Y9242552D01*
X1547215Y9231071D01*
X1537817Y9218472D01*
X1532788Y9209786D01*
X1529994Y9206636D01*
X1526133Y9204909D01*
X1521866Y9204909D01*
X1518005Y9206636D01*
X1515211Y9209786D01*
X1510182Y9218472D01*
X1500784Y9231071D01*
X1489964Y9242552D01*
X1477924Y9252661D01*
X1464767Y9261348D01*
X1450644Y9268409D01*
X1435862Y9273794D01*
X1420520Y9277451D01*
X1404874Y9279280D01*
X1389126Y9279280D01*
X1373479Y9277451D01*
X1358138Y9273794D01*
X1343355Y9268409D01*
X1329232Y9261348D01*
X1316075Y9252661D01*
X1304036Y9242552D01*
X1293215Y9231071D01*
X1283817Y9218472D01*
X1278788Y9209786D01*
X1275994Y9206636D01*
X1272133Y9204909D01*
X1267866Y9204909D01*
X1264005Y9206636D01*
X1261211Y9209786D01*
X1256182Y9218472D01*
X1246784Y9231071D01*
X1235964Y9242552D01*
X1223924Y9252661D01*
X1210767Y9261348D01*
X1196644Y9268409D01*
X1181862Y9273794D01*
X1166520Y9277451D01*
X1150874Y9279280D01*
X1135126Y9279280D01*
X1119479Y9277451D01*
X1104138Y9273794D01*
X1089355Y9268409D01*
X1075232Y9261348D01*
X1062075Y9252661D01*
X1050036Y9242552D01*
X1039215Y9231071D01*
X1029817Y9218472D01*
X1021943Y9204807D01*
X1015695Y9190329D01*
X1011174Y9175242D01*
X1008430Y9159748D01*
X1007516Y9144000D01*
X1008430Y9128252D01*
X1011174Y9112758D01*
X1015695Y9097670D01*
X1021943Y9083192D01*
X1029817Y9069527D01*
X1039215Y9056928D01*
X1050036Y9045448D01*
X1062532Y9035034D01*
X1064971Y9032798D01*
X1066546Y9029852D01*
X1067104Y9026550D01*
X1067104Y8897721D01*
X1066596Y8894572D01*
X1065174Y8891727D01*
X1062888Y8889492D01*
X1053541Y8882684D01*
X1041755Y8871864D01*
X1031240Y8859723D01*
X1022197Y8846464D01*
X1014679Y8832291D01*
X1008887Y8817356D01*
X1004824Y8801811D01*
X1002537Y8785961D01*
X1002080Y8769908D01*
X1003452Y8753957D01*
X1006602Y8738209D01*
X1011580Y8722969D01*
X1018235Y8708390D01*
X1026515Y8694623D01*
X1036319Y8681923D01*
X1047496Y8670442D01*
X1059891Y8660282D01*
X1073404Y8651595D01*
X1087780Y8644534D01*
X1102918Y8639149D01*
X1118514Y8635492D01*
G37*

%LPD*%
G36*
X1287272Y5927852D02*
G01*
X1283106Y5928868D01*
X1279753Y5931560D01*
X1277823Y5935370D01*
X1275435Y5944260D01*
X1271727Y5952236D01*
X1266647Y5959449D01*
X1260449Y5965647D01*
X1253236Y5970727D01*
X1245260Y5974435D01*
X1236776Y5976721D01*
X1228191Y5977432D01*
X1224584Y5978448D01*
X1221587Y5980734D01*
X1219606Y5983884D01*
X1218895Y5987592D01*
X1218946Y5996533D01*
X1219403Y6003340D01*
X1219403Y7839252D01*
X1220165Y7843164D01*
X1222400Y7846466D01*
X1225702Y7848650D01*
X1229563Y7849412D01*
X1233068Y7849412D01*
X1242263Y7850225D01*
X1250746Y7852511D01*
X1258722Y7856220D01*
X1265936Y7861300D01*
X1272184Y7867497D01*
X1277213Y7874711D01*
X1280922Y7882686D01*
X1281938Y7886496D01*
X1283919Y7890306D01*
X1287221Y7892948D01*
X1291336Y7894015D01*
X1295501Y7893354D01*
X1299057Y7890967D01*
X1302512Y7887411D01*
X1312570Y7879181D01*
X1314958Y7876387D01*
X1316177Y7872984D01*
X1316126Y7869326D01*
X1314754Y7865922D01*
X1311808Y7862824D01*
X1300683Y7852054D01*
X1290980Y7840065D01*
X1282700Y7827009D01*
X1276045Y7813040D01*
X1271117Y7798409D01*
X1267917Y7783271D01*
X1266545Y7767878D01*
X1267002Y7752384D01*
X1269288Y7737094D01*
X1273352Y7722209D01*
X1279194Y7707884D01*
X1286662Y7694320D01*
X1295654Y7681772D01*
X1306118Y7670342D01*
X1317802Y7660284D01*
X1330604Y7651648D01*
X1344371Y7644587D01*
X1358900Y7639202D01*
X1373886Y7635544D01*
X1389278Y7633716D01*
X1404721Y7633716D01*
X1420063Y7635544D01*
X1435100Y7639202D01*
X1449578Y7644587D01*
X1463344Y7651648D01*
X1476146Y7660284D01*
X1487881Y7670342D01*
X1498295Y7681772D01*
X1507337Y7694320D01*
X1514805Y7707884D01*
X1520596Y7722209D01*
X1524660Y7737094D01*
X1526946Y7752384D01*
X1527403Y7767878D01*
X1526032Y7783271D01*
X1522882Y7798409D01*
X1517904Y7813040D01*
X1511249Y7827009D01*
X1503019Y7840065D01*
X1493266Y7852054D01*
X1481328Y7863586D01*
X1478940Y7867142D01*
X1478178Y7871307D01*
X1479245Y7875422D01*
X1481937Y7878775D01*
X1492504Y7887411D01*
X1495958Y7890967D01*
X1499514Y7893354D01*
X1503680Y7894066D01*
X1507794Y7892999D01*
X1511096Y7890306D01*
X1513027Y7886547D01*
X1514094Y7882686D01*
X1517802Y7874711D01*
X1522831Y7867497D01*
X1529080Y7861300D01*
X1536293Y7856220D01*
X1544269Y7852511D01*
X1552752Y7850225D01*
X1561947Y7849412D01*
X1565452Y7849412D01*
X1569313Y7848650D01*
X1572615Y7846466D01*
X1574850Y7843164D01*
X1575612Y7839252D01*
X1575612Y6132169D01*
X1574850Y6128258D01*
X1572615Y6125006D01*
X1426311Y5978652D01*
X1423822Y5976823D01*
X1420977Y5975858D01*
X1417929Y5975756D01*
X1404874Y5977280D01*
X1389126Y5977280D01*
X1373479Y5975451D01*
X1358138Y5971794D01*
X1343355Y5966409D01*
X1329232Y5959348D01*
X1316075Y5950661D01*
X1304036Y5940552D01*
X1294993Y5931001D01*
X1291488Y5928563D01*
G37*

%LPC*%
G36*
X1421333Y6363919D02*
G01*
X1433728Y6369151D01*
X1446530Y6376568D01*
X1458417Y6385509D01*
X1469034Y6395821D01*
X1478330Y6407404D01*
X1486154Y6420002D01*
X1492351Y6433464D01*
X1493062Y6435648D01*
X1421333Y6435648D01*
G37*
G36*
X1338630Y6364071D02*
G01*
X1338630Y6435648D01*
X1267053Y6435648D01*
X1270558Y6426657D01*
X1277569Y6413550D01*
X1286154Y6401460D01*
X1296111Y6390487D01*
X1307388Y6380835D01*
X1319733Y6372656D01*
X1333042Y6366052D01*
G37*
G36*
X1421333Y6518351D02*
G01*
X1493062Y6518351D01*
X1492351Y6520535D01*
X1486154Y6533997D01*
X1478330Y6546596D01*
X1469034Y6558178D01*
X1458417Y6568490D01*
X1447139Y6576974D01*
X1444447Y6580073D01*
X1443329Y6583425D01*
X1443329Y6578295D01*
X1442364Y6573926D01*
X1439570Y6570370D01*
X1435557Y6568389D01*
X1423060Y6565442D01*
X1421333Y6565239D01*
G37*
G36*
X1267053Y6518351D02*
G01*
X1338630Y6518351D01*
X1338630Y6603695D01*
X1339240Y6607098D01*
X1340916Y6610096D01*
X1343507Y6612331D01*
X1346708Y6613601D01*
X1350619Y6614464D01*
X1350619Y6667652D01*
X1275232Y6667652D01*
X1279194Y6657898D01*
X1286662Y6644335D01*
X1295654Y6631787D01*
X1306118Y6620357D01*
X1317802Y6610299D01*
X1328877Y6602831D01*
X1331772Y6599783D01*
X1333246Y6595872D01*
X1332941Y6591655D01*
X1331010Y6587947D01*
X1327708Y6585305D01*
X1319733Y6581343D01*
X1307388Y6573164D01*
X1296111Y6563512D01*
X1286154Y6552539D01*
X1277569Y6540449D01*
X1270558Y6527342D01*
G37*
G36*
X1443329Y6585813D02*
G01*
X1443532Y6587998D01*
X1445463Y6591604D01*
X1448663Y6594144D01*
X1463344Y6601663D01*
X1476146Y6610299D01*
X1487881Y6620357D01*
X1498295Y6631787D01*
X1507337Y6644335D01*
X1514805Y6657898D01*
X1518767Y6667652D01*
X1443329Y6667652D01*
G37*
G36*
X1443329Y6760362D02*
G01*
X1518818Y6760362D01*
X1517904Y6763054D01*
X1511249Y6776974D01*
X1503019Y6790080D01*
X1493266Y6802069D01*
X1482191Y6812838D01*
X1469898Y6822236D01*
X1456588Y6830110D01*
X1443329Y6835902D01*
G37*
G36*
X1275130Y6760362D02*
G01*
X1350619Y6760362D01*
X1350619Y6835902D01*
X1337411Y6830110D01*
X1324102Y6822236D01*
X1311808Y6812838D01*
X1300683Y6802069D01*
X1290980Y6790080D01*
X1282700Y6776974D01*
X1276045Y6763054D01*
G37*

%LPD*%
D10*
X2667000Y8907000D02*
G01*
X2667000Y9144007D01*
X2285491Y7629939D02*
G01*
X2285491Y9016499D01*
X2413000Y9144007D01*
X3175000Y8907000D02*
G01*
X3175000Y9144007D01*
X2920491Y7629939D02*
G01*
X2920491Y9143499D01*
X2921000Y9144007D01*
X1143507Y7989958D02*
G01*
X1143507Y6002992D01*
X1143000Y6002484D01*
X1143000Y5842007D02*
G01*
X1143000Y6002484D01*
X1651507Y7989958D02*
G01*
X1651507Y6096515D01*
X1397000Y5842007D01*
X1142492Y8773955D02*
G01*
X1143000Y8774463D01*
X1143000Y9144007D01*
X1396492Y8773955D02*
G01*
X1397000Y8774463D01*
X1397000Y9144007D01*
X3174491Y7796410D02*
G01*
X3175000Y7796918D01*
X3175000Y7856989D01*
X3174491Y7630929D02*
G01*
X3174491Y7796410D01*
X1905507Y7990949D02*
G01*
X1905000Y7990441D01*
X1905000Y7764000D01*
X1397507Y7990949D02*
G01*
X1397000Y7990441D01*
X1397000Y7764000D01*
X1650492Y8773955D02*
G01*
X1651000Y8774463D01*
X1651000Y9144007D01*
X1904492Y8773955D02*
G01*
X1905000Y8774463D01*
X1905000Y9144007D01*
X1397000Y6713989D02*
G01*
X1380007Y6696997D01*
X1380007Y6477007D01*
X1905000Y6240000D02*
G01*
X2523007Y6240000D01*
X2921000Y5842007D01*
X1905000Y6713989D02*
G01*
X1905000Y6240000D01*
X1905000Y6240000D02*
G01*
X1888007Y6223007D01*
X3175508Y6846933D02*
G01*
X3175508Y5842515D01*
X3175000Y5842007D01*
X2921508Y6846933D02*
G01*
X2921508Y6239492D01*
X2937992Y6223007D01*
D11*
G01*
X2921000Y9144000D03*
G01*
X3175000Y9144000D03*
G01*
X2413000Y9144000D03*
G01*
X2667000Y9144000D03*
G01*
X3175000Y5842000D03*
G01*
X2921000Y5842000D03*
D12*
G01*
X1143000Y5842000D03*
D11*
G01*
X1397000Y5842000D03*
G01*
X1651000Y5842000D03*
G01*
X1905000Y5842000D03*
G01*
X1143000Y9144000D03*
G01*
X1397000Y9144000D03*
D13*
G01*
X1888007Y6223000D03*
G01*
X2937992Y6223000D03*
D14*
G01*
X3174987Y7856994D03*
G01*
X3174987Y8907005D03*
D13*
G01*
X1380007Y6477000D03*
G01*
X2429992Y6477000D03*
D14*
G01*
X2666987Y7856994D03*
G01*
X2666987Y8907005D03*
G01*
X1904987Y6713994D03*
G01*
X1904987Y7764005D03*
G01*
X1396987Y6713994D03*
G01*
X1396987Y7764005D03*
D11*
G01*
X1651000Y9144000D03*
G01*
X1905000Y9144000D03*
D15*
G01*
X1397507Y7990941D03*
G01*
X1396492Y8773947D03*
G01*
X1142492Y8773947D03*
D16*
G01*
X1143507Y7989951D03*
D15*
G01*
X1905507Y7990941D03*
G01*
X1904492Y8773947D03*
G01*
X1650492Y8773947D03*
D16*
G01*
X1651507Y7989951D03*
D15*
G01*
X2285481Y7629936D03*
G01*
X2286497Y6846930D03*
G01*
X2540497Y6846930D03*
D16*
G01*
X2539481Y7630927D03*
D15*
G01*
X2920481Y7629936D03*
G01*
X2921497Y6846930D03*
G01*
X3175497Y6846930D03*
D16*
G01*
X3174481Y7630927D03*
M02*
