G04 Layer: TopSilkscreenLayer*
G04 EasyEDA v6.5.42, 2024-04-10 14:24:56*
G04 46711edb1ebf438fa60cf0caae1c7a4a,edc686363fba4cf3ab42fed1df3dfb96,10*
G04 Gerber Generator version 0.2*
G04 Scale: 100 percent, Rotated: No, Reflected: No *
G04 Dimensions in millimeters *
G04 leading zeros omitted , absolute positions ,4 integer and 5 decimal *
%FSLAX45Y45*%
%MOMM*%

%ADD10C,0.2032*%
%ADD11C,0.1524*%
%ADD12C,0.2540*%

%LPD*%
D10*
X940546Y6382755D02*
G01*
X1013190Y6382755D01*
X1026906Y6378183D01*
X1031478Y6373611D01*
X1036050Y6364467D01*
X1036050Y6355577D01*
X1031478Y6346433D01*
X1026906Y6341861D01*
X1013190Y6337289D01*
X1004046Y6337289D01*
X940546Y6412727D02*
G01*
X1036050Y6412727D01*
X1036050Y6412727D02*
G01*
X1036050Y6467337D01*
X963152Y6565381D02*
G01*
X954008Y6560809D01*
X945118Y6551919D01*
X940546Y6542775D01*
X940546Y6524487D01*
X945118Y6515343D01*
X954008Y6506453D01*
X963152Y6501881D01*
X976868Y6497309D01*
X999474Y6497309D01*
X1013190Y6501881D01*
X1022334Y6506453D01*
X1031478Y6515343D01*
X1036050Y6524487D01*
X1036050Y6542775D01*
X1031478Y6551919D01*
X1022334Y6560809D01*
X1013190Y6565381D01*
X940546Y6640819D02*
G01*
X1013190Y6640819D01*
X1026906Y6636501D01*
X1031478Y6631929D01*
X1036050Y6622785D01*
X1036050Y6613641D01*
X1031478Y6604497D01*
X1026906Y6599925D01*
X1013190Y6595353D01*
X1004046Y6595353D01*
X940546Y6671045D02*
G01*
X1036050Y6671045D01*
X1036050Y6671045D02*
G01*
X1036050Y6725401D01*
X963152Y6823699D02*
G01*
X954008Y6819127D01*
X945118Y6809983D01*
X940546Y6800839D01*
X940546Y6782805D01*
X945118Y6773661D01*
X954008Y6764517D01*
X963152Y6759945D01*
X976868Y6755373D01*
X999474Y6755373D01*
X1013190Y6759945D01*
X1022334Y6764517D01*
X1031478Y6773661D01*
X1036050Y6782805D01*
X1036050Y6800839D01*
X1031478Y6809983D01*
X1022334Y6819127D01*
X1013190Y6823699D01*
X940546Y6899137D02*
G01*
X1013190Y6899137D01*
X1026906Y6894565D01*
X1031478Y6889993D01*
X1036050Y6880849D01*
X1036050Y6871705D01*
X1031478Y6862815D01*
X1026906Y6858243D01*
X1013190Y6853671D01*
X1004046Y6853671D01*
X940546Y6929109D02*
G01*
X1036050Y6929109D01*
X1036050Y6929109D02*
G01*
X1036050Y6983719D01*
X963152Y7081763D02*
G01*
X954008Y7077191D01*
X945118Y7068301D01*
X940546Y7059157D01*
X940546Y7040869D01*
X945118Y7031725D01*
X954008Y7022835D01*
X963152Y7018263D01*
X976868Y7013691D01*
X999474Y7013691D01*
X1013190Y7018263D01*
X1022334Y7022835D01*
X1031478Y7031725D01*
X1036050Y7040869D01*
X1036050Y7059157D01*
X1031478Y7068301D01*
X1022334Y7077191D01*
X1013190Y7081763D01*
X940546Y7157201D02*
G01*
X1013190Y7157201D01*
X1026906Y7152629D01*
X1031478Y7148311D01*
X1036050Y7139167D01*
X1036050Y7130023D01*
X1031478Y7120879D01*
X1026906Y7116307D01*
X1013190Y7111735D01*
X1004046Y7111735D01*
X940546Y7187173D02*
G01*
X1036050Y7187173D01*
X1036050Y7187173D02*
G01*
X1036050Y7241783D01*
X963152Y7340081D02*
G01*
X954008Y7335509D01*
X945118Y7326365D01*
X940546Y7317221D01*
X940546Y7299187D01*
X945118Y7290043D01*
X954008Y7280899D01*
X963152Y7276327D01*
X976868Y7271755D01*
X999474Y7271755D01*
X1013190Y7276327D01*
X1022334Y7280899D01*
X1031478Y7290043D01*
X1036050Y7299187D01*
X1036050Y7317221D01*
X1031478Y7326365D01*
X1022334Y7335509D01*
X1013190Y7340081D01*
D11*
X2324094Y6262103D02*
G01*
X2324094Y6153137D01*
X2324094Y6262103D02*
G01*
X2370830Y6262103D01*
X2386324Y6257023D01*
X2391658Y6251689D01*
X2396738Y6241275D01*
X2396738Y6230861D01*
X2391658Y6220447D01*
X2386324Y6215367D01*
X2370830Y6210287D01*
X2324094Y6210287D01*
X2360416Y6210287D02*
G01*
X2396738Y6153137D01*
X2457190Y6262103D02*
G01*
X2441442Y6257023D01*
X2436362Y6246609D01*
X2436362Y6236195D01*
X2441442Y6225781D01*
X2451856Y6220447D01*
X2472684Y6215367D01*
X2488178Y6210287D01*
X2498592Y6199873D01*
X2503926Y6189459D01*
X2503926Y6173711D01*
X2498592Y6163297D01*
X2493512Y6158217D01*
X2477764Y6153137D01*
X2457190Y6153137D01*
X2441442Y6158217D01*
X2436362Y6163297D01*
X2431028Y6173711D01*
X2431028Y6189459D01*
X2436362Y6199873D01*
X2446776Y6210287D01*
X2462270Y6215367D01*
X2483098Y6220447D01*
X2493512Y6225781D01*
X2498592Y6236195D01*
X2498592Y6246609D01*
X2493512Y6257023D01*
X2477764Y6262103D01*
X2457190Y6262103D01*
X1803397Y6541503D02*
G01*
X1803397Y6432537D01*
X1803397Y6541503D02*
G01*
X1850133Y6541503D01*
X1865627Y6536423D01*
X1870961Y6531089D01*
X1876041Y6520675D01*
X1876041Y6510261D01*
X1870961Y6499847D01*
X1865627Y6494767D01*
X1850133Y6489687D01*
X1803397Y6489687D01*
X1839719Y6489687D02*
G01*
X1876041Y6432537D01*
X1910331Y6520675D02*
G01*
X1920745Y6526009D01*
X1936493Y6541503D01*
X1936493Y6432537D01*
X1970783Y6520675D02*
G01*
X1981197Y6526009D01*
X1996691Y6541503D01*
X1996691Y6432537D01*
X1436875Y6083795D02*
G01*
X1431541Y6094209D01*
X1421127Y6104623D01*
X1410967Y6109703D01*
X1390139Y6109703D01*
X1379725Y6104623D01*
X1369311Y6094209D01*
X1363977Y6083795D01*
X1358897Y6068047D01*
X1358897Y6042139D01*
X1363977Y6026645D01*
X1369311Y6016231D01*
X1379725Y6005817D01*
X1390139Y6000737D01*
X1410967Y6000737D01*
X1421127Y6005817D01*
X1431541Y6016231D01*
X1436875Y6026645D01*
X1436875Y6042139D01*
X1410967Y6042139D02*
G01*
X1436875Y6042139D01*
X1471165Y6109703D02*
G01*
X1471165Y6000737D01*
X1471165Y6109703D02*
G01*
X1517901Y6109703D01*
X1533395Y6104623D01*
X1538729Y6099289D01*
X1543809Y6088875D01*
X1543809Y6073381D01*
X1538729Y6062967D01*
X1533395Y6057887D01*
X1517901Y6052553D01*
X1471165Y6052553D01*
X1578099Y6109703D02*
G01*
X1578099Y6000737D01*
X1643631Y6109703D02*
G01*
X1633217Y6104623D01*
X1622803Y6094209D01*
X1617723Y6083795D01*
X1612389Y6068047D01*
X1612389Y6042139D01*
X1617723Y6026645D01*
X1622803Y6016231D01*
X1633217Y6005817D01*
X1643631Y6000737D01*
X1664459Y6000737D01*
X1674873Y6005817D01*
X1685287Y6016231D01*
X1690367Y6026645D01*
X1695447Y6042139D01*
X1695447Y6068047D01*
X1690367Y6083795D01*
X1685287Y6094209D01*
X1674873Y6104623D01*
X1664459Y6109703D01*
X1643631Y6109703D01*
X2795772Y6071095D02*
G01*
X2790438Y6081509D01*
X2780024Y6091923D01*
X2769864Y6097003D01*
X2749036Y6097003D01*
X2738622Y6091923D01*
X2728208Y6081509D01*
X2722874Y6071095D01*
X2717794Y6055347D01*
X2717794Y6029439D01*
X2722874Y6013945D01*
X2728208Y6003531D01*
X2738622Y5993117D01*
X2749036Y5988037D01*
X2769864Y5988037D01*
X2780024Y5993117D01*
X2790438Y6003531D01*
X2795772Y6013945D01*
X2795772Y6029439D01*
X2769864Y6029439D02*
G01*
X2795772Y6029439D01*
X2830062Y6097003D02*
G01*
X2830062Y5988037D01*
X2830062Y6097003D02*
G01*
X2902706Y5988037D01*
X2902706Y6097003D02*
G01*
X2902706Y5988037D01*
X2936996Y6097003D02*
G01*
X2936996Y5988037D01*
X2936996Y6097003D02*
G01*
X2973318Y6097003D01*
X2989066Y6091923D01*
X2999480Y6081509D01*
X3004560Y6071095D01*
X3009894Y6055347D01*
X3009894Y6029439D01*
X3004560Y6013945D01*
X2999480Y6003531D01*
X2989066Y5993117D01*
X2973318Y5988037D01*
X2936996Y5988037D01*
X3044184Y6097003D02*
G01*
X3085586Y5988037D01*
X3127242Y6097003D02*
G01*
X3085586Y5988037D01*
X3239510Y6071095D02*
G01*
X3234176Y6081509D01*
X3223762Y6091923D01*
X3213348Y6097003D01*
X3192774Y6097003D01*
X3182360Y6091923D01*
X3171946Y6081509D01*
X3166612Y6071095D01*
X3161532Y6055347D01*
X3161532Y6029439D01*
X3166612Y6013945D01*
X3171946Y6003531D01*
X3182360Y5993117D01*
X3192774Y5988037D01*
X3213348Y5988037D01*
X3223762Y5993117D01*
X3234176Y6003531D01*
X3239510Y6013945D01*
X3351524Y6071095D02*
G01*
X3346444Y6081509D01*
X3336030Y6091923D01*
X3325616Y6097003D01*
X3304788Y6097003D01*
X3294374Y6091923D01*
X3284214Y6081509D01*
X3278880Y6071095D01*
X3273800Y6055347D01*
X3273800Y6029439D01*
X3278880Y6013945D01*
X3284214Y6003531D01*
X3294374Y5993117D01*
X3304788Y5988037D01*
X3325616Y5988037D01*
X3336030Y5993117D01*
X3346444Y6003531D01*
X3351524Y6013945D01*
X2819394Y9437098D02*
G01*
X2819394Y9328132D01*
X2892038Y9437098D02*
G01*
X2892038Y9328132D01*
X2819394Y9385282D02*
G01*
X2892038Y9385282D01*
X2926328Y9437098D02*
G01*
X2926328Y9328132D01*
X2926328Y9437098D02*
G01*
X2962904Y9437098D01*
X2978398Y9432018D01*
X2988812Y9421604D01*
X2993892Y9411190D01*
X2999226Y9395442D01*
X2999226Y9369534D01*
X2993892Y9354040D01*
X2988812Y9343626D01*
X2978398Y9333212D01*
X2962904Y9328132D01*
X2926328Y9328132D01*
X3033516Y9437098D02*
G01*
X3033516Y9328132D01*
X3033516Y9437098D02*
G01*
X3069838Y9437098D01*
X3085332Y9432018D01*
X3095746Y9421604D01*
X3101080Y9411190D01*
X3106160Y9395442D01*
X3106160Y9369534D01*
X3101080Y9354040D01*
X3095746Y9343626D01*
X3085332Y9333212D01*
X3069838Y9328132D01*
X3033516Y9328132D01*
X3187186Y9421604D02*
G01*
X3187186Y9328132D01*
X3140450Y9374868D02*
G01*
X3233922Y9374868D01*
X2324094Y9437098D02*
G01*
X2324094Y9328132D01*
X2324094Y9328132D02*
G01*
X2386324Y9328132D01*
X2420614Y9437098D02*
G01*
X2420614Y9328132D01*
X2420614Y9437098D02*
G01*
X2488178Y9437098D01*
X2420614Y9385282D02*
G01*
X2462270Y9385282D01*
X2420614Y9328132D02*
G01*
X2488178Y9328132D01*
X2522468Y9437098D02*
G01*
X2522468Y9328132D01*
X2522468Y9437098D02*
G01*
X2559044Y9437098D01*
X2574538Y9432018D01*
X2584952Y9421604D01*
X2590032Y9411190D01*
X2595366Y9395442D01*
X2595366Y9369534D01*
X2590032Y9354040D01*
X2584952Y9343626D01*
X2574538Y9333212D01*
X2559044Y9328132D01*
X2522468Y9328132D01*
X2676392Y9421604D02*
G01*
X2676392Y9328132D01*
X2629656Y9374868D02*
G01*
X2723128Y9374868D01*
X1117597Y9437098D02*
G01*
X1117597Y9328132D01*
X1117597Y9437098D02*
G01*
X1164333Y9437098D01*
X1179827Y9432018D01*
X1185161Y9426684D01*
X1190241Y9416270D01*
X1190241Y9400776D01*
X1185161Y9390362D01*
X1179827Y9385282D01*
X1164333Y9379948D01*
X1117597Y9379948D01*
X1224531Y9437098D02*
G01*
X1250693Y9328132D01*
X1276601Y9437098D02*
G01*
X1250693Y9328132D01*
X1276601Y9437098D02*
G01*
X1302509Y9328132D01*
X1328417Y9437098D02*
G01*
X1302509Y9328132D01*
X1362707Y9437098D02*
G01*
X1362707Y9328132D01*
X1362707Y9437098D02*
G01*
X1409697Y9437098D01*
X1425191Y9432018D01*
X1430271Y9426684D01*
X1435605Y9416270D01*
X1435605Y9405856D01*
X1430271Y9395442D01*
X1425191Y9390362D01*
X1409697Y9385282D01*
X1362707Y9385282D01*
X1399283Y9385282D02*
G01*
X1435605Y9328132D01*
X1638297Y9437098D02*
G01*
X1638297Y9328132D01*
X1638297Y9437098D02*
G01*
X1685033Y9437098D01*
X1700527Y9432018D01*
X1705861Y9426684D01*
X1710941Y9416270D01*
X1710941Y9405856D01*
X1705861Y9395442D01*
X1700527Y9390362D01*
X1685033Y9385282D01*
X1638297Y9385282D01*
X1674619Y9385282D02*
G01*
X1710941Y9328132D01*
X1818129Y9421604D02*
G01*
X1807715Y9432018D01*
X1791967Y9437098D01*
X1771393Y9437098D01*
X1755645Y9432018D01*
X1745231Y9421604D01*
X1745231Y9411190D01*
X1750565Y9400776D01*
X1755645Y9395442D01*
X1766059Y9390362D01*
X1797301Y9379948D01*
X1807715Y9374868D01*
X1812795Y9369534D01*
X1818129Y9359120D01*
X1818129Y9343626D01*
X1807715Y9333212D01*
X1791967Y9328132D01*
X1771393Y9328132D01*
X1755645Y9333212D01*
X1745231Y9343626D01*
X1888741Y9437098D02*
G01*
X1888741Y9328132D01*
X1852419Y9437098D02*
G01*
X1925063Y9437098D01*
X3123158Y8280374D02*
G01*
X3232378Y8280374D01*
X3123158Y8280374D02*
G01*
X3123158Y8327110D01*
X3128238Y8342604D01*
X3133572Y8347938D01*
X3143986Y8353018D01*
X3154400Y8353018D01*
X3164814Y8347938D01*
X3169894Y8342604D01*
X3175228Y8327110D01*
X3175228Y8280374D01*
X3175228Y8316696D02*
G01*
X3232378Y8353018D01*
X3143986Y8387308D02*
G01*
X3138652Y8397722D01*
X3123158Y8413470D01*
X3232378Y8413470D01*
X3123158Y8478748D02*
G01*
X3128238Y8463254D01*
X3143986Y8452840D01*
X3169894Y8447760D01*
X3185388Y8447760D01*
X3211550Y8452840D01*
X3227044Y8463254D01*
X3232378Y8478748D01*
X3232378Y8489162D01*
X3227044Y8504910D01*
X3211550Y8515324D01*
X3185388Y8520404D01*
X3169894Y8520404D01*
X3143986Y8515324D01*
X3128238Y8504910D01*
X3123158Y8489162D01*
X3123158Y8478748D01*
X2615158Y8280374D02*
G01*
X2724378Y8280374D01*
X2615158Y8280374D02*
G01*
X2615158Y8327110D01*
X2620238Y8342604D01*
X2625572Y8347938D01*
X2635986Y8353018D01*
X2646400Y8353018D01*
X2656814Y8347938D01*
X2661894Y8342604D01*
X2667228Y8327110D01*
X2667228Y8280374D01*
X2667228Y8316696D02*
G01*
X2724378Y8353018D01*
X2635986Y8387308D02*
G01*
X2630652Y8397722D01*
X2615158Y8413470D01*
X2724378Y8413470D01*
X2641066Y8452840D02*
G01*
X2635986Y8452840D01*
X2625572Y8458174D01*
X2620238Y8463254D01*
X2615158Y8473668D01*
X2615158Y8494496D01*
X2620238Y8504910D01*
X2625572Y8509990D01*
X2635986Y8515324D01*
X2646400Y8515324D01*
X2656814Y8509990D01*
X2672308Y8499576D01*
X2724378Y8447760D01*
X2724378Y8520404D01*
X1853158Y7137374D02*
G01*
X1962378Y7137374D01*
X1853158Y7137374D02*
G01*
X1853158Y7184110D01*
X1858238Y7199604D01*
X1863572Y7204938D01*
X1873986Y7210018D01*
X1884400Y7210018D01*
X1894814Y7204938D01*
X1899894Y7199604D01*
X1905228Y7184110D01*
X1905228Y7137374D01*
X1905228Y7173696D02*
G01*
X1962378Y7210018D01*
X1873986Y7244308D02*
G01*
X1868652Y7254722D01*
X1853158Y7270470D01*
X1962378Y7270470D01*
X1853158Y7315174D02*
G01*
X1853158Y7372324D01*
X1894814Y7341082D01*
X1894814Y7356576D01*
X1899894Y7366990D01*
X1905228Y7372324D01*
X1920722Y7377404D01*
X1931136Y7377404D01*
X1946630Y7372324D01*
X1957044Y7361910D01*
X1962378Y7346162D01*
X1962378Y7330668D01*
X1957044Y7315174D01*
X1951964Y7309840D01*
X1941550Y7304760D01*
X1345158Y7137374D02*
G01*
X1454378Y7137374D01*
X1345158Y7137374D02*
G01*
X1345158Y7184110D01*
X1350238Y7199604D01*
X1355572Y7204938D01*
X1365986Y7210018D01*
X1376400Y7210018D01*
X1386814Y7204938D01*
X1391894Y7199604D01*
X1397228Y7184110D01*
X1397228Y7137374D01*
X1397228Y7173696D02*
G01*
X1454378Y7210018D01*
X1365986Y7244308D02*
G01*
X1360652Y7254722D01*
X1345158Y7270470D01*
X1454378Y7270470D01*
X1345158Y7356576D02*
G01*
X1417802Y7304760D01*
X1417802Y7382484D01*
X1345158Y7356576D02*
G01*
X1454378Y7356576D01*
X1181100Y8433815D02*
G01*
X1181100Y8355837D01*
X1186179Y8340344D01*
X1196594Y8329929D01*
X1212342Y8324595D01*
X1222755Y8324595D01*
X1238250Y8329929D01*
X1248663Y8340344D01*
X1253744Y8355837D01*
X1253744Y8433815D01*
X1288034Y8412987D02*
G01*
X1298447Y8418321D01*
X1314195Y8433815D01*
X1314195Y8324595D01*
X1379473Y8433815D02*
G01*
X1363979Y8428736D01*
X1353565Y8412987D01*
X1348486Y8387079D01*
X1348486Y8371586D01*
X1353565Y8345423D01*
X1363979Y8329929D01*
X1379473Y8324595D01*
X1389887Y8324595D01*
X1405636Y8329929D01*
X1416050Y8345423D01*
X1421129Y8371586D01*
X1421129Y8387079D01*
X1416050Y8412987D01*
X1405636Y8428736D01*
X1389887Y8433815D01*
X1379473Y8433815D01*
X1701800Y8433815D02*
G01*
X1701800Y8355837D01*
X1706879Y8340344D01*
X1717294Y8329929D01*
X1733042Y8324595D01*
X1743455Y8324595D01*
X1758950Y8329929D01*
X1769363Y8340344D01*
X1774444Y8355837D01*
X1774444Y8433815D01*
X1808734Y8412987D02*
G01*
X1819147Y8418321D01*
X1834895Y8433815D01*
X1834895Y8324595D01*
X1869186Y8412987D02*
G01*
X1879600Y8418321D01*
X1895094Y8433815D01*
X1895094Y8324595D01*
X2501900Y7187133D02*
G01*
X2501900Y7265111D01*
X2496820Y7280605D01*
X2486406Y7291019D01*
X2470658Y7296353D01*
X2460243Y7296353D01*
X2444750Y7291019D01*
X2434336Y7280605D01*
X2429256Y7265111D01*
X2429256Y7187133D01*
X2394965Y7207961D02*
G01*
X2384552Y7202627D01*
X2368804Y7187133D01*
X2368804Y7296353D01*
X2329434Y7213041D02*
G01*
X2329434Y7207961D01*
X2324100Y7197547D01*
X2319020Y7192213D01*
X2308606Y7187133D01*
X2287777Y7187133D01*
X2277363Y7192213D01*
X2272284Y7197547D01*
X2266950Y7207961D01*
X2266950Y7218375D01*
X2272284Y7228789D01*
X2282697Y7244283D01*
X2334513Y7296353D01*
X2261870Y7296353D01*
X3136900Y7187133D02*
G01*
X3136900Y7265111D01*
X3131820Y7280605D01*
X3121406Y7291019D01*
X3105658Y7296353D01*
X3095243Y7296353D01*
X3079750Y7291019D01*
X3069336Y7280605D01*
X3064256Y7265111D01*
X3064256Y7187133D01*
X3029965Y7207961D02*
G01*
X3019552Y7202627D01*
X3003804Y7187133D01*
X3003804Y7296353D01*
X2959100Y7187133D02*
G01*
X2901950Y7187133D01*
X2933191Y7228789D01*
X2917697Y7228789D01*
X2907284Y7233869D01*
X2901950Y7239203D01*
X2896870Y7254697D01*
X2896870Y7265111D01*
X2901950Y7280605D01*
X2912363Y7291019D01*
X2928111Y7296353D01*
X2943606Y7296353D01*
X2959100Y7291019D01*
X2964434Y7285939D01*
X2969513Y7275525D01*
D12*
X2102995Y6345285D02*
G01*
X2722994Y6345288D01*
X2102995Y6075288D02*
G01*
X2722994Y6075286D01*
X2722994Y6075288D02*
G01*
X2722994Y6345288D01*
X2102995Y6075286D02*
G01*
X2102995Y6345285D01*
X1594998Y6624685D02*
G01*
X2214996Y6624688D01*
X1594998Y6354688D02*
G01*
X2214996Y6354686D01*
X2214996Y6354688D02*
G01*
X2214996Y6624688D01*
X1594998Y6354686D02*
G01*
X1594998Y6624685D01*
X1880676Y5714987D02*
G01*
X1880676Y5079987D01*
X1917697Y5079987D01*
X1930397Y5079987D01*
X1930397Y5714987D01*
X2032998Y5968987D02*
G01*
X2032998Y5714987D01*
X1014999Y5714987D02*
G01*
X2032998Y5714987D01*
X1014999Y5968987D02*
G01*
X2032998Y5968987D01*
X1626676Y5714987D02*
G01*
X1626676Y5079987D01*
X1663697Y5079987D01*
X1676397Y5079987D01*
X1676397Y5714987D01*
X1372676Y5714987D02*
G01*
X1372676Y5079987D01*
X1409697Y5079987D01*
X1422397Y5079987D01*
X1422397Y5714987D01*
X1118676Y5714987D02*
G01*
X1118676Y5079987D01*
X1155697Y5079987D01*
X1168397Y5079987D01*
X1168397Y5714987D01*
X1014996Y5968987D02*
G01*
X1014996Y5714987D01*
X2920994Y5714987D02*
G01*
X2920994Y5118087D01*
X3174994Y5714987D02*
G01*
X3174994Y5118087D01*
X3301994Y5714987D02*
G01*
X2793994Y5714987D01*
X2793994Y5968987D01*
X3301994Y5968987D01*
X3301994Y5714987D01*
X3174994Y9270982D02*
G01*
X3174994Y9867882D01*
X2920994Y9270982D02*
G01*
X2920994Y9867882D01*
X2793994Y9270982D02*
G01*
X3301994Y9270982D01*
X3301994Y9016982D01*
X2793994Y9016982D01*
X2793994Y9270982D01*
X2666994Y9270982D02*
G01*
X2666994Y9867882D01*
X2412994Y9270982D02*
G01*
X2412994Y9867882D01*
X2285994Y9270982D02*
G01*
X2793994Y9270982D01*
X2793994Y9016982D01*
X2285994Y9016982D01*
X2285994Y9270982D01*
X1396997Y9270982D02*
G01*
X1396997Y9867882D01*
X1142997Y9270982D02*
G01*
X1142997Y9867882D01*
X1015997Y9270982D02*
G01*
X1523997Y9270982D01*
X1523997Y9016982D01*
X1015997Y9016982D01*
X1015997Y9270982D01*
X1904997Y9270982D02*
G01*
X1904997Y9867882D01*
X1650997Y9270982D02*
G01*
X1650997Y9867882D01*
X1523997Y9270982D02*
G01*
X2031997Y9270982D01*
X2031997Y9016982D01*
X1523997Y9016982D01*
X1523997Y9270982D01*
X3040001Y8072000D02*
G01*
X3039999Y8691999D01*
X3309998Y8072000D02*
G01*
X3310000Y8691999D01*
X3309998Y8691999D02*
G01*
X3039999Y8691999D01*
X3310000Y8072000D02*
G01*
X3040001Y8072000D01*
X2532001Y8072000D02*
G01*
X2531999Y8691999D01*
X2801998Y8072000D02*
G01*
X2802000Y8691999D01*
X2801998Y8691999D02*
G01*
X2531999Y8691999D01*
X2802000Y8072000D02*
G01*
X2532001Y8072000D01*
X1770001Y6929000D02*
G01*
X1769998Y7548999D01*
X2039998Y6929000D02*
G01*
X2040000Y7548999D01*
X2039998Y7548999D02*
G01*
X1769998Y7548999D01*
X2040000Y6929000D02*
G01*
X1770001Y6929000D01*
X1262001Y6929000D02*
G01*
X1261998Y7548999D01*
X1531998Y6929000D02*
G01*
X1532001Y7548999D01*
X1531998Y7548999D02*
G01*
X1261998Y7548999D01*
X1532001Y6929000D02*
G01*
X1262001Y6929000D01*
X1040892Y8127740D02*
G01*
X1498092Y8127740D01*
X1498092Y8635141D02*
G01*
X1498092Y8127740D01*
X1040892Y8304941D02*
G01*
X1040892Y8127740D01*
X1040892Y8635141D02*
G01*
X1040892Y8457341D01*
X1040892Y8635141D02*
G01*
X1498092Y8635141D01*
X1548892Y8127740D02*
G01*
X2006091Y8127740D01*
X2006091Y8635141D02*
G01*
X2006091Y8127740D01*
X1548892Y8304941D02*
G01*
X1548892Y8127740D01*
X1548892Y8635141D02*
G01*
X1548892Y8457341D01*
X1548892Y8635141D02*
G01*
X2006091Y8635141D01*
X2642097Y7493137D02*
G01*
X2184897Y7493137D01*
X2184897Y6985736D02*
G01*
X2184897Y7493137D01*
X2642097Y7315936D02*
G01*
X2642097Y7493137D01*
X2642097Y6985736D02*
G01*
X2642097Y7163536D01*
X2642097Y6985736D02*
G01*
X2184897Y6985736D01*
X3277097Y7493137D02*
G01*
X2819897Y7493137D01*
X2819897Y6985736D02*
G01*
X2819897Y7493137D01*
X3277097Y7315936D02*
G01*
X3277097Y7493137D01*
X3277097Y6985736D02*
G01*
X3277097Y7163536D01*
X3277097Y6985736D02*
G01*
X2819897Y6985736D01*
G75*
G01*
X1040892Y8457341D02*
G02*
X1040892Y8304941I0J-76200D01*
G75*
G01*
X1548892Y8457341D02*
G02*
X1548892Y8304941I0J-76200D01*
G75*
G01*
X2642098Y7163537D02*
G02*
X2642098Y7315937I0J76200D01*
G75*
G01*
X3277098Y7163537D02*
G02*
X3277098Y7315937I0J76200D01*
G75*
G01
X994461Y8120685D02*
G03X994461Y8120685I-12700J0D01*
G75*
G01
X1502461Y8120685D02*
G03X1502461Y8120685I-12700J0D01*
G75*
G01
X2713939Y7500188D02*
G03X2713939Y7500188I-12700J0D01*
G75*
G01
X3348939Y7500188D02*
G03X3348939Y7500188I-12700J0D01*
M02*
