G04 Layer: TopSolderMaskLayer*
G04 EasyEDA v6.5.42, 2024-04-09 23:37:06*
G04 322ad19b13e247668383385aaff6aa40,edc686363fba4cf3ab42fed1df3dfb96,10*
G04 Gerber Generator version 0.2*
G04 Scale: 100 percent, Rotated: No, Reflected: No *
G04 Dimensions in millimeters *
G04 leading zeros omitted , absolute positions ,4 integer and 5 decimal *
%FSLAX45Y45*%
%MOMM*%

%AMMACRO1*1,1,$1,$2,$3*1,1,$1,$4,$5*1,1,$1,0-$2,0-$3*1,1,$1,0-$4,0-$5*20,1,$1,$2,$3,$4,$5,0*20,1,$1,$4,$5,0-$2,0-$3,0*20,1,$1,0-$2,0-$3,0-$4,0-$5,0*20,1,$1,0-$4,0-$5,$2,$3,0*4,1,4,$2,$3,$4,$5,0-$2,0-$3,0-$4,0-$5,$2,$3,0*%
%ADD10MACRO1,0.1016X-0.85X0.85X0.85X0.85*%
%ADD11C,1.8016*%
%ADD12MACRO1,0.1016X-1X1X1X1*%
%ADD13C,2.1016*%
%ADD14MACRO1,0.1016X1X-1X-1X-1*%
%ADD15C,1.5016*%
%ADD16C,1.9016*%
%ADD17MACRO1,0.1016X0.9X-0.9X-0.9X-0.9*%
%ADD18MACRO1,0.1016X-0.9X0.9X0.9X0.9*%

%LPD*%
D10*
G01*
X1142997Y5841987D03*
D11*
G01*
X1397000Y5841974D03*
G01*
X1651000Y5841974D03*
G01*
X1905000Y5841974D03*
D12*
G01*
X1143000Y9144000D03*
D13*
G01*
X1397000Y9144000D03*
D12*
G01*
X1651000Y9144000D03*
D13*
G01*
X1905000Y9144000D03*
D14*
G01*
X3175000Y5842000D03*
D13*
G01*
X2921000Y5842000D03*
D14*
G01*
X3175000Y9144000D03*
D13*
G01*
X2921000Y9144000D03*
D14*
G01*
X2667000Y9144000D03*
D13*
G01*
X2413000Y9144000D03*
D15*
G01*
X1888007Y6223000D03*
G01*
X2937992Y6223000D03*
G01*
X3175000Y7871993D03*
G01*
X3175000Y8892006D03*
G01*
X1380007Y6477000D03*
G01*
X2429992Y6477000D03*
G01*
X2667000Y7871993D03*
G01*
X2667000Y8892006D03*
G01*
X1905000Y6728993D03*
G01*
X1905000Y7749006D03*
G01*
X1397000Y6728993D03*
G01*
X1397000Y7749006D03*
D16*
G01*
X1397507Y7990941D03*
G01*
X1396492Y8773947D03*
G01*
X1142492Y8773947D03*
D17*
G01*
X1143505Y7989940D03*
D16*
G01*
X1905507Y7990941D03*
G01*
X1904492Y8773947D03*
G01*
X1650492Y8773947D03*
D17*
G01*
X1651505Y7989940D03*
D16*
G01*
X2285481Y7629936D03*
G01*
X2286497Y6846930D03*
G01*
X2540497Y6846930D03*
D18*
G01*
X2539484Y7630937D03*
D16*
G01*
X2920481Y7629936D03*
G01*
X2921497Y6846930D03*
G01*
X3175497Y6846930D03*
D18*
G01*
X3174484Y7630937D03*
M02*
