ISO-10303-21;
HEADER;
FILE_DESCRIPTION(('FreeCAD Model'),'2;1');
FILE_NAME('Open CASCADE Shape Model','2024-04-23T11:23:33',(''),(''),
  'Open CASCADE STEP processor 7.6','FreeCAD','Unknown');
FILE_SCHEMA(('AUTOMOTIVE_DESIGN { 1 0 10303 214 1 1 1 1 }'));
ENDSEC;
DATA;
#1 = APPLICATION_PROTOCOL_DEFINITION('international standard',
  'automotive_design',2000,#2);
#2 = APPLICATION_CONTEXT(
  'core data for automotive mechanical design processes');
#3 = SHAPE_DEFINITION_REPRESENTATION(#4,#10);
#4 = PRODUCT_DEFINITION_SHAPE('','',#5);
#5 = PRODUCT_DEFINITION('design','',#6,#9);
#6 = PRODUCT_DEFINITION_FORMATION('','',#7);
#7 = PRODUCT('atx_plug_merged (Solid)','atx_plug_merged (Solid)','',(#8)
  );
#8 = PRODUCT_CONTEXT('',#2,'mechanical');
#9 = PRODUCT_DEFINITION_CONTEXT('part definition',#2,'design');
#10 = ADVANCED_BREP_SHAPE_REPRESENTATION('',(#11,#15),#2161);
#11 = AXIS2_PLACEMENT_3D('',#12,#13,#14);
#12 = CARTESIAN_POINT('',(0.,0.,0.));
#13 = DIRECTION('',(0.,0.,1.));
#14 = DIRECTION('',(1.,0.,-0.));
#15 = MANIFOLD_SOLID_BREP('',#16);
#16 = CLOSED_SHELL('',(#17,#57,#192,#295,#346,#415,#439,#539,#563,#663,
    #680,#711,#783,#807,#872,#903,#975,#1047,#1064,#1081,#1098,#1287,
    #1304,#1316,#1340,#1364,#1388,#1412,#1429,#1453,#1477,#1501,#1525,
    #1542,#1566,#1590,#1682,#1706,#1723,#1747,#1771,#1795,#1819,#1836,
    #1853,#1870,#1887,#1947,#1971,#1995,#2019,#2036,#2060,#2077,#2089,
    #2101,#2113,#2125,#2137,#2149));
#17 = ADVANCED_FACE('',(#18),#52,.F.);
#18 = FACE_BOUND('',#19,.F.);
#19 = EDGE_LOOP('',(#20,#30,#38,#46));
#20 = ORIENTED_EDGE('',*,*,#21,.F.);
#21 = EDGE_CURVE('',#22,#24,#26,.T.);
#22 = VERTEX_POINT('',#23);
#23 = CARTESIAN_POINT('',(-13.,-10.,0.3));
#24 = VERTEX_POINT('',#25);
#25 = CARTESIAN_POINT('',(-13.,-10.,24.3));
#26 = LINE('',#27,#28);
#27 = CARTESIAN_POINT('',(-13.,-10.,-1.1));
#28 = VECTOR('',#29,1.);
#29 = DIRECTION('',(0.,0.,1.));
#30 = ORIENTED_EDGE('',*,*,#31,.T.);
#31 = EDGE_CURVE('',#22,#32,#34,.T.);
#32 = VERTEX_POINT('',#33);
#33 = CARTESIAN_POINT('',(-13.,-9.,0.3));
#34 = LINE('',#35,#36);
#35 = CARTESIAN_POINT('',(-13.,-10.,0.3));
#36 = VECTOR('',#37,1.);
#37 = DIRECTION('',(0.,1.,0.));
#38 = ORIENTED_EDGE('',*,*,#39,.F.);
#39 = EDGE_CURVE('',#40,#32,#42,.T.);
#40 = VERTEX_POINT('',#41);
#41 = CARTESIAN_POINT('',(-13.,-9.,24.3));
#42 = LINE('',#43,#44);
#43 = CARTESIAN_POINT('',(-13.,-9.,-1.1));
#44 = VECTOR('',#45,1.);
#45 = DIRECTION('',(-0.,-0.,-1.));
#46 = ORIENTED_EDGE('',*,*,#47,.F.);
#47 = EDGE_CURVE('',#24,#40,#48,.T.);
#48 = LINE('',#49,#50);
#49 = CARTESIAN_POINT('',(-13.,-10.,24.3));
#50 = VECTOR('',#51,1.);
#51 = DIRECTION('',(0.,1.,0.));
#52 = PLANE('',#53);
#53 = AXIS2_PLACEMENT_3D('',#54,#55,#56);
#54 = CARTESIAN_POINT('',(-13.,-10.,-1.1));
#55 = DIRECTION('',(1.,0.,0.));
#56 = DIRECTION('',(0.,0.,1.));
#57 = ADVANCED_FACE('',(#58,#119,#153),#187,.F.);
#58 = FACE_BOUND('',#59,.F.);
#59 = EDGE_LOOP('',(#60,#70,#77,#78,#87,#95,#104,#112));
#60 = ORIENTED_EDGE('',*,*,#61,.F.);
#61 = EDGE_CURVE('',#62,#64,#66,.T.);
#62 = VERTEX_POINT('',#63);
#63 = CARTESIAN_POINT('',(-11.6,-10.,-1.1));
#64 = VERTEX_POINT('',#65);
#65 = CARTESIAN_POINT('',(-7.4,-10.,-1.1));
#66 = LINE('',#67,#68);
#67 = CARTESIAN_POINT('',(-13.,-10.,-1.1));
#68 = VECTOR('',#69,1.);
#69 = DIRECTION('',(1.,0.,0.));
#70 = ORIENTED_EDGE('',*,*,#71,.F.);
#71 = EDGE_CURVE('',#22,#62,#72,.T.);
#72 = CIRCLE('',#73,1.4);
#73 = AXIS2_PLACEMENT_3D('',#74,#75,#76);
#74 = CARTESIAN_POINT('',(-11.6,-10.,0.3));
#75 = DIRECTION('',(0.,-1.,0.));
#76 = DIRECTION('',(0.,0.,1.));
#77 = ORIENTED_EDGE('',*,*,#21,.T.);
#78 = ORIENTED_EDGE('',*,*,#79,.T.);
#79 = EDGE_CURVE('',#24,#80,#82,.T.);
#80 = VERTEX_POINT('',#81);
#81 = CARTESIAN_POINT('',(-11.6,-10.,25.7));
#82 = CIRCLE('',#83,1.4);
#83 = AXIS2_PLACEMENT_3D('',#84,#85,#86);
#84 = CARTESIAN_POINT('',(-11.6,-10.,24.3));
#85 = DIRECTION('',(0.,1.,0.));
#86 = DIRECTION('',(0.,0.,1.));
#87 = ORIENTED_EDGE('',*,*,#88,.T.);
#88 = EDGE_CURVE('',#80,#89,#91,.T.);
#89 = VERTEX_POINT('',#90);
#90 = CARTESIAN_POINT('',(-7.4,-10.,25.7));
#91 = LINE('',#92,#93);
#92 = CARTESIAN_POINT('',(-13.,-10.,25.7));
#93 = VECTOR('',#94,1.);
#94 = DIRECTION('',(1.,0.,0.));
#95 = ORIENTED_EDGE('',*,*,#96,.F.);
#96 = EDGE_CURVE('',#97,#89,#99,.T.);
#97 = VERTEX_POINT('',#98);
#98 = CARTESIAN_POINT('',(-6.,-10.,24.3));
#99 = CIRCLE('',#100,1.4);
#100 = AXIS2_PLACEMENT_3D('',#101,#102,#103);
#101 = CARTESIAN_POINT('',(-7.4,-10.,24.3));
#102 = DIRECTION('',(0.,-1.,0.));
#103 = DIRECTION('',(0.,0.,1.));
#104 = ORIENTED_EDGE('',*,*,#105,.F.);
#105 = EDGE_CURVE('',#106,#97,#108,.T.);
#106 = VERTEX_POINT('',#107);
#107 = CARTESIAN_POINT('',(-6.,-10.,0.3));
#108 = LINE('',#109,#110);
#109 = CARTESIAN_POINT('',(-6.,-10.,-1.1));
#110 = VECTOR('',#111,1.);
#111 = DIRECTION('',(0.,0.,1.));
#112 = ORIENTED_EDGE('',*,*,#113,.T.);
#113 = EDGE_CURVE('',#106,#64,#114,.T.);
#114 = CIRCLE('',#115,1.4);
#115 = AXIS2_PLACEMENT_3D('',#116,#117,#118);
#116 = CARTESIAN_POINT('',(-7.4,-10.,0.3));
#117 = DIRECTION('',(0.,1.,0.));
#118 = DIRECTION('',(0.,0.,1.));
#119 = FACE_BOUND('',#120,.F.);
#120 = EDGE_LOOP('',(#121,#131,#139,#147));
#121 = ORIENTED_EDGE('',*,*,#122,.F.);
#122 = EDGE_CURVE('',#123,#125,#127,.T.);
#123 = VERTEX_POINT('',#124);
#124 = CARTESIAN_POINT('',(-10.82,-10.,11.4));
#125 = VERTEX_POINT('',#126);
#126 = CARTESIAN_POINT('',(-8.08,-10.,11.4));
#127 = LINE('',#128,#129);
#128 = CARTESIAN_POINT('',(-10.82,-10.,11.4));
#129 = VECTOR('',#130,1.);
#130 = DIRECTION('',(1.,0.,0.));
#131 = ORIENTED_EDGE('',*,*,#132,.F.);
#132 = EDGE_CURVE('',#133,#123,#135,.T.);
#133 = VERTEX_POINT('',#134);
#134 = CARTESIAN_POINT('',(-10.82,-10.,0.4));
#135 = LINE('',#136,#137);
#136 = CARTESIAN_POINT('',(-10.82,-10.,0.4));
#137 = VECTOR('',#138,1.);
#138 = DIRECTION('',(0.,0.,1.));
#139 = ORIENTED_EDGE('',*,*,#140,.T.);
#140 = EDGE_CURVE('',#133,#141,#143,.T.);
#141 = VERTEX_POINT('',#142);
#142 = CARTESIAN_POINT('',(-8.08,-10.,0.4));
#143 = LINE('',#144,#145);
#144 = CARTESIAN_POINT('',(-10.82,-10.,0.4));
#145 = VECTOR('',#146,1.);
#146 = DIRECTION('',(1.,0.,0.));
#147 = ORIENTED_EDGE('',*,*,#148,.T.);
#148 = EDGE_CURVE('',#141,#125,#149,.T.);
#149 = LINE('',#150,#151);
#150 = CARTESIAN_POINT('',(-8.08,-10.,0.4));
#151 = VECTOR('',#152,1.);
#152 = DIRECTION('',(0.,0.,1.));
#153 = FACE_BOUND('',#154,.F.);
#154 = EDGE_LOOP('',(#155,#165,#173,#181));
#155 = ORIENTED_EDGE('',*,*,#156,.F.);
#156 = EDGE_CURVE('',#157,#159,#161,.T.);
#157 = VERTEX_POINT('',#158);
#158 = CARTESIAN_POINT('',(-10.82,-10.,24.2));
#159 = VERTEX_POINT('',#160);
#160 = CARTESIAN_POINT('',(-8.08,-10.,24.2));
#161 = LINE('',#162,#163);
#162 = CARTESIAN_POINT('',(-10.82,-10.,24.2));
#163 = VECTOR('',#164,1.);
#164 = DIRECTION('',(1.,0.,0.));
#165 = ORIENTED_EDGE('',*,*,#166,.F.);
#166 = EDGE_CURVE('',#167,#157,#169,.T.);
#167 = VERTEX_POINT('',#168);
#168 = CARTESIAN_POINT('',(-10.82,-10.,13.2));
#169 = LINE('',#170,#171);
#170 = CARTESIAN_POINT('',(-10.82,-10.,13.2));
#171 = VECTOR('',#172,1.);
#172 = DIRECTION('',(0.,0.,1.));
#173 = ORIENTED_EDGE('',*,*,#174,.T.);
#174 = EDGE_CURVE('',#167,#175,#177,.T.);
#175 = VERTEX_POINT('',#176);
#176 = CARTESIAN_POINT('',(-8.08,-10.,13.2));
#177 = LINE('',#178,#179);
#178 = CARTESIAN_POINT('',(-10.82,-10.,13.2));
#179 = VECTOR('',#180,1.);
#180 = DIRECTION('',(1.,0.,0.));
#181 = ORIENTED_EDGE('',*,*,#182,.T.);
#182 = EDGE_CURVE('',#175,#159,#183,.T.);
#183 = LINE('',#184,#185);
#184 = CARTESIAN_POINT('',(-8.08,-10.,13.2));
#185 = VECTOR('',#186,1.);
#186 = DIRECTION('',(0.,0.,1.));
#187 = PLANE('',#188);
#188 = AXIS2_PLACEMENT_3D('',#189,#190,#191);
#189 = CARTESIAN_POINT('',(-13.,-10.,-1.1));
#190 = DIRECTION('',(0.,1.,0.));
#191 = DIRECTION('',(0.,0.,1.));
#192 = ADVANCED_FACE('',(#193),#290,.T.);
#193 = FACE_BOUND('',#194,.T.);
#194 = EDGE_LOOP('',(#195,#196,#197,#205,#214,#222,#257));
#195 = ORIENTED_EDGE('',*,*,#47,.F.);
#196 = ORIENTED_EDGE('',*,*,#79,.T.);
#197 = ORIENTED_EDGE('',*,*,#198,.T.);
#198 = EDGE_CURVE('',#80,#199,#201,.T.);
#199 = VERTEX_POINT('',#200);
#200 = CARTESIAN_POINT('',(-11.6,-1.,25.7));
#201 = LINE('',#202,#203);
#202 = CARTESIAN_POINT('',(-11.6,-10.,25.7));
#203 = VECTOR('',#204,1.);
#204 = DIRECTION('',(0.,1.,0.));
#205 = ORIENTED_EDGE('',*,*,#206,.F.);
#206 = EDGE_CURVE('',#207,#199,#209,.T.);
#207 = VERTEX_POINT('',#208);
#208 = CARTESIAN_POINT('',(-13.,-1.,24.3));
#209 = CIRCLE('',#210,1.4);
#210 = AXIS2_PLACEMENT_3D('',#211,#212,#213);
#211 = CARTESIAN_POINT('',(-11.6,-1.,24.3));
#212 = DIRECTION('',(0.,1.,0.));
#213 = DIRECTION('',(0.,0.,1.));
#214 = ORIENTED_EDGE('',*,*,#215,.F.);
#215 = EDGE_CURVE('',#216,#207,#218,.T.);
#216 = VERTEX_POINT('',#217);
#217 = CARTESIAN_POINT('',(-13.,-3.,24.3));
#218 = LINE('',#219,#220);
#219 = CARTESIAN_POINT('',(-13.,-10.,24.3));
#220 = VECTOR('',#221,1.);
#221 = DIRECTION('',(0.,1.,0.));
#222 = ORIENTED_EDGE('',*,*,#223,.F.);
#223 = EDGE_CURVE('',#224,#216,#226,.T.);
#224 = VERTEX_POINT('',#225);
#225 = CARTESIAN_POINT('',(-12.,-6.,25.6416407865));
#226 = B_SPLINE_CURVE_WITH_KNOTS('',8,(#227,#228,#229,#230,#231,#232,
    #233,#234,#235,#236,#237,#238,#239,#240,#241,#242,#243,#244,#245,
    #246,#247,#248,#249,#250,#251,#252,#253,#254,#255,#256),
  .UNSPECIFIED.,.F.,.F.,(9,7,7,7,9),(0.,0.513618346441,0.65231476842,
    0.767606554371,1.),.UNSPECIFIED.);
#227 = CARTESIAN_POINT('',(-12.,-6.,25.6416407865));
#228 = CARTESIAN_POINT('',(-12.,-5.750909745427,25.6416407865));
#229 = CARTESIAN_POINT('',(-12.01418196373,-5.50251344775,
    25.637412370975));
#230 = CARTESIAN_POINT('',(-12.04240736588,-5.255024367908,
    25.628998142985));
#231 = CARTESIAN_POINT('',(-12.08469661549,-5.00877162353,
    25.615473079107));
#232 = CARTESIAN_POINT('',(-12.14115687762,-4.764682133823,
    25.595033609332));
#233 = CARTESIAN_POINT('',(-12.21157453939,-4.524403347996,
    25.564777845634));
#234 = CARTESIAN_POINT('',(-12.29508310334,-4.290449001596,
    25.520549064195));
#235 = CARTESIAN_POINT('',(-12.4141631702,-4.006413069403,
    25.439332079425));
#236 = CARTESIAN_POINT('',(-12.44024567032,-3.946734763383,
    25.420614876793));
#237 = CARTESIAN_POINT('',(-12.46702402637,-3.887882776204,
    25.400341388775));
#238 = CARTESIAN_POINT('',(-12.49441713926,-3.829976188469,
    25.378399946483));
#239 = CARTESIAN_POINT('',(-12.52232916952,-3.773140768059,
    25.354675040271));
#240 = CARTESIAN_POINT('',(-12.55064828487,-3.717508934903,
    25.32904755344));
#241 = CARTESIAN_POINT('',(-12.5792454078,-3.663219725748,
    25.301394995945));
#242 = CARTESIAN_POINT('',(-12.63185282332,-3.566527808629,
    25.246817697242));
#243 = CARTESIAN_POINT('',(-12.65582768511,-3.52365615492,
    25.220552495058));
#244 = CARTESIAN_POINT('',(-12.67978716318,-3.481936104799,
    25.192748895471));
#245 = CARTESIAN_POINT('',(-12.70361187799,-3.441495452191,
    25.163366332177));
#246 = CARTESIAN_POINT('',(-12.72717453807,-3.402457870198,
    25.132371381711));
#247 = CARTESIAN_POINT('',(-12.75034102236,-3.364943303347,
    25.099738236516));
#248 = CARTESIAN_POINT('',(-12.77297146243,-3.329068359835,
    25.065449178017));
#249 = CARTESIAN_POINT('',(-12.83916562292,-3.226167743015,
    24.957022377885));
#250 = CARTESIAN_POINT('',(-12.88073337109,-3.164375340899,
    24.877638703716));
#251 = CARTESIAN_POINT('',(-12.91811544695,-3.111028926527,
    24.791718929833));
#252 = CARTESIAN_POINT('',(-12.94985453894,-3.067231227829,
    24.699955483473));
#253 = CARTESIAN_POINT('',(-12.97465608903,-3.033791759773,
    24.603406885388));
#254 = CARTESIAN_POINT('',(-12.99154491277,-3.011273506426,
    24.503469248227));
#255 = CARTESIAN_POINT('',(-13.,-3.,24.401772108971));
#256 = CARTESIAN_POINT('',(-13.,-3.,24.3));
#257 = ORIENTED_EDGE('',*,*,#258,.F.);
#258 = EDGE_CURVE('',#40,#224,#259,.T.);
#259 = B_SPLINE_CURVE_WITH_KNOTS('',8,(#260,#261,#262,#263,#264,#265,
    #266,#267,#268,#269,#270,#271,#272,#273,#274,#275,#276,#277,#278,
    #279,#280,#281,#282,#283,#284,#285,#286,#287,#288,#289),
  .UNSPECIFIED.,.F.,.F.,(9,7,7,7,9),(0.,0.164474605688,0.347572205812,
    0.485809251389,1.),.UNSPECIFIED.);
#260 = CARTESIAN_POINT('',(-13.,-9.,24.3));
#261 = CARTESIAN_POINT('',(-13.,-9.,24.372061330236));
#262 = CARTESIAN_POINT('',(-12.99576088604,-8.994347548223,
    24.444124628795));
#263 = CARTESIAN_POINT('',(-12.98728253699,-8.983043845476,
    24.515577378236));
#264 = CARTESIAN_POINT('',(-12.97469404305,-8.966165614276,
    24.585824779309));
#265 = CARTESIAN_POINT('',(-12.95824562554,-8.943861031236,
    24.654313988402));
#266 = CARTESIAN_POINT('',(-12.93829256106,-8.916349181212,
    24.72055531525));
#267 = CARTESIAN_POINT('',(-12.91527111018,-8.8839230332,24.784140380908
    ));
#268 = CARTESIAN_POINT('',(-12.86116264786,-8.805803163128,
    24.912237566112));
#269 = CARTESIAN_POINT('',(-12.82952650628,-8.759122118589,
    24.975875684611));
#270 = CARTESIAN_POINT('',(-12.79537212874,-8.707353957109,
    25.035466847003));
#271 = CARTESIAN_POINT('',(-12.75931911447,-8.650949518939,
    25.090906043667));
#272 = CARTESIAN_POINT('',(-12.72197415722,-8.590385688905,
    25.142175065181));
#273 = CARTESIAN_POINT('',(-12.6839162849,-8.526181012646,25.18932907304
    ));
#274 = CARTESIAN_POINT('',(-12.64568574078,-8.458910572029,
    25.232482675724));
#275 = CARTESIAN_POINT('',(-12.57915537417,-8.336604453451,
    25.301476347459));
#276 = CARTESIAN_POINT('',(-12.5506644283,-8.28251213899,25.329022955193
    ));
#277 = CARTESIAN_POINT('',(-12.52244956717,-8.227087201937,
    25.354559535417));
#278 = CARTESIAN_POINT('',(-12.49463846675,-8.170467188084,
    25.378207204817));
#279 = CARTESIAN_POINT('',(-12.46734180885,-8.112783129691,
    25.400083764346));
#280 = CARTESIAN_POINT('',(-12.4406545096,-8.054159511719,25.42030346887
    ));
#281 = CARTESIAN_POINT('',(-12.41465694793,-7.994714238072,
    25.438976796827));
#282 = CARTESIAN_POINT('',(-12.29552991291,-7.710801835972,
    25.520312188073));
#283 = CARTESIAN_POINT('',(-12.21189686204,-7.476696674161,
    25.564639556246));
#284 = CARTESIAN_POINT('',(-12.14137146021,-7.236246686099,
    25.594955952077));
#285 = CARTESIAN_POINT('',(-12.08482488685,-6.991976088521,
    25.615432048157));
#286 = CARTESIAN_POINT('',(-12.04247160656,-6.745538445895,
    25.628978983696));
#287 = CARTESIAN_POINT('',(-12.01420371179,-6.497863920727,
    25.637405888356));
#288 = CARTESIAN_POINT('',(-12.,-6.249281158866,25.6416407865));
#289 = CARTESIAN_POINT('',(-12.,-6.,25.6416407865));
#290 = CYLINDRICAL_SURFACE('',#291,1.4);
#291 = AXIS2_PLACEMENT_3D('',#292,#293,#294);
#292 = CARTESIAN_POINT('',(-11.6,-10.,24.3));
#293 = DIRECTION('',(0.,1.,0.));
#294 = DIRECTION('',(-1.,0.,0.));
#295 = ADVANCED_FACE('',(#296),#341,.F.);
#296 = FACE_BOUND('',#297,.T.);
#297 = EDGE_LOOP('',(#298,#306,#339,#340));
#298 = ORIENTED_EDGE('',*,*,#299,.F.);
#299 = EDGE_CURVE('',#300,#224,#302,.T.);
#300 = VERTEX_POINT('',#301);
#301 = CARTESIAN_POINT('',(-12.,-6.,-1.0416407865));
#302 = LINE('',#303,#304);
#303 = CARTESIAN_POINT('',(-12.,-6.,-1.1));
#304 = VECTOR('',#305,1.);
#305 = DIRECTION('',(0.,0.,1.));
#306 = ORIENTED_EDGE('',*,*,#307,.F.);
#307 = EDGE_CURVE('',#32,#300,#308,.T.);
#308 = B_SPLINE_CURVE_WITH_KNOTS('',8,(#309,#310,#311,#312,#313,#314,
    #315,#316,#317,#318,#319,#320,#321,#322,#323,#324,#325,#326,#327,
    #328,#329,#330,#331,#332,#333,#334,#335,#336,#337,#338),
  .UNSPECIFIED.,.F.,.F.,(9,7,7,7,9),(0.,0.164474597272,0.347572225813,
    0.485809267152,1.),.UNSPECIFIED.);
#309 = CARTESIAN_POINT('',(-13.,-9.,0.3));
#310 = CARTESIAN_POINT('',(-13.,-9.,0.227938669764));
#311 = CARTESIAN_POINT('',(-12.99576088604,-8.994347548223,
    0.155875371205));
#312 = CARTESIAN_POINT('',(-12.98728253699,-8.983043845476,
    8.442262176422E-02));
#313 = CARTESIAN_POINT('',(-12.97469404305,-8.966165614276,
    1.417522069098E-02));
#314 = CARTESIAN_POINT('',(-12.95824562554,-8.943861031236,
    -5.431398840204E-02));
#315 = CARTESIAN_POINT('',(-12.93829256106,-8.916349181212,
    -0.12055531525));
#316 = CARTESIAN_POINT('',(-12.91527111018,-8.8839230332,-0.184140380908
    ));
#317 = CARTESIAN_POINT('',(-12.86116264198,-8.805803154635,
    -0.312237580038));
#318 = CARTESIAN_POINT('',(-12.82952650869,-8.759122121115,
    -0.375875676046));
#319 = CARTESIAN_POINT('',(-12.7953721353,-8.707353967749,
    -0.435466835882));
#320 = CARTESIAN_POINT('',(-12.75931911582,-8.650949522297,
    -0.490906045373));
#321 = CARTESIAN_POINT('',(-12.72197415093,-8.590385678348,
    -0.54217507469));
#322 = CARTESIAN_POINT('',(-12.68391628,-8.526181003166,-0.589329076005)
  );
#323 = CARTESIAN_POINT('',(-12.64568574783,-8.458910584982,
    -0.632482668418));
#324 = CARTESIAN_POINT('',(-12.57915537417,-8.336604453451,
    -0.701476347459));
#325 = CARTESIAN_POINT('',(-12.5506644283,-8.28251213899,-0.729022955193
    ));
#326 = CARTESIAN_POINT('',(-12.52244956717,-8.227087201936,
    -0.754559535417));
#327 = CARTESIAN_POINT('',(-12.49463846675,-8.170467188084,
    -0.778207204818));
#328 = CARTESIAN_POINT('',(-12.46734180885,-8.112783129691,
    -0.800083764346));
#329 = CARTESIAN_POINT('',(-12.4406545096,-8.054159511719,-0.82030346887
    ));
#330 = CARTESIAN_POINT('',(-12.41465694793,-7.994714238072,
    -0.838976796827));
#331 = CARTESIAN_POINT('',(-12.29552991291,-7.710801835972,
    -0.920312188073));
#332 = CARTESIAN_POINT('',(-12.21189686204,-7.476696674163,
    -0.964639556246));
#333 = CARTESIAN_POINT('',(-12.14137146021,-7.236246686092,
    -0.994955952077));
#334 = CARTESIAN_POINT('',(-12.08482488685,-6.991976088531,
    -1.015432048157));
#335 = CARTESIAN_POINT('',(-12.04247160656,-6.745538445887,
    -1.028978983696));
#336 = CARTESIAN_POINT('',(-12.01420371179,-6.497863920731,
    -1.037405888356));
#337 = CARTESIAN_POINT('',(-12.,-6.249281158865,-1.0416407865));
#338 = CARTESIAN_POINT('',(-12.,-6.,-1.0416407865));
#339 = ORIENTED_EDGE('',*,*,#39,.F.);
#340 = ORIENTED_EDGE('',*,*,#258,.T.);
#341 = CYLINDRICAL_SURFACE('',#342,5.);
#342 = AXIS2_PLACEMENT_3D('',#343,#344,#345);
#343 = CARTESIAN_POINT('',(-17.,-6.,-1.1));
#344 = DIRECTION('',(-0.,-0.,-1.));
#345 = DIRECTION('',(1.,0.,0.));
#346 = ADVANCED_FACE('',(#347),#410,.T.);
#347 = FACE_BOUND('',#348,.F.);
#348 = EDGE_LOOP('',(#349,#350,#351,#359,#368,#376,#409));
#349 = ORIENTED_EDGE('',*,*,#31,.F.);
#350 = ORIENTED_EDGE('',*,*,#71,.T.);
#351 = ORIENTED_EDGE('',*,*,#352,.T.);
#352 = EDGE_CURVE('',#62,#353,#355,.T.);
#353 = VERTEX_POINT('',#354);
#354 = CARTESIAN_POINT('',(-11.6,-1.,-1.1));
#355 = LINE('',#356,#357);
#356 = CARTESIAN_POINT('',(-11.6,-10.,-1.1));
#357 = VECTOR('',#358,1.);
#358 = DIRECTION('',(0.,1.,0.));
#359 = ORIENTED_EDGE('',*,*,#360,.F.);
#360 = EDGE_CURVE('',#361,#353,#363,.T.);
#361 = VERTEX_POINT('',#362);
#362 = CARTESIAN_POINT('',(-13.,-1.,0.3));
#363 = CIRCLE('',#364,1.4);
#364 = AXIS2_PLACEMENT_3D('',#365,#366,#367);
#365 = CARTESIAN_POINT('',(-11.6,-1.,0.3));
#366 = DIRECTION('',(0.,-1.,0.));
#367 = DIRECTION('',(0.,0.,1.));
#368 = ORIENTED_EDGE('',*,*,#369,.F.);
#369 = EDGE_CURVE('',#370,#361,#372,.T.);
#370 = VERTEX_POINT('',#371);
#371 = CARTESIAN_POINT('',(-13.,-3.,0.3));
#372 = LINE('',#373,#374);
#373 = CARTESIAN_POINT('',(-13.,-10.,0.3));
#374 = VECTOR('',#375,1.);
#375 = DIRECTION('',(0.,1.,0.));
#376 = ORIENTED_EDGE('',*,*,#377,.F.);
#377 = EDGE_CURVE('',#300,#370,#378,.T.);
#378 = B_SPLINE_CURVE_WITH_KNOTS('',8,(#379,#380,#381,#382,#383,#384,
    #385,#386,#387,#388,#389,#390,#391,#392,#393,#394,#395,#396,#397,
    #398,#399,#400,#401,#402,#403,#404,#405,#406,#407,#408),
  .UNSPECIFIED.,.F.,.F.,(9,7,7,7,9),(0.,0.513618628321,0.652315126419,
    0.767606864214,1.),.UNSPECIFIED.);
#379 = CARTESIAN_POINT('',(-12.,-6.,-1.0416407865));
#380 = CARTESIAN_POINT('',(-12.,-5.750909745426,-1.0416407865));
#381 = CARTESIAN_POINT('',(-12.01418196373,-5.50251344775,
    -1.037412370975));
#382 = CARTESIAN_POINT('',(-12.04240736588,-5.255024367909,
    -1.028998142986));
#383 = CARTESIAN_POINT('',(-12.08469661549,-5.008771623528,
    -1.015473079106));
#384 = CARTESIAN_POINT('',(-12.14115687762,-4.764682133824,
    -0.995033609332));
#385 = CARTESIAN_POINT('',(-12.21157453939,-4.524403347996,
    -0.964777845634));
#386 = CARTESIAN_POINT('',(-12.29508310334,-4.290449001596,
    -0.920549064194));
#387 = CARTESIAN_POINT('',(-12.4141631702,-4.006413069403,
    -0.839332079425));
#388 = CARTESIAN_POINT('',(-12.44024567032,-3.946734763383,
    -0.820614876793));
#389 = CARTESIAN_POINT('',(-12.46702402637,-3.887882776204,
    -0.800341388775));
#390 = CARTESIAN_POINT('',(-12.49441713926,-3.829976188469,
    -0.778399946483));
#391 = CARTESIAN_POINT('',(-12.52232916952,-3.773140768059,
    -0.754675040271));
#392 = CARTESIAN_POINT('',(-12.55064828487,-3.717508934903,
    -0.72904755344));
#393 = CARTESIAN_POINT('',(-12.5792454078,-3.663219725748,
    -0.701394995945));
#394 = CARTESIAN_POINT('',(-12.63185280024,-3.56652785105,
    -0.646817721186));
#395 = CARTESIAN_POINT('',(-12.65582767653,-3.523656169042,
    -0.620552507651));
#396 = CARTESIAN_POINT('',(-12.67978717479,-3.48193608321,
    -0.592748884271));
#397 = CARTESIAN_POINT('',(-12.70361189778,-3.441495418536,
    -0.563366306199));
#398 = CARTESIAN_POINT('',(-12.72717454918,-3.402457853234,
    -0.532371363153));
#399 = CARTESIAN_POINT('',(-12.75034101455,-3.364943317303,
    -0.499738245598));
#400 = CARTESIAN_POINT('',(-12.77297144233,-3.329068391076,
    -0.465449210937));
#401 = CARTESIAN_POINT('',(-12.83916562292,-3.226167743015,
    -0.357022377885));
#402 = CARTESIAN_POINT('',(-12.88073337109,-3.164375340899,
    -0.277638703715));
#403 = CARTESIAN_POINT('',(-12.91811544695,-3.111028926527,
    -0.191718929833));
#404 = CARTESIAN_POINT('',(-12.94985453894,-3.067231227829,
    -9.995548347317E-02));
#405 = CARTESIAN_POINT('',(-12.97465608903,-3.033791759773,
    -3.406885387487E-03));
#406 = CARTESIAN_POINT('',(-12.99154491277,-3.011273506426,
    9.653075177281E-02));
#407 = CARTESIAN_POINT('',(-13.,-3.,0.198227891029));
#408 = CARTESIAN_POINT('',(-13.,-3.,0.3));
#409 = ORIENTED_EDGE('',*,*,#307,.F.);
#410 = CYLINDRICAL_SURFACE('',#411,1.4);
#411 = AXIS2_PLACEMENT_3D('',#412,#413,#414);
#412 = CARTESIAN_POINT('',(-11.6,-10.,0.3));
#413 = DIRECTION('',(0.,1.,0.));
#414 = DIRECTION('',(-1.,0.,0.));
#415 = ADVANCED_FACE('',(#416),#434,.F.);
#416 = FACE_BOUND('',#417,.F.);
#417 = EDGE_LOOP('',(#418,#426,#427,#428));
#418 = ORIENTED_EDGE('',*,*,#419,.F.);
#419 = EDGE_CURVE('',#353,#420,#422,.T.);
#420 = VERTEX_POINT('',#421);
#421 = CARTESIAN_POINT('',(-7.4,-1.,-1.1));
#422 = LINE('',#423,#424);
#423 = CARTESIAN_POINT('',(-13.,-1.,-1.1));
#424 = VECTOR('',#425,1.);
#425 = DIRECTION('',(1.,0.,0.));
#426 = ORIENTED_EDGE('',*,*,#352,.F.);
#427 = ORIENTED_EDGE('',*,*,#61,.T.);
#428 = ORIENTED_EDGE('',*,*,#429,.T.);
#429 = EDGE_CURVE('',#64,#420,#430,.T.);
#430 = LINE('',#431,#432);
#431 = CARTESIAN_POINT('',(-7.4,-10.,-1.1));
#432 = VECTOR('',#433,1.);
#433 = DIRECTION('',(0.,1.,0.));
#434 = PLANE('',#435);
#435 = AXIS2_PLACEMENT_3D('',#436,#437,#438);
#436 = CARTESIAN_POINT('',(-13.,-10.,-1.1));
#437 = DIRECTION('',(0.,0.,1.));
#438 = DIRECTION('',(1.,0.,0.));
#439 = ADVANCED_FACE('',(#440),#534,.T.);
#440 = FACE_BOUND('',#441,.T.);
#441 = EDGE_LOOP('',(#442,#450,#451,#452,#461,#469));
#442 = ORIENTED_EDGE('',*,*,#443,.F.);
#443 = EDGE_CURVE('',#106,#444,#446,.T.);
#444 = VERTEX_POINT('',#445);
#445 = CARTESIAN_POINT('',(-6.,-9.,0.3));
#446 = LINE('',#447,#448);
#447 = CARTESIAN_POINT('',(-6.,-10.,0.3));
#448 = VECTOR('',#449,1.);
#449 = DIRECTION('',(0.,1.,0.));
#450 = ORIENTED_EDGE('',*,*,#113,.T.);
#451 = ORIENTED_EDGE('',*,*,#429,.T.);
#452 = ORIENTED_EDGE('',*,*,#453,.F.);
#453 = EDGE_CURVE('',#454,#420,#456,.T.);
#454 = VERTEX_POINT('',#455);
#455 = CARTESIAN_POINT('',(-6.,-1.,0.3));
#456 = CIRCLE('',#457,1.4);
#457 = AXIS2_PLACEMENT_3D('',#458,#459,#460);
#458 = CARTESIAN_POINT('',(-7.4,-1.,0.3));
#459 = DIRECTION('',(0.,1.,0.));
#460 = DIRECTION('',(0.,0.,1.));
#461 = ORIENTED_EDGE('',*,*,#462,.F.);
#462 = EDGE_CURVE('',#463,#454,#465,.T.);
#463 = VERTEX_POINT('',#464);
#464 = CARTESIAN_POINT('',(-6.,-3.,0.3));
#465 = LINE('',#466,#467);
#466 = CARTESIAN_POINT('',(-6.,-10.,0.3));
#467 = VECTOR('',#468,1.);
#468 = DIRECTION('',(0.,1.,0.));
#469 = ORIENTED_EDGE('',*,*,#470,.T.);
#470 = EDGE_CURVE('',#463,#444,#471,.T.);
#471 = B_SPLINE_CURVE_WITH_KNOTS('',7,(#472,#473,#474,#475,#476,#477,
    #478,#479,#480,#481,#482,#483,#484,#485,#486,#487,#488,#489,#490,
    #491,#492,#493,#494,#495,#496,#497,#498,#499,#500,#501,#502,#503,
    #504,#505,#506,#507,#508,#509,#510,#511,#512,#513,#514,#515,#516,
    #517,#518,#519,#520,#521,#522,#523,#524,#525,#526,#527,#528,#529,
    #530,#531,#532,#533),.UNSPECIFIED.,.F.,.F.,(8,6,6,6,6,6,6,6,6,6,8),(
    0.,8.219064331825E-02,0.173687519423,0.242766827254,0.299342810532,
    0.499911345061,0.700490749179,0.756859832661,0.826193597622,
    0.883827482296,1.),.UNSPECIFIED.);
#472 = CARTESIAN_POINT('',(-6.,-3.,0.3));
#473 = CARTESIAN_POINT('',(-6.,-3.,0.2176441942));
#474 = CARTESIAN_POINT('',(-6.005652151915,-3.007536602343,
    0.135285763589));
#475 = CARTESIAN_POINT('',(-6.016956649659,-3.022607885823,
    5.390473654144E-02));
#476 = CARTESIAN_POINT('',(-6.033655264282,-3.045060885691,
    -2.555429539556E-02));
#477 = CARTESIAN_POINT('',(-6.055252891497,-3.074602440688,
    -0.102246810302));
#478 = CARTESIAN_POINT('',(-6.081071081259,-3.110795953129,
    -0.175480830077));
#479 = CARTESIAN_POINT('',(-6.1429093307,-3.200075814444,-0.321877629229
    ));
#480 = CARTESIAN_POINT('',(-6.179661544874,-3.254478567076,
    -0.393875025039));
#481 = CARTESIAN_POINT('',(-6.219607656629,-3.315546511418,
    -0.460421922454));
#482 = CARTESIAN_POINT('',(-6.261754111777,-3.382554444077,
    -0.521390168375));
#483 = CARTESIAN_POINT('',(-6.305145411284,-3.454714117743,
    -0.576816585323));
#484 = CARTESIAN_POINT('',(-6.348898646254,-3.531133634331,
    -0.626866548211));
#485 = CARTESIAN_POINT('',(-6.424933359008,-3.670912070381,
    -0.705716467115));
#486 = CARTESIAN_POINT('',(-6.457469642653,-3.733013124661,
    -0.736791784605));
#487 = CARTESIAN_POINT('',(-6.489598907003,-3.796852602247,
    -0.765220185967));
#488 = CARTESIAN_POINT('',(-6.521124159576,-3.862213021778,
    -0.791194223746));
#489 = CARTESIAN_POINT('',(-6.551881577215,-3.928889951471,
    -0.814899665448));
#490 = CARTESIAN_POINT('',(-6.581737230138,-3.996692099155,
    -0.836514879286));
#491 = CARTESIAN_POINT('',(-6.634209164206,-4.121747111584,
    -0.872340712487));
#492 = CARTESIAN_POINT('',(-6.657167331397,-4.178711259559,
    -0.887189946416));
#493 = CARTESIAN_POINT('',(-6.679409123293,-4.236262850198,
    -0.900856572553));
#494 = CARTESIAN_POINT('',(-6.700894898162,-4.294337913654,
    -0.913432034524));
#495 = CARTESIAN_POINT('',(-6.721593188537,-4.352879619548,
    -0.925000912221));
#496 = CARTESIAN_POINT('',(-6.74147933295,-4.41183839028,-0.935641265301
    ));
#497 = CARTESIAN_POINT('',(-6.828085531749,-4.681516710653,
    -0.980109387616));
#498 = CARTESIAN_POINT('',(-6.88523901344,-4.896730074725,
    -1.004053744676));
#499 = CARTESIAN_POINT('',(-6.931116621885,-5.114960513722,
    -1.020429461356));
#500 = CARTESIAN_POINT('',(-6.965539107747,-5.335027625736,
    -1.031365619239));
#501 = CARTESIAN_POINT('',(-6.988499025575,-5.55619717032,-1.03821207816
    ));
#502 = CARTESIAN_POINT('',(-7.,-5.777987515238,-1.0416407865));
#503 = CARTESIAN_POINT('',(-7.,-6.222024516481,-1.0416407865));
#504 = CARTESIAN_POINT('',(-6.988497778077,-6.443827430918,
    -1.038211707399));
#505 = CARTESIAN_POINT('',(-6.9655352734,-6.665009136043,-1.031364472401
    ));
#506 = CARTESIAN_POINT('',(-6.931109007657,-6.885087413341,
    -1.020427051448));
#507 = CARTESIAN_POINT('',(-6.885226715749,-7.103328100986,
    -1.004049301587));
#508 = CARTESIAN_POINT('',(-6.828067435705,-7.318551699995,
    -0.980101845661));
#509 = CARTESIAN_POINT('',(-6.741522430067,-7.588024019135,
    -0.935662901515));
#510 = CARTESIAN_POINT('',(-6.721710994575,-7.646768386985,
    -0.92506347102));
#511 = CARTESIAN_POINT('',(-6.701093290877,-7.705098824811,
    -0.913542475336));
#512 = CARTESIAN_POINT('',(-6.679693693944,-7.762966327122,
    -0.901022723134));
#513 = CARTESIAN_POINT('',(-6.657543279622,-7.820314743797,
    -0.887420596633));
#514 = CARTESIAN_POINT('',(-6.634681167348,-7.877080891291,
    -0.87264571389));
#515 = CARTESIAN_POINT('',(-6.582219825065,-8.002214397278,
    -0.836865149187));
#516 = CARTESIAN_POINT('',(-6.552265831212,-8.070282183064,
    -0.815198119329));
#517 = CARTESIAN_POINT('',(-6.52140205908,-8.137218248236,
    -0.791427350443));
#518 = CARTESIAN_POINT('',(-6.489763662393,-8.202829374826,
    -0.765372542523));
#519 = CARTESIAN_POINT('',(-6.457516110604,-8.266908993799,
    -0.736845869851));
#520 = CARTESIAN_POINT('',(-6.424858528672,-8.329237278993,
    -0.70565260421));
#521 = CARTESIAN_POINT('',(-6.364735768076,-8.439742327128,
    -0.643278548549));
#522 = CARTESIAN_POINT('',(-6.337317830486,-8.488544351064,
    -0.612977143894));
#523 = CARTESIAN_POINT('',(-6.309949840612,-8.535775621684,
    -0.580611946417));
#524 = CARTESIAN_POINT('',(-6.282826403405,-8.581233473935,
    -0.546120717938));
#525 = CARTESIAN_POINT('',(-6.256157226115,-8.624723222914,
    -0.509455821333));
#526 = CARTESIAN_POINT('',(-6.230164232195,-8.666057117871,
    -0.470585482064));
#527 = CARTESIAN_POINT('',(-6.15451376306,-8.783657822808,
    -0.346669139055));
#528 = CARTESIAN_POINT('',(-6.107517584183,-8.852946937865,
    -0.254628558602));
#529 = CARTESIAN_POINT('',(-6.066504734356,-8.910585554838,
    -0.153973152571));
#530 = CARTESIAN_POINT('',(-6.03378618776,-8.954951989504,
    -4.593781437508E-02));
#531 = CARTESIAN_POINT('',(-6.011273449631,-8.984968658098,
    6.747799625787E-02));
#532 = CARTESIAN_POINT('',(-6.,-9.,0.183689018319));
#533 = CARTESIAN_POINT('',(-6.,-9.,0.3));
#534 = CYLINDRICAL_SURFACE('',#535,1.4);
#535 = AXIS2_PLACEMENT_3D('',#536,#537,#538);
#536 = CARTESIAN_POINT('',(-7.4,-10.,0.3));
#537 = DIRECTION('',(0.,1.,0.));
#538 = DIRECTION('',(1.,0.,0.));
#539 = ADVANCED_FACE('',(#540),#558,.T.);
#540 = FACE_BOUND('',#541,.T.);
#541 = EDGE_LOOP('',(#542,#543,#544,#552));
#542 = ORIENTED_EDGE('',*,*,#105,.F.);
#543 = ORIENTED_EDGE('',*,*,#443,.T.);
#544 = ORIENTED_EDGE('',*,*,#545,.F.);
#545 = EDGE_CURVE('',#546,#444,#548,.T.);
#546 = VERTEX_POINT('',#547);
#547 = CARTESIAN_POINT('',(-6.,-9.,24.3));
#548 = LINE('',#549,#550);
#549 = CARTESIAN_POINT('',(-6.,-9.,-1.1));
#550 = VECTOR('',#551,1.);
#551 = DIRECTION('',(-0.,-0.,-1.));
#552 = ORIENTED_EDGE('',*,*,#553,.F.);
#553 = EDGE_CURVE('',#97,#546,#554,.T.);
#554 = LINE('',#555,#556);
#555 = CARTESIAN_POINT('',(-6.,-10.,24.3));
#556 = VECTOR('',#557,1.);
#557 = DIRECTION('',(0.,1.,0.));
#558 = PLANE('',#559);
#559 = AXIS2_PLACEMENT_3D('',#560,#561,#562);
#560 = CARTESIAN_POINT('',(-6.,-10.,-1.1));
#561 = DIRECTION('',(1.,0.,0.));
#562 = DIRECTION('',(0.,0.,1.));
#563 = ADVANCED_FACE('',(#564),#658,.T.);
#564 = FACE_BOUND('',#565,.F.);
#565 = EDGE_LOOP('',(#566,#567,#568,#576,#585,#593));
#566 = ORIENTED_EDGE('',*,*,#553,.F.);
#567 = ORIENTED_EDGE('',*,*,#96,.T.);
#568 = ORIENTED_EDGE('',*,*,#569,.T.);
#569 = EDGE_CURVE('',#89,#570,#572,.T.);
#570 = VERTEX_POINT('',#571);
#571 = CARTESIAN_POINT('',(-7.4,-1.,25.7));
#572 = LINE('',#573,#574);
#573 = CARTESIAN_POINT('',(-7.4,-10.,25.7));
#574 = VECTOR('',#575,1.);
#575 = DIRECTION('',(0.,1.,0.));
#576 = ORIENTED_EDGE('',*,*,#577,.F.);
#577 = EDGE_CURVE('',#578,#570,#580,.T.);
#578 = VERTEX_POINT('',#579);
#579 = CARTESIAN_POINT('',(-6.,-1.,24.3));
#580 = CIRCLE('',#581,1.4);
#581 = AXIS2_PLACEMENT_3D('',#582,#583,#584);
#582 = CARTESIAN_POINT('',(-7.4,-1.,24.3));
#583 = DIRECTION('',(0.,-1.,0.));
#584 = DIRECTION('',(0.,0.,1.));
#585 = ORIENTED_EDGE('',*,*,#586,.F.);
#586 = EDGE_CURVE('',#587,#578,#589,.T.);
#587 = VERTEX_POINT('',#588);
#588 = CARTESIAN_POINT('',(-6.,-3.,24.3));
#589 = LINE('',#590,#591);
#590 = CARTESIAN_POINT('',(-6.,-10.,24.3));
#591 = VECTOR('',#592,1.);
#592 = DIRECTION('',(0.,1.,0.));
#593 = ORIENTED_EDGE('',*,*,#594,.T.);
#594 = EDGE_CURVE('',#587,#546,#595,.T.);
#595 = B_SPLINE_CURVE_WITH_KNOTS('',7,(#596,#597,#598,#599,#600,#601,
    #602,#603,#604,#605,#606,#607,#608,#609,#610,#611,#612,#613,#614,
    #615,#616,#617,#618,#619,#620,#621,#622,#623,#624,#625,#626,#627,
    #628,#629,#630,#631,#632,#633,#634,#635,#636,#637,#638,#639,#640,
    #641,#642,#643,#644,#645,#646,#647,#648,#649,#650,#651,#652,#653,
    #654,#655,#656,#657),.UNSPECIFIED.,.F.,.F.,(8,6,6,6,6,6,6,6,6,6,8),(
    0.,8.219066881285E-02,0.173687554416,0.242766882257,0.299342881923,
    0.49991147455,0.700490936769,0.75686003658,0.826193821625,
    0.883827667291,1.),.UNSPECIFIED.);
#596 = CARTESIAN_POINT('',(-6.,-3.,24.3));
#597 = CARTESIAN_POINT('',(-6.,-3.,24.3823558058));
#598 = CARTESIAN_POINT('',(-6.005652151915,-3.007536602343,
    24.464714236411));
#599 = CARTESIAN_POINT('',(-6.016956649659,-3.022607885823,
    24.546095263459));
#600 = CARTESIAN_POINT('',(-6.033655264282,-3.045060885691,
    24.625554295396));
#601 = CARTESIAN_POINT('',(-6.055252891497,-3.074602440688,
    24.702246810302));
#602 = CARTESIAN_POINT('',(-6.081071081259,-3.110795953129,
    24.775480830077));
#603 = CARTESIAN_POINT('',(-6.142909323977,-3.200075804738,
    24.921877613313));
#604 = CARTESIAN_POINT('',(-6.179661550331,-3.254478573679,
    24.993875041764));
#605 = CARTESIAN_POINT('',(-6.219607663858,-3.31554652448,
    25.060421930212));
#606 = CARTESIAN_POINT('',(-6.261754107248,-3.38255443773,
    25.121390157203));
#607 = CARTESIAN_POINT('',(-6.30514540207,-3.454714100168,
    25.176816578587));
#608 = CARTESIAN_POINT('',(-6.348898654306,-3.531133649134,
    25.226866556561));
#609 = CARTESIAN_POINT('',(-6.424933359008,-3.670912070381,
    25.305716467115));
#610 = CARTESIAN_POINT('',(-6.457469642653,-3.733013124661,
    25.336791784605));
#611 = CARTESIAN_POINT('',(-6.489598907003,-3.796852602247,
    25.365220185967));
#612 = CARTESIAN_POINT('',(-6.521124159576,-3.862213021778,
    25.391194223746));
#613 = CARTESIAN_POINT('',(-6.551881577215,-3.928889951471,
    25.414899665448));
#614 = CARTESIAN_POINT('',(-6.581737230138,-3.996692099155,
    25.436514879286));
#615 = CARTESIAN_POINT('',(-6.634209164206,-4.121747111584,
    25.472340712487));
#616 = CARTESIAN_POINT('',(-6.657167331397,-4.178711259559,
    25.487189946416));
#617 = CARTESIAN_POINT('',(-6.679409123293,-4.236262850198,
    25.500856572553));
#618 = CARTESIAN_POINT('',(-6.700894898162,-4.294337913654,
    25.513432034524));
#619 = CARTESIAN_POINT('',(-6.721593188537,-4.352879619548,
    25.525000912221));
#620 = CARTESIAN_POINT('',(-6.74147933295,-4.41183839028,25.535641265301
    ));
#621 = CARTESIAN_POINT('',(-6.828085531749,-4.681516710652,
    25.580109387616));
#622 = CARTESIAN_POINT('',(-6.885239013441,-4.896730074727,
    25.604053744676));
#623 = CARTESIAN_POINT('',(-6.931116621885,-5.11496051372,
    25.620429461356));
#624 = CARTESIAN_POINT('',(-6.965539107747,-5.335027625737,
    25.631365619239));
#625 = CARTESIAN_POINT('',(-6.988499025575,-5.556197170318,
    25.63821207816));
#626 = CARTESIAN_POINT('',(-7.,-5.77798751524,25.6416407865));
#627 = CARTESIAN_POINT('',(-7.,-6.222024516482,25.6416407865));
#628 = CARTESIAN_POINT('',(-6.988497778077,-6.443827430918,
    25.638211707399));
#629 = CARTESIAN_POINT('',(-6.9655352734,-6.665009136043,25.631364472401
    ));
#630 = CARTESIAN_POINT('',(-6.931109007658,-6.88508741334,
    25.620427051448));
#631 = CARTESIAN_POINT('',(-6.885226715749,-7.103328100986,
    25.604049301586));
#632 = CARTESIAN_POINT('',(-6.828067435705,-7.318551699995,
    25.580101845661));
#633 = CARTESIAN_POINT('',(-6.741522430067,-7.588024019135,
    25.535662901515));
#634 = CARTESIAN_POINT('',(-6.721710994575,-7.646768386985,
    25.52506347102));
#635 = CARTESIAN_POINT('',(-6.701093290877,-7.705098824811,
    25.513542475336));
#636 = CARTESIAN_POINT('',(-6.679693693944,-7.762966327122,
    25.501022723134));
#637 = CARTESIAN_POINT('',(-6.657543279622,-7.820314743797,
    25.487420596633));
#638 = CARTESIAN_POINT('',(-6.634681167348,-7.877080891291,
    25.47264571389));
#639 = CARTESIAN_POINT('',(-6.582219825065,-8.002214397278,
    25.436865149187));
#640 = CARTESIAN_POINT('',(-6.552265831212,-8.070282183064,
    25.415198119329));
#641 = CARTESIAN_POINT('',(-6.52140205908,-8.137218248236,
    25.391427350443));
#642 = CARTESIAN_POINT('',(-6.489763662393,-8.202829374826,
    25.365372542523));
#643 = CARTESIAN_POINT('',(-6.457516110604,-8.266908993799,
    25.336845869851));
#644 = CARTESIAN_POINT('',(-6.424858528672,-8.329237278993,
    25.30565260421));
#645 = CARTESIAN_POINT('',(-6.364735794453,-8.439742278648,
    25.243278575913));
#646 = CARTESIAN_POINT('',(-6.337317833142,-8.488544348395,
    25.212977151564));
#647 = CARTESIAN_POINT('',(-6.309949820444,-8.535775657827,
    25.180611923895));
#648 = CARTESIAN_POINT('',(-6.282826383984,-8.581233505101,
    25.146120688503));
#649 = CARTESIAN_POINT('',(-6.256157228879,-8.624723216207,
    25.109455820902));
#650 = CARTESIAN_POINT('',(-6.230164255164,-8.666057082166,
    25.070585519686));
#651 = CARTESIAN_POINT('',(-6.15451376306,-8.783657822808,
    24.946669139055));
#652 = CARTESIAN_POINT('',(-6.107517584183,-8.852946937865,
    24.854628558602));
#653 = CARTESIAN_POINT('',(-6.066504734356,-8.910585554838,
    24.753973152571));
#654 = CARTESIAN_POINT('',(-6.03378618776,-8.954951989504,
    24.645937814375));
#655 = CARTESIAN_POINT('',(-6.011273449631,-8.984968658098,
    24.532522003742));
#656 = CARTESIAN_POINT('',(-6.,-9.,24.416310981681));
#657 = CARTESIAN_POINT('',(-6.,-9.,24.3));
#658 = CYLINDRICAL_SURFACE('',#659,1.4);
#659 = AXIS2_PLACEMENT_3D('',#660,#661,#662);
#660 = CARTESIAN_POINT('',(-7.4,-10.,24.3));
#661 = DIRECTION('',(0.,1.,0.));
#662 = DIRECTION('',(1.,0.,0.));
#663 = ADVANCED_FACE('',(#664),#675,.T.);
#664 = FACE_BOUND('',#665,.T.);
#665 = EDGE_LOOP('',(#666,#672,#673,#674));
#666 = ORIENTED_EDGE('',*,*,#667,.F.);
#667 = EDGE_CURVE('',#199,#570,#668,.T.);
#668 = LINE('',#669,#670);
#669 = CARTESIAN_POINT('',(-13.,-1.,25.7));
#670 = VECTOR('',#671,1.);
#671 = DIRECTION('',(1.,0.,0.));
#672 = ORIENTED_EDGE('',*,*,#198,.F.);
#673 = ORIENTED_EDGE('',*,*,#88,.T.);
#674 = ORIENTED_EDGE('',*,*,#569,.T.);
#675 = PLANE('',#676);
#676 = AXIS2_PLACEMENT_3D('',#677,#678,#679);
#677 = CARTESIAN_POINT('',(-13.,-10.,25.7));
#678 = DIRECTION('',(0.,0.,1.));
#679 = DIRECTION('',(1.,0.,0.));
#680 = ADVANCED_FACE('',(#681),#706,.F.);
#681 = FACE_BOUND('',#682,.F.);
#682 = EDGE_LOOP('',(#683,#691,#692,#700));
#683 = ORIENTED_EDGE('',*,*,#684,.F.);
#684 = EDGE_CURVE('',#123,#685,#687,.T.);
#685 = VERTEX_POINT('',#686);
#686 = CARTESIAN_POINT('',(-10.82,-1.,11.4));
#687 = LINE('',#688,#689);
#688 = CARTESIAN_POINT('',(-10.82,-10.,11.4));
#689 = VECTOR('',#690,1.);
#690 = DIRECTION('',(0.,1.,0.));
#691 = ORIENTED_EDGE('',*,*,#122,.T.);
#692 = ORIENTED_EDGE('',*,*,#693,.T.);
#693 = EDGE_CURVE('',#125,#694,#696,.T.);
#694 = VERTEX_POINT('',#695);
#695 = CARTESIAN_POINT('',(-8.08,-1.,11.4));
#696 = LINE('',#697,#698);
#697 = CARTESIAN_POINT('',(-8.08,-10.,11.4));
#698 = VECTOR('',#699,1.);
#699 = DIRECTION('',(0.,1.,0.));
#700 = ORIENTED_EDGE('',*,*,#701,.F.);
#701 = EDGE_CURVE('',#685,#694,#702,.T.);
#702 = LINE('',#703,#704);
#703 = CARTESIAN_POINT('',(-11.91,-1.,11.4));
#704 = VECTOR('',#705,1.);
#705 = DIRECTION('',(1.,0.,0.));
#706 = PLANE('',#707);
#707 = AXIS2_PLACEMENT_3D('',#708,#709,#710);
#708 = CARTESIAN_POINT('',(-10.82,-10.,11.4));
#709 = DIRECTION('',(0.,0.,1.));
#710 = DIRECTION('',(1.,0.,0.));
#711 = ADVANCED_FACE('',(#712),#778,.F.);
#712 = FACE_BOUND('',#713,.F.);
#713 = EDGE_LOOP('',(#714,#715,#716,#724,#732,#740,#748,#756,#764,#772)
  );
#714 = ORIENTED_EDGE('',*,*,#693,.F.);
#715 = ORIENTED_EDGE('',*,*,#148,.F.);
#716 = ORIENTED_EDGE('',*,*,#717,.T.);
#717 = EDGE_CURVE('',#141,#718,#720,.T.);
#718 = VERTEX_POINT('',#719);
#719 = CARTESIAN_POINT('',(-8.08,-1.,0.4));
#720 = LINE('',#721,#722);
#721 = CARTESIAN_POINT('',(-8.08,-10.,0.4));
#722 = VECTOR('',#723,1.);
#723 = DIRECTION('',(0.,1.,0.));
#724 = ORIENTED_EDGE('',*,*,#725,.F.);
#725 = EDGE_CURVE('',#726,#718,#728,.T.);
#726 = VERTEX_POINT('',#727);
#727 = CARTESIAN_POINT('',(-8.08,-1.,0.5));
#728 = LINE('',#729,#730);
#729 = CARTESIAN_POINT('',(-8.08,-1.,-0.35));
#730 = VECTOR('',#731,1.);
#731 = DIRECTION('',(0.,0.,-1.));
#732 = ORIENTED_EDGE('',*,*,#733,.T.);
#733 = EDGE_CURVE('',#726,#734,#736,.T.);
#734 = VERTEX_POINT('',#735);
#735 = CARTESIAN_POINT('',(-8.08,5.,0.5));
#736 = LINE('',#737,#738);
#737 = CARTESIAN_POINT('',(-8.08,-5.5,0.5));
#738 = VECTOR('',#739,1.);
#739 = DIRECTION('',(0.,1.,0.));
#740 = ORIENTED_EDGE('',*,*,#741,.F.);
#741 = EDGE_CURVE('',#742,#734,#744,.T.);
#742 = VERTEX_POINT('',#743);
#743 = CARTESIAN_POINT('',(-8.08,6.,1.5));
#744 = LINE('',#745,#746);
#745 = CARTESIAN_POINT('',(-8.08,1.475,-3.025));
#746 = VECTOR('',#747,1.);
#747 = DIRECTION('',(0.,-0.707106781187,-0.707106781187));
#748 = ORIENTED_EDGE('',*,*,#749,.T.);
#749 = EDGE_CURVE('',#742,#750,#752,.T.);
#750 = VERTEX_POINT('',#751);
#751 = CARTESIAN_POINT('',(-8.08,6.,10.3));
#752 = LINE('',#753,#754);
#753 = CARTESIAN_POINT('',(-8.08,6.,0.4));
#754 = VECTOR('',#755,1.);
#755 = DIRECTION('',(0.,0.,1.));
#756 = ORIENTED_EDGE('',*,*,#757,.T.);
#757 = EDGE_CURVE('',#750,#758,#760,.T.);
#758 = VERTEX_POINT('',#759);
#759 = CARTESIAN_POINT('',(-8.08,5.,11.3));
#760 = LINE('',#761,#762);
#761 = CARTESIAN_POINT('',(-8.08,4.225,12.075));
#762 = VECTOR('',#763,1.);
#763 = DIRECTION('',(0.,-0.707106781187,0.707106781187));
#764 = ORIENTED_EDGE('',*,*,#765,.F.);
#765 = EDGE_CURVE('',#766,#758,#768,.T.);
#766 = VERTEX_POINT('',#767);
#767 = CARTESIAN_POINT('',(-8.08,-1.,11.3));
#768 = LINE('',#769,#770);
#769 = CARTESIAN_POINT('',(-8.08,-5.5,11.3));
#770 = VECTOR('',#771,1.);
#771 = DIRECTION('',(0.,1.,0.));
#772 = ORIENTED_EDGE('',*,*,#773,.F.);
#773 = EDGE_CURVE('',#694,#766,#774,.T.);
#774 = LINE('',#775,#776);
#775 = CARTESIAN_POINT('',(-8.08,-1.,-0.35));
#776 = VECTOR('',#777,1.);
#777 = DIRECTION('',(0.,0.,-1.));
#778 = PLANE('',#779);
#779 = AXIS2_PLACEMENT_3D('',#780,#781,#782);
#780 = CARTESIAN_POINT('',(-8.08,-10.,0.4));
#781 = DIRECTION('',(1.,0.,0.));
#782 = DIRECTION('',(0.,0.,1.));
#783 = ADVANCED_FACE('',(#784),#802,.T.);
#784 = FACE_BOUND('',#785,.T.);
#785 = EDGE_LOOP('',(#786,#794,#795,#796));
#786 = ORIENTED_EDGE('',*,*,#787,.F.);
#787 = EDGE_CURVE('',#133,#788,#790,.T.);
#788 = VERTEX_POINT('',#789);
#789 = CARTESIAN_POINT('',(-10.82,-1.,0.4));
#790 = LINE('',#791,#792);
#791 = CARTESIAN_POINT('',(-10.82,-10.,0.4));
#792 = VECTOR('',#793,1.);
#793 = DIRECTION('',(0.,1.,0.));
#794 = ORIENTED_EDGE('',*,*,#140,.T.);
#795 = ORIENTED_EDGE('',*,*,#717,.T.);
#796 = ORIENTED_EDGE('',*,*,#797,.F.);
#797 = EDGE_CURVE('',#788,#718,#798,.T.);
#798 = LINE('',#799,#800);
#799 = CARTESIAN_POINT('',(-11.91,-1.,0.4));
#800 = VECTOR('',#801,1.);
#801 = DIRECTION('',(1.,0.,0.));
#802 = PLANE('',#803);
#803 = AXIS2_PLACEMENT_3D('',#804,#805,#806);
#804 = CARTESIAN_POINT('',(-10.82,-10.,0.4));
#805 = DIRECTION('',(0.,0.,1.));
#806 = DIRECTION('',(1.,0.,0.));
#807 = ADVANCED_FACE('',(#808),#867,.T.);
#808 = FACE_BOUND('',#809,.T.);
#809 = EDGE_LOOP('',(#810,#811,#812,#813,#821,#829,#837,#845,#853,#861)
  );
#810 = ORIENTED_EDGE('',*,*,#684,.F.);
#811 = ORIENTED_EDGE('',*,*,#132,.F.);
#812 = ORIENTED_EDGE('',*,*,#787,.T.);
#813 = ORIENTED_EDGE('',*,*,#814,.F.);
#814 = EDGE_CURVE('',#815,#788,#817,.T.);
#815 = VERTEX_POINT('',#816);
#816 = CARTESIAN_POINT('',(-10.82,-1.,0.5));
#817 = LINE('',#818,#819);
#818 = CARTESIAN_POINT('',(-10.82,-1.,-0.35));
#819 = VECTOR('',#820,1.);
#820 = DIRECTION('',(0.,0.,-1.));
#821 = ORIENTED_EDGE('',*,*,#822,.T.);
#822 = EDGE_CURVE('',#815,#823,#825,.T.);
#823 = VERTEX_POINT('',#824);
#824 = CARTESIAN_POINT('',(-10.82,5.,0.5));
#825 = LINE('',#826,#827);
#826 = CARTESIAN_POINT('',(-10.82,-5.5,0.5));
#827 = VECTOR('',#828,1.);
#828 = DIRECTION('',(0.,1.,0.));
#829 = ORIENTED_EDGE('',*,*,#830,.F.);
#830 = EDGE_CURVE('',#831,#823,#833,.T.);
#831 = VERTEX_POINT('',#832);
#832 = CARTESIAN_POINT('',(-10.82,6.,1.5));
#833 = LINE('',#834,#835);
#834 = CARTESIAN_POINT('',(-10.82,1.475,-3.025));
#835 = VECTOR('',#836,1.);
#836 = DIRECTION('',(0.,-0.707106781187,-0.707106781187));
#837 = ORIENTED_EDGE('',*,*,#838,.T.);
#838 = EDGE_CURVE('',#831,#839,#841,.T.);
#839 = VERTEX_POINT('',#840);
#840 = CARTESIAN_POINT('',(-10.82,6.,10.3));
#841 = LINE('',#842,#843);
#842 = CARTESIAN_POINT('',(-10.82,6.,0.4));
#843 = VECTOR('',#844,1.);
#844 = DIRECTION('',(0.,0.,1.));
#845 = ORIENTED_EDGE('',*,*,#846,.T.);
#846 = EDGE_CURVE('',#839,#847,#849,.T.);
#847 = VERTEX_POINT('',#848);
#848 = CARTESIAN_POINT('',(-10.82,5.,11.3));
#849 = LINE('',#850,#851);
#850 = CARTESIAN_POINT('',(-10.82,4.225,12.075));
#851 = VECTOR('',#852,1.);
#852 = DIRECTION('',(0.,-0.707106781187,0.707106781187));
#853 = ORIENTED_EDGE('',*,*,#854,.F.);
#854 = EDGE_CURVE('',#855,#847,#857,.T.);
#855 = VERTEX_POINT('',#856);
#856 = CARTESIAN_POINT('',(-10.82,-1.,11.3));
#857 = LINE('',#858,#859);
#858 = CARTESIAN_POINT('',(-10.82,-5.5,11.3));
#859 = VECTOR('',#860,1.);
#860 = DIRECTION('',(0.,1.,0.));
#861 = ORIENTED_EDGE('',*,*,#862,.F.);
#862 = EDGE_CURVE('',#685,#855,#863,.T.);
#863 = LINE('',#864,#865);
#864 = CARTESIAN_POINT('',(-10.82,-1.,-0.35));
#865 = VECTOR('',#866,1.);
#866 = DIRECTION('',(0.,0.,-1.));
#867 = PLANE('',#868);
#868 = AXIS2_PLACEMENT_3D('',#869,#870,#871);
#869 = CARTESIAN_POINT('',(-10.82,-10.,0.4));
#870 = DIRECTION('',(1.,0.,0.));
#871 = DIRECTION('',(0.,0.,1.));
#872 = ADVANCED_FACE('',(#873),#898,.F.);
#873 = FACE_BOUND('',#874,.F.);
#874 = EDGE_LOOP('',(#875,#883,#884,#892));
#875 = ORIENTED_EDGE('',*,*,#876,.F.);
#876 = EDGE_CURVE('',#157,#877,#879,.T.);
#877 = VERTEX_POINT('',#878);
#878 = CARTESIAN_POINT('',(-10.82,-1.,24.2));
#879 = LINE('',#880,#881);
#880 = CARTESIAN_POINT('',(-10.82,-10.,24.2));
#881 = VECTOR('',#882,1.);
#882 = DIRECTION('',(0.,1.,0.));
#883 = ORIENTED_EDGE('',*,*,#156,.T.);
#884 = ORIENTED_EDGE('',*,*,#885,.T.);
#885 = EDGE_CURVE('',#159,#886,#888,.T.);
#886 = VERTEX_POINT('',#887);
#887 = CARTESIAN_POINT('',(-8.08,-1.,24.2));
#888 = LINE('',#889,#890);
#889 = CARTESIAN_POINT('',(-8.08,-10.,24.2));
#890 = VECTOR('',#891,1.);
#891 = DIRECTION('',(0.,1.,0.));
#892 = ORIENTED_EDGE('',*,*,#893,.F.);
#893 = EDGE_CURVE('',#877,#886,#894,.T.);
#894 = LINE('',#895,#896);
#895 = CARTESIAN_POINT('',(-11.91,-1.,24.2));
#896 = VECTOR('',#897,1.);
#897 = DIRECTION('',(1.,0.,0.));
#898 = PLANE('',#899);
#899 = AXIS2_PLACEMENT_3D('',#900,#901,#902);
#900 = CARTESIAN_POINT('',(-10.82,-10.,24.2));
#901 = DIRECTION('',(0.,0.,1.));
#902 = DIRECTION('',(1.,0.,0.));
#903 = ADVANCED_FACE('',(#904),#970,.F.);
#904 = FACE_BOUND('',#905,.F.);
#905 = EDGE_LOOP('',(#906,#907,#908,#916,#924,#932,#940,#948,#956,#964)
  );
#906 = ORIENTED_EDGE('',*,*,#885,.F.);
#907 = ORIENTED_EDGE('',*,*,#182,.F.);
#908 = ORIENTED_EDGE('',*,*,#909,.T.);
#909 = EDGE_CURVE('',#175,#910,#912,.T.);
#910 = VERTEX_POINT('',#911);
#911 = CARTESIAN_POINT('',(-8.08,-1.,13.2));
#912 = LINE('',#913,#914);
#913 = CARTESIAN_POINT('',(-8.08,-10.,13.2));
#914 = VECTOR('',#915,1.);
#915 = DIRECTION('',(0.,1.,0.));
#916 = ORIENTED_EDGE('',*,*,#917,.F.);
#917 = EDGE_CURVE('',#918,#910,#920,.T.);
#918 = VERTEX_POINT('',#919);
#919 = CARTESIAN_POINT('',(-8.08,-1.,13.3));
#920 = LINE('',#921,#922);
#921 = CARTESIAN_POINT('',(-8.08,-1.,6.05));
#922 = VECTOR('',#923,1.);
#923 = DIRECTION('',(0.,0.,-1.));
#924 = ORIENTED_EDGE('',*,*,#925,.T.);
#925 = EDGE_CURVE('',#918,#926,#928,.T.);
#926 = VERTEX_POINT('',#927);
#927 = CARTESIAN_POINT('',(-8.08,5.,13.3));
#928 = LINE('',#929,#930);
#929 = CARTESIAN_POINT('',(-8.08,-5.5,13.3));
#930 = VECTOR('',#931,1.);
#931 = DIRECTION('',(0.,1.,0.));
#932 = ORIENTED_EDGE('',*,*,#933,.F.);
#933 = EDGE_CURVE('',#934,#926,#936,.T.);
#934 = VERTEX_POINT('',#935);
#935 = CARTESIAN_POINT('',(-8.08,6.,14.3));
#936 = LINE('',#937,#938);
#937 = CARTESIAN_POINT('',(-8.08,1.475,9.775));
#938 = VECTOR('',#939,1.);
#939 = DIRECTION('',(0.,-0.707106781187,-0.707106781187));
#940 = ORIENTED_EDGE('',*,*,#941,.T.);
#941 = EDGE_CURVE('',#934,#942,#944,.T.);
#942 = VERTEX_POINT('',#943);
#943 = CARTESIAN_POINT('',(-8.08,6.,23.1));
#944 = LINE('',#945,#946);
#945 = CARTESIAN_POINT('',(-8.08,6.,13.2));
#946 = VECTOR('',#947,1.);
#947 = DIRECTION('',(0.,0.,1.));
#948 = ORIENTED_EDGE('',*,*,#949,.T.);
#949 = EDGE_CURVE('',#942,#950,#952,.T.);
#950 = VERTEX_POINT('',#951);
#951 = CARTESIAN_POINT('',(-8.08,5.,24.1));
#952 = LINE('',#953,#954);
#953 = CARTESIAN_POINT('',(-8.08,4.225,24.875));
#954 = VECTOR('',#955,1.);
#955 = DIRECTION('',(0.,-0.707106781187,0.707106781187));
#956 = ORIENTED_EDGE('',*,*,#957,.F.);
#957 = EDGE_CURVE('',#958,#950,#960,.T.);
#958 = VERTEX_POINT('',#959);
#959 = CARTESIAN_POINT('',(-8.08,-1.,24.1));
#960 = LINE('',#961,#962);
#961 = CARTESIAN_POINT('',(-8.08,-5.5,24.1));
#962 = VECTOR('',#963,1.);
#963 = DIRECTION('',(0.,1.,0.));
#964 = ORIENTED_EDGE('',*,*,#965,.F.);
#965 = EDGE_CURVE('',#886,#958,#966,.T.);
#966 = LINE('',#967,#968);
#967 = CARTESIAN_POINT('',(-8.08,-1.,6.05));
#968 = VECTOR('',#969,1.);
#969 = DIRECTION('',(0.,0.,-1.));
#970 = PLANE('',#971);
#971 = AXIS2_PLACEMENT_3D('',#972,#973,#974);
#972 = CARTESIAN_POINT('',(-8.08,-10.,13.2));
#973 = DIRECTION('',(1.,0.,0.));
#974 = DIRECTION('',(0.,0.,1.));
#975 = ADVANCED_FACE('',(#976),#1042,.T.);
#976 = FACE_BOUND('',#977,.T.);
#977 = EDGE_LOOP('',(#978,#979,#980,#988,#996,#1004,#1012,#1020,#1028,
    #1036));
#978 = ORIENTED_EDGE('',*,*,#876,.F.);
#979 = ORIENTED_EDGE('',*,*,#166,.F.);
#980 = ORIENTED_EDGE('',*,*,#981,.T.);
#981 = EDGE_CURVE('',#167,#982,#984,.T.);
#982 = VERTEX_POINT('',#983);
#983 = CARTESIAN_POINT('',(-10.82,-1.,13.2));
#984 = LINE('',#985,#986);
#985 = CARTESIAN_POINT('',(-10.82,-10.,13.2));
#986 = VECTOR('',#987,1.);
#987 = DIRECTION('',(0.,1.,0.));
#988 = ORIENTED_EDGE('',*,*,#989,.F.);
#989 = EDGE_CURVE('',#990,#982,#992,.T.);
#990 = VERTEX_POINT('',#991);
#991 = CARTESIAN_POINT('',(-10.82,-1.,13.3));
#992 = LINE('',#993,#994);
#993 = CARTESIAN_POINT('',(-10.82,-1.,6.05));
#994 = VECTOR('',#995,1.);
#995 = DIRECTION('',(0.,0.,-1.));
#996 = ORIENTED_EDGE('',*,*,#997,.T.);
#997 = EDGE_CURVE('',#990,#998,#1000,.T.);
#998 = VERTEX_POINT('',#999);
#999 = CARTESIAN_POINT('',(-10.82,5.,13.3));
#1000 = LINE('',#1001,#1002);
#1001 = CARTESIAN_POINT('',(-10.82,-5.5,13.3));
#1002 = VECTOR('',#1003,1.);
#1003 = DIRECTION('',(0.,1.,0.));
#1004 = ORIENTED_EDGE('',*,*,#1005,.F.);
#1005 = EDGE_CURVE('',#1006,#998,#1008,.T.);
#1006 = VERTEX_POINT('',#1007);
#1007 = CARTESIAN_POINT('',(-10.82,6.,14.3));
#1008 = LINE('',#1009,#1010);
#1009 = CARTESIAN_POINT('',(-10.82,1.475,9.775));
#1010 = VECTOR('',#1011,1.);
#1011 = DIRECTION('',(0.,-0.707106781187,-0.707106781187));
#1012 = ORIENTED_EDGE('',*,*,#1013,.T.);
#1013 = EDGE_CURVE('',#1006,#1014,#1016,.T.);
#1014 = VERTEX_POINT('',#1015);
#1015 = CARTESIAN_POINT('',(-10.82,6.,23.1));
#1016 = LINE('',#1017,#1018);
#1017 = CARTESIAN_POINT('',(-10.82,6.,13.2));
#1018 = VECTOR('',#1019,1.);
#1019 = DIRECTION('',(0.,0.,1.));
#1020 = ORIENTED_EDGE('',*,*,#1021,.T.);
#1021 = EDGE_CURVE('',#1014,#1022,#1024,.T.);
#1022 = VERTEX_POINT('',#1023);
#1023 = CARTESIAN_POINT('',(-10.82,5.,24.1));
#1024 = LINE('',#1025,#1026);
#1025 = CARTESIAN_POINT('',(-10.82,4.225,24.875));
#1026 = VECTOR('',#1027,1.);
#1027 = DIRECTION('',(0.,-0.707106781187,0.707106781187));
#1028 = ORIENTED_EDGE('',*,*,#1029,.F.);
#1029 = EDGE_CURVE('',#1030,#1022,#1032,.T.);
#1030 = VERTEX_POINT('',#1031);
#1031 = CARTESIAN_POINT('',(-10.82,-1.,24.1));
#1032 = LINE('',#1033,#1034);
#1033 = CARTESIAN_POINT('',(-10.82,-5.5,24.1));
#1034 = VECTOR('',#1035,1.);
#1035 = DIRECTION('',(0.,1.,0.));
#1036 = ORIENTED_EDGE('',*,*,#1037,.F.);
#1037 = EDGE_CURVE('',#877,#1030,#1038,.T.);
#1038 = LINE('',#1039,#1040);
#1039 = CARTESIAN_POINT('',(-10.82,-1.,6.05));
#1040 = VECTOR('',#1041,1.);
#1041 = DIRECTION('',(0.,0.,-1.));
#1042 = PLANE('',#1043);
#1043 = AXIS2_PLACEMENT_3D('',#1044,#1045,#1046);
#1044 = CARTESIAN_POINT('',(-10.82,-10.,13.2));
#1045 = DIRECTION('',(1.,0.,0.));
#1046 = DIRECTION('',(0.,0.,1.));
#1047 = ADVANCED_FACE('',(#1048),#1059,.T.);
#1048 = FACE_BOUND('',#1049,.T.);
#1049 = EDGE_LOOP('',(#1050,#1051,#1052,#1053));
#1050 = ORIENTED_EDGE('',*,*,#981,.F.);
#1051 = ORIENTED_EDGE('',*,*,#174,.T.);
#1052 = ORIENTED_EDGE('',*,*,#909,.T.);
#1053 = ORIENTED_EDGE('',*,*,#1054,.F.);
#1054 = EDGE_CURVE('',#982,#910,#1055,.T.);
#1055 = LINE('',#1056,#1057);
#1056 = CARTESIAN_POINT('',(-11.91,-1.,13.2));
#1057 = VECTOR('',#1058,1.);
#1058 = DIRECTION('',(1.,0.,0.));
#1059 = PLANE('',#1060);
#1060 = AXIS2_PLACEMENT_3D('',#1061,#1062,#1063);
#1061 = CARTESIAN_POINT('',(-10.82,-10.,13.2));
#1062 = DIRECTION('',(0.,0.,1.));
#1063 = DIRECTION('',(1.,0.,0.));
#1064 = ADVANCED_FACE('',(#1065),#1076,.F.);
#1065 = FACE_BOUND('',#1066,.T.);
#1066 = EDGE_LOOP('',(#1067,#1068,#1069,#1070));
#1067 = ORIENTED_EDGE('',*,*,#377,.F.);
#1068 = ORIENTED_EDGE('',*,*,#299,.T.);
#1069 = ORIENTED_EDGE('',*,*,#223,.T.);
#1070 = ORIENTED_EDGE('',*,*,#1071,.T.);
#1071 = EDGE_CURVE('',#216,#370,#1072,.T.);
#1072 = LINE('',#1073,#1074);
#1073 = CARTESIAN_POINT('',(-13.,-3.,-1.1));
#1074 = VECTOR('',#1075,1.);
#1075 = DIRECTION('',(-0.,-0.,-1.));
#1076 = CYLINDRICAL_SURFACE('',#1077,5.);
#1077 = AXIS2_PLACEMENT_3D('',#1078,#1079,#1080);
#1078 = CARTESIAN_POINT('',(-17.,-6.,-1.1));
#1079 = DIRECTION('',(-0.,-0.,-1.));
#1080 = DIRECTION('',(1.,0.,0.));
#1081 = ADVANCED_FACE('',(#1082),#1093,.F.);
#1082 = FACE_BOUND('',#1083,.F.);
#1083 = EDGE_LOOP('',(#1084,#1085,#1086,#1092));
#1084 = ORIENTED_EDGE('',*,*,#1071,.T.);
#1085 = ORIENTED_EDGE('',*,*,#369,.T.);
#1086 = ORIENTED_EDGE('',*,*,#1087,.T.);
#1087 = EDGE_CURVE('',#361,#207,#1088,.T.);
#1088 = LINE('',#1089,#1090);
#1089 = CARTESIAN_POINT('',(-13.,-1.,-1.1));
#1090 = VECTOR('',#1091,1.);
#1091 = DIRECTION('',(0.,0.,1.));
#1092 = ORIENTED_EDGE('',*,*,#215,.F.);
#1093 = PLANE('',#1094);
#1094 = AXIS2_PLACEMENT_3D('',#1095,#1096,#1097);
#1095 = CARTESIAN_POINT('',(-13.,-10.,-1.1));
#1096 = DIRECTION('',(1.,0.,0.));
#1097 = DIRECTION('',(0.,0.,1.));
#1098 = ADVANCED_FACE('',(#1099,#1114,#1166),#1282,.T.);
#1099 = FACE_BOUND('',#1100,.T.);
#1100 = EDGE_LOOP('',(#1101,#1102,#1103,#1104,#1105,#1106,#1107,#1113));
#1101 = ORIENTED_EDGE('',*,*,#419,.F.);
#1102 = ORIENTED_EDGE('',*,*,#360,.F.);
#1103 = ORIENTED_EDGE('',*,*,#1087,.T.);
#1104 = ORIENTED_EDGE('',*,*,#206,.T.);
#1105 = ORIENTED_EDGE('',*,*,#667,.T.);
#1106 = ORIENTED_EDGE('',*,*,#577,.F.);
#1107 = ORIENTED_EDGE('',*,*,#1108,.F.);
#1108 = EDGE_CURVE('',#454,#578,#1109,.T.);
#1109 = LINE('',#1110,#1111);
#1110 = CARTESIAN_POINT('',(-6.,-1.,-1.1));
#1111 = VECTOR('',#1112,1.);
#1112 = DIRECTION('',(0.,0.,1.));
#1113 = ORIENTED_EDGE('',*,*,#453,.T.);
#1114 = FACE_BOUND('',#1115,.T.);
#1115 = EDGE_LOOP('',(#1116,#1124,#1132,#1138,#1139,#1140,#1141,#1149,
    #1157,#1163,#1164,#1165));
#1116 = ORIENTED_EDGE('',*,*,#1117,.F.);
#1117 = EDGE_CURVE('',#1118,#855,#1120,.T.);
#1118 = VERTEX_POINT('',#1119);
#1119 = CARTESIAN_POINT('',(-11.85,-1.,11.3));
#1120 = LINE('',#1121,#1122);
#1121 = CARTESIAN_POINT('',(-11.85,-1.,11.3));
#1122 = VECTOR('',#1123,1.);
#1123 = DIRECTION('',(1.,0.,0.));
#1124 = ORIENTED_EDGE('',*,*,#1125,.F.);
#1125 = EDGE_CURVE('',#1126,#1118,#1128,.T.);
#1126 = VERTEX_POINT('',#1127);
#1127 = CARTESIAN_POINT('',(-11.85,-1.,0.5));
#1128 = LINE('',#1129,#1130);
#1129 = CARTESIAN_POINT('',(-11.85,-1.,0.5));
#1130 = VECTOR('',#1131,1.);
#1131 = DIRECTION('',(0.,0.,1.));
#1132 = ORIENTED_EDGE('',*,*,#1133,.T.);
#1133 = EDGE_CURVE('',#1126,#815,#1134,.T.);
#1134 = LINE('',#1135,#1136);
#1135 = CARTESIAN_POINT('',(-11.85,-1.,0.5));
#1136 = VECTOR('',#1137,1.);
#1137 = DIRECTION('',(1.,0.,0.));
#1138 = ORIENTED_EDGE('',*,*,#814,.T.);
#1139 = ORIENTED_EDGE('',*,*,#797,.T.);
#1140 = ORIENTED_EDGE('',*,*,#725,.F.);
#1141 = ORIENTED_EDGE('',*,*,#1142,.T.);
#1142 = EDGE_CURVE('',#726,#1143,#1145,.T.);
#1143 = VERTEX_POINT('',#1144);
#1144 = CARTESIAN_POINT('',(-7.05,-1.,0.5));
#1145 = LINE('',#1146,#1147);
#1146 = CARTESIAN_POINT('',(-11.85,-1.,0.5));
#1147 = VECTOR('',#1148,1.);
#1148 = DIRECTION('',(1.,0.,0.));
#1149 = ORIENTED_EDGE('',*,*,#1150,.T.);
#1150 = EDGE_CURVE('',#1143,#1151,#1153,.T.);
#1151 = VERTEX_POINT('',#1152);
#1152 = CARTESIAN_POINT('',(-7.05,-1.,11.3));
#1153 = LINE('',#1154,#1155);
#1154 = CARTESIAN_POINT('',(-7.05,-1.,0.5));
#1155 = VECTOR('',#1156,1.);
#1156 = DIRECTION('',(0.,0.,1.));
#1157 = ORIENTED_EDGE('',*,*,#1158,.F.);
#1158 = EDGE_CURVE('',#766,#1151,#1159,.T.);
#1159 = LINE('',#1160,#1161);
#1160 = CARTESIAN_POINT('',(-11.85,-1.,11.3));
#1161 = VECTOR('',#1162,1.);
#1162 = DIRECTION('',(1.,0.,0.));
#1163 = ORIENTED_EDGE('',*,*,#773,.F.);
#1164 = ORIENTED_EDGE('',*,*,#701,.F.);
#1165 = ORIENTED_EDGE('',*,*,#862,.T.);
#1166 = FACE_BOUND('',#1167,.T.);
#1167 = EDGE_LOOP('',(#1168,#1176,#1184,#1190,#1191,#1192,#1193,#1201,
    #1209,#1217,#1225,#1233,#1241,#1249,#1257,#1265,#1273,#1279,#1280,
    #1281));
#1168 = ORIENTED_EDGE('',*,*,#1169,.F.);
#1169 = EDGE_CURVE('',#1170,#1030,#1172,.T.);
#1170 = VERTEX_POINT('',#1171);
#1171 = CARTESIAN_POINT('',(-11.85,-1.,24.1));
#1172 = LINE('',#1173,#1174);
#1173 = CARTESIAN_POINT('',(-11.85,-1.,24.1));
#1174 = VECTOR('',#1175,1.);
#1175 = DIRECTION('',(1.,0.,0.));
#1176 = ORIENTED_EDGE('',*,*,#1177,.F.);
#1177 = EDGE_CURVE('',#1178,#1170,#1180,.T.);
#1178 = VERTEX_POINT('',#1179);
#1179 = CARTESIAN_POINT('',(-11.85,-1.,13.3));
#1180 = LINE('',#1181,#1182);
#1181 = CARTESIAN_POINT('',(-11.85,-1.,13.3));
#1182 = VECTOR('',#1183,1.);
#1183 = DIRECTION('',(0.,0.,1.));
#1184 = ORIENTED_EDGE('',*,*,#1185,.T.);
#1185 = EDGE_CURVE('',#1178,#990,#1186,.T.);
#1186 = LINE('',#1187,#1188);
#1187 = CARTESIAN_POINT('',(-11.85,-1.,13.3));
#1188 = VECTOR('',#1189,1.);
#1189 = DIRECTION('',(1.,0.,0.));
#1190 = ORIENTED_EDGE('',*,*,#989,.T.);
#1191 = ORIENTED_EDGE('',*,*,#1054,.T.);
#1192 = ORIENTED_EDGE('',*,*,#917,.F.);
#1193 = ORIENTED_EDGE('',*,*,#1194,.T.);
#1194 = EDGE_CURVE('',#918,#1195,#1197,.T.);
#1195 = VERTEX_POINT('',#1196);
#1196 = CARTESIAN_POINT('',(-7.05,-1.,13.3));
#1197 = LINE('',#1198,#1199);
#1198 = CARTESIAN_POINT('',(-11.85,-1.,13.3));
#1199 = VECTOR('',#1200,1.);
#1200 = DIRECTION('',(1.,0.,0.));
#1201 = ORIENTED_EDGE('',*,*,#1202,.T.);
#1202 = EDGE_CURVE('',#1195,#1203,#1205,.T.);
#1203 = VERTEX_POINT('',#1204);
#1204 = CARTESIAN_POINT('',(-7.05,-1.,17.));
#1205 = LINE('',#1206,#1207);
#1206 = CARTESIAN_POINT('',(-7.05,-1.,13.3));
#1207 = VECTOR('',#1208,1.);
#1208 = DIRECTION('',(0.,0.,1.));
#1209 = ORIENTED_EDGE('',*,*,#1210,.T.);
#1210 = EDGE_CURVE('',#1203,#1211,#1213,.T.);
#1211 = VERTEX_POINT('',#1212);
#1212 = CARTESIAN_POINT('',(-6.1,-1.,17.));
#1213 = LINE('',#1214,#1215);
#1214 = CARTESIAN_POINT('',(-7.1,-1.,17.));
#1215 = VECTOR('',#1216,1.);
#1216 = DIRECTION('',(1.,0.,0.));
#1217 = ORIENTED_EDGE('',*,*,#1218,.T.);
#1218 = EDGE_CURVE('',#1211,#1219,#1221,.T.);
#1219 = VERTEX_POINT('',#1220);
#1220 = CARTESIAN_POINT('',(-6.1,-1.,17.8));
#1221 = LINE('',#1222,#1223);
#1222 = CARTESIAN_POINT('',(-6.1,-1.,17.));
#1223 = VECTOR('',#1224,1.);
#1224 = DIRECTION('',(0.,0.,1.));
#1225 = ORIENTED_EDGE('',*,*,#1226,.F.);
#1226 = EDGE_CURVE('',#1227,#1219,#1229,.T.);
#1227 = VERTEX_POINT('',#1228);
#1228 = CARTESIAN_POINT('',(-7.05,-1.,17.8));
#1229 = LINE('',#1230,#1231);
#1230 = CARTESIAN_POINT('',(-7.1,-1.,17.8));
#1231 = VECTOR('',#1232,1.);
#1232 = DIRECTION('',(1.,0.,0.));
#1233 = ORIENTED_EDGE('',*,*,#1234,.T.);
#1234 = EDGE_CURVE('',#1227,#1235,#1237,.T.);
#1235 = VERTEX_POINT('',#1236);
#1236 = CARTESIAN_POINT('',(-7.05,-1.,22.1));
#1237 = LINE('',#1238,#1239);
#1238 = CARTESIAN_POINT('',(-7.05,-1.,13.3));
#1239 = VECTOR('',#1240,1.);
#1240 = DIRECTION('',(0.,0.,1.));
#1241 = ORIENTED_EDGE('',*,*,#1242,.T.);
#1242 = EDGE_CURVE('',#1235,#1243,#1245,.T.);
#1243 = VERTEX_POINT('',#1244);
#1244 = CARTESIAN_POINT('',(-6.1,-1.,22.1));
#1245 = LINE('',#1246,#1247);
#1246 = CARTESIAN_POINT('',(-7.1,-1.,22.1));
#1247 = VECTOR('',#1248,1.);
#1248 = DIRECTION('',(1.,0.,0.));
#1249 = ORIENTED_EDGE('',*,*,#1250,.T.);
#1250 = EDGE_CURVE('',#1243,#1251,#1253,.T.);
#1251 = VERTEX_POINT('',#1252);
#1252 = CARTESIAN_POINT('',(-6.1,-1.,22.9));
#1253 = LINE('',#1254,#1255);
#1254 = CARTESIAN_POINT('',(-6.1,-1.,22.1));
#1255 = VECTOR('',#1256,1.);
#1256 = DIRECTION('',(0.,0.,1.));
#1257 = ORIENTED_EDGE('',*,*,#1258,.F.);
#1258 = EDGE_CURVE('',#1259,#1251,#1261,.T.);
#1259 = VERTEX_POINT('',#1260);
#1260 = CARTESIAN_POINT('',(-7.05,-1.,22.9));
#1261 = LINE('',#1262,#1263);
#1262 = CARTESIAN_POINT('',(-7.1,-1.,22.9));
#1263 = VECTOR('',#1264,1.);
#1264 = DIRECTION('',(1.,0.,0.));
#1265 = ORIENTED_EDGE('',*,*,#1266,.T.);
#1266 = EDGE_CURVE('',#1259,#1267,#1269,.T.);
#1267 = VERTEX_POINT('',#1268);
#1268 = CARTESIAN_POINT('',(-7.05,-1.,24.1));
#1269 = LINE('',#1270,#1271);
#1270 = CARTESIAN_POINT('',(-7.05,-1.,13.3));
#1271 = VECTOR('',#1272,1.);
#1272 = DIRECTION('',(0.,0.,1.));
#1273 = ORIENTED_EDGE('',*,*,#1274,.F.);
#1274 = EDGE_CURVE('',#958,#1267,#1275,.T.);
#1275 = LINE('',#1276,#1277);
#1276 = CARTESIAN_POINT('',(-11.85,-1.,24.1));
#1277 = VECTOR('',#1278,1.);
#1278 = DIRECTION('',(1.,0.,0.));
#1279 = ORIENTED_EDGE('',*,*,#965,.F.);
#1280 = ORIENTED_EDGE('',*,*,#893,.F.);
#1281 = ORIENTED_EDGE('',*,*,#1037,.T.);
#1282 = PLANE('',#1283);
#1283 = AXIS2_PLACEMENT_3D('',#1284,#1285,#1286);
#1284 = CARTESIAN_POINT('',(-13.,-1.,-1.1));
#1285 = DIRECTION('',(0.,1.,0.));
#1286 = DIRECTION('',(0.,0.,1.));
#1287 = ADVANCED_FACE('',(#1288),#1299,.F.);
#1288 = FACE_BOUND('',#1289,.T.);
#1289 = EDGE_LOOP('',(#1290,#1291,#1297,#1298));
#1290 = ORIENTED_EDGE('',*,*,#470,.F.);
#1291 = ORIENTED_EDGE('',*,*,#1292,.F.);
#1292 = EDGE_CURVE('',#587,#463,#1293,.T.);
#1293 = LINE('',#1294,#1295);
#1294 = CARTESIAN_POINT('',(-6.,-3.,-1.1));
#1295 = VECTOR('',#1296,1.);
#1296 = DIRECTION('',(-0.,-0.,-1.));
#1297 = ORIENTED_EDGE('',*,*,#594,.T.);
#1298 = ORIENTED_EDGE('',*,*,#545,.T.);
#1299 = CYLINDRICAL_SURFACE('',#1300,5.);
#1300 = AXIS2_PLACEMENT_3D('',#1301,#1302,#1303);
#1301 = CARTESIAN_POINT('',(-2.,-6.,-1.1));
#1302 = DIRECTION('',(-0.,-0.,-1.));
#1303 = DIRECTION('',(1.,0.,0.));
#1304 = ADVANCED_FACE('',(#1305),#1311,.T.);
#1305 = FACE_BOUND('',#1306,.T.);
#1306 = EDGE_LOOP('',(#1307,#1308,#1309,#1310));
#1307 = ORIENTED_EDGE('',*,*,#1292,.T.);
#1308 = ORIENTED_EDGE('',*,*,#462,.T.);
#1309 = ORIENTED_EDGE('',*,*,#1108,.T.);
#1310 = ORIENTED_EDGE('',*,*,#586,.F.);
#1311 = PLANE('',#1312);
#1312 = AXIS2_PLACEMENT_3D('',#1313,#1314,#1315);
#1313 = CARTESIAN_POINT('',(-6.,-10.,-1.1));
#1314 = DIRECTION('',(1.,0.,0.));
#1315 = DIRECTION('',(0.,0.,1.));
#1316 = ADVANCED_FACE('',(#1317),#1335,.T.);
#1317 = FACE_BOUND('',#1318,.T.);
#1318 = EDGE_LOOP('',(#1319,#1327,#1328,#1329));
#1319 = ORIENTED_EDGE('',*,*,#1320,.F.);
#1320 = EDGE_CURVE('',#758,#1321,#1323,.T.);
#1321 = VERTEX_POINT('',#1322);
#1322 = CARTESIAN_POINT('',(-7.05,5.,11.3));
#1323 = LINE('',#1324,#1325);
#1324 = CARTESIAN_POINT('',(-11.85,5.,11.3));
#1325 = VECTOR('',#1326,1.);
#1326 = DIRECTION('',(1.,0.,0.));
#1327 = ORIENTED_EDGE('',*,*,#765,.F.);
#1328 = ORIENTED_EDGE('',*,*,#1158,.T.);
#1329 = ORIENTED_EDGE('',*,*,#1330,.T.);
#1330 = EDGE_CURVE('',#1151,#1321,#1331,.T.);
#1331 = LINE('',#1332,#1333);
#1332 = CARTESIAN_POINT('',(-7.05,-1.,11.3));
#1333 = VECTOR('',#1334,1.);
#1334 = DIRECTION('',(0.,1.,0.));
#1335 = PLANE('',#1336);
#1336 = AXIS2_PLACEMENT_3D('',#1337,#1338,#1339);
#1337 = CARTESIAN_POINT('',(-11.85,-1.,11.3));
#1338 = DIRECTION('',(0.,0.,1.));
#1339 = DIRECTION('',(1.,0.,0.));
#1340 = ADVANCED_FACE('',(#1341),#1359,.T.);
#1341 = FACE_BOUND('',#1342,.F.);
#1342 = EDGE_LOOP('',(#1343,#1344,#1345,#1353));
#1343 = ORIENTED_EDGE('',*,*,#1320,.F.);
#1344 = ORIENTED_EDGE('',*,*,#757,.F.);
#1345 = ORIENTED_EDGE('',*,*,#1346,.T.);
#1346 = EDGE_CURVE('',#750,#1347,#1349,.T.);
#1347 = VERTEX_POINT('',#1348);
#1348 = CARTESIAN_POINT('',(-8.05,6.,10.3));
#1349 = LINE('',#1350,#1351);
#1350 = CARTESIAN_POINT('',(-11.85,6.,10.3));
#1351 = VECTOR('',#1352,1.);
#1352 = DIRECTION('',(1.,0.,0.));
#1353 = ORIENTED_EDGE('',*,*,#1354,.F.);
#1354 = EDGE_CURVE('',#1321,#1347,#1355,.T.);
#1355 = LINE('',#1356,#1357);
#1356 = CARTESIAN_POINT('',(-9.983333333333,7.933333333333,
    8.366666666667));
#1357 = VECTOR('',#1358,1.);
#1358 = DIRECTION('',(-0.57735026919,0.57735026919,-0.57735026919));
#1359 = PLANE('',#1360);
#1360 = AXIS2_PLACEMENT_3D('',#1361,#1362,#1363);
#1361 = CARTESIAN_POINT('',(-11.85,5.5,10.8));
#1362 = DIRECTION('',(0.,0.707106781187,0.707106781187));
#1363 = DIRECTION('',(-1.,0.,0.));
#1364 = ADVANCED_FACE('',(#1365),#1383,.T.);
#1365 = FACE_BOUND('',#1366,.T.);
#1366 = EDGE_LOOP('',(#1367,#1375,#1376,#1377));
#1367 = ORIENTED_EDGE('',*,*,#1368,.F.);
#1368 = EDGE_CURVE('',#742,#1369,#1371,.T.);
#1369 = VERTEX_POINT('',#1370);
#1370 = CARTESIAN_POINT('',(-8.05,6.,1.5));
#1371 = LINE('',#1372,#1373);
#1372 = CARTESIAN_POINT('',(-11.85,6.,1.5));
#1373 = VECTOR('',#1374,1.);
#1374 = DIRECTION('',(1.,0.,0.));
#1375 = ORIENTED_EDGE('',*,*,#749,.T.);
#1376 = ORIENTED_EDGE('',*,*,#1346,.T.);
#1377 = ORIENTED_EDGE('',*,*,#1378,.F.);
#1378 = EDGE_CURVE('',#1369,#1347,#1379,.T.);
#1379 = LINE('',#1380,#1381);
#1380 = CARTESIAN_POINT('',(-8.05,6.,0.5));
#1381 = VECTOR('',#1382,1.);
#1382 = DIRECTION('',(0.,0.,1.));
#1383 = PLANE('',#1384);
#1384 = AXIS2_PLACEMENT_3D('',#1385,#1386,#1387);
#1385 = CARTESIAN_POINT('',(-11.85,6.,0.5));
#1386 = DIRECTION('',(0.,1.,0.));
#1387 = DIRECTION('',(0.,0.,1.));
#1388 = ADVANCED_FACE('',(#1389),#1407,.F.);
#1389 = FACE_BOUND('',#1390,.T.);
#1390 = EDGE_LOOP('',(#1391,#1399,#1400,#1401));
#1391 = ORIENTED_EDGE('',*,*,#1392,.F.);
#1392 = EDGE_CURVE('',#734,#1393,#1395,.T.);
#1393 = VERTEX_POINT('',#1394);
#1394 = CARTESIAN_POINT('',(-7.05,5.,0.5));
#1395 = LINE('',#1396,#1397);
#1396 = CARTESIAN_POINT('',(-11.85,5.,0.5));
#1397 = VECTOR('',#1398,1.);
#1398 = DIRECTION('',(1.,0.,0.));
#1399 = ORIENTED_EDGE('',*,*,#741,.F.);
#1400 = ORIENTED_EDGE('',*,*,#1368,.T.);
#1401 = ORIENTED_EDGE('',*,*,#1402,.F.);
#1402 = EDGE_CURVE('',#1393,#1369,#1403,.T.);
#1403 = LINE('',#1404,#1405);
#1404 = CARTESIAN_POINT('',(-8.183333333333,6.133333333333,
    1.633333333333));
#1405 = VECTOR('',#1406,1.);
#1406 = DIRECTION('',(-0.57735026919,0.57735026919,0.57735026919));
#1407 = PLANE('',#1408);
#1408 = AXIS2_PLACEMENT_3D('',#1409,#1410,#1411);
#1409 = CARTESIAN_POINT('',(-11.85,5.5,1.));
#1410 = DIRECTION('',(0.,-0.707106781187,0.707106781187));
#1411 = DIRECTION('',(-1.,-0.,-0.));
#1412 = ADVANCED_FACE('',(#1413),#1424,.F.);
#1413 = FACE_BOUND('',#1414,.F.);
#1414 = EDGE_LOOP('',(#1415,#1416,#1417,#1418));
#1415 = ORIENTED_EDGE('',*,*,#1392,.F.);
#1416 = ORIENTED_EDGE('',*,*,#733,.F.);
#1417 = ORIENTED_EDGE('',*,*,#1142,.T.);
#1418 = ORIENTED_EDGE('',*,*,#1419,.T.);
#1419 = EDGE_CURVE('',#1143,#1393,#1420,.T.);
#1420 = LINE('',#1421,#1422);
#1421 = CARTESIAN_POINT('',(-7.05,-1.,0.5));
#1422 = VECTOR('',#1423,1.);
#1423 = DIRECTION('',(0.,1.,0.));
#1424 = PLANE('',#1425);
#1425 = AXIS2_PLACEMENT_3D('',#1426,#1427,#1428);
#1426 = CARTESIAN_POINT('',(-11.85,-1.,0.5));
#1427 = DIRECTION('',(0.,0.,1.));
#1428 = DIRECTION('',(1.,0.,0.));
#1429 = ADVANCED_FACE('',(#1430),#1448,.T.);
#1430 = FACE_BOUND('',#1431,.T.);
#1431 = EDGE_LOOP('',(#1432,#1440,#1446,#1447));
#1432 = ORIENTED_EDGE('',*,*,#1433,.F.);
#1433 = EDGE_CURVE('',#1434,#847,#1436,.T.);
#1434 = VERTEX_POINT('',#1435);
#1435 = CARTESIAN_POINT('',(-11.85,5.,11.3));
#1436 = LINE('',#1437,#1438);
#1437 = CARTESIAN_POINT('',(-11.85,5.,11.3));
#1438 = VECTOR('',#1439,1.);
#1439 = DIRECTION('',(1.,0.,0.));
#1440 = ORIENTED_EDGE('',*,*,#1441,.F.);
#1441 = EDGE_CURVE('',#1118,#1434,#1442,.T.);
#1442 = LINE('',#1443,#1444);
#1443 = CARTESIAN_POINT('',(-11.85,-1.,11.3));
#1444 = VECTOR('',#1445,1.);
#1445 = DIRECTION('',(0.,1.,0.));
#1446 = ORIENTED_EDGE('',*,*,#1117,.T.);
#1447 = ORIENTED_EDGE('',*,*,#854,.T.);
#1448 = PLANE('',#1449);
#1449 = AXIS2_PLACEMENT_3D('',#1450,#1451,#1452);
#1450 = CARTESIAN_POINT('',(-11.85,-1.,11.3));
#1451 = DIRECTION('',(0.,0.,1.));
#1452 = DIRECTION('',(1.,0.,0.));
#1453 = ADVANCED_FACE('',(#1454),#1472,.T.);
#1454 = FACE_BOUND('',#1455,.F.);
#1455 = EDGE_LOOP('',(#1456,#1457,#1465,#1471));
#1456 = ORIENTED_EDGE('',*,*,#1433,.F.);
#1457 = ORIENTED_EDGE('',*,*,#1458,.T.);
#1458 = EDGE_CURVE('',#1434,#1459,#1461,.T.);
#1459 = VERTEX_POINT('',#1460);
#1460 = CARTESIAN_POINT('',(-10.85,6.,10.3));
#1461 = LINE('',#1462,#1463);
#1462 = CARTESIAN_POINT('',(-9.716666666667,7.133333333333,
    9.166666666667));
#1463 = VECTOR('',#1464,1.);
#1464 = DIRECTION('',(0.57735026919,0.57735026919,-0.57735026919));
#1465 = ORIENTED_EDGE('',*,*,#1466,.T.);
#1466 = EDGE_CURVE('',#1459,#839,#1467,.T.);
#1467 = LINE('',#1468,#1469);
#1468 = CARTESIAN_POINT('',(-11.85,6.,10.3));
#1469 = VECTOR('',#1470,1.);
#1470 = DIRECTION('',(1.,0.,0.));
#1471 = ORIENTED_EDGE('',*,*,#846,.T.);
#1472 = PLANE('',#1473);
#1473 = AXIS2_PLACEMENT_3D('',#1474,#1475,#1476);
#1474 = CARTESIAN_POINT('',(-11.85,5.5,10.8));
#1475 = DIRECTION('',(0.,0.707106781187,0.707106781187));
#1476 = DIRECTION('',(-1.,0.,0.));
#1477 = ADVANCED_FACE('',(#1478),#1496,.T.);
#1478 = FACE_BOUND('',#1479,.T.);
#1479 = EDGE_LOOP('',(#1480,#1488,#1494,#1495));
#1480 = ORIENTED_EDGE('',*,*,#1481,.F.);
#1481 = EDGE_CURVE('',#1482,#831,#1484,.T.);
#1482 = VERTEX_POINT('',#1483);
#1483 = CARTESIAN_POINT('',(-10.85,6.,1.5));
#1484 = LINE('',#1485,#1486);
#1485 = CARTESIAN_POINT('',(-11.85,6.,1.5));
#1486 = VECTOR('',#1487,1.);
#1487 = DIRECTION('',(1.,0.,0.));
#1488 = ORIENTED_EDGE('',*,*,#1489,.T.);
#1489 = EDGE_CURVE('',#1482,#1459,#1490,.T.);
#1490 = LINE('',#1491,#1492);
#1491 = CARTESIAN_POINT('',(-10.85,6.,0.5));
#1492 = VECTOR('',#1493,1.);
#1493 = DIRECTION('',(0.,0.,1.));
#1494 = ORIENTED_EDGE('',*,*,#1466,.T.);
#1495 = ORIENTED_EDGE('',*,*,#838,.F.);
#1496 = PLANE('',#1497);
#1497 = AXIS2_PLACEMENT_3D('',#1498,#1499,#1500);
#1498 = CARTESIAN_POINT('',(-11.85,6.,0.5));
#1499 = DIRECTION('',(0.,1.,0.));
#1500 = DIRECTION('',(0.,0.,1.));
#1501 = ADVANCED_FACE('',(#1502),#1520,.F.);
#1502 = FACE_BOUND('',#1503,.T.);
#1503 = EDGE_LOOP('',(#1504,#1512,#1518,#1519));
#1504 = ORIENTED_EDGE('',*,*,#1505,.F.);
#1505 = EDGE_CURVE('',#1506,#823,#1508,.T.);
#1506 = VERTEX_POINT('',#1507);
#1507 = CARTESIAN_POINT('',(-11.85,5.,0.5));
#1508 = LINE('',#1509,#1510);
#1509 = CARTESIAN_POINT('',(-11.85,5.,0.5));
#1510 = VECTOR('',#1511,1.);
#1511 = DIRECTION('',(1.,0.,0.));
#1512 = ORIENTED_EDGE('',*,*,#1513,.T.);
#1513 = EDGE_CURVE('',#1506,#1482,#1514,.T.);
#1514 = LINE('',#1515,#1516);
#1515 = CARTESIAN_POINT('',(-11.51666666666,5.333333333333,
    0.833333333333));
#1516 = VECTOR('',#1517,1.);
#1517 = DIRECTION('',(0.57735026919,0.57735026919,0.57735026919));
#1518 = ORIENTED_EDGE('',*,*,#1481,.T.);
#1519 = ORIENTED_EDGE('',*,*,#830,.T.);
#1520 = PLANE('',#1521);
#1521 = AXIS2_PLACEMENT_3D('',#1522,#1523,#1524);
#1522 = CARTESIAN_POINT('',(-11.85,5.5,1.));
#1523 = DIRECTION('',(0.,-0.707106781187,0.707106781187));
#1524 = DIRECTION('',(-1.,-0.,-0.));
#1525 = ADVANCED_FACE('',(#1526),#1537,.F.);
#1526 = FACE_BOUND('',#1527,.F.);
#1527 = EDGE_LOOP('',(#1528,#1529,#1535,#1536));
#1528 = ORIENTED_EDGE('',*,*,#1505,.F.);
#1529 = ORIENTED_EDGE('',*,*,#1530,.F.);
#1530 = EDGE_CURVE('',#1126,#1506,#1531,.T.);
#1531 = LINE('',#1532,#1533);
#1532 = CARTESIAN_POINT('',(-11.85,-1.,0.5));
#1533 = VECTOR('',#1534,1.);
#1534 = DIRECTION('',(0.,1.,0.));
#1535 = ORIENTED_EDGE('',*,*,#1133,.T.);
#1536 = ORIENTED_EDGE('',*,*,#822,.T.);
#1537 = PLANE('',#1538);
#1538 = AXIS2_PLACEMENT_3D('',#1539,#1540,#1541);
#1539 = CARTESIAN_POINT('',(-11.85,-1.,0.5));
#1540 = DIRECTION('',(0.,0.,1.));
#1541 = DIRECTION('',(1.,0.,0.));
#1542 = ADVANCED_FACE('',(#1543),#1561,.T.);
#1543 = FACE_BOUND('',#1544,.T.);
#1544 = EDGE_LOOP('',(#1545,#1553,#1554,#1555));
#1545 = ORIENTED_EDGE('',*,*,#1546,.F.);
#1546 = EDGE_CURVE('',#950,#1547,#1549,.T.);
#1547 = VERTEX_POINT('',#1548);
#1548 = CARTESIAN_POINT('',(-7.05,5.,24.1));
#1549 = LINE('',#1550,#1551);
#1550 = CARTESIAN_POINT('',(-11.85,5.,24.1));
#1551 = VECTOR('',#1552,1.);
#1552 = DIRECTION('',(1.,0.,0.));
#1553 = ORIENTED_EDGE('',*,*,#957,.F.);
#1554 = ORIENTED_EDGE('',*,*,#1274,.T.);
#1555 = ORIENTED_EDGE('',*,*,#1556,.T.);
#1556 = EDGE_CURVE('',#1267,#1547,#1557,.T.);
#1557 = LINE('',#1558,#1559);
#1558 = CARTESIAN_POINT('',(-7.05,-1.,24.1));
#1559 = VECTOR('',#1560,1.);
#1560 = DIRECTION('',(0.,1.,0.));
#1561 = PLANE('',#1562);
#1562 = AXIS2_PLACEMENT_3D('',#1563,#1564,#1565);
#1563 = CARTESIAN_POINT('',(-11.85,-1.,24.1));
#1564 = DIRECTION('',(0.,0.,1.));
#1565 = DIRECTION('',(1.,0.,0.));
#1566 = ADVANCED_FACE('',(#1567),#1585,.T.);
#1567 = FACE_BOUND('',#1568,.F.);
#1568 = EDGE_LOOP('',(#1569,#1570,#1571,#1579));
#1569 = ORIENTED_EDGE('',*,*,#1546,.F.);
#1570 = ORIENTED_EDGE('',*,*,#949,.F.);
#1571 = ORIENTED_EDGE('',*,*,#1572,.T.);
#1572 = EDGE_CURVE('',#942,#1573,#1575,.T.);
#1573 = VERTEX_POINT('',#1574);
#1574 = CARTESIAN_POINT('',(-7.05,6.,23.1));
#1575 = LINE('',#1576,#1577);
#1576 = CARTESIAN_POINT('',(-11.85,6.,23.1));
#1577 = VECTOR('',#1578,1.);
#1578 = DIRECTION('',(1.,0.,0.));
#1579 = ORIENTED_EDGE('',*,*,#1580,.T.);
#1580 = EDGE_CURVE('',#1573,#1547,#1581,.T.);
#1581 = LINE('',#1582,#1583);
#1582 = CARTESIAN_POINT('',(-7.05,6.45,22.65));
#1583 = VECTOR('',#1584,1.);
#1584 = DIRECTION('',(0.,-0.707106781187,0.707106781187));
#1585 = PLANE('',#1586);
#1586 = AXIS2_PLACEMENT_3D('',#1587,#1588,#1589);
#1587 = CARTESIAN_POINT('',(-11.85,5.5,23.6));
#1588 = DIRECTION('',(0.,0.707106781187,0.707106781187));
#1589 = DIRECTION('',(-1.,0.,0.));
#1590 = ADVANCED_FACE('',(#1591,#1609,#1643),#1677,.T.);
#1591 = FACE_BOUND('',#1592,.T.);
#1592 = EDGE_LOOP('',(#1593,#1601,#1607,#1608));
#1593 = ORIENTED_EDGE('',*,*,#1594,.F.);
#1594 = EDGE_CURVE('',#1595,#1573,#1597,.T.);
#1595 = VERTEX_POINT('',#1596);
#1596 = CARTESIAN_POINT('',(-7.05,6.,14.3));
#1597 = LINE('',#1598,#1599);
#1598 = CARTESIAN_POINT('',(-7.05,6.,13.3));
#1599 = VECTOR('',#1600,1.);
#1600 = DIRECTION('',(0.,0.,1.));
#1601 = ORIENTED_EDGE('',*,*,#1602,.F.);
#1602 = EDGE_CURVE('',#934,#1595,#1603,.T.);
#1603 = LINE('',#1604,#1605);
#1604 = CARTESIAN_POINT('',(-11.85,6.,14.3));
#1605 = VECTOR('',#1606,1.);
#1606 = DIRECTION('',(1.,0.,0.));
#1607 = ORIENTED_EDGE('',*,*,#941,.T.);
#1608 = ORIENTED_EDGE('',*,*,#1572,.T.);
#1609 = FACE_BOUND('',#1610,.T.);
#1610 = EDGE_LOOP('',(#1611,#1621,#1629,#1637));
#1611 = ORIENTED_EDGE('',*,*,#1612,.T.);
#1612 = EDGE_CURVE('',#1613,#1615,#1617,.T.);
#1613 = VERTEX_POINT('',#1614);
#1614 = CARTESIAN_POINT('',(-7.09,6.,17.));
#1615 = VERTEX_POINT('',#1616);
#1616 = CARTESIAN_POINT('',(-7.09,6.,17.8));
#1617 = LINE('',#1618,#1619);
#1618 = CARTESIAN_POINT('',(-7.09,6.,17.));
#1619 = VECTOR('',#1620,1.);
#1620 = DIRECTION('',(0.,0.,1.));
#1621 = ORIENTED_EDGE('',*,*,#1622,.F.);
#1622 = EDGE_CURVE('',#1623,#1615,#1625,.T.);
#1623 = VERTEX_POINT('',#1624);
#1624 = CARTESIAN_POINT('',(-7.1,6.,17.8));
#1625 = LINE('',#1626,#1627);
#1626 = CARTESIAN_POINT('',(-7.1,6.,17.8));
#1627 = VECTOR('',#1628,1.);
#1628 = DIRECTION('',(1.,0.,0.));
#1629 = ORIENTED_EDGE('',*,*,#1630,.F.);
#1630 = EDGE_CURVE('',#1631,#1623,#1633,.T.);
#1631 = VERTEX_POINT('',#1632);
#1632 = CARTESIAN_POINT('',(-7.1,6.,17.));
#1633 = LINE('',#1634,#1635);
#1634 = CARTESIAN_POINT('',(-7.1,6.,17.));
#1635 = VECTOR('',#1636,1.);
#1636 = DIRECTION('',(0.,0.,1.));
#1637 = ORIENTED_EDGE('',*,*,#1638,.T.);
#1638 = EDGE_CURVE('',#1631,#1613,#1639,.T.);
#1639 = LINE('',#1640,#1641);
#1640 = CARTESIAN_POINT('',(-7.1,6.,17.));
#1641 = VECTOR('',#1642,1.);
#1642 = DIRECTION('',(1.,0.,0.));
#1643 = FACE_BOUND('',#1644,.T.);
#1644 = EDGE_LOOP('',(#1645,#1655,#1663,#1671));
#1645 = ORIENTED_EDGE('',*,*,#1646,.T.);
#1646 = EDGE_CURVE('',#1647,#1649,#1651,.T.);
#1647 = VERTEX_POINT('',#1648);
#1648 = CARTESIAN_POINT('',(-7.09,6.,22.1));
#1649 = VERTEX_POINT('',#1650);
#1650 = CARTESIAN_POINT('',(-7.09,6.,22.9));
#1651 = LINE('',#1652,#1653);
#1652 = CARTESIAN_POINT('',(-7.09,6.,22.1));
#1653 = VECTOR('',#1654,1.);
#1654 = DIRECTION('',(0.,0.,1.));
#1655 = ORIENTED_EDGE('',*,*,#1656,.F.);
#1656 = EDGE_CURVE('',#1657,#1649,#1659,.T.);
#1657 = VERTEX_POINT('',#1658);
#1658 = CARTESIAN_POINT('',(-7.1,6.,22.9));
#1659 = LINE('',#1660,#1661);
#1660 = CARTESIAN_POINT('',(-7.1,6.,22.9));
#1661 = VECTOR('',#1662,1.);
#1662 = DIRECTION('',(1.,0.,0.));
#1663 = ORIENTED_EDGE('',*,*,#1664,.F.);
#1664 = EDGE_CURVE('',#1665,#1657,#1667,.T.);
#1665 = VERTEX_POINT('',#1666);
#1666 = CARTESIAN_POINT('',(-7.1,6.,22.1));
#1667 = LINE('',#1668,#1669);
#1668 = CARTESIAN_POINT('',(-7.1,6.,22.1));
#1669 = VECTOR('',#1670,1.);
#1670 = DIRECTION('',(0.,0.,1.));
#1671 = ORIENTED_EDGE('',*,*,#1672,.T.);
#1672 = EDGE_CURVE('',#1665,#1647,#1673,.T.);
#1673 = LINE('',#1674,#1675);
#1674 = CARTESIAN_POINT('',(-7.1,6.,22.1));
#1675 = VECTOR('',#1676,1.);
#1676 = DIRECTION('',(1.,0.,0.));
#1677 = PLANE('',#1678);
#1678 = AXIS2_PLACEMENT_3D('',#1679,#1680,#1681);
#1679 = CARTESIAN_POINT('',(-11.85,6.,13.3));
#1680 = DIRECTION('',(0.,1.,0.));
#1681 = DIRECTION('',(0.,0.,1.));
#1682 = ADVANCED_FACE('',(#1683),#1701,.F.);
#1683 = FACE_BOUND('',#1684,.T.);
#1684 = EDGE_LOOP('',(#1685,#1693,#1694,#1695));
#1685 = ORIENTED_EDGE('',*,*,#1686,.F.);
#1686 = EDGE_CURVE('',#926,#1687,#1689,.T.);
#1687 = VERTEX_POINT('',#1688);
#1688 = CARTESIAN_POINT('',(-7.05,5.,13.3));
#1689 = LINE('',#1690,#1691);
#1690 = CARTESIAN_POINT('',(-11.85,5.,13.3));
#1691 = VECTOR('',#1692,1.);
#1692 = DIRECTION('',(1.,0.,0.));
#1693 = ORIENTED_EDGE('',*,*,#933,.F.);
#1694 = ORIENTED_EDGE('',*,*,#1602,.T.);
#1695 = ORIENTED_EDGE('',*,*,#1696,.T.);
#1696 = EDGE_CURVE('',#1595,#1687,#1697,.T.);
#1697 = LINE('',#1698,#1699);
#1698 = CARTESIAN_POINT('',(-7.05,3.75,12.05));
#1699 = VECTOR('',#1700,1.);
#1700 = DIRECTION('',(0.,-0.707106781187,-0.707106781187));
#1701 = PLANE('',#1702);
#1702 = AXIS2_PLACEMENT_3D('',#1703,#1704,#1705);
#1703 = CARTESIAN_POINT('',(-11.85,5.5,13.8));
#1704 = DIRECTION('',(0.,-0.707106781187,0.707106781187));
#1705 = DIRECTION('',(-1.,-0.,-0.));
#1706 = ADVANCED_FACE('',(#1707),#1718,.F.);
#1707 = FACE_BOUND('',#1708,.F.);
#1708 = EDGE_LOOP('',(#1709,#1710,#1711,#1712));
#1709 = ORIENTED_EDGE('',*,*,#1686,.F.);
#1710 = ORIENTED_EDGE('',*,*,#925,.F.);
#1711 = ORIENTED_EDGE('',*,*,#1194,.T.);
#1712 = ORIENTED_EDGE('',*,*,#1713,.T.);
#1713 = EDGE_CURVE('',#1195,#1687,#1714,.T.);
#1714 = LINE('',#1715,#1716);
#1715 = CARTESIAN_POINT('',(-7.05,-1.,13.3));
#1716 = VECTOR('',#1717,1.);
#1717 = DIRECTION('',(0.,1.,0.));
#1718 = PLANE('',#1719);
#1719 = AXIS2_PLACEMENT_3D('',#1720,#1721,#1722);
#1720 = CARTESIAN_POINT('',(-11.85,-1.,13.3));
#1721 = DIRECTION('',(0.,0.,1.));
#1722 = DIRECTION('',(1.,0.,0.));
#1723 = ADVANCED_FACE('',(#1724),#1742,.T.);
#1724 = FACE_BOUND('',#1725,.T.);
#1725 = EDGE_LOOP('',(#1726,#1734,#1740,#1741));
#1726 = ORIENTED_EDGE('',*,*,#1727,.F.);
#1727 = EDGE_CURVE('',#1728,#1022,#1730,.T.);
#1728 = VERTEX_POINT('',#1729);
#1729 = CARTESIAN_POINT('',(-11.85,5.,24.1));
#1730 = LINE('',#1731,#1732);
#1731 = CARTESIAN_POINT('',(-11.85,5.,24.1));
#1732 = VECTOR('',#1733,1.);
#1733 = DIRECTION('',(1.,0.,0.));
#1734 = ORIENTED_EDGE('',*,*,#1735,.F.);
#1735 = EDGE_CURVE('',#1170,#1728,#1736,.T.);
#1736 = LINE('',#1737,#1738);
#1737 = CARTESIAN_POINT('',(-11.85,-1.,24.1));
#1738 = VECTOR('',#1739,1.);
#1739 = DIRECTION('',(0.,1.,0.));
#1740 = ORIENTED_EDGE('',*,*,#1169,.T.);
#1741 = ORIENTED_EDGE('',*,*,#1029,.T.);
#1742 = PLANE('',#1743);
#1743 = AXIS2_PLACEMENT_3D('',#1744,#1745,#1746);
#1744 = CARTESIAN_POINT('',(-11.85,-1.,24.1));
#1745 = DIRECTION('',(0.,0.,1.));
#1746 = DIRECTION('',(1.,0.,0.));
#1747 = ADVANCED_FACE('',(#1748),#1766,.T.);
#1748 = FACE_BOUND('',#1749,.F.);
#1749 = EDGE_LOOP('',(#1750,#1751,#1759,#1765));
#1750 = ORIENTED_EDGE('',*,*,#1727,.F.);
#1751 = ORIENTED_EDGE('',*,*,#1752,.T.);
#1752 = EDGE_CURVE('',#1728,#1753,#1755,.T.);
#1753 = VERTEX_POINT('',#1754);
#1754 = CARTESIAN_POINT('',(-10.85,6.,23.1));
#1755 = LINE('',#1756,#1757);
#1756 = CARTESIAN_POINT('',(-9.716666666667,7.133333333333,
    21.966666666667));
#1757 = VECTOR('',#1758,1.);
#1758 = DIRECTION('',(0.57735026919,0.57735026919,-0.57735026919));
#1759 = ORIENTED_EDGE('',*,*,#1760,.T.);
#1760 = EDGE_CURVE('',#1753,#1014,#1761,.T.);
#1761 = LINE('',#1762,#1763);
#1762 = CARTESIAN_POINT('',(-11.85,6.,23.1));
#1763 = VECTOR('',#1764,1.);
#1764 = DIRECTION('',(1.,0.,0.));
#1765 = ORIENTED_EDGE('',*,*,#1021,.T.);
#1766 = PLANE('',#1767);
#1767 = AXIS2_PLACEMENT_3D('',#1768,#1769,#1770);
#1768 = CARTESIAN_POINT('',(-11.85,5.5,23.6));
#1769 = DIRECTION('',(0.,0.707106781187,0.707106781187));
#1770 = DIRECTION('',(-1.,0.,0.));
#1771 = ADVANCED_FACE('',(#1772),#1790,.T.);
#1772 = FACE_BOUND('',#1773,.T.);
#1773 = EDGE_LOOP('',(#1774,#1775,#1783,#1789));
#1774 = ORIENTED_EDGE('',*,*,#1013,.F.);
#1775 = ORIENTED_EDGE('',*,*,#1776,.F.);
#1776 = EDGE_CURVE('',#1777,#1006,#1779,.T.);
#1777 = VERTEX_POINT('',#1778);
#1778 = CARTESIAN_POINT('',(-10.85,6.,14.3));
#1779 = LINE('',#1780,#1781);
#1780 = CARTESIAN_POINT('',(-11.85,6.,14.3));
#1781 = VECTOR('',#1782,1.);
#1782 = DIRECTION('',(1.,0.,0.));
#1783 = ORIENTED_EDGE('',*,*,#1784,.T.);
#1784 = EDGE_CURVE('',#1777,#1753,#1785,.T.);
#1785 = LINE('',#1786,#1787);
#1786 = CARTESIAN_POINT('',(-10.85,6.,13.3));
#1787 = VECTOR('',#1788,1.);
#1788 = DIRECTION('',(0.,0.,1.));
#1789 = ORIENTED_EDGE('',*,*,#1760,.T.);
#1790 = PLANE('',#1791);
#1791 = AXIS2_PLACEMENT_3D('',#1792,#1793,#1794);
#1792 = CARTESIAN_POINT('',(-11.85,6.,13.3));
#1793 = DIRECTION('',(0.,1.,0.));
#1794 = DIRECTION('',(0.,0.,1.));
#1795 = ADVANCED_FACE('',(#1796),#1814,.F.);
#1796 = FACE_BOUND('',#1797,.T.);
#1797 = EDGE_LOOP('',(#1798,#1806,#1812,#1813));
#1798 = ORIENTED_EDGE('',*,*,#1799,.F.);
#1799 = EDGE_CURVE('',#1800,#998,#1802,.T.);
#1800 = VERTEX_POINT('',#1801);
#1801 = CARTESIAN_POINT('',(-11.85,5.,13.3));
#1802 = LINE('',#1803,#1804);
#1803 = CARTESIAN_POINT('',(-11.85,5.,13.3));
#1804 = VECTOR('',#1805,1.);
#1805 = DIRECTION('',(1.,0.,0.));
#1806 = ORIENTED_EDGE('',*,*,#1807,.T.);
#1807 = EDGE_CURVE('',#1800,#1777,#1808,.T.);
#1808 = LINE('',#1809,#1810);
#1809 = CARTESIAN_POINT('',(-11.51666666666,5.333333333333,
    13.633333333333));
#1810 = VECTOR('',#1811,1.);
#1811 = DIRECTION('',(0.57735026919,0.57735026919,0.57735026919));
#1812 = ORIENTED_EDGE('',*,*,#1776,.T.);
#1813 = ORIENTED_EDGE('',*,*,#1005,.T.);
#1814 = PLANE('',#1815);
#1815 = AXIS2_PLACEMENT_3D('',#1816,#1817,#1818);
#1816 = CARTESIAN_POINT('',(-11.85,5.5,13.8));
#1817 = DIRECTION('',(0.,-0.707106781187,0.707106781187));
#1818 = DIRECTION('',(-1.,-0.,-0.));
#1819 = ADVANCED_FACE('',(#1820),#1831,.F.);
#1820 = FACE_BOUND('',#1821,.F.);
#1821 = EDGE_LOOP('',(#1822,#1823,#1829,#1830));
#1822 = ORIENTED_EDGE('',*,*,#1799,.F.);
#1823 = ORIENTED_EDGE('',*,*,#1824,.F.);
#1824 = EDGE_CURVE('',#1178,#1800,#1825,.T.);
#1825 = LINE('',#1826,#1827);
#1826 = CARTESIAN_POINT('',(-11.85,-1.,13.3));
#1827 = VECTOR('',#1828,1.);
#1828 = DIRECTION('',(0.,1.,0.));
#1829 = ORIENTED_EDGE('',*,*,#1185,.T.);
#1830 = ORIENTED_EDGE('',*,*,#997,.T.);
#1831 = PLANE('',#1832);
#1832 = AXIS2_PLACEMENT_3D('',#1833,#1834,#1835);
#1833 = CARTESIAN_POINT('',(-11.85,-1.,13.3));
#1834 = DIRECTION('',(0.,0.,1.));
#1835 = DIRECTION('',(1.,0.,0.));
#1836 = ADVANCED_FACE('',(#1837),#1848,.T.);
#1837 = FACE_BOUND('',#1838,.T.);
#1838 = EDGE_LOOP('',(#1839,#1840,#1841,#1842));
#1839 = ORIENTED_EDGE('',*,*,#1330,.F.);
#1840 = ORIENTED_EDGE('',*,*,#1150,.F.);
#1841 = ORIENTED_EDGE('',*,*,#1419,.T.);
#1842 = ORIENTED_EDGE('',*,*,#1843,.T.);
#1843 = EDGE_CURVE('',#1393,#1321,#1844,.T.);
#1844 = LINE('',#1845,#1846);
#1845 = CARTESIAN_POINT('',(-7.05,5.,0.5));
#1846 = VECTOR('',#1847,1.);
#1847 = DIRECTION('',(0.,0.,1.));
#1848 = PLANE('',#1849);
#1849 = AXIS2_PLACEMENT_3D('',#1850,#1851,#1852);
#1850 = CARTESIAN_POINT('',(-7.05,-1.,0.5));
#1851 = DIRECTION('',(1.,0.,0.));
#1852 = DIRECTION('',(0.,0.,1.));
#1853 = ADVANCED_FACE('',(#1854),#1865,.F.);
#1854 = FACE_BOUND('',#1855,.F.);
#1855 = EDGE_LOOP('',(#1856,#1857,#1858,#1859));
#1856 = ORIENTED_EDGE('',*,*,#1441,.F.);
#1857 = ORIENTED_EDGE('',*,*,#1125,.F.);
#1858 = ORIENTED_EDGE('',*,*,#1530,.T.);
#1859 = ORIENTED_EDGE('',*,*,#1860,.T.);
#1860 = EDGE_CURVE('',#1506,#1434,#1861,.T.);
#1861 = LINE('',#1862,#1863);
#1862 = CARTESIAN_POINT('',(-11.85,5.,0.5));
#1863 = VECTOR('',#1864,1.);
#1864 = DIRECTION('',(0.,0.,1.));
#1865 = PLANE('',#1866);
#1866 = AXIS2_PLACEMENT_3D('',#1867,#1868,#1869);
#1867 = CARTESIAN_POINT('',(-11.85,-1.,0.5));
#1868 = DIRECTION('',(1.,0.,0.));
#1869 = DIRECTION('',(0.,0.,1.));
#1870 = ADVANCED_FACE('',(#1871),#1882,.F.);
#1871 = FACE_BOUND('',#1872,.F.);
#1872 = EDGE_LOOP('',(#1873,#1874,#1875,#1876));
#1873 = ORIENTED_EDGE('',*,*,#1735,.F.);
#1874 = ORIENTED_EDGE('',*,*,#1177,.F.);
#1875 = ORIENTED_EDGE('',*,*,#1824,.T.);
#1876 = ORIENTED_EDGE('',*,*,#1877,.T.);
#1877 = EDGE_CURVE('',#1800,#1728,#1878,.T.);
#1878 = LINE('',#1879,#1880);
#1879 = CARTESIAN_POINT('',(-11.85,5.,13.3));
#1880 = VECTOR('',#1881,1.);
#1881 = DIRECTION('',(0.,0.,1.));
#1882 = PLANE('',#1883);
#1883 = AXIS2_PLACEMENT_3D('',#1884,#1885,#1886);
#1884 = CARTESIAN_POINT('',(-11.85,-1.,13.3));
#1885 = DIRECTION('',(1.,0.,0.));
#1886 = DIRECTION('',(0.,0.,1.));
#1887 = ADVANCED_FACE('',(#1888),#1942,.T.);
#1888 = FACE_BOUND('',#1889,.T.);
#1889 = EDGE_LOOP('',(#1890,#1891,#1892,#1893,#1901,#1909,#1915,#1916,
    #1924,#1932,#1938,#1939,#1940,#1941));
#1890 = ORIENTED_EDGE('',*,*,#1580,.T.);
#1891 = ORIENTED_EDGE('',*,*,#1556,.F.);
#1892 = ORIENTED_EDGE('',*,*,#1266,.F.);
#1893 = ORIENTED_EDGE('',*,*,#1894,.F.);
#1894 = EDGE_CURVE('',#1895,#1259,#1897,.T.);
#1895 = VERTEX_POINT('',#1896);
#1896 = CARTESIAN_POINT('',(-7.05,5.96,22.9));
#1897 = LINE('',#1898,#1899);
#1898 = CARTESIAN_POINT('',(-7.05,-1.,22.9));
#1899 = VECTOR('',#1900,1.);
#1900 = DIRECTION('',(0.,-1.,0.));
#1901 = ORIENTED_EDGE('',*,*,#1902,.T.);
#1902 = EDGE_CURVE('',#1895,#1903,#1905,.T.);
#1903 = VERTEX_POINT('',#1904);
#1904 = CARTESIAN_POINT('',(-7.05,5.96,22.1));
#1905 = LINE('',#1906,#1907);
#1906 = CARTESIAN_POINT('',(-7.05,5.96,17.7));
#1907 = VECTOR('',#1908,1.);
#1908 = DIRECTION('',(0.,0.,-1.));
#1909 = ORIENTED_EDGE('',*,*,#1910,.T.);
#1910 = EDGE_CURVE('',#1903,#1235,#1911,.T.);
#1911 = LINE('',#1912,#1913);
#1912 = CARTESIAN_POINT('',(-7.05,-1.,22.1));
#1913 = VECTOR('',#1914,1.);
#1914 = DIRECTION('',(0.,-1.,0.));
#1915 = ORIENTED_EDGE('',*,*,#1234,.F.);
#1916 = ORIENTED_EDGE('',*,*,#1917,.F.);
#1917 = EDGE_CURVE('',#1918,#1227,#1920,.T.);
#1918 = VERTEX_POINT('',#1919);
#1919 = CARTESIAN_POINT('',(-7.05,5.96,17.8));
#1920 = LINE('',#1921,#1922);
#1921 = CARTESIAN_POINT('',(-7.05,-1.,17.8));
#1922 = VECTOR('',#1923,1.);
#1923 = DIRECTION('',(0.,-1.,0.));
#1924 = ORIENTED_EDGE('',*,*,#1925,.T.);
#1925 = EDGE_CURVE('',#1918,#1926,#1928,.T.);
#1926 = VERTEX_POINT('',#1927);
#1927 = CARTESIAN_POINT('',(-7.05,5.96,17.));
#1928 = LINE('',#1929,#1930);
#1929 = CARTESIAN_POINT('',(-7.05,5.96,15.15));
#1930 = VECTOR('',#1931,1.);
#1931 = DIRECTION('',(0.,0.,-1.));
#1932 = ORIENTED_EDGE('',*,*,#1933,.T.);
#1933 = EDGE_CURVE('',#1926,#1203,#1934,.T.);
#1934 = LINE('',#1935,#1936);
#1935 = CARTESIAN_POINT('',(-7.05,-1.,17.));
#1936 = VECTOR('',#1937,1.);
#1937 = DIRECTION('',(0.,-1.,0.));
#1938 = ORIENTED_EDGE('',*,*,#1202,.F.);
#1939 = ORIENTED_EDGE('',*,*,#1713,.T.);
#1940 = ORIENTED_EDGE('',*,*,#1696,.F.);
#1941 = ORIENTED_EDGE('',*,*,#1594,.T.);
#1942 = PLANE('',#1943);
#1943 = AXIS2_PLACEMENT_3D('',#1944,#1945,#1946);
#1944 = CARTESIAN_POINT('',(-7.05,-1.,13.3));
#1945 = DIRECTION('',(1.,0.,0.));
#1946 = DIRECTION('',(0.,0.,1.));
#1947 = ADVANCED_FACE('',(#1948),#1966,.T.);
#1948 = FACE_BOUND('',#1949,.T.);
#1949 = EDGE_LOOP('',(#1950,#1958,#1959,#1960));
#1950 = ORIENTED_EDGE('',*,*,#1951,.T.);
#1951 = EDGE_CURVE('',#1952,#1895,#1954,.T.);
#1952 = VERTEX_POINT('',#1953);
#1953 = CARTESIAN_POINT('',(-6.1,5.01,22.9));
#1954 = LINE('',#1955,#1956);
#1955 = CARTESIAN_POINT('',(-5.095,4.005,22.9));
#1956 = VECTOR('',#1957,1.);
#1957 = DIRECTION('',(-0.707106781187,0.707106781187,0.));
#1958 = ORIENTED_EDGE('',*,*,#1894,.T.);
#1959 = ORIENTED_EDGE('',*,*,#1258,.T.);
#1960 = ORIENTED_EDGE('',*,*,#1961,.T.);
#1961 = EDGE_CURVE('',#1251,#1952,#1962,.T.);
#1962 = LINE('',#1963,#1964);
#1963 = CARTESIAN_POINT('',(-6.1,-1.,22.9));
#1964 = VECTOR('',#1965,1.);
#1965 = DIRECTION('',(0.,1.,0.));
#1966 = PLANE('',#1967);
#1967 = AXIS2_PLACEMENT_3D('',#1968,#1969,#1970);
#1968 = CARTESIAN_POINT('',(-7.1,-1.,22.9));
#1969 = DIRECTION('',(0.,0.,1.));
#1970 = DIRECTION('',(1.,0.,0.));
#1971 = ADVANCED_FACE('',(#1972),#1990,.T.);
#1972 = FACE_BOUND('',#1973,.T.);
#1973 = EDGE_LOOP('',(#1974,#1975,#1976,#1984));
#1974 = ORIENTED_EDGE('',*,*,#1961,.F.);
#1975 = ORIENTED_EDGE('',*,*,#1250,.F.);
#1976 = ORIENTED_EDGE('',*,*,#1977,.T.);
#1977 = EDGE_CURVE('',#1243,#1978,#1980,.T.);
#1978 = VERTEX_POINT('',#1979);
#1979 = CARTESIAN_POINT('',(-6.1,5.01,22.1));
#1980 = LINE('',#1981,#1982);
#1981 = CARTESIAN_POINT('',(-6.1,-1.,22.1));
#1982 = VECTOR('',#1983,1.);
#1983 = DIRECTION('',(0.,1.,0.));
#1984 = ORIENTED_EDGE('',*,*,#1985,.T.);
#1985 = EDGE_CURVE('',#1978,#1952,#1986,.T.);
#1986 = LINE('',#1987,#1988);
#1987 = CARTESIAN_POINT('',(-6.1,5.01,22.1));
#1988 = VECTOR('',#1989,1.);
#1989 = DIRECTION('',(0.,0.,1.));
#1990 = PLANE('',#1991);
#1991 = AXIS2_PLACEMENT_3D('',#1992,#1993,#1994);
#1992 = CARTESIAN_POINT('',(-6.1,-1.,22.1));
#1993 = DIRECTION('',(1.,0.,0.));
#1994 = DIRECTION('',(0.,0.,1.));
#1995 = ADVANCED_FACE('',(#1996),#2014,.F.);
#1996 = FACE_BOUND('',#1997,.F.);
#1997 = EDGE_LOOP('',(#1998,#2006,#2007,#2008));
#1998 = ORIENTED_EDGE('',*,*,#1999,.T.);
#1999 = EDGE_CURVE('',#2000,#1926,#2002,.T.);
#2000 = VERTEX_POINT('',#2001);
#2001 = CARTESIAN_POINT('',(-6.1,5.01,17.));
#2002 = LINE('',#2003,#2004);
#2003 = CARTESIAN_POINT('',(-5.095,4.005,17.));
#2004 = VECTOR('',#2005,1.);
#2005 = DIRECTION('',(-0.707106781187,0.707106781187,0.));
#2006 = ORIENTED_EDGE('',*,*,#1933,.T.);
#2007 = ORIENTED_EDGE('',*,*,#1210,.T.);
#2008 = ORIENTED_EDGE('',*,*,#2009,.T.);
#2009 = EDGE_CURVE('',#1211,#2000,#2010,.T.);
#2010 = LINE('',#2011,#2012);
#2011 = CARTESIAN_POINT('',(-6.1,-1.,17.));
#2012 = VECTOR('',#2013,1.);
#2013 = DIRECTION('',(0.,1.,0.));
#2014 = PLANE('',#2015);
#2015 = AXIS2_PLACEMENT_3D('',#2016,#2017,#2018);
#2016 = CARTESIAN_POINT('',(-7.1,-1.,17.));
#2017 = DIRECTION('',(0.,0.,1.));
#2018 = DIRECTION('',(1.,0.,0.));
#2019 = ADVANCED_FACE('',(#2020),#2031,.F.);
#2020 = FACE_BOUND('',#2021,.F.);
#2021 = EDGE_LOOP('',(#2022,#2028,#2029,#2030));
#2022 = ORIENTED_EDGE('',*,*,#2023,.T.);
#2023 = EDGE_CURVE('',#1978,#1903,#2024,.T.);
#2024 = LINE('',#2025,#2026);
#2025 = CARTESIAN_POINT('',(-5.095,4.005,22.1));
#2026 = VECTOR('',#2027,1.);
#2027 = DIRECTION('',(-0.707106781187,0.707106781187,0.));
#2028 = ORIENTED_EDGE('',*,*,#1910,.T.);
#2029 = ORIENTED_EDGE('',*,*,#1242,.T.);
#2030 = ORIENTED_EDGE('',*,*,#1977,.T.);
#2031 = PLANE('',#2032);
#2032 = AXIS2_PLACEMENT_3D('',#2033,#2034,#2035);
#2033 = CARTESIAN_POINT('',(-7.1,-1.,22.1));
#2034 = DIRECTION('',(0.,0.,1.));
#2035 = DIRECTION('',(1.,0.,0.));
#2036 = ADVANCED_FACE('',(#2037),#2055,.T.);
#2037 = FACE_BOUND('',#2038,.T.);
#2038 = EDGE_LOOP('',(#2039,#2047,#2048,#2049));
#2039 = ORIENTED_EDGE('',*,*,#2040,.F.);
#2040 = EDGE_CURVE('',#1219,#2041,#2043,.T.);
#2041 = VERTEX_POINT('',#2042);
#2042 = CARTESIAN_POINT('',(-6.1,5.01,17.8));
#2043 = LINE('',#2044,#2045);
#2044 = CARTESIAN_POINT('',(-6.1,-1.,17.8));
#2045 = VECTOR('',#2046,1.);
#2046 = DIRECTION('',(0.,1.,0.));
#2047 = ORIENTED_EDGE('',*,*,#1218,.F.);
#2048 = ORIENTED_EDGE('',*,*,#2009,.T.);
#2049 = ORIENTED_EDGE('',*,*,#2050,.T.);
#2050 = EDGE_CURVE('',#2000,#2041,#2051,.T.);
#2051 = LINE('',#2052,#2053);
#2052 = CARTESIAN_POINT('',(-6.1,5.01,17.));
#2053 = VECTOR('',#2054,1.);
#2054 = DIRECTION('',(0.,0.,1.));
#2055 = PLANE('',#2056);
#2056 = AXIS2_PLACEMENT_3D('',#2057,#2058,#2059);
#2057 = CARTESIAN_POINT('',(-6.1,-1.,17.));
#2058 = DIRECTION('',(1.,0.,0.));
#2059 = DIRECTION('',(0.,0.,1.));
#2060 = ADVANCED_FACE('',(#2061),#2072,.T.);
#2061 = FACE_BOUND('',#2062,.T.);
#2062 = EDGE_LOOP('',(#2063,#2069,#2070,#2071));
#2063 = ORIENTED_EDGE('',*,*,#2064,.T.);
#2064 = EDGE_CURVE('',#2041,#1918,#2065,.T.);
#2065 = LINE('',#2066,#2067);
#2066 = CARTESIAN_POINT('',(-5.095,4.005,17.8));
#2067 = VECTOR('',#2068,1.);
#2068 = DIRECTION('',(-0.707106781187,0.707106781187,0.));
#2069 = ORIENTED_EDGE('',*,*,#1917,.T.);
#2070 = ORIENTED_EDGE('',*,*,#1226,.T.);
#2071 = ORIENTED_EDGE('',*,*,#2040,.T.);
#2072 = PLANE('',#2073);
#2073 = AXIS2_PLACEMENT_3D('',#2074,#2075,#2076);
#2074 = CARTESIAN_POINT('',(-7.1,-1.,17.8));
#2075 = DIRECTION('',(0.,0.,1.));
#2076 = DIRECTION('',(1.,0.,0.));
#2077 = ADVANCED_FACE('',(#2078),#2084,.T.);
#2078 = FACE_BOUND('',#2079,.F.);
#2079 = EDGE_LOOP('',(#2080,#2081,#2082,#2083));
#2080 = ORIENTED_EDGE('',*,*,#1402,.F.);
#2081 = ORIENTED_EDGE('',*,*,#1843,.T.);
#2082 = ORIENTED_EDGE('',*,*,#1354,.T.);
#2083 = ORIENTED_EDGE('',*,*,#1378,.F.);
#2084 = PLANE('',#2085);
#2085 = AXIS2_PLACEMENT_3D('',#2086,#2087,#2088);
#2086 = CARTESIAN_POINT('',(-7.55,5.5,0.5));
#2087 = DIRECTION('',(0.707106781187,0.707106781187,-1.401587864986E-17)
  );
#2088 = DIRECTION('',(-9.910722837601E-18,-9.910722837601E-18,-1.));
#2089 = ADVANCED_FACE('',(#2090),#2096,.F.);
#2090 = FACE_BOUND('',#2091,.T.);
#2091 = EDGE_LOOP('',(#2092,#2093,#2094,#2095));
#2092 = ORIENTED_EDGE('',*,*,#1513,.F.);
#2093 = ORIENTED_EDGE('',*,*,#1860,.T.);
#2094 = ORIENTED_EDGE('',*,*,#1458,.T.);
#2095 = ORIENTED_EDGE('',*,*,#1489,.F.);
#2096 = PLANE('',#2097);
#2097 = AXIS2_PLACEMENT_3D('',#2098,#2099,#2100);
#2098 = CARTESIAN_POINT('',(-11.35,5.5,0.5));
#2099 = DIRECTION('',(0.707106781187,-0.707106781187,0.));
#2100 = DIRECTION('',(-0.,-0.,-1.));
#2101 = ADVANCED_FACE('',(#2102),#2108,.T.);
#2102 = FACE_BOUND('',#2103,.T.);
#2103 = EDGE_LOOP('',(#2104,#2105,#2106,#2107));
#2104 = ORIENTED_EDGE('',*,*,#1638,.F.);
#2105 = ORIENTED_EDGE('',*,*,#1630,.T.);
#2106 = ORIENTED_EDGE('',*,*,#1622,.T.);
#2107 = ORIENTED_EDGE('',*,*,#1612,.F.);
#2108 = PLANE('',#2109);
#2109 = AXIS2_PLACEMENT_3D('',#2110,#2111,#2112);
#2110 = CARTESIAN_POINT('',(-7.1,6.,17.));
#2111 = DIRECTION('',(0.,1.,0.));
#2112 = DIRECTION('',(0.,0.,1.));
#2113 = ADVANCED_FACE('',(#2114),#2120,.T.);
#2114 = FACE_BOUND('',#2115,.T.);
#2115 = EDGE_LOOP('',(#2116,#2117,#2118,#2119));
#2116 = ORIENTED_EDGE('',*,*,#1672,.F.);
#2117 = ORIENTED_EDGE('',*,*,#1664,.T.);
#2118 = ORIENTED_EDGE('',*,*,#1656,.T.);
#2119 = ORIENTED_EDGE('',*,*,#1646,.F.);
#2120 = PLANE('',#2121);
#2121 = AXIS2_PLACEMENT_3D('',#2122,#2123,#2124);
#2122 = CARTESIAN_POINT('',(-7.1,6.,22.1));
#2123 = DIRECTION('',(0.,1.,0.));
#2124 = DIRECTION('',(0.,0.,1.));
#2125 = ADVANCED_FACE('',(#2126),#2132,.F.);
#2126 = FACE_BOUND('',#2127,.T.);
#2127 = EDGE_LOOP('',(#2128,#2129,#2130,#2131));
#2128 = ORIENTED_EDGE('',*,*,#1807,.F.);
#2129 = ORIENTED_EDGE('',*,*,#1877,.T.);
#2130 = ORIENTED_EDGE('',*,*,#1752,.T.);
#2131 = ORIENTED_EDGE('',*,*,#1784,.F.);
#2132 = PLANE('',#2133);
#2133 = AXIS2_PLACEMENT_3D('',#2134,#2135,#2136);
#2134 = CARTESIAN_POINT('',(-11.35,5.5,13.3));
#2135 = DIRECTION('',(0.707106781187,-0.707106781187,0.));
#2136 = DIRECTION('',(-0.,-0.,-1.));
#2137 = ADVANCED_FACE('',(#2138),#2144,.T.);
#2138 = FACE_BOUND('',#2139,.F.);
#2139 = EDGE_LOOP('',(#2140,#2141,#2142,#2143));
#2140 = ORIENTED_EDGE('',*,*,#1999,.F.);
#2141 = ORIENTED_EDGE('',*,*,#2050,.T.);
#2142 = ORIENTED_EDGE('',*,*,#2064,.T.);
#2143 = ORIENTED_EDGE('',*,*,#1925,.T.);
#2144 = PLANE('',#2145);
#2145 = AXIS2_PLACEMENT_3D('',#2146,#2147,#2148);
#2146 = CARTESIAN_POINT('',(-6.595,5.505,17.));
#2147 = DIRECTION('',(0.707106781187,0.707106781187,0.));
#2148 = DIRECTION('',(0.,0.,-1.));
#2149 = ADVANCED_FACE('',(#2150),#2156,.T.);
#2150 = FACE_BOUND('',#2151,.F.);
#2151 = EDGE_LOOP('',(#2152,#2153,#2154,#2155));
#2152 = ORIENTED_EDGE('',*,*,#2023,.F.);
#2153 = ORIENTED_EDGE('',*,*,#1985,.T.);
#2154 = ORIENTED_EDGE('',*,*,#1951,.T.);
#2155 = ORIENTED_EDGE('',*,*,#1902,.T.);
#2156 = PLANE('',#2157);
#2157 = AXIS2_PLACEMENT_3D('',#2158,#2159,#2160);
#2158 = CARTESIAN_POINT('',(-6.595,5.505,22.1));
#2159 = DIRECTION('',(0.707106781187,0.707106781187,0.));
#2160 = DIRECTION('',(0.,0.,-1.));
#2161 = ( GEOMETRIC_REPRESENTATION_CONTEXT(3) 
GLOBAL_UNCERTAINTY_ASSIGNED_CONTEXT((#2165)) 
GLOBAL_UNIT_ASSIGNED_CONTEXT((#2162,#2163,#2164)) REPRESENTATION_CONTEXT
('Context #1','3D Context with UNIT and UNCERTAINTY') );
#2162 = ( LENGTH_UNIT() NAMED_UNIT(*) SI_UNIT(.MILLI.,.METRE.) );
#2163 = ( NAMED_UNIT(*) PLANE_ANGLE_UNIT() SI_UNIT($,.RADIAN.) );
#2164 = ( NAMED_UNIT(*) SI_UNIT($,.STERADIAN.) SOLID_ANGLE_UNIT() );
#2165 = UNCERTAINTY_MEASURE_WITH_UNIT(LENGTH_MEASURE(1.E-07),#2162,
  'distance_accuracy_value','confusion accuracy');
#2166 = PRODUCT_RELATED_PRODUCT_CATEGORY('part',$,(#7));
#2167 = MECHANICAL_DESIGN_GEOMETRIC_PRESENTATION_REPRESENTATION('',(
    #2168),#2161);
#2168 = STYLED_ITEM('color',(#2169),#15);
#2169 = PRESENTATION_STYLE_ASSIGNMENT((#2170,#2176));
#2170 = SURFACE_STYLE_USAGE(.BOTH.,#2171);
#2171 = SURFACE_SIDE_STYLE('',(#2172));
#2172 = SURFACE_STYLE_FILL_AREA(#2173);
#2173 = FILL_AREA_STYLE('',(#2174));
#2174 = FILL_AREA_STYLE_COLOUR('',#2175);
#2175 = COLOUR_RGB('',0.800000010877,0.800000010877,0.800000010877);
#2176 = CURVE_STYLE('',#2177,POSITIVE_LENGTH_MEASURE(0.1),#2178);
#2177 = DRAUGHTING_PRE_DEFINED_CURVE_FONT('continuous');
#2178 = COLOUR_RGB('',9.803921802644E-02,9.803921802644E-02,
  9.803921802644E-02);
ENDSEC;
END-ISO-10303-21;
