<svg xmlns="http://www.w3.org/2000/svg" xmlns:xlink="http://www.w3.org/1999/xlink" width="45.72mm" height="58.42mm" viewBox="4020 3013.5 180 230"><title></title><style type="text/css">
*[layerid="1"] {stroke:#FF0000;fill:#FF0000;}
*[layerid="2"] {stroke:#0000FF;fill:#0000FF;}
*[layerid="3"] {stroke:#FFCC00;fill:#FFCC00;}
*[layerid="4"] {stroke:#66CC33;fill:#66CC33;}
*[layerid="5"] {stroke:#808080;fill:#808080;}
*[layerid="6"] {stroke:#800000;fill:#800000;}
*[layerid="7"] {stroke:#800080;fill:#800080;stroke-opacity:0.7;fill-opacity:0.7;}
*[layerid="8"] {stroke:#AA00FF;fill:#AA00FF;stroke-opacity:0.7;fill-opacity:0.7;}
*[layerid="9"] {stroke:#6464FF;fill:#6464FF;}
*[layerid="10"] {stroke:#FF00FF;fill:#FF00FF;}
*[layerid="11"] {stroke:#C0C0C0;fill:#C0C0C0;}
*[layerid="12"] {stroke:#FFFFFF;fill:#FFFFFF;}
*[layerid="13"] {stroke:#33CC99;fill:#33CC99;}
*[layerid="14"] {stroke:#5555FF;fill:#5555FF;}
*[layerid="15"] {stroke:#F022F0;fill:#F022F0;}
*[layerid="19"] {stroke:#66CCFF;fill:#66CCFF;}
*[layerid="21"] {stroke:#999966;fill:#999966;}
*[layerid="22"] {stroke:#008000;fill:#008000;}
*[layerid="23"] {stroke:#00FF00;fill:#00FF00;}
*[layerid="24"] {stroke:#BC8E00;fill:#BC8E00;}
*[layerid="25"] {stroke:#70DBFA;fill:#70DBFA;}
*[layerid="26"] {stroke:#00CC66;fill:#00CC66;}
*[layerid="27"] {stroke:#9966FF;fill:#9966FF;}
*[layerid="28"] {stroke:#800080;fill:#800080;}
*[layerid="29"] {stroke:#008080;fill:#008080;}
*[layerid="30"] {stroke:#15935F;fill:#15935F;}
*[layerid="31"] {stroke:#000080;fill:#000080;}
*[layerid="32"] {stroke:#00B400;fill:#00B400;}
*[layerid="33"] {stroke:#2E4756;fill:#2E4756;}
*[layerid="34"] {stroke:#99842F;fill:#99842F;}
*[layerid="35"] {stroke:#FFFFAA;fill:#FFFFAA;}
*[layerid="36"] {stroke:#99842F;fill:#99842F;}
*[layerid="37"] {stroke:#2E4756;fill:#2E4756;}
*[layerid="38"] {stroke:#3535FF;fill:#3535FF;}
*[layerid="39"] {stroke:#8000BC;fill:#8000BC;}
*[layerid="40"] {stroke:#43AE5F;fill:#43AE5F;}
*[layerid="41"] {stroke:#C3ECCE;fill:#C3ECCE;}
*[layerid="42"] {stroke:#728978;fill:#728978;}
*[layerid="43"] {stroke:#39503F;fill:#39503F;}
*[layerid="44"] {stroke:#0C715D;fill:#0C715D;}
*[layerid="45"] {stroke:#5A8A80;fill:#5A8A80;}
*[layerid="46"] {stroke:#2B937E;fill:#2B937E;}
*[layerid="47"] {stroke:#23999D;fill:#23999D;}
*[layerid="48"] {stroke:#45B4E3;fill:#45B4E3;}
*[layerid="49"] {stroke:#215DA1;fill:#215DA1;}
*[layerid="50"] {stroke:#4564D7;fill:#4564D7;}
*[layerid="51"] {stroke:#6969E9;fill:#6969E9;}
*[layerid="52"] {stroke:#9069E9;fill:#9069E9;}
*[layerid="99"] {stroke:#00CCCC;fill:#00CCCC;stroke-opacity:0.6;fill-opacity:0.6;}
*[layerid="100"] {stroke:#CC9999;fill:#CC9999;}
*[layerid="101"] {stroke:#66FFCC;fill:#66FFCC;}
*[layerid="Hole"] {stroke:#222222;fill:#222222;}
*[layerid="DRCError"] {stroke:#FAD609;fill:#FAD609;}
*[fill="none"] {fill: none;}
*[stroke="none"] {stroke: none;}
path, polyline, polygon, line {stroke-linecap:round;}
g[c_partid="part_pad"][layerid="1"] ellipse:not([c_padid]) {fill:#FF0000;}
g[c_partid="part_pad"][layerid="1"]  polygon:not([c_padid]) {fill:#FF0000;}
g[c_partid="part_pad"][layerid="1"]  polyline:not([c_padid]) {stroke:#FF0000;}
g[c_partid="part_pad"][layerid="1"]  circle {fill:#FF0000;}
g[c_partid="part_pad"][layerid="2"]  ellipse:not([c_padid]) {fill:#0000FF;}
g[c_partid="part_pad"][layerid="2"]  polygon:not([c_padid]) {fill:#0000FF;}
g[c_partid="part_pad"][layerid="2"]  polyline:not([c_padid]) {stroke:#0000FF;}
g[c_partid="part_pad"][layerid="2"]  circle {fill:#0000FF;}
g[c_partid="part_pad"][layerid="11"]  ellipse:not([c_padid]) {fill:#C0C0C0;}
g[c_partid="part_pad"][layerid="11"]  polygon:not([c_padid]) {fill:#C0C0C0;}
g[c_partid="part_pad"][layerid="11"]  polyline:not([c_padid]) {stroke:#C0C0C0;}
g[c_partid="part_pad"][layerid="11"]  circle {fill:#C0C0C0;}
g[c_partid="part_pad"][layerid] > circle[c_padhole] {fill: #222222;}
g[c_partid="part_pad"][layerid] > polyline[c_padhole] {stroke:#222222;}
g[c_partid="part_via"][layerid] > * + circle {fill: #222222;}
g[c_partid="part_pad"] > polygon[c_padid] {stroke-linejoin: miter;stroke-miterlimit: 100;}
g[c_partid="part_hole"] > circle {fill: #222222;}path, polyline, polygon {stroke-linejoin:round;}
rect, circle, ellipse, polyline, line, polygon, path {shape-rendering:crispEdges;}
</style>
<rect x="4020" y="3013.5" width="180" height="230" fill="#000000" stroke="none"/><g id="g1" cpara="package`DIP-4_L6.4-W4.6-P2.54-LS8.0-BL-1`Contributor`LCSC`link`https://atta.szlcsc.com/upload/public/pdf/source/20210425/C2827311_ADBF4690BDA85B8EB582EFDAB872A556.pdf`3DModel`DIP-4_L6.4-W4.6-P2.54-LS8.0-BL-1`Supplier`LCSC`Supplier Part`C1525233`Manufacturer`OMRON(&#x6b27;&#x59c6;&#x9f99;)`Manufacturer Part`G3VM-61A1`JLCPCB Part Class`Extended Part`spicePre`U`spiceSymbolName`G3VM-61A1`" c_transformList="" importFlag="0" xmlns="http://www.w3.org/2000/svg"><polyline points="4075 3159.17 4095 3159.17" stroke-width="2" c_shapetype="line" stroke-linecap="round" fill="none" layerid="2" net="GND" id="gge16661" /><polyline points="4119.98 3123.07 4119.98 3116.555" stroke-width="2" c_shapetype="line" stroke-linecap="round" fill="none" layerid="2" net="R12_1" id="gge16712" /><polyline points="4119.98 3116.555 4122.615 3116.555 4125 3114.17" stroke-width="2" c_shapetype="line" stroke-linecap="round" fill="none" layerid="2" net="R12_1" id="gge16715" /><polyline points="4135.669 3178.5 4110 3178.5 4095 3193.5" stroke-width="2" c_shapetype="line" stroke-linecap="round" fill="none" layerid="2" net="GPIO22" id="gge16718" /><polyline points="4120.02 3153.936 4126.731 3147.225 4138.309 3147.225 4145.02 3153.936" stroke-width="2" c_shapetype="line" stroke-linecap="round" fill="none" layerid="2" net="VCC" id="gge16724" /><polyline points="4114.159 3166.99 4095.257 3185.892 4092.608 3185.892 4085 3193.5" stroke-width="2" c_shapetype="line" stroke-linecap="round" fill="none" layerid="2" net="GPIO24" id="gge16730" /><polyline points="4114.159 3166.99 4115.669 3168.5" stroke-width="2" c_shapetype="line" stroke-linecap="round" fill="none" layerid="2" net="GPIO24" id="gge16733" /><polyline points="4110.02 3153.936 4110.02 3162.851 4114.159 3166.99" stroke-width="2" c_shapetype="line" stroke-linecap="round" fill="none" layerid="2" net="GPIO24" id="gge16736" /><g c_partid="part_pcbtext" c_origin="4147.5,3056.5" c_rotation="0" c_mirror="1" id="gge10223" layerid="4" c_shapetype="group" ><path c_fontSize="4.5" c_fontFamily="" c_text="+HDD" d="M4145.6588 3052.5734L4145.6588 3056.2552M4147.4997 3054.4143L4143.8179 3054.4143M4142.4679 3051.9598L4142.4679 3056.2552M4139.6042 3051.9598L4139.6042 3056.2552M4142.4679 3054.0052L4139.6042 3054.0052M4138.2542 3051.9598L4138.2542 3056.2552M4138.2542 3051.9598L4136.8224 3051.9598 4136.2088 3052.1643 4135.7997 3052.5734 4135.5952 3052.9825 4135.3906 3053.5962 4135.3906 3054.6189 4135.5952 3055.2325 4135.7997 3055.6416 4136.2088 3056.0507 4136.8224 3056.2552 4138.2542 3056.2552M4134.0406 3051.9598L4134.0406 3056.2552M4134.0406 3051.9598L4132.6088 3051.9598 4131.9952 3052.1643 4131.5861 3052.5734 4131.3815 3052.9825 4131.177 3053.5962 4131.177 3054.6189 4131.3815 3055.2325 4131.5861 3055.6416 4131.9952 3056.0507 4132.6088 3056.2552 4134.0406 3056.2552" fill="none"  stroke-width="0.6" c_note="note_pre" /></g><g c_partid="part_pcbtext" c_origin="4127,3056.5" c_rotation="0" c_mirror="1" id="gge10298" layerid="4" c_shapetype="group" ><path c_fontSize="4.5" c_fontFamily="" c_text="+LED" d="M4125.1589 3052.5734L4125.1589 3056.2552M4126.9998 3054.4143L4123.318 3054.4143M4121.968 3051.9598L4121.968 3056.2552M4121.968 3056.2552L4119.5134 3056.2552M4118.1634 3051.9598L4118.1634 3056.2552M4118.1634 3051.9598L4115.5043 3051.9598M4118.1634 3054.0052L4116.5271 3054.0052M4118.1634 3056.2552L4115.5043 3056.2552M4114.1543 3051.9598L4114.1543 3056.2552M4114.1543 3051.9598L4112.7225 3051.9598 4112.1089 3052.1643 4111.6998 3052.5734 4111.4953 3052.9825 4111.2907 3053.5962 4111.2907 3054.6189 4111.4953 3055.2325 4111.6998 3055.6416 4112.1089 3056.0507 4112.7225 3056.2552 4114.1543 3056.2552" fill="none"  stroke-width="0.6" c_note="note_pre" /></g><g c_partid="part_pcbtext" c_origin="4152,3187.5" c_rotation="0" c_mirror="1" id="gge10148" layerid="4" c_shapetype="group" ><path c_fontSize="4.5" c_fontFamily="" c_text="VCCGND" d="M4151.9997 3182.9596L4150.3633 3187.255M4148.727 3182.9596L4150.3633 3187.255M4144.3088 3183.9823L4144.5133 3183.5732 4144.9224 3183.1641 4145.3315 3182.9596 4146.1497 3182.9596 4146.5588 3183.1641 4146.9679 3183.5732 4147.1724 3183.9823 4147.377 3184.596 4147.377 3185.6187 4147.1724 3186.2323 4146.9679 3186.6414 4146.5588 3187.0505 4146.1497 3187.255 4145.3315 3187.255 4144.9224 3187.0505 4144.5133 3186.6414 4144.3088 3186.2323M4139.8906 3183.9823L4140.0952 3183.5732 4140.5042 3183.1641 4140.9133 3182.9596 4141.7315 3182.9596 4142.1406 3183.1641 4142.5497 3183.5732 4142.7542 3183.9823 4142.9588 3184.596 4142.9588 3185.6187 4142.7542 3186.2323 4142.5497 3186.6414 4142.1406 3187.0505 4141.7315 3187.255 4140.9133 3187.255 4140.5042 3187.0505 4140.0952 3186.6414 4139.8906 3186.2323M4135.4724 3183.9823L4135.677 3183.5732 4136.0861 3183.1641 4136.4952 3182.9596 4137.3133 3182.9596 4137.7224 3183.1641 4138.1315 3183.5732 4138.3361 3183.9823 4138.5406 3184.596 4138.5406 3185.6187 4138.3361 3186.2323 4138.1315 3186.6414 4137.7224 3187.0505 4137.3133 3187.255 4136.4952 3187.255 4136.0861 3187.0505 4135.677 3186.6414 4135.4724 3186.2323 4135.4724 3185.6187M4136.4952 3185.6187L4135.4724 3185.6187M4134.1224 3182.9596L4134.1224 3187.255M4134.1224 3182.9596L4131.2588 3187.255M4131.2588 3182.9596L4131.2588 3187.255M4129.9088 3182.9596L4129.9088 3187.255M4129.9088 3182.9596L4128.477 3182.9596 4127.8633 3183.1641 4127.4542 3183.5732 4127.2497 3183.9823 4127.0452 3184.596 4127.0452 3185.6187 4127.2497 3186.2323 4127.4542 3186.6414 4127.8633 3187.0505 4128.477 3187.255 4129.9088 3187.255" fill="none"  stroke-width="0.6" c_note="note_pre" /></g><g c_partid="part_pcbtext" c_origin="4086.5,3187.5" c_rotation="0" c_mirror="1" id="gge12326" layerid="4" c_shapetype="group" ><path c_fontSize="4.5" c_fontFamily="" c_text="GPIO" d="M 4083.4298 3183.98 L 4083.6398 3183.57 L 4084.0498 3183.16 L 4084.4498 3182.96 L 4085.2698 3182.96 L 4085.6798 3183.16 L 4086.0898 3183.57 L 4086.2998 3183.98 L 4086.4998 3184.6 L 4086.4998 3185.62 L 4086.2998 3186.23 L 4086.0898 3186.64 L 4085.6798 3187.05 L 4085.2698 3187.26 L 4084.4498 3187.26 L 4084.0498 3187.05 L 4083.6398 3186.64 L 4083.4298 3186.23 L 4083.4298 3185.62 M 4084.4498 3185.62 L 4083.4298 3185.62 M 4082.0798 3182.96 L 4082.0798 3187.26 M 4082.0798 3182.96 L 4080.2398 3182.96 L 4079.6298 3183.16 L 4079.4198 3183.37 L 4079.2198 3183.78 L 4079.2198 3184.39 L 4079.4198 3184.8 L 4079.6298 3185.01 L 4080.2398 3185.21 L 4082.0798 3185.21 M 4077.8698 3182.96 L 4077.8698 3187.26 M 4075.2898 3182.96 L 4075.6998 3183.16 L 4076.1098 3183.57 L 4076.3098 3183.98 L 4076.5198 3184.6 L 4076.5198 3185.62 L 4076.3098 3186.23 L 4076.1098 3186.64 L 4075.6998 3187.05 L 4075.2898 3187.26 L 4074.4698 3187.26 L 4074.0598 3187.05 L 4073.6498 3186.64 L 4073.4498 3186.23 L 4073.2498 3185.62 L 4073.2498 3184.6 L 4073.4498 3183.98 L 4073.6498 3183.57 L 4074.0598 3183.16 L 4074.4698 3182.96 L 4075.2898 3182.96" fill="none"  stroke-width="0.6" c_note="note_pre" /></g><g c_partid="part_pcbtext" c_origin="4076.5,3056.5" c_rotation="0" c_mirror="1" id="gge10373" layerid="4" c_shapetype="group" ><path c_fontSize="4.5" c_fontFamily="" c_text="PWR" d="M 4076.4998 3051.96 L 4076.4998 3056.26 M 4076.4998 3051.96 L 4074.6598 3051.96 L 4074.0498 3052.16 L 4073.8398 3052.37 L 4073.6398 3052.78 L 4073.6398 3053.39 L 4073.8398 3053.8 L 4074.0498 3054.01 L 4074.6598 3054.21 L 4076.4998 3054.21 M 4072.2898 3051.96 L 4071.2598 3056.26 M 4070.2398 3051.96 L 4071.2598 3056.26 M 4070.2398 3051.96 L 4069.2198 3056.26 M 4068.1998 3051.96 L 4069.2198 3056.26 M 4066.8498 3051.96 L 4066.8498 3056.26 M 4066.8498 3051.96 L 4064.9998 3051.96 L 4064.3898 3052.16 L 4064.1898 3052.37 L 4063.9798 3052.78 L 4063.9798 3053.19 L 4064.1898 3053.6 L 4064.3898 3053.8 L 4064.9998 3054.01 L 4066.8498 3054.01 M 4065.4098 3054.01 L 4063.9798 3056.26" fill="none"  stroke-width="0.6" c_note="note_pre" /></g><g c_partid="part_pcbtext" c_origin="4095,3056.5" c_rotation="0" c_mirror="1" id="gge10448" layerid="4" c_shapetype="group" ><path c_fontSize="4.5" c_fontFamily="" c_text="RST" d="M 4094.9998 3051.96 L 4094.9998 3056.26 M 4094.9998 3051.96 L 4093.1598 3051.96 L 4092.5498 3052.16 L 4092.3398 3052.37 L 4092.1398 3052.78 L 4092.1398 3053.19 L 4092.3398 3053.6 L 4092.5498 3053.8 L 4093.1598 3054.01 L 4094.9998 3054.01 M 4093.5698 3054.01 L 4092.1398 3056.26 M 4087.9198 3052.57 L 4088.3298 3052.16 L 4088.9498 3051.96 L 4089.7598 3051.96 L 4090.3798 3052.16 L 4090.7898 3052.57 L 4090.7898 3052.98 L 4090.5798 3053.39 L 4090.3798 3053.6 L 4089.9698 3053.8 L 4088.7398 3054.21 L 4088.3298 3054.41 L 4088.1298 3054.62 L 4087.9198 3055.03 L 4087.9198 3055.64 L 4088.3298 3056.05 L 4088.9498 3056.26 L 4089.7598 3056.26 L 4090.3798 3056.05 L 4090.7898 3055.64 M 4085.1398 3051.96 L 4085.1398 3056.26 M 4086.5698 3051.96 L 4083.7098 3051.96" fill="none"  stroke-width="0.6" c_note="note_pre" /></g><g c_partid="part_pad" c_etype="pinpart" c_origin="4135,3063.5" layerid="11" number="1" net="+HDD_1" plated ="Y" c_shapetype="group" id="gge15920" locked="0" c_rotation="0" c_width="6.6929" c_height="6.6929" title="+HDD_1" c_shape="ELLIPSE" pasteExpansion="0" solderExpansion="0.2"><ellipse cx="4135" cy="3063.5" rx="3.54645" ry="3.54645" layerid="8" stroke-width="0" c_padid="gge15920" /><ellipse cx="4135" cy="3063.5" rx="3.34645" ry="3.34645" stroke-width="0" /><circle c_padhole="1" cx="4135" cy="3063.5" r="2.1654" stroke-width="0" /></g><g c_partid="part_pad" c_etype="pinpart" c_origin="4145,3063.5" layerid="11" number="2" net="+HDD_2" plated ="Y" c_shapetype="group" id="gge15935" locked="0" c_rotation="0" c_width="6.6929" c_height="6.6929" title="+HDD_2" c_shape="ELLIPSE" pasteExpansion="0" solderExpansion="0.2"><ellipse cx="4145" cy="3063.5" rx="3.54645" ry="3.54645" layerid="8" stroke-width="0" c_padid="gge15935" /><ellipse cx="4145" cy="3063.5" rx="3.34645" ry="3.34645" stroke-width="0" /><circle c_padhole="1" cx="4145" cy="3063.5" r="2.1654" stroke-width="0" /></g><g c_partid="part_pad" c_etype="pinpart" c_origin="4115,3063.5" layerid="11" number="1" net="+LED_1" plated ="Y" c_shapetype="group" id="gge15989" locked="0" c_rotation="0" c_width="6.6929" c_height="6.6929" title="+LED_1" c_shape="ELLIPSE" pasteExpansion="0" solderExpansion="0.2"><ellipse cx="4115" cy="3063.5" rx="3.54645" ry="3.54645" layerid="8" stroke-width="0" c_padid="gge15989" /><ellipse cx="4115" cy="3063.5" rx="3.34645" ry="3.34645" stroke-width="0" /><circle c_padhole="1" cx="4115" cy="3063.5" r="2.1654" stroke-width="0" /></g><g c_partid="part_pad" c_etype="pinpart" c_origin="4125,3063.5" layerid="11" number="2" net="+LED_2" plated ="Y" c_shapetype="group" id="gge16004" locked="0" c_rotation="0" c_width="6.6929" c_height="6.6929" title="+LED_2" c_shape="ELLIPSE" pasteExpansion="0" solderExpansion="0.2"><ellipse cx="4125" cy="3063.5" rx="3.54645" ry="3.54645" layerid="8" stroke-width="0" c_padid="gge16004" /><ellipse cx="4125" cy="3063.5" rx="3.34645" ry="3.34645" stroke-width="0" /><circle c_padhole="1" cx="4125" cy="3063.5" r="2.1654" stroke-width="0" /></g><g c_partid="part_pad" c_etype="pinpart" c_origin="4145,3193.5" layerid="11" number="1" net="VCC" plated ="Y" c_shapetype="group" id="gge16058" locked="0" c_rotation="180" c_width="6.6929" c_height="6.6929" title="VCC" c_shape="ELLIPSE" pasteExpansion="0" solderExpansion="0.2"><ellipse cx="4145" cy="3193.5" rx="3.54645" ry="3.54645" layerid="8" stroke-width="0" c_padid="gge16058" /><ellipse cx="4145" cy="3193.5" rx="3.34645" ry="3.34645" stroke-width="0" /><circle c_padhole="1" cx="4145" cy="3193.5" r="2.1654" stroke-width="0" /></g><g c_partid="part_pad" c_etype="pinpart" c_origin="4135,3193.5" layerid="11" number="2" net="GND" plated ="Y" c_shapetype="group" id="gge16073" locked="0" c_rotation="180" c_width="6.6929" c_height="6.6929" title="GND" c_shape="ELLIPSE" pasteExpansion="0" solderExpansion="0.2"><ellipse cx="4135" cy="3193.5" rx="3.54645" ry="3.54645" layerid="8" stroke-width="0" c_padid="gge16073" /><ellipse cx="4135" cy="3193.5" rx="3.34645" ry="3.34645" stroke-width="0" /><circle c_padhole="1" cx="4135" cy="3193.5" r="2.1654" stroke-width="0" /></g><g c_partid="part_pad" c_etype="pinpart" c_origin="4065,3193.5" layerid="11" number="1" net="GPIO23" plated ="Y" c_shapetype="group" id="gge14036" locked="0" c_rotation="0" c_width="6.6929" c_height="6.6929" title="GPIO23" c_shape="RECT" pasteExpansion="0" solderExpansion="0.1969"><polygon points="4061.654 3190.154 4068.347 3190.154 4068.347 3196.847 4061.654 3196.847" layerid="8" stroke-width="0.3938" c_padid="gge14036" /><polygon points="4061.654 3190.154 4068.347 3190.154 4068.347 3196.847 4061.654 3196.847" stroke-width="0" /><circle c_padhole="1" cx="4065" cy="3193.5" r="2.1654" stroke-width="0" /></g><g c_partid="part_pad" c_etype="pinpart" c_origin="4075,3193.5" layerid="11" number="2" net="GPIO27" plated ="Y" c_shapetype="group" id="gge14051" locked="0" c_rotation="0" c_width="6.6929" c_height="6.6929" title="GPIO27" c_shape="ELLIPSE" pasteExpansion="0" solderExpansion="0.1969"><ellipse cx="4075" cy="3193.5" rx="3.5433499999999998" ry="3.5433499999999998" layerid="8" stroke-width="0" c_padid="gge14051" /><ellipse cx="4075" cy="3193.5" rx="3.34645" ry="3.34645" stroke-width="0" /><circle c_padhole="1" cx="4075" cy="3193.5" r="2.1654" stroke-width="0" /></g><g c_partid="part_pad" c_etype="pinpart" c_origin="4085,3193.5" layerid="11" number="3" net="GPIO24" plated ="Y" c_shapetype="group" id="gge14066" locked="0" c_rotation="0" c_width="6.6929" c_height="6.6929" title="GPIO24" c_shape="ELLIPSE" pasteExpansion="0" solderExpansion="0.1969"><ellipse cx="4085" cy="3193.5" rx="3.5433499999999998" ry="3.5433499999999998" layerid="8" stroke-width="0" c_padid="gge14066" /><ellipse cx="4085" cy="3193.5" rx="3.34645" ry="3.34645" stroke-width="0" /><circle c_padhole="1" cx="4085" cy="3193.5" r="2.1654" stroke-width="0" /></g><g c_partid="part_pad" c_etype="pinpart" c_origin="4095,3193.5" layerid="11" number="4" net="GPIO22" plated ="Y" c_shapetype="group" id="gge14081" locked="0" c_rotation="0" c_width="6.6929" c_height="6.6929" title="GPIO22" c_shape="ELLIPSE" pasteExpansion="0" solderExpansion="0.1969"><ellipse cx="4095" cy="3193.5" rx="3.5433499999999998" ry="3.5433499999999998" layerid="8" stroke-width="0" c_padid="gge14081" /><ellipse cx="4095" cy="3193.5" rx="3.34645" ry="3.34645" stroke-width="0" /><circle c_padhole="1" cx="4095" cy="3193.5" r="2.1654" stroke-width="0" /></g><g c_partid="part_pad" c_etype="pinpart" c_origin="4065,3063.5" layerid="11" number="1" net="PWR_1" plated ="Y" c_shapetype="group" id="gge14273" locked="0" c_rotation="0" c_width="6.6929" c_height="6.6929" title="PWR_1" c_shape="ELLIPSE" pasteExpansion="0" solderExpansion="0.2"><ellipse cx="4065" cy="3063.5" rx="3.54645" ry="3.54645" layerid="8" stroke-width="0" c_padid="gge14273" /><ellipse cx="4065" cy="3063.5" rx="3.34645" ry="3.34645" stroke-width="0" /><circle c_padhole="1" cx="4065" cy="3063.5" r="2.1654" stroke-width="0" /></g><g c_partid="part_pad" c_etype="pinpart" c_origin="4075,3063.5" layerid="11" number="2" net="PWR_2" plated ="Y" c_shapetype="group" id="gge14288" locked="0" c_rotation="0" c_width="6.6929" c_height="6.6929" title="PWR_2" c_shape="ELLIPSE" pasteExpansion="0" solderExpansion="0.2"><ellipse cx="4075" cy="3063.5" rx="3.54645" ry="3.54645" layerid="8" stroke-width="0" c_padid="gge14288" /><ellipse cx="4075" cy="3063.5" rx="3.34645" ry="3.34645" stroke-width="0" /><circle c_padhole="1" cx="4075" cy="3063.5" r="2.1654" stroke-width="0" /></g><g c_partid="part_pad" c_etype="pinpart" c_origin="4094.33,3178.5" layerid="11" number="1" net="GND" plated ="Y" c_shapetype="group" id="gge14357" locked="0" c_rotation="0" c_width="5.5118" c_height="5.5118" title="GND" c_shape="ELLIPSE" pasteExpansion="0" solderExpansion="0.2"><ellipse cx="4094.33" cy="3178.5" rx="2.9559" ry="2.9559" layerid="8" stroke-width="0" c_padid="gge14357" /><ellipse cx="4094.33" cy="3178.5" rx="2.7559" ry="2.7559" stroke-width="0" /><circle c_padhole="1" cx="4094.3307" cy="3178.5" r="1.378" stroke-width="0" /></g><g c_partid="part_pad" c_etype="pinpart" c_origin="4135.67,3178.5" layerid="11" number="2" net="GPIO22" plated ="Y" c_shapetype="group" id="gge14372" locked="0" c_rotation="0" c_width="5.5118" c_height="5.5118" title="GPIO22" c_shape="ELLIPSE" pasteExpansion="0" solderExpansion="0.2"><ellipse cx="4135.67" cy="3178.5" rx="2.9559" ry="2.9559" layerid="8" stroke-width="0" c_padid="gge14372" /><ellipse cx="4135.67" cy="3178.5" rx="2.7559" ry="2.7559" stroke-width="0" /><circle c_padhole="1" cx="4135.6693" cy="3178.5" r="1.378" stroke-width="0" /></g><g c_partid="part_pad" c_etype="pinpart" c_origin="4145,3114.17" layerid="11" number="1" net="R10_1" plated ="Y" c_shapetype="group" id="gge14429" locked="0" c_rotation="90" c_width="6.2992" c_height="6.2992" title="R10_1" c_shape="ELLIPSE" pasteExpansion="0" solderExpansion="0.2"><ellipse cx="4145" cy="3114.17" rx="3.3496" ry="3.3496" layerid="8" stroke-width="0" c_padid="gge14429" /><ellipse cx="4145" cy="3114.17" rx="3.1496" ry="3.1496" stroke-width="0" /><circle c_padhole="1" cx="4144.9995" cy="3114.1695" r="1.8" stroke-width="0" /></g><g c_partid="part_pad" c_etype="pinpart" c_origin="4145,3072.83" layerid="11" number="2" net="+HDD_2" plated ="Y" c_shapetype="group" id="gge14444" locked="0" c_rotation="90" c_width="6.2992" c_height="6.2992" title="+HDD_2" c_shape="ELLIPSE" pasteExpansion="0" solderExpansion="0.2"><ellipse cx="4145" cy="3072.83" rx="3.3496" ry="3.3496" layerid="8" stroke-width="0" c_padid="gge14444" /><ellipse cx="4145" cy="3072.83" rx="3.1496" ry="3.1496" stroke-width="0" /><circle c_padhole="1" cx="4144.9995" cy="3072.8309" r="1.8" stroke-width="0" /></g><g c_partid="part_pad" c_etype="pinpart" c_origin="4074.33,3168.5" layerid="11" number="1" net="GND" plated ="Y" c_shapetype="group" id="gge14510" locked="0" c_rotation="0" c_width="5.5118" c_height="5.5118" title="GND" c_shape="ELLIPSE" pasteExpansion="0" solderExpansion="0.2"><ellipse cx="4074.33" cy="3168.5" rx="2.9559" ry="2.9559" layerid="8" stroke-width="0" c_padid="gge14510" /><ellipse cx="4074.33" cy="3168.5" rx="2.7559" ry="2.7559" stroke-width="0" /><circle c_padhole="1" cx="4074.3307" cy="3168.5" r="1.378" stroke-width="0" /></g><g c_partid="part_pad" c_etype="pinpart" c_origin="4115.67,3168.5" layerid="11" number="2" net="GPIO24" plated ="Y" c_shapetype="group" id="gge14525" locked="0" c_rotation="0" c_width="5.5118" c_height="5.5118" title="GPIO24" c_shape="ELLIPSE" pasteExpansion="0" solderExpansion="0.2"><ellipse cx="4115.67" cy="3168.5" rx="2.9559" ry="2.9559" layerid="8" stroke-width="0" c_padid="gge14525" /><ellipse cx="4115.67" cy="3168.5" rx="2.7559" ry="2.7559" stroke-width="0" /><circle c_padhole="1" cx="4115.6693" cy="3168.5" r="1.378" stroke-width="0" /></g><g c_partid="part_pad" c_etype="pinpart" c_origin="4125,3114.17" layerid="11" number="1" net="R12_1" plated ="Y" c_shapetype="group" id="gge14582" locked="0" c_rotation="90" c_width="6.2992" c_height="6.2992" title="R12_1" c_shape="ELLIPSE" pasteExpansion="0" solderExpansion="0.2"><ellipse cx="4125" cy="3114.17" rx="3.3496" ry="3.3496" layerid="8" stroke-width="0" c_padid="gge14582" /><ellipse cx="4125" cy="3114.17" rx="3.1496" ry="3.1496" stroke-width="0" /><circle c_padhole="1" cx="4124.9995" cy="3114.1695" r="1.8" stroke-width="0" /></g><g c_partid="part_pad" c_etype="pinpart" c_origin="4125,3072.83" layerid="11" number="2" net="+LED_2" plated ="Y" c_shapetype="group" id="gge14597" locked="0" c_rotation="90" c_width="6.2992" c_height="6.2992" title="+LED_2" c_shape="ELLIPSE" pasteExpansion="0" solderExpansion="0.2"><ellipse cx="4125" cy="3072.83" rx="3.3496" ry="3.3496" layerid="8" stroke-width="0" c_padid="gge14597" /><ellipse cx="4125" cy="3072.83" rx="3.1496" ry="3.1496" stroke-width="0" /><circle c_padhole="1" cx="4124.9995" cy="3072.8309" r="1.8" stroke-width="0" /></g><g c_partid="part_pad" c_etype="pinpart" c_origin="4095,3159.17" layerid="11" number="1" net="GND" plated ="Y" c_shapetype="group" id="gge14654" locked="0" c_rotation="90" c_width="6.2992" c_height="6.2992" title="GND" c_shape="ELLIPSE" pasteExpansion="0" solderExpansion="0.2"><ellipse cx="4095" cy="3159.17" rx="3.3496" ry="3.3496" layerid="8" stroke-width="0" c_padid="gge14654" /><ellipse cx="4095" cy="3159.17" rx="3.1496" ry="3.1496" stroke-width="0" /><circle c_padhole="1" cx="4094.9995" cy="3159.1695" r="1.8" stroke-width="0" /></g><g c_partid="part_pad" c_etype="pinpart" c_origin="4095,3117.83" layerid="11" number="2" net="R13_2" plated ="Y" c_shapetype="group" id="gge14669" locked="0" c_rotation="90" c_width="6.2992" c_height="6.2992" title="R13_2" c_shape="ELLIPSE" pasteExpansion="0" solderExpansion="0.2"><ellipse cx="4095" cy="3117.83" rx="3.3496" ry="3.3496" layerid="8" stroke-width="0" c_padid="gge14669" /><ellipse cx="4095" cy="3117.83" rx="3.1496" ry="3.1496" stroke-width="0" /><circle c_padhole="1" cx="4094.9995" cy="3117.8309" r="1.8" stroke-width="0" /></g><g c_partid="part_pad" c_etype="pinpart" c_origin="4075,3159.17" layerid="11" number="1" net="GND" plated ="Y" c_shapetype="group" id="gge14726" locked="0" c_rotation="90" c_width="6.2992" c_height="6.2992" title="GND" c_shape="ELLIPSE" pasteExpansion="0" solderExpansion="0.2"><ellipse cx="4075" cy="3159.17" rx="3.3496" ry="3.3496" layerid="8" stroke-width="0" c_padid="gge14726" /><ellipse cx="4075" cy="3159.17" rx="3.1496" ry="3.1496" stroke-width="0" /><circle c_padhole="1" cx="4074.9995" cy="3159.1695" r="1.8" stroke-width="0" /></g><g c_partid="part_pad" c_etype="pinpart" c_origin="4075,3117.83" layerid="11" number="2" net="R14_2" plated ="Y" c_shapetype="group" id="gge14741" locked="0" c_rotation="90" c_width="6.2992" c_height="6.2992" title="R14_2" c_shape="ELLIPSE" pasteExpansion="0" solderExpansion="0.2"><ellipse cx="4075" cy="3117.83" rx="3.3496" ry="3.3496" layerid="8" stroke-width="0" c_padid="gge14741" /><ellipse cx="4075" cy="3117.83" rx="3.1496" ry="3.1496" stroke-width="0" /><circle c_padhole="1" cx="4074.9995" cy="3117.8309" r="1.8" stroke-width="0" /></g><g c_partid="part_pad" c_etype="pinpart" c_origin="4085,3063.5" layerid="11" number="1" net="RST_1" plated ="Y" c_shapetype="group" id="gge14792" locked="0" c_rotation="0" c_width="6.6929" c_height="6.6929" title="RST_1" c_shape="ELLIPSE" pasteExpansion="0" solderExpansion="0.2"><ellipse cx="4085" cy="3063.5" rx="3.54645" ry="3.54645" layerid="8" stroke-width="0" c_padid="gge14792" /><ellipse cx="4085" cy="3063.5" rx="3.34645" ry="3.34645" stroke-width="0" /><circle c_padhole="1" cx="4085" cy="3063.5" r="2.1654" stroke-width="0" /></g><g c_partid="part_pad" c_etype="pinpart" c_origin="4095,3063.5" layerid="11" number="2" net="RST_2" plated ="Y" c_shapetype="group" id="gge14807" locked="0" c_rotation="0" c_width="6.6929" c_height="6.6929" title="RST_2" c_shape="ELLIPSE" pasteExpansion="0" solderExpansion="0.2"><ellipse cx="4095" cy="3063.5" rx="3.54645" ry="3.54645" layerid="8" stroke-width="0" c_padid="gge14807" /><ellipse cx="4095" cy="3063.5" rx="3.34645" ry="3.34645" stroke-width="0" /><circle c_padhole="1" cx="4095" cy="3063.5" r="2.1654" stroke-width="0" /></g><g c_partid="part_pad" c_etype="pinpart" c_origin="4075.02,3108.9" layerid="11" number="2" net="R14_2" plated ="Y" c_shapetype="group" id="gge14894" locked="0" c_rotation="90" c_width="7.0866" c_height="7.0866" title="R14_2" c_shape="ELLIPSE" pasteExpansion="0" solderExpansion="0.2"><ellipse cx="4075.02" cy="3108.9" rx="3.7433" ry="3.7433" layerid="8" stroke-width="0" c_padid="gge14894" /><ellipse cx="4075.02" cy="3108.9" rx="3.5433" ry="3.5433" stroke-width="0" /><circle c_padhole="1" cx="4075.0198" cy="3108.8965" r="1.9685" stroke-width="0" /></g><g c_partid="part_pad" c_etype="pinpart" c_origin="4074.98,3078.07" layerid="11" number="3" net="PWR_2" plated ="Y" c_shapetype="group" id="gge14909" locked="0" c_rotation="90" c_width="7.0866" c_height="7.0866" title="PWR_2" c_shape="ELLIPSE" pasteExpansion="0" solderExpansion="0.2"><ellipse cx="4074.98" cy="3078.07" rx="3.7433" ry="3.7433" layerid="8" stroke-width="0" c_padid="gge14909" /><ellipse cx="4074.98" cy="3078.07" rx="3.5433" ry="3.5433" stroke-width="0" /><circle c_padhole="1" cx="4074.9804" cy="3078.0697" r="1.9685" stroke-width="0" /></g><g c_partid="part_pad" c_etype="pinpart" c_origin="4064.98,3078.07" layerid="11" number="4" net="PWR_1" plated ="Y" c_shapetype="group" id="gge14924" locked="0" c_rotation="90" c_width="7.0866" c_height="7.0866" title="PWR_1" c_shape="ELLIPSE" pasteExpansion="0" solderExpansion="0.2"><ellipse cx="4064.98" cy="3078.07" rx="3.7433" ry="3.7433" layerid="8" stroke-width="0" c_padid="gge14924" /><ellipse cx="4064.98" cy="3078.07" rx="3.5433" ry="3.5433" stroke-width="0" /><circle c_padhole="1" cx="4064.9801" cy="3078.0697" r="1.9685" stroke-width="0" /></g><g c_partid="part_pad" c_etype="pinpart" c_origin="4065.02,3108.94" layerid="11" number="1" net="GPIO23" plated ="Y" c_shapetype="group" id="gge14939" locked="0" c_rotation="180" c_width="7.0866" c_height="7.0866" title="GPIO23" c_shape="RECT" pasteExpansion="0" solderExpansion="0.2"><polygon points="4068.563 3112.479 4061.477 3112.479 4061.477 3105.392 4068.563 3105.392" layerid="8" stroke-width="0.4" c_padid="gge14939" /><polygon points="4068.563 3112.479 4061.477 3112.479 4061.477 3105.392 4068.563 3105.392" stroke-width="0" /><circle c_padhole="1" cx="4065.02" cy="3108.9354" r="1.9685" stroke-width="0" /></g><g c_partid="part_pad" c_etype="pinpart" c_origin="4095.02,3108.9" layerid="11" number="2" net="R13_2" plated ="Y" c_shapetype="group" id="gge15026" locked="0" c_rotation="90" c_width="7.0866" c_height="7.0866" title="R13_2" c_shape="ELLIPSE" pasteExpansion="0" solderExpansion="0.2"><ellipse cx="4095.02" cy="3108.9" rx="3.7433" ry="3.7433" layerid="8" stroke-width="0" c_padid="gge15026" /><ellipse cx="4095.02" cy="3108.9" rx="3.5433" ry="3.5433" stroke-width="0" /><circle c_padhole="1" cx="4095.0198" cy="3108.8965" r="1.9685" stroke-width="0" /></g><g c_partid="part_pad" c_etype="pinpart" c_origin="4094.98,3078.07" layerid="11" number="3" net="RST_2" plated ="Y" c_shapetype="group" id="gge15041" locked="0" c_rotation="90" c_width="7.0866" c_height="7.0866" title="RST_2" c_shape="ELLIPSE" pasteExpansion="0" solderExpansion="0.2"><ellipse cx="4094.98" cy="3078.07" rx="3.7433" ry="3.7433" layerid="8" stroke-width="0" c_padid="gge15041" /><ellipse cx="4094.98" cy="3078.07" rx="3.5433" ry="3.5433" stroke-width="0" /><circle c_padhole="1" cx="4094.9804" cy="3078.0697" r="1.9685" stroke-width="0" /></g><g c_partid="part_pad" c_etype="pinpart" c_origin="4084.98,3078.07" layerid="11" number="4" net="RST_1" plated ="Y" c_shapetype="group" id="gge15056" locked="0" c_rotation="90" c_width="7.0866" c_height="7.0866" title="RST_1" c_shape="ELLIPSE" pasteExpansion="0" solderExpansion="0.2"><ellipse cx="4084.98" cy="3078.07" rx="3.7433" ry="3.7433" layerid="8" stroke-width="0" c_padid="gge15056" /><ellipse cx="4084.98" cy="3078.07" rx="3.5433" ry="3.5433" stroke-width="0" /><circle c_padhole="1" cx="4084.9801" cy="3078.0697" r="1.9685" stroke-width="0" /></g><g c_partid="part_pad" c_etype="pinpart" c_origin="4085.02,3108.94" layerid="11" number="1" net="GPIO27" plated ="Y" c_shapetype="group" id="gge15071" locked="0" c_rotation="180" c_width="7.0866" c_height="7.0866" title="GPIO27" c_shape="RECT" pasteExpansion="0" solderExpansion="0.2"><polygon points="4088.563 3112.479 4081.477 3112.479 4081.477 3105.392 4088.563 3105.392" layerid="8" stroke-width="0.4" c_padid="gge15071" /><polygon points="4088.563 3112.479 4081.477 3112.479 4081.477 3105.392 4088.563 3105.392" stroke-width="0" /><circle c_padhole="1" cx="4085.02" cy="3108.9354" r="1.9685" stroke-width="0" /></g><g c_partid="part_pad" c_etype="pinpart" c_origin="4109.98,3123.11" layerid="11" number="2" net="+LED_1" plated ="Y" c_shapetype="group" id="gge15158" locked="0" c_rotation="270" c_width="7.0866" c_height="7.0866" title="+LED_1" c_shape="ELLIPSE" pasteExpansion="0" solderExpansion="0.2"><ellipse cx="4109.98" cy="3123.11" rx="3.7433" ry="3.7433" layerid="8" stroke-width="0" c_padid="gge15158" /><ellipse cx="4109.98" cy="3123.11" rx="3.5433" ry="3.5433" stroke-width="0" /><circle c_padhole="1" cx="4109.9798" cy="3123.1083" r="1.9685" stroke-width="0" /></g><g c_partid="part_pad" c_etype="pinpart" c_origin="4110.02,3153.94" layerid="11" number="3" net="GPIO24" plated ="Y" c_shapetype="group" id="gge15173" locked="0" c_rotation="270" c_width="7.0866" c_height="7.0866" title="GPIO24" c_shape="ELLIPSE" pasteExpansion="0" solderExpansion="0.2"><ellipse cx="4110.02" cy="3153.94" rx="3.7433" ry="3.7433" layerid="8" stroke-width="0" c_padid="gge15173" /><ellipse cx="4110.02" cy="3153.94" rx="3.5433" ry="3.5433" stroke-width="0" /><circle c_padhole="1" cx="4110.0192" cy="3153.9351" r="1.9685" stroke-width="0" /></g><g c_partid="part_pad" c_etype="pinpart" c_origin="4120.02,3153.94" layerid="11" number="4" net="VCC" plated ="Y" c_shapetype="group" id="gge15188" locked="0" c_rotation="270" c_width="7.0866" c_height="7.0866" title="VCC" c_shape="ELLIPSE" pasteExpansion="0" solderExpansion="0.2"><ellipse cx="4120.02" cy="3153.94" rx="3.7433" ry="3.7433" layerid="8" stroke-width="0" c_padid="gge15188" /><ellipse cx="4120.02" cy="3153.94" rx="3.5433" ry="3.5433" stroke-width="0" /><circle c_padhole="1" cx="4120.0195" cy="3153.9351" r="1.9685" stroke-width="0" /></g><g c_partid="part_pad" c_etype="pinpart" c_origin="4119.98,3123.07" layerid="11" number="1" net="R12_1" plated ="Y" c_shapetype="group" id="gge15203" locked="0" c_rotation="0" c_width="7.0866" c_height="7.0866" title="R12_1" c_shape="RECT" pasteExpansion="0" solderExpansion="0.2"><polygon points="4116.436 3119.526 4123.523 3119.526 4123.523 3126.613 4116.436 3126.613" layerid="8" stroke-width="0.4" c_padid="gge15203" /><polygon points="4116.436 3119.526 4123.523 3119.526 4123.523 3126.613 4116.436 3126.613" stroke-width="0" /><circle c_padhole="1" cx="4119.9796" cy="3123.0694" r="1.9685" stroke-width="0" /></g><g c_partid="part_pad" c_etype="pinpart" c_origin="4134.98,3123.11" layerid="11" number="2" net="+HDD_1" plated ="Y" c_shapetype="group" id="gge15293" locked="0" c_rotation="270" c_width="7.0866" c_height="7.0866" title="+HDD_1" c_shape="ELLIPSE" pasteExpansion="0" solderExpansion="0.2"><ellipse cx="4134.98" cy="3123.11" rx="3.7433" ry="3.7433" layerid="8" stroke-width="0" c_padid="gge15293" /><ellipse cx="4134.98" cy="3123.11" rx="3.5433" ry="3.5433" stroke-width="0" /><circle c_padhole="1" cx="4134.9798" cy="3123.1083" r="1.9685" stroke-width="0" /></g><g c_partid="part_pad" c_etype="pinpart" c_origin="4135.02,3153.94" layerid="11" number="3" net="GPIO22" plated ="Y" c_shapetype="group" id="gge15308" locked="0" c_rotation="270" c_width="7.0866" c_height="7.0866" title="GPIO22" c_shape="ELLIPSE" pasteExpansion="0" solderExpansion="0.2"><ellipse cx="4135.02" cy="3153.94" rx="3.7433" ry="3.7433" layerid="8" stroke-width="0" c_padid="gge15308" /><ellipse cx="4135.02" cy="3153.94" rx="3.5433" ry="3.5433" stroke-width="0" /><circle c_padhole="1" cx="4135.0192" cy="3153.9351" r="1.9685" stroke-width="0" /></g><g c_partid="part_pad" c_etype="pinpart" c_origin="4145.02,3153.94" layerid="11" number="4" net="VCC" plated ="Y" c_shapetype="group" id="gge15323" locked="0" c_rotation="270" c_width="7.0866" c_height="7.0866" title="VCC" c_shape="ELLIPSE" pasteExpansion="0" solderExpansion="0.2"><ellipse cx="4145.02" cy="3153.94" rx="3.7433" ry="3.7433" layerid="8" stroke-width="0" c_padid="gge15323" /><ellipse cx="4145.02" cy="3153.94" rx="3.5433" ry="3.5433" stroke-width="0" /><circle c_padhole="1" cx="4145.0195" cy="3153.9351" r="1.9685" stroke-width="0" /></g><g c_partid="part_pad" c_etype="pinpart" c_origin="4144.98,3123.07" layerid="11" number="1" net="R10_1" plated ="Y" c_shapetype="group" id="gge15338" locked="0" c_rotation="0" c_width="7.0866" c_height="7.0866" title="R10_1" c_shape="RECT" pasteExpansion="0" solderExpansion="0.2"><polygon points="4141.436 3119.526 4148.523 3119.526 4148.523 3126.613 4141.436 3126.613" layerid="8" stroke-width="0.4" c_padid="gge15338" /><polygon points="4141.436 3119.526 4148.523 3119.526 4148.523 3126.613 4141.436 3126.613" stroke-width="0" /><circle c_padhole="1" cx="4144.9796" cy="3123.0694" r="1.9685" stroke-width="0" /></g><g c_partid="part_hole" c_etype="pinpart" c_shapetype="group" c_origin="4115,3193.5" layerid="11" id="gge6982" ><circle cx="4115" cy="3193.5" r="5.4134"   stroke-width="0" /></g><polyline points="4055 3195.981 4055 3058.501" stroke-width="1" c_shapetype="line" stroke-linecap="round" fill="none" layerid="10" net="" id="gge9142" /><polyline points="4145 3205.981 4065 3205.981" stroke-width="1" c_shapetype="line" stroke-linecap="round" fill="none" layerid="10" net="" id="gge9136" /><polyline points="4155 3058.501 4155 3195.981" stroke-width="1" c_shapetype="line" stroke-linecap="round" fill="none" layerid="10" net="" id="gge9130" /><polyline points="4065 3048.501 4145 3048.501" stroke-width="1" c_shapetype="line" stroke-linecap="round" fill="none" layerid="10" net="" id="gge9124" /><path d="M4144.99975 3048.50075A10 10 0 0 1 4154.9997 3058.50073" c_shapetype="line" fill="none" stroke-width="1" c_helper_type="arc2" net="" layerid="10" id="gge9127" /><path d="M4154.9997 3195.98077A10 10 0 0 1 4144.99975 3205.98075" c_shapetype="line" fill="none" stroke-width="1" c_helper_type="arc2" net="" layerid="10" id="gge9133" /><path d="M4064.99991 3205.98075A10 10 0 0 1 4054.99993 3195.98077" c_shapetype="line" fill="none" stroke-width="1" c_helper_type="arc2" net="" layerid="10" id="gge9139" /><path d="M4054.99993 3058.50073A10 10 0 0 1 4064.99991 3048.50075" c_shapetype="line" fill="none" stroke-width="1" c_helper_type="arc2" net="" layerid="10" id="gge9145" /></g></svg>